%TF.GenerationSoftware,KiCad,Pcbnew,9.0.7*%
%TF.CreationDate,2026-03-11T18:13:02+04:00*%
%TF.ProjectId,L3M0N Devboard,4c334d30-4e20-4446-9576-626f6172642e,rev?*%
%TF.SameCoordinates,Original*%
%TF.FileFunction,Soldermask,Top*%
%TF.FilePolarity,Negative*%
%FSLAX46Y46*%
G04 Gerber Fmt 4.6, Leading zero omitted, Abs format (unit mm)*
G04 Created by KiCad (PCBNEW 9.0.7) date 2026-03-11 18:13:02*
%MOMM*%
%LPD*%
G01*
G04 APERTURE LIST*
G04 Aperture macros list*
%AMRoundRect*
0 Rectangle with rounded corners*
0 $1 Rounding radius*
0 $2 $3 $4 $5 $6 $7 $8 $9 X,Y pos of 4 corners*
0 Add a 4 corners polygon primitive as box body*
4,1,4,$2,$3,$4,$5,$6,$7,$8,$9,$2,$3,0*
0 Add four circle primitives for the rounded corners*
1,1,$1+$1,$2,$3*
1,1,$1+$1,$4,$5*
1,1,$1+$1,$6,$7*
1,1,$1+$1,$8,$9*
0 Add four rect primitives between the rounded corners*
20,1,$1+$1,$2,$3,$4,$5,0*
20,1,$1+$1,$4,$5,$6,$7,0*
20,1,$1+$1,$6,$7,$8,$9,0*
20,1,$1+$1,$8,$9,$2,$3,0*%
G04 Aperture macros list end*
%ADD10RoundRect,0.140000X0.170000X-0.140000X0.170000X0.140000X-0.170000X0.140000X-0.170000X-0.140000X0*%
%ADD11RoundRect,0.135000X-0.185000X0.135000X-0.185000X-0.135000X0.185000X-0.135000X0.185000X0.135000X0*%
%ADD12RoundRect,0.135000X0.135000X0.185000X-0.135000X0.185000X-0.135000X-0.185000X0.135000X-0.185000X0*%
%ADD13RoundRect,0.140000X-0.140000X-0.170000X0.140000X-0.170000X0.140000X0.170000X-0.140000X0.170000X0*%
%ADD14RoundRect,0.050000X-0.387500X-0.050000X0.387500X-0.050000X0.387500X0.050000X-0.387500X0.050000X0*%
%ADD15RoundRect,0.050000X-0.050000X-0.387500X0.050000X-0.387500X0.050000X0.387500X-0.050000X0.387500X0*%
%ADD16R,3.200000X3.200000*%
%ADD17RoundRect,0.140000X-0.170000X0.140000X-0.170000X-0.140000X0.170000X-0.140000X0.170000X0.140000X0*%
%ADD18RoundRect,0.140000X0.140000X0.170000X-0.140000X0.170000X-0.140000X-0.170000X0.140000X-0.170000X0*%
%ADD19RoundRect,0.150000X0.150000X-0.587500X0.150000X0.587500X-0.150000X0.587500X-0.150000X-0.587500X0*%
%ADD20C,0.650000*%
%ADD21R,0.600000X1.450000*%
%ADD22R,0.300000X1.450000*%
%ADD23O,1.000000X2.100000*%
%ADD24O,1.000000X1.600000*%
%ADD25RoundRect,0.250000X0.450000X0.350000X-0.450000X0.350000X-0.450000X-0.350000X0.450000X-0.350000X0*%
%ADD26RoundRect,0.225000X0.225000X0.250000X-0.225000X0.250000X-0.225000X-0.250000X0.225000X-0.250000X0*%
%ADD27RoundRect,0.140000X0.021213X-0.219203X0.219203X-0.021213X-0.021213X0.219203X-0.219203X0.021213X0*%
%ADD28RoundRect,0.062500X-0.387500X-0.062500X0.387500X-0.062500X0.387500X0.062500X-0.387500X0.062500X0*%
%ADD29R,0.200000X1.600000*%
%ADD30RoundRect,0.200000X-0.800000X0.200000X-0.800000X-0.200000X0.800000X-0.200000X0.800000X0.200000X0*%
%ADD31R,1.700000X1.700000*%
%ADD32C,1.700000*%
G04 APERTURE END LIST*
D10*
%TO.C,C4*%
X132470000Y-80200000D03*
X132470000Y-79240000D03*
%TD*%
D11*
%TO.C,R3*%
X130150000Y-78750000D03*
X130150000Y-79770000D03*
%TD*%
D10*
%TO.C,C6*%
X129510000Y-77010000D03*
X129510000Y-76050000D03*
%TD*%
%TO.C,C12*%
X131280000Y-79830000D03*
X131280000Y-78870000D03*
%TD*%
D12*
%TO.C,R6*%
X124630000Y-74960000D03*
X123610000Y-74960000D03*
%TD*%
D13*
%TO.C,C7*%
X132960000Y-81210000D03*
X133920000Y-81210000D03*
%TD*%
D14*
%TO.C,U2*%
X125067500Y-82115000D03*
X125067500Y-82515000D03*
X125067500Y-82915000D03*
X125067500Y-83315000D03*
X125067500Y-83715000D03*
X125067500Y-84115000D03*
X125067500Y-84515000D03*
X125067500Y-84915000D03*
X125067500Y-85315000D03*
X125067500Y-85715000D03*
X125067500Y-86115000D03*
X125067500Y-86515000D03*
X125067500Y-86915000D03*
X125067500Y-87315000D03*
D15*
X125905000Y-88152500D03*
X126305000Y-88152500D03*
X126705000Y-88152500D03*
X127105000Y-88152500D03*
X127505000Y-88152500D03*
X127905000Y-88152500D03*
X128305000Y-88152500D03*
X128705000Y-88152500D03*
X129105000Y-88152500D03*
X129505000Y-88152500D03*
X129905000Y-88152500D03*
X130305000Y-88152500D03*
X130705000Y-88152500D03*
X131105000Y-88152500D03*
D14*
X131942500Y-87315000D03*
X131942500Y-86915000D03*
X131942500Y-86515000D03*
X131942500Y-86115000D03*
X131942500Y-85715000D03*
X131942500Y-85315000D03*
X131942500Y-84915000D03*
X131942500Y-84515000D03*
X131942500Y-84115000D03*
X131942500Y-83715000D03*
X131942500Y-83315000D03*
X131942500Y-82915000D03*
X131942500Y-82515000D03*
X131942500Y-82115000D03*
D15*
X131105000Y-81277500D03*
X130705000Y-81277500D03*
X130305000Y-81277500D03*
X129905000Y-81277500D03*
X129505000Y-81277500D03*
X129105000Y-81277500D03*
X128705000Y-81277500D03*
X128305000Y-81277500D03*
X127905000Y-81277500D03*
X127505000Y-81277500D03*
X127105000Y-81277500D03*
X126705000Y-81277500D03*
X126305000Y-81277500D03*
X125905000Y-81277500D03*
D16*
X128505000Y-84715000D03*
%TD*%
D11*
%TO.C,R1*%
X129900000Y-63530000D03*
X129900000Y-64550000D03*
%TD*%
D17*
%TO.C,C5*%
X130260000Y-90630000D03*
X130260000Y-91590000D03*
%TD*%
D10*
%TO.C,C11*%
X128510000Y-77020000D03*
X128510000Y-76060000D03*
%TD*%
D12*
%TO.C,R5*%
X129280000Y-90440000D03*
X128260000Y-90440000D03*
%TD*%
D17*
%TO.C,C10*%
X131370000Y-90630000D03*
X131370000Y-91590000D03*
%TD*%
D18*
%TO.C,C17*%
X126500000Y-74930000D03*
X125540000Y-74930000D03*
%TD*%
D11*
%TO.C,R2*%
X127540000Y-63620000D03*
X127540000Y-64640000D03*
%TD*%
D13*
%TO.C,C2*%
X134180000Y-85770000D03*
X135140000Y-85770000D03*
%TD*%
D19*
%TO.C,U1*%
X125040000Y-68270000D03*
X126940000Y-68270000D03*
X125990000Y-66395000D03*
%TD*%
D20*
%TO.C,J1*%
X131395000Y-60315000D03*
X125615000Y-60315000D03*
D21*
X131755000Y-61760000D03*
X130955000Y-61760000D03*
D22*
X129755000Y-61760000D03*
X128755000Y-61760000D03*
X128255000Y-61760000D03*
X127255000Y-61760000D03*
D21*
X126055000Y-61760000D03*
X125255000Y-61760000D03*
X125255000Y-61760000D03*
X126055000Y-61760000D03*
D22*
X126755000Y-61760000D03*
X127755000Y-61760000D03*
X129255000Y-61760000D03*
X130255000Y-61760000D03*
D21*
X130955000Y-61760000D03*
X131755000Y-61760000D03*
D23*
X132825000Y-60845000D03*
D24*
X132825000Y-56665000D03*
D23*
X124185000Y-60845000D03*
D24*
X124185000Y-56665000D03*
%TD*%
D25*
%TO.C,Y1*%
X128700000Y-91900000D03*
X126500000Y-91900000D03*
X126500000Y-93600000D03*
X128700000Y-93600000D03*
%TD*%
D26*
%TO.C,C14*%
X126820000Y-70510000D03*
X125270000Y-70510000D03*
%TD*%
D11*
%TO.C,R4*%
X129150000Y-78750000D03*
X129150000Y-79770000D03*
%TD*%
D12*
%TO.C,R7*%
X131870000Y-71450000D03*
X130850000Y-71450000D03*
%TD*%
D10*
%TO.C,C16*%
X130250000Y-93560000D03*
X130250000Y-92600000D03*
%TD*%
D27*
%TO.C,C9*%
X133600589Y-80119411D03*
X134279411Y-79440589D03*
%TD*%
D10*
%TO.C,C8*%
X130520000Y-76200000D03*
X130520000Y-75240000D03*
%TD*%
%TO.C,C15*%
X125010000Y-93210000D03*
X125010000Y-92250000D03*
%TD*%
D26*
%TO.C,C13*%
X125680000Y-63840000D03*
X124130000Y-63840000D03*
%TD*%
D28*
%TO.C,U3*%
X123610000Y-76030000D03*
X123610000Y-76530000D03*
X123610000Y-77030000D03*
X123610000Y-77530000D03*
X126460000Y-77530000D03*
X126460000Y-77030000D03*
X126460000Y-76530000D03*
X126460000Y-76030000D03*
D29*
X125035000Y-76780000D03*
%TD*%
D18*
%TO.C,C1*%
X123710000Y-85940000D03*
X122750000Y-85940000D03*
%TD*%
D30*
%TO.C,SW1*%
X131430000Y-65900000D03*
X131430000Y-70100000D03*
%TD*%
D18*
%TO.C,C3*%
X124240000Y-81180000D03*
X123280000Y-81180000D03*
%TD*%
D31*
%TO.C,J3*%
X137395000Y-56585000D03*
D32*
X137395000Y-59125000D03*
X137395000Y-61665000D03*
X137395000Y-64205000D03*
X137395000Y-66745000D03*
X137395000Y-69285000D03*
X137395000Y-71825000D03*
X137395000Y-74365000D03*
X137395000Y-76905000D03*
X137395000Y-79445000D03*
X137395000Y-81985000D03*
X137395000Y-84525000D03*
X137395000Y-87065000D03*
X137395000Y-89605000D03*
X137395000Y-92145000D03*
X137395000Y-94685000D03*
X137395000Y-97225000D03*
X137395000Y-99765000D03*
X137395000Y-102305000D03*
X137395000Y-104845000D03*
%TD*%
D31*
%TO.C,J2*%
X119615000Y-56585000D03*
D32*
X119615000Y-59125000D03*
X119615000Y-61665000D03*
X119615000Y-64205000D03*
X119615000Y-66745000D03*
X119615000Y-69285000D03*
X119615000Y-71825000D03*
X119615000Y-74365000D03*
X119615000Y-76905000D03*
X119615000Y-79445000D03*
X119615000Y-81985000D03*
X119615000Y-84525000D03*
X119615000Y-87065000D03*
X119615000Y-89605000D03*
X119615000Y-92145000D03*
X119615000Y-94685000D03*
X119615000Y-97225000D03*
X119615000Y-99765000D03*
X119615000Y-102305000D03*
X119615000Y-104845000D03*
%TD*%
D31*
%TO.C,J4*%
X125965000Y-104605000D03*
D32*
X128505000Y-104605000D03*
X131045000Y-104605000D03*
%TD*%
M02*
