%TF.GenerationSoftware,KiCad,Pcbnew,9.0.7*%
%TF.CreationDate,2026-03-11T18:13:02+04:00*%
%TF.ProjectId,L3M0N Devboard,4c334d30-4e20-4446-9576-626f6172642e,rev?*%
%TF.SameCoordinates,Original*%
%TF.FileFunction,Soldermask,Bot*%
%TF.FilePolarity,Negative*%
%FSLAX46Y46*%
G04 Gerber Fmt 4.6, Leading zero omitted, Abs format (unit mm)*
G04 Created by KiCad (PCBNEW 9.0.7) date 2026-03-11 18:13:02*
%MOMM*%
%LPD*%
G01*
G04 APERTURE LIST*
%ADD10C,0.650000*%
%ADD11O,1.000000X2.100000*%
%ADD12O,1.000000X1.600000*%
%ADD13R,1.700000X1.700000*%
%ADD14C,1.700000*%
G04 APERTURE END LIST*
D10*
%TO.C,J1*%
X131395000Y-60315000D03*
X125615000Y-60315000D03*
D11*
X132825000Y-60845000D03*
D12*
X132825000Y-56665000D03*
D11*
X124185000Y-60845000D03*
D12*
X124185000Y-56665000D03*
%TD*%
D13*
%TO.C,J3*%
X137395000Y-56585000D03*
D14*
X137395000Y-59125000D03*
X137395000Y-61665000D03*
X137395000Y-64205000D03*
X137395000Y-66745000D03*
X137395000Y-69285000D03*
X137395000Y-71825000D03*
X137395000Y-74365000D03*
X137395000Y-76905000D03*
X137395000Y-79445000D03*
X137395000Y-81985000D03*
X137395000Y-84525000D03*
X137395000Y-87065000D03*
X137395000Y-89605000D03*
X137395000Y-92145000D03*
X137395000Y-94685000D03*
X137395000Y-97225000D03*
X137395000Y-99765000D03*
X137395000Y-102305000D03*
X137395000Y-104845000D03*
%TD*%
D13*
%TO.C,J2*%
X119615000Y-56585000D03*
D14*
X119615000Y-59125000D03*
X119615000Y-61665000D03*
X119615000Y-64205000D03*
X119615000Y-66745000D03*
X119615000Y-69285000D03*
X119615000Y-71825000D03*
X119615000Y-74365000D03*
X119615000Y-76905000D03*
X119615000Y-79445000D03*
X119615000Y-81985000D03*
X119615000Y-84525000D03*
X119615000Y-87065000D03*
X119615000Y-89605000D03*
X119615000Y-92145000D03*
X119615000Y-94685000D03*
X119615000Y-97225000D03*
X119615000Y-99765000D03*
X119615000Y-102305000D03*
X119615000Y-104845000D03*
%TD*%
D13*
%TO.C,J4*%
X125965000Y-104605000D03*
D14*
X128505000Y-104605000D03*
X131045000Y-104605000D03*
%TD*%
M02*
