%TF.GenerationSoftware,KiCad,Pcbnew,9.0.7*%
%TF.CreationDate,2026-03-20T18:52:06+04:00*%
%TF.ProjectId,L3M0N Devboard,4c334d30-4e20-4446-9576-626f6172642e,rev?*%
%TF.SameCoordinates,Original*%
%TF.FileFunction,Copper,L1,Top*%
%TF.FilePolarity,Positive*%
%FSLAX46Y46*%
G04 Gerber Fmt 4.6, Leading zero omitted, Abs format (unit mm)*
G04 Created by KiCad (PCBNEW 9.0.7) date 2026-03-20 18:52:06*
%MOMM*%
%LPD*%
G01*
G04 APERTURE LIST*
G04 Aperture macros list*
%AMRoundRect*
0 Rectangle with rounded corners*
0 $1 Rounding radius*
0 $2 $3 $4 $5 $6 $7 $8 $9 X,Y pos of 4 corners*
0 Add a 4 corners polygon primitive as box body*
4,1,4,$2,$3,$4,$5,$6,$7,$8,$9,$2,$3,0*
0 Add four circle primitives for the rounded corners*
1,1,$1+$1,$2,$3*
1,1,$1+$1,$4,$5*
1,1,$1+$1,$6,$7*
1,1,$1+$1,$8,$9*
0 Add four rect primitives between the rounded corners*
20,1,$1+$1,$2,$3,$4,$5,0*
20,1,$1+$1,$4,$5,$6,$7,0*
20,1,$1+$1,$6,$7,$8,$9,0*
20,1,$1+$1,$8,$9,$2,$3,0*%
G04 Aperture macros list end*
%TA.AperFunction,SMDPad,CuDef*%
%ADD10RoundRect,0.140000X0.170000X-0.140000X0.170000X0.140000X-0.170000X0.140000X-0.170000X-0.140000X0*%
%TD*%
%TA.AperFunction,SMDPad,CuDef*%
%ADD11RoundRect,0.135000X-0.185000X0.135000X-0.185000X-0.135000X0.185000X-0.135000X0.185000X0.135000X0*%
%TD*%
%TA.AperFunction,SMDPad,CuDef*%
%ADD12RoundRect,0.135000X0.135000X0.185000X-0.135000X0.185000X-0.135000X-0.185000X0.135000X-0.185000X0*%
%TD*%
%TA.AperFunction,SMDPad,CuDef*%
%ADD13RoundRect,0.140000X-0.140000X-0.170000X0.140000X-0.170000X0.140000X0.170000X-0.140000X0.170000X0*%
%TD*%
%TA.AperFunction,SMDPad,CuDef*%
%ADD14RoundRect,0.050000X-0.387500X-0.050000X0.387500X-0.050000X0.387500X0.050000X-0.387500X0.050000X0*%
%TD*%
%TA.AperFunction,SMDPad,CuDef*%
%ADD15RoundRect,0.050000X-0.050000X-0.387500X0.050000X-0.387500X0.050000X0.387500X-0.050000X0.387500X0*%
%TD*%
%TA.AperFunction,HeatsinkPad*%
%ADD16R,3.200000X3.200000*%
%TD*%
%TA.AperFunction,SMDPad,CuDef*%
%ADD17RoundRect,0.140000X-0.170000X0.140000X-0.170000X-0.140000X0.170000X-0.140000X0.170000X0.140000X0*%
%TD*%
%TA.AperFunction,SMDPad,CuDef*%
%ADD18RoundRect,0.140000X0.140000X0.170000X-0.140000X0.170000X-0.140000X-0.170000X0.140000X-0.170000X0*%
%TD*%
%TA.AperFunction,SMDPad,CuDef*%
%ADD19RoundRect,0.150000X0.150000X-0.587500X0.150000X0.587500X-0.150000X0.587500X-0.150000X-0.587500X0*%
%TD*%
%TA.AperFunction,SMDPad,CuDef*%
%ADD20R,0.600000X1.450000*%
%TD*%
%TA.AperFunction,SMDPad,CuDef*%
%ADD21R,0.300000X1.450000*%
%TD*%
%TA.AperFunction,HeatsinkPad*%
%ADD22O,1.000000X2.100000*%
%TD*%
%TA.AperFunction,HeatsinkPad*%
%ADD23O,1.000000X1.600000*%
%TD*%
%TA.AperFunction,SMDPad,CuDef*%
%ADD24RoundRect,0.250000X0.450000X0.350000X-0.450000X0.350000X-0.450000X-0.350000X0.450000X-0.350000X0*%
%TD*%
%TA.AperFunction,SMDPad,CuDef*%
%ADD25RoundRect,0.225000X0.225000X0.250000X-0.225000X0.250000X-0.225000X-0.250000X0.225000X-0.250000X0*%
%TD*%
%TA.AperFunction,SMDPad,CuDef*%
%ADD26RoundRect,0.140000X0.021213X-0.219203X0.219203X-0.021213X-0.021213X0.219203X-0.219203X0.021213X0*%
%TD*%
%TA.AperFunction,SMDPad,CuDef*%
%ADD27RoundRect,0.062500X-0.387500X-0.062500X0.387500X-0.062500X0.387500X0.062500X-0.387500X0.062500X0*%
%TD*%
%TA.AperFunction,HeatsinkPad*%
%ADD28R,0.200000X1.600000*%
%TD*%
%TA.AperFunction,SMDPad,CuDef*%
%ADD29RoundRect,0.200000X-0.800000X0.200000X-0.800000X-0.200000X0.800000X-0.200000X0.800000X0.200000X0*%
%TD*%
%TA.AperFunction,SMDPad,CuDef*%
%ADD30RoundRect,0.237500X-0.287500X-0.237500X0.287500X-0.237500X0.287500X0.237500X-0.287500X0.237500X0*%
%TD*%
%TA.AperFunction,ComponentPad*%
%ADD31R,1.700000X1.700000*%
%TD*%
%TA.AperFunction,ComponentPad*%
%ADD32C,1.700000*%
%TD*%
%TA.AperFunction,ViaPad*%
%ADD33C,0.600000*%
%TD*%
%TA.AperFunction,Conductor*%
%ADD34C,0.200000*%
%TD*%
G04 APERTURE END LIST*
D10*
%TO.P,C4,1*%
%TO.N,+3V3*%
X132470000Y-80200000D03*
%TO.P,C4,2*%
%TO.N,GND*%
X132470000Y-79240000D03*
%TD*%
D11*
%TO.P,R3,1*%
%TO.N,USBD-*%
X130150000Y-78750000D03*
%TO.P,R3,2*%
%TO.N,Net-(U2-USB_DM)*%
X130150000Y-79770000D03*
%TD*%
D10*
%TO.P,C6,1*%
%TO.N,+3V3*%
X129510000Y-77010000D03*
%TO.P,C6,2*%
%TO.N,GND*%
X129510000Y-76050000D03*
%TD*%
%TO.P,C12,1*%
%TO.N,+1V1*%
X131280000Y-79830000D03*
%TO.P,C12,2*%
%TO.N,GND*%
X131280000Y-78870000D03*
%TD*%
D12*
%TO.P,R6,1*%
%TO.N,+3V3*%
X124630000Y-74960000D03*
%TO.P,R6,2*%
%TO.N,QSPI_SS*%
X123610000Y-74960000D03*
%TD*%
D13*
%TO.P,C7,1*%
%TO.N,+3V3*%
X132960000Y-81210000D03*
%TO.P,C7,2*%
%TO.N,GND*%
X133920000Y-81210000D03*
%TD*%
D14*
%TO.P,U2,1,IOVDD*%
%TO.N,+3V3*%
X125067500Y-82115000D03*
%TO.P,U2,2,GPIO0*%
%TO.N,GPIO0*%
X125067500Y-82515000D03*
%TO.P,U2,3,GPIO1*%
%TO.N,GPIO1*%
X125067500Y-82915000D03*
%TO.P,U2,4,GPIO2*%
%TO.N,GPIO2*%
X125067500Y-83315000D03*
%TO.P,U2,5,GPIO3*%
%TO.N,GPIO3*%
X125067500Y-83715000D03*
%TO.P,U2,6,GPIO4*%
%TO.N,GPIO4*%
X125067500Y-84115000D03*
%TO.P,U2,7,GPIO5*%
%TO.N,GPIO5*%
X125067500Y-84515000D03*
%TO.P,U2,8,GPIO6*%
%TO.N,GPIO6*%
X125067500Y-84915000D03*
%TO.P,U2,9,GPIO7*%
%TO.N,GPIO7*%
X125067500Y-85315000D03*
%TO.P,U2,10,IOVDD*%
%TO.N,+3V3*%
X125067500Y-85715000D03*
%TO.P,U2,11,GPIO8*%
%TO.N,GPIO8*%
X125067500Y-86115000D03*
%TO.P,U2,12,GPIO9*%
%TO.N,GPIO9*%
X125067500Y-86515000D03*
%TO.P,U2,13,GPIO10*%
%TO.N,GPIO10*%
X125067500Y-86915000D03*
%TO.P,U2,14,GPIO11*%
%TO.N,GPIO11*%
X125067500Y-87315000D03*
D15*
%TO.P,U2,15,GPIO12*%
%TO.N,GPIO12*%
X125905000Y-88152500D03*
%TO.P,U2,16,GPIO13*%
%TO.N,GPIO13*%
X126305000Y-88152500D03*
%TO.P,U2,17,GPIO14*%
%TO.N,GPIO14*%
X126705000Y-88152500D03*
%TO.P,U2,18,GPIO15*%
%TO.N,GPIO15*%
X127105000Y-88152500D03*
%TO.P,U2,19,TESTEN*%
%TO.N,GND*%
X127505000Y-88152500D03*
%TO.P,U2,20,XIN*%
%TO.N,XIN*%
X127905000Y-88152500D03*
%TO.P,U2,21,XOUT*%
%TO.N,XOUT*%
X128305000Y-88152500D03*
%TO.P,U2,22,IOVDD*%
%TO.N,+3V3*%
X128705000Y-88152500D03*
%TO.P,U2,23,DVDD*%
%TO.N,+1V1*%
X129105000Y-88152500D03*
%TO.P,U2,24,SWCLK*%
%TO.N,SWCLK*%
X129505000Y-88152500D03*
%TO.P,U2,25,SWD*%
%TO.N,SWD*%
X129905000Y-88152500D03*
%TO.P,U2,26,RUN*%
%TO.N,RUN*%
X130305000Y-88152500D03*
%TO.P,U2,27,GPIO16*%
%TO.N,GPIO16*%
X130705000Y-88152500D03*
%TO.P,U2,28,GPIO17*%
%TO.N,GPIO17*%
X131105000Y-88152500D03*
D14*
%TO.P,U2,29,GPIO18*%
%TO.N,GPIO18*%
X131942500Y-87315000D03*
%TO.P,U2,30,GPIO19*%
%TO.N,GPIO19*%
X131942500Y-86915000D03*
%TO.P,U2,31,GPIO20*%
%TO.N,GPIO20*%
X131942500Y-86515000D03*
%TO.P,U2,32,GPIO21*%
%TO.N,GPIO21*%
X131942500Y-86115000D03*
%TO.P,U2,33,IOVDD*%
%TO.N,+3V3*%
X131942500Y-85715000D03*
%TO.P,U2,34,GPIO22*%
%TO.N,GPIO22*%
X131942500Y-85315000D03*
%TO.P,U2,35,GPIO23*%
%TO.N,GPIO23*%
X131942500Y-84915000D03*
%TO.P,U2,36,GPIO24*%
%TO.N,GPIO24*%
X131942500Y-84515000D03*
%TO.P,U2,37,GPIO25*%
%TO.N,GPIO25*%
X131942500Y-84115000D03*
%TO.P,U2,38,GPIO26_ADC0*%
%TO.N,GPIO26_ADC0*%
X131942500Y-83715000D03*
%TO.P,U2,39,GPIO27_ADC1*%
%TO.N,GPIO27_ADC1*%
X131942500Y-83315000D03*
%TO.P,U2,40,GPIO28_ADC2*%
%TO.N,GPIO28_ADC2*%
X131942500Y-82915000D03*
%TO.P,U2,41,GPIO29_ADC3*%
%TO.N,GPIO29_ADC3*%
X131942500Y-82515000D03*
%TO.P,U2,42,IOVDD*%
%TO.N,+3V3*%
X131942500Y-82115000D03*
D15*
%TO.P,U2,43,ADC_AVDD*%
X131105000Y-81277500D03*
%TO.P,U2,44,VREG_IN*%
X130705000Y-81277500D03*
%TO.P,U2,45,VREG_VOUT*%
%TO.N,+1V1*%
X130305000Y-81277500D03*
%TO.P,U2,46,USB_DM*%
%TO.N,Net-(U2-USB_DM)*%
X129905000Y-81277500D03*
%TO.P,U2,47,USB_DP*%
%TO.N,Net-(U2-USB_DP)*%
X129505000Y-81277500D03*
%TO.P,U2,48,USB_VDD*%
%TO.N,+3V3*%
X129105000Y-81277500D03*
%TO.P,U2,49,IOVDD*%
X128705000Y-81277500D03*
%TO.P,U2,50,DVDD*%
%TO.N,+1V1*%
X128305000Y-81277500D03*
%TO.P,U2,51,QSPI_SD3*%
%TO.N,QSPI_SD3*%
X127905000Y-81277500D03*
%TO.P,U2,52,QSPI_SCLK*%
%TO.N,QSPI_SCLK*%
X127505000Y-81277500D03*
%TO.P,U2,53,QSPI_SD0*%
%TO.N,QSPI_SD0*%
X127105000Y-81277500D03*
%TO.P,U2,54,QSPI_SD2*%
%TO.N,QSPI_SD2*%
X126705000Y-81277500D03*
%TO.P,U2,55,QSPI_SD1*%
%TO.N,QSPI_SD1*%
X126305000Y-81277500D03*
%TO.P,U2,56,QSPI_SS*%
%TO.N,QSPI_SS*%
X125905000Y-81277500D03*
D16*
%TO.P,U2,57,GND*%
%TO.N,GND*%
X128505000Y-84715000D03*
%TD*%
D11*
%TO.P,R1,1*%
%TO.N,Net-(J1-CC1)*%
X129900000Y-63530000D03*
%TO.P,R1,2*%
%TO.N,GND*%
X129900000Y-64550000D03*
%TD*%
D17*
%TO.P,C5,1*%
%TO.N,+3V3*%
X130260000Y-90630000D03*
%TO.P,C5,2*%
%TO.N,GND*%
X130260000Y-91590000D03*
%TD*%
D10*
%TO.P,C11,1*%
%TO.N,+1V1*%
X128510000Y-77020000D03*
%TO.P,C11,2*%
%TO.N,GND*%
X128510000Y-76060000D03*
%TD*%
D12*
%TO.P,R5,1*%
%TO.N,Net-(C16-Pad2)*%
X129280000Y-90440000D03*
%TO.P,R5,2*%
%TO.N,XOUT*%
X128260000Y-90440000D03*
%TD*%
D17*
%TO.P,C10,1*%
%TO.N,+1V1*%
X131370000Y-90630000D03*
%TO.P,C10,2*%
%TO.N,GND*%
X131370000Y-91590000D03*
%TD*%
D18*
%TO.P,C17,1*%
%TO.N,+3V3*%
X126500000Y-74930000D03*
%TO.P,C17,2*%
%TO.N,GND*%
X125540000Y-74930000D03*
%TD*%
D11*
%TO.P,R2,1*%
%TO.N,Net-(J1-CC2)*%
X127540000Y-63620000D03*
%TO.P,R2,2*%
%TO.N,GND*%
X127540000Y-64640000D03*
%TD*%
D13*
%TO.P,C2,1*%
%TO.N,+3V3*%
X134180000Y-85770000D03*
%TO.P,C2,2*%
%TO.N,GND*%
X135140000Y-85770000D03*
%TD*%
D19*
%TO.P,U1,1,GND*%
%TO.N,GND*%
X125040000Y-68270000D03*
%TO.P,U1,2,VO*%
%TO.N,+3V3*%
X126940000Y-68270000D03*
%TO.P,U1,3,VI*%
%TO.N,VBUS*%
X125990000Y-66395000D03*
%TD*%
D20*
%TO.P,J1,A1,GND*%
%TO.N,GND*%
X131755000Y-61760000D03*
%TO.P,J1,A4,VBUS*%
%TO.N,VBUS*%
X130955000Y-61760000D03*
D21*
%TO.P,J1,A5,CC1*%
%TO.N,Net-(J1-CC1)*%
X129755000Y-61760000D03*
%TO.P,J1,A6,D+*%
%TO.N,USBD+*%
X128755000Y-61760000D03*
%TO.P,J1,A7,D-*%
%TO.N,USBD-*%
X128255000Y-61760000D03*
%TO.P,J1,A8*%
%TO.N,N/C*%
X127255000Y-61760000D03*
D20*
%TO.P,J1,A9,VBUS*%
%TO.N,VBUS*%
X126055000Y-61760000D03*
%TO.P,J1,A12,GND*%
%TO.N,GND*%
X125255000Y-61760000D03*
%TO.P,J1,B1,GND*%
X125255000Y-61760000D03*
%TO.P,J1,B4,VBUS*%
%TO.N,VBUS*%
X126055000Y-61760000D03*
D21*
%TO.P,J1,B5,CC2*%
%TO.N,Net-(J1-CC2)*%
X126755000Y-61760000D03*
%TO.P,J1,B6,D+*%
%TO.N,USBD+*%
X127755000Y-61760000D03*
%TO.P,J1,B7,D-*%
%TO.N,USBD-*%
X129255000Y-61760000D03*
%TO.P,J1,B8*%
%TO.N,N/C*%
X130255000Y-61760000D03*
D20*
%TO.P,J1,B9,VBUS*%
%TO.N,VBUS*%
X130955000Y-61760000D03*
%TO.P,J1,B12,GND*%
%TO.N,GND*%
X131755000Y-61760000D03*
D22*
%TO.P,J1,S1,SHIELD*%
X132825000Y-60845000D03*
D23*
X132825000Y-56665000D03*
D22*
X124185000Y-60845000D03*
D23*
X124185000Y-56665000D03*
%TD*%
D24*
%TO.P,Y1,1,1*%
%TO.N,Net-(C16-Pad2)*%
X128700000Y-91900000D03*
%TO.P,Y1,2,2*%
%TO.N,GND*%
X126500000Y-91900000D03*
%TO.P,Y1,3,3*%
%TO.N,XIN*%
X126500000Y-93600000D03*
%TO.P,Y1,4,4*%
%TO.N,GND*%
X128700000Y-93600000D03*
%TD*%
D25*
%TO.P,C14,1*%
%TO.N,+3V3*%
X126820000Y-70510000D03*
%TO.P,C14,2*%
%TO.N,GND*%
X125270000Y-70510000D03*
%TD*%
D11*
%TO.P,R4,1*%
%TO.N,USBD+*%
X129150000Y-78750000D03*
%TO.P,R4,2*%
%TO.N,Net-(U2-USB_DP)*%
X129150000Y-79770000D03*
%TD*%
D12*
%TO.P,R7,1*%
%TO.N,Net-(R7-Pad1)*%
X131870000Y-71450000D03*
%TO.P,R7,2*%
%TO.N,QSPI_SS*%
X130850000Y-71450000D03*
%TD*%
D10*
%TO.P,C16,1*%
%TO.N,GND*%
X130250000Y-93560000D03*
%TO.P,C16,2*%
%TO.N,Net-(C16-Pad2)*%
X130250000Y-92600000D03*
%TD*%
D26*
%TO.P,C9,1*%
%TO.N,+3V3*%
X133600589Y-80119411D03*
%TO.P,C9,2*%
%TO.N,GND*%
X134279411Y-79440589D03*
%TD*%
D10*
%TO.P,C8,1*%
%TO.N,+3V3*%
X130520000Y-76200000D03*
%TO.P,C8,2*%
%TO.N,GND*%
X130520000Y-75240000D03*
%TD*%
%TO.P,C15,1*%
%TO.N,XIN*%
X125010000Y-93210000D03*
%TO.P,C15,2*%
%TO.N,GND*%
X125010000Y-92250000D03*
%TD*%
D25*
%TO.P,C13,1*%
%TO.N,VBUS*%
X125680000Y-63840000D03*
%TO.P,C13,2*%
%TO.N,GND*%
X124130000Y-63840000D03*
%TD*%
D27*
%TO.P,U3,1,~{CS}*%
%TO.N,QSPI_SS*%
X123610000Y-76030000D03*
%TO.P,U3,2,DO/IO_{1}*%
%TO.N,QSPI_SD1*%
X123610000Y-76530000D03*
%TO.P,U3,3,~{WP}/IO_{2}*%
%TO.N,QSPI_SD2*%
X123610000Y-77030000D03*
%TO.P,U3,4,GND*%
%TO.N,GND*%
X123610000Y-77530000D03*
%TO.P,U3,5,DI/IO_{0}*%
%TO.N,QSPI_SD0*%
X126460000Y-77530000D03*
%TO.P,U3,6,CLK*%
%TO.N,QSPI_SCLK*%
X126460000Y-77030000D03*
%TO.P,U3,7,~{HOLD}/~{RESET}/IO_{3}*%
%TO.N,QSPI_SD3*%
X126460000Y-76530000D03*
%TO.P,U3,8,VCC*%
%TO.N,+3V3*%
X126460000Y-76030000D03*
D28*
%TO.P,U3,9*%
%TO.N,N/C*%
X125035000Y-76780000D03*
%TD*%
D18*
%TO.P,C1,1*%
%TO.N,+3V3*%
X123710000Y-85940000D03*
%TO.P,C1,2*%
%TO.N,GND*%
X122750000Y-85940000D03*
%TD*%
D29*
%TO.P,SW1,1,1*%
%TO.N,GND*%
X131430000Y-65900000D03*
%TO.P,SW1,2,2*%
%TO.N,Net-(R7-Pad1)*%
X131430000Y-70100000D03*
%TD*%
D18*
%TO.P,C3,1*%
%TO.N,+3V3*%
X124240000Y-81180000D03*
%TO.P,C3,2*%
%TO.N,GND*%
X123280000Y-81180000D03*
%TD*%
D30*
%TO.P,D1,1,K*%
%TO.N,GND*%
X133580000Y-64240000D03*
%TO.P,D1,2,A*%
%TO.N,GPIO25*%
X135330000Y-64240000D03*
%TD*%
D31*
%TO.P,J3,1,Pin_1*%
%TO.N,VBUS*%
X137395000Y-56585000D03*
D32*
%TO.P,J3,2,Pin_2*%
%TO.N,GPIO29_ADC3*%
X137395000Y-59125000D03*
%TO.P,J3,3,Pin_3*%
%TO.N,GND*%
X137395000Y-61665000D03*
%TO.P,J3,4,Pin_4*%
%TO.N,GPIO28_ADC2*%
X137395000Y-64205000D03*
%TO.P,J3,5,Pin_5*%
%TO.N,+3V3*%
X137395000Y-66745000D03*
%TO.P,J3,6,Pin_6*%
%TO.N,GPIO27_ADC1*%
X137395000Y-69285000D03*
%TO.P,J3,7,Pin_7*%
%TO.N,GPIO26_ADC0*%
X137395000Y-71825000D03*
%TO.P,J3,8,Pin_8*%
%TO.N,GND*%
X137395000Y-74365000D03*
%TO.P,J3,9,Pin_9*%
%TO.N,GPIO24*%
X137395000Y-76905000D03*
%TO.P,J3,10,Pin_10*%
%TO.N,GPIO23*%
X137395000Y-79445000D03*
%TO.P,J3,11,Pin_11*%
%TO.N,RUN*%
X137395000Y-81985000D03*
%TO.P,J3,12,Pin_12*%
%TO.N,GPIO22*%
X137395000Y-84525000D03*
%TO.P,J3,13,Pin_13*%
%TO.N,GND*%
X137395000Y-87065000D03*
%TO.P,J3,14,Pin_14*%
%TO.N,GPIO21*%
X137395000Y-89605000D03*
%TO.P,J3,15,Pin_15*%
%TO.N,GPIO20*%
X137395000Y-92145000D03*
%TO.P,J3,16,Pin_16*%
%TO.N,GPIO19*%
X137395000Y-94685000D03*
%TO.P,J3,17,Pin_17*%
%TO.N,GPIO18*%
X137395000Y-97225000D03*
%TO.P,J3,18,Pin_18*%
%TO.N,GND*%
X137395000Y-99765000D03*
%TO.P,J3,19,Pin_19*%
%TO.N,GPIO17*%
X137395000Y-102305000D03*
%TO.P,J3,20,Pin_20*%
%TO.N,GPIO16*%
X137395000Y-104845000D03*
%TD*%
D31*
%TO.P,J2,1,Pin_1*%
%TO.N,GPIO0*%
X119615000Y-56585000D03*
D32*
%TO.P,J2,2,Pin_2*%
%TO.N,GPIO1*%
X119615000Y-59125000D03*
%TO.P,J2,3,Pin_3*%
%TO.N,GND*%
X119615000Y-61665000D03*
%TO.P,J2,4,Pin_4*%
%TO.N,GPIO2*%
X119615000Y-64205000D03*
%TO.P,J2,5,Pin_5*%
%TO.N,GPIO3*%
X119615000Y-66745000D03*
%TO.P,J2,6,Pin_6*%
%TO.N,GPIO4*%
X119615000Y-69285000D03*
%TO.P,J2,7,Pin_7*%
%TO.N,GPIO5*%
X119615000Y-71825000D03*
%TO.P,J2,8,Pin_8*%
%TO.N,GND*%
X119615000Y-74365000D03*
%TO.P,J2,9,Pin_9*%
%TO.N,GPIO6*%
X119615000Y-76905000D03*
%TO.P,J2,10,Pin_10*%
%TO.N,GPIO7*%
X119615000Y-79445000D03*
%TO.P,J2,11,Pin_11*%
%TO.N,GPIO8*%
X119615000Y-81985000D03*
%TO.P,J2,12,Pin_12*%
%TO.N,GPIO9*%
X119615000Y-84525000D03*
%TO.P,J2,13,Pin_13*%
%TO.N,GND*%
X119615000Y-87065000D03*
%TO.P,J2,14,Pin_14*%
%TO.N,GPIO10*%
X119615000Y-89605000D03*
%TO.P,J2,15,Pin_15*%
%TO.N,GPIO11*%
X119615000Y-92145000D03*
%TO.P,J2,16,Pin_16*%
%TO.N,GPIO12*%
X119615000Y-94685000D03*
%TO.P,J2,17,Pin_17*%
%TO.N,GPIO13*%
X119615000Y-97225000D03*
%TO.P,J2,18,Pin_18*%
%TO.N,GND*%
X119615000Y-99765000D03*
%TO.P,J2,19,Pin_19*%
%TO.N,GPIO14*%
X119615000Y-102305000D03*
%TO.P,J2,20,Pin_20*%
%TO.N,GPIO15*%
X119615000Y-104845000D03*
%TD*%
D31*
%TO.P,J4,1,Pin_1*%
%TO.N,SWCLK*%
X125965000Y-104605000D03*
D32*
%TO.P,J4,2,Pin_2*%
%TO.N,GND*%
X128505000Y-104605000D03*
%TO.P,J4,3,Pin_3*%
%TO.N,SWD*%
X131045000Y-104605000D03*
%TD*%
D33*
%TO.N,+3V3*%
X130817825Y-74472887D03*
X129080000Y-77970000D03*
X133300000Y-79090000D03*
X128905000Y-80670000D03*
%TO.N,GND*%
X123510000Y-91950000D03*
X126600000Y-84580000D03*
X133471000Y-78260000D03*
X121940000Y-85940000D03*
X123550000Y-79970000D03*
X125140000Y-80670000D03*
X134570000Y-56980000D03*
X128070000Y-66980000D03*
X128505000Y-84715000D03*
X135460000Y-85760000D03*
X127900000Y-66180000D03*
X131300000Y-57550000D03*
X128530000Y-82780000D03*
X127970000Y-68810000D03*
X129570000Y-75010000D03*
X126660000Y-90570000D03*
X128610000Y-74060000D03*
X125600000Y-74150000D03*
X133300000Y-90160000D03*
X131750000Y-62950000D03*
X136960000Y-88320000D03*
X121440000Y-63460000D03*
X123840000Y-67250000D03*
X132710000Y-75880000D03*
X138070000Y-88360000D03*
X126680000Y-82890000D03*
X123950000Y-66210000D03*
X132470000Y-77150000D03*
X123930000Y-68750000D03*
X124434998Y-77530000D03*
X127450000Y-87260000D03*
X121140000Y-67010000D03*
%TO.N,+1V1*%
X127717783Y-76352437D03*
X129866377Y-82468864D03*
X132100000Y-90610000D03*
%TO.N,GPIO2*%
X123070000Y-83115000D03*
%TO.N,GPIO1*%
X123094263Y-82290734D03*
%TO.N,GPIO8*%
X126311507Y-87215000D03*
%TO.N,GPIO0*%
X123961580Y-82309521D03*
%TO.N,GPIO29_ADC3*%
X133731120Y-82018768D03*
%TO.N,GPIO28_ADC2*%
X134268692Y-82611237D03*
%TO.N,RUN*%
X131012784Y-86761740D03*
%TO.N,SWCLK*%
X128763528Y-86814999D03*
%TO.N,SWD*%
X129573529Y-86815000D03*
%TO.N,QSPI_SS*%
X130103364Y-71416636D03*
X126770000Y-72270000D03*
%TO.N,GPIO25*%
X131128969Y-84113959D03*
X131668364Y-72981636D03*
%TD*%
D34*
%TO.N,+3V3*%
X128705000Y-81812774D02*
X128705000Y-81277500D01*
X132960000Y-81210000D02*
X132960000Y-80760000D01*
X124630000Y-74960000D02*
X124630000Y-74050000D01*
X132570589Y-80099411D02*
X132470000Y-80200000D01*
X125605000Y-85715000D02*
X125990000Y-85330000D01*
X130117351Y-73572649D02*
X130117351Y-73482649D01*
X133600589Y-76869354D02*
X132871000Y-77598943D01*
X132847500Y-81210000D02*
X131942500Y-82115000D01*
X125170000Y-73510000D02*
X126130000Y-73510000D01*
X133215000Y-85715000D02*
X133270000Y-85770000D01*
X126130000Y-73510000D02*
X126500000Y-73880000D01*
X131942500Y-85715000D02*
X131027526Y-85715000D01*
X125990000Y-82502226D02*
X125602774Y-82115000D01*
X132960000Y-80760000D02*
X133600589Y-80119411D01*
X127144702Y-70510000D02*
X130117351Y-73482649D01*
X128705000Y-87605000D02*
X127730000Y-86630000D01*
X129599340Y-89819000D02*
X129109000Y-89819000D01*
X130817825Y-74472887D02*
X130817825Y-74183123D01*
X124630000Y-74050000D02*
X125170000Y-73510000D01*
X129080000Y-77970000D02*
X129510000Y-77540000D01*
X131131000Y-75589000D02*
X130520000Y-76200000D01*
X133300000Y-79818822D02*
X133600589Y-80119411D01*
X128905000Y-81077500D02*
X129105000Y-81277500D01*
X126820000Y-68390000D02*
X126940000Y-68270000D01*
X130705000Y-81277500D02*
X131105000Y-81277500D01*
X125067500Y-82115000D02*
X128402774Y-82115000D01*
X128705000Y-88152500D02*
X128705000Y-87605000D01*
X133270000Y-85770000D02*
X134180000Y-85770000D01*
X131407226Y-82115000D02*
X131942500Y-82115000D01*
X129851000Y-90070660D02*
X129599340Y-89819000D01*
X128380000Y-75310000D02*
X130117351Y-73572649D01*
X132871000Y-78661000D02*
X133300000Y-79090000D01*
X125775000Y-85715000D02*
X125067500Y-85715000D01*
X132550589Y-80119411D02*
X132470000Y-80200000D01*
X124240000Y-81180000D02*
X124240000Y-81287500D01*
X125067500Y-85715000D02*
X123935000Y-85715000D01*
X131027526Y-85715000D02*
X130460000Y-85147474D01*
X123935000Y-85715000D02*
X123710000Y-85940000D01*
X130117351Y-73482649D02*
X130817825Y-74183123D01*
X126690000Y-86630000D02*
X125775000Y-85715000D01*
X129851000Y-90561000D02*
X129851000Y-90070660D01*
X130460000Y-85147474D02*
X130460000Y-83062226D01*
X129510000Y-77540000D02*
X129510000Y-77010000D01*
X128905000Y-81077500D02*
X128705000Y-81277500D01*
X130520000Y-76200000D02*
X130320000Y-76200000D01*
X126500000Y-74930000D02*
X126500000Y-75990000D01*
X130460000Y-83062226D02*
X131407226Y-82115000D01*
X125990000Y-85330000D02*
X125990000Y-82502226D01*
X125602774Y-82115000D02*
X125067500Y-82115000D01*
X126500000Y-75990000D02*
X126460000Y-76030000D01*
X126460000Y-76030000D02*
X127020000Y-76030000D01*
X129920000Y-90630000D02*
X129851000Y-90561000D01*
X126500000Y-73880000D02*
X126500000Y-74930000D01*
X137395000Y-66745000D02*
X133600589Y-70539411D01*
X126820000Y-70510000D02*
X127144702Y-70510000D01*
X130260000Y-90630000D02*
X129920000Y-90630000D01*
X130320000Y-76200000D02*
X129510000Y-77010000D01*
X126820000Y-70510000D02*
X126820000Y-68390000D01*
X131392500Y-81277500D02*
X131105000Y-81277500D01*
X125067500Y-85715000D02*
X125605000Y-85715000D01*
X133300000Y-79090000D02*
X133300000Y-79818822D01*
X128402774Y-82115000D02*
X128705000Y-81812774D01*
X133670000Y-80200000D02*
X133751178Y-80118822D01*
X129109000Y-89819000D02*
X128705000Y-89415000D01*
X130817825Y-74183123D02*
X131131000Y-74496298D01*
X128905000Y-80670000D02*
X128905000Y-81077500D01*
X127020000Y-76030000D02*
X127740000Y-75310000D01*
X133600589Y-80119411D02*
X132550589Y-80119411D01*
X132871000Y-77598943D02*
X132871000Y-78661000D01*
X133600589Y-70539411D02*
X133600589Y-76869354D01*
X132470000Y-80200000D02*
X131392500Y-81277500D01*
X123865000Y-85715000D02*
X123710000Y-85870000D01*
X131942500Y-85715000D02*
X133215000Y-85715000D01*
X127730000Y-86630000D02*
X126690000Y-86630000D01*
X128705000Y-89415000D02*
X128705000Y-88152500D01*
X131131000Y-74496298D02*
X131131000Y-75589000D01*
X127740000Y-75310000D02*
X128380000Y-75310000D01*
X132960000Y-81210000D02*
X132847500Y-81210000D01*
X124240000Y-81287500D02*
X125067500Y-82115000D01*
%TO.N,GND*%
X137395000Y-74365000D02*
X137395000Y-75045000D01*
X127505000Y-88152500D02*
X127505000Y-87315000D01*
X131755000Y-61760000D02*
X131755000Y-62945000D01*
X133471000Y-78260000D02*
X134279411Y-79068411D01*
X130260000Y-91590000D02*
X131370000Y-91590000D01*
X132470000Y-77150000D02*
X132470000Y-79240000D01*
X134279411Y-80850589D02*
X133920000Y-81210000D01*
X132221727Y-77168273D02*
X131280000Y-78110000D01*
X129510000Y-76050000D02*
X128520000Y-76050000D01*
X134279411Y-79440589D02*
X134279411Y-80850589D01*
X127505000Y-87315000D02*
X127450000Y-87260000D01*
X132470000Y-77150000D02*
X132451727Y-77168273D01*
X132470000Y-79240000D02*
X131650000Y-79240000D01*
X126150000Y-92250000D02*
X126500000Y-91900000D01*
X128520000Y-76050000D02*
X128510000Y-76060000D01*
X125010000Y-92250000D02*
X126150000Y-92250000D01*
X138030000Y-88320000D02*
X138070000Y-88360000D01*
X130320000Y-75240000D02*
X129510000Y-76050000D01*
X125600000Y-74870000D02*
X125540000Y-74930000D01*
X131280000Y-78110000D02*
X131280000Y-78870000D01*
X125600000Y-74150000D02*
X125600000Y-74870000D01*
X134279411Y-79068411D02*
X134279411Y-79440589D01*
X128700000Y-93600000D02*
X130210000Y-93600000D01*
X122750000Y-85940000D02*
X121940000Y-85940000D01*
X132451727Y-77168273D02*
X132221727Y-77168273D01*
X123280000Y-81180000D02*
X123280000Y-80240000D01*
X131755000Y-62945000D02*
X131750000Y-62950000D01*
X129510000Y-75070000D02*
X129570000Y-75010000D01*
X119615000Y-74365000D02*
X119615000Y-74605000D01*
X130520000Y-75240000D02*
X130320000Y-75240000D01*
X135140000Y-85770000D02*
X135450000Y-85770000D01*
X130210000Y-93600000D02*
X130250000Y-93560000D01*
X136960000Y-88320000D02*
X138030000Y-88320000D01*
X129510000Y-76050000D02*
X129510000Y-75070000D01*
X123280000Y-80240000D02*
X123550000Y-79970000D01*
X123610000Y-77530000D02*
X124434998Y-77530000D01*
X131650000Y-79240000D02*
X131280000Y-78870000D01*
X135450000Y-85770000D02*
X135460000Y-85760000D01*
%TO.N,+1V1*%
X128305000Y-77465000D02*
X128305000Y-81277500D01*
X129105000Y-89165000D02*
X129105000Y-88152500D01*
X130305000Y-82030241D02*
X129866377Y-82468864D01*
X131280000Y-79830000D02*
X131217226Y-79830000D01*
X128510000Y-77020000D02*
X128320000Y-77210000D01*
X129358000Y-89418000D02*
X129105000Y-89165000D01*
X128510000Y-77020000D02*
X128385346Y-77020000D01*
X128320000Y-77450000D02*
X128305000Y-77465000D01*
X128320000Y-77210000D02*
X128320000Y-77450000D01*
X131370000Y-90630000D02*
X132080000Y-90630000D01*
X131217226Y-79830000D02*
X130305000Y-80742226D01*
X130305000Y-80742226D02*
X130305000Y-81277500D01*
X128385346Y-77020000D02*
X127717783Y-76352437D01*
X130305000Y-81277500D02*
X130305000Y-82030241D01*
X131370000Y-90630000D02*
X130158000Y-89418000D01*
X132080000Y-90630000D02*
X132100000Y-90610000D01*
X130158000Y-89418000D02*
X129358000Y-89418000D01*
%TO.N,VBUS*%
X125680000Y-63840000D02*
X125680000Y-66085000D01*
X130719000Y-59311000D02*
X127727000Y-59311000D01*
X126055000Y-60983000D02*
X126055000Y-61760000D01*
X136090000Y-57890000D02*
X132140000Y-57890000D01*
X137395000Y-56585000D02*
X136090000Y-57890000D01*
X130719000Y-61524000D02*
X130955000Y-61760000D01*
X126055000Y-63465000D02*
X126055000Y-61760000D01*
X130719000Y-59311000D02*
X130719000Y-61524000D01*
X132140000Y-57890000D02*
X130719000Y-59311000D01*
X125680000Y-63840000D02*
X126055000Y-63465000D01*
X127727000Y-59311000D02*
X126055000Y-60983000D01*
X125680000Y-66085000D02*
X125990000Y-66395000D01*
%TO.N,XIN*%
X126500000Y-93600000D02*
X127501000Y-92599000D01*
X125010000Y-93210000D02*
X126110000Y-93210000D01*
X126110000Y-93210000D02*
X126500000Y-93600000D01*
X127501000Y-89899000D02*
X127905000Y-89495000D01*
X127501000Y-92599000D02*
X127501000Y-89899000D01*
X127905000Y-89495000D02*
X127905000Y-88152500D01*
%TO.N,Net-(C16-Pad2)*%
X129550000Y-91900000D02*
X130250000Y-92600000D01*
X129280000Y-90440000D02*
X129280000Y-91320000D01*
X129280000Y-91320000D02*
X128700000Y-91900000D01*
X128700000Y-91900000D02*
X129550000Y-91900000D01*
%TO.N,Net-(J1-CC2)*%
X127220001Y-63620000D02*
X126755000Y-63154999D01*
X127540000Y-63620000D02*
X127220001Y-63620000D01*
X126755000Y-63154999D02*
X126755000Y-61760000D01*
%TO.N,USBD-*%
X128255000Y-60783000D02*
X128255000Y-61760000D01*
X129255000Y-62847501D02*
X129230000Y-62872501D01*
X129150000Y-60560000D02*
X128478000Y-60560000D01*
X129255000Y-60665000D02*
X129150000Y-60560000D01*
X129230000Y-66408683D02*
X129431366Y-66610049D01*
X129431366Y-67008683D02*
X129230000Y-67210049D01*
X129230000Y-67210049D02*
X129230000Y-67842871D01*
X129230000Y-67842871D02*
X129230000Y-69710254D01*
X129230000Y-70100000D02*
X129230000Y-69710254D01*
X129255000Y-61760000D02*
X129255000Y-62847501D01*
X129230000Y-66010910D02*
X129230000Y-66408683D01*
X130150000Y-78386397D02*
X132005000Y-76531397D01*
X129431366Y-66610049D02*
X129431366Y-67008683D01*
X129230000Y-65249833D02*
X129230000Y-66010910D01*
X129255000Y-61760000D02*
X129255000Y-60665000D01*
X129230000Y-71391802D02*
X129230000Y-70100000D01*
X132005000Y-74166802D02*
X129230000Y-71391802D01*
X132005000Y-76531397D02*
X132005000Y-74166802D01*
X129230000Y-62872501D02*
X129230000Y-65249833D01*
X130150000Y-78750000D02*
X130150000Y-78386397D01*
X128478000Y-60560000D02*
X128255000Y-60783000D01*
%TO.N,USBD+*%
X128755000Y-62765000D02*
X128755000Y-61760000D01*
X131555000Y-74353198D02*
X131555000Y-76345000D01*
X127755000Y-61760000D02*
X127755000Y-62737000D01*
X128755000Y-62847501D02*
X128780000Y-62872501D01*
X128780000Y-62872501D02*
X128780000Y-71578198D01*
X128570000Y-62950000D02*
X128755000Y-62765000D01*
X127968000Y-62950000D02*
X128570000Y-62950000D01*
X128755000Y-61760000D02*
X128755000Y-62847501D01*
X128780000Y-71578198D02*
X131555000Y-74353198D01*
X131555000Y-76345000D02*
X129150000Y-78750000D01*
X127755000Y-62737000D02*
X127968000Y-62950000D01*
%TO.N,Net-(J1-CC1)*%
X129755000Y-63385000D02*
X129755000Y-61760000D01*
X129900000Y-63530000D02*
X129755000Y-63385000D01*
%TO.N,GPIO4*%
X122040000Y-79052900D02*
X121313550Y-78326450D01*
X121313550Y-70983550D02*
X119615000Y-69285000D01*
X125067500Y-84115000D02*
X122285000Y-84115000D01*
X122285000Y-84115000D02*
X122040000Y-83870000D01*
X121313550Y-78326450D02*
X121313550Y-70983550D01*
X122040000Y-83870000D02*
X122040000Y-79052900D01*
%TO.N,GPIO2*%
X125067500Y-83315000D02*
X123270000Y-83315000D01*
X123270000Y-83315000D02*
X123070000Y-83115000D01*
%TO.N,GPIO6*%
X125067500Y-84915000D02*
X121456000Y-84915000D01*
X119615000Y-77817240D02*
X119615000Y-76905000D01*
X121456000Y-84915000D02*
X121191000Y-84650000D01*
X121191000Y-84650000D02*
X121191000Y-79393240D01*
X121191000Y-79393240D02*
X119615000Y-77817240D01*
%TO.N,GPIO15*%
X124414200Y-89840000D02*
X122294550Y-91959650D01*
X122294550Y-102165450D02*
X119615000Y-104845000D01*
X126430000Y-89840000D02*
X124414200Y-89840000D01*
X122294550Y-91959650D02*
X122294550Y-102165450D01*
X127105000Y-89165000D02*
X126430000Y-89840000D01*
X127105000Y-88152500D02*
X127105000Y-89165000D01*
%TO.N,GPIO3*%
X121714550Y-78160350D02*
X121714550Y-68844550D01*
X122615000Y-83715000D02*
X122470000Y-83570000D01*
X125067500Y-83715000D02*
X122615000Y-83715000D01*
X122470000Y-78915800D02*
X121714550Y-78160350D01*
X121714550Y-68844550D02*
X119615000Y-66745000D01*
X122470000Y-83570000D02*
X122470000Y-78915800D01*
%TO.N,GPIO9*%
X125067500Y-86515000D02*
X124137900Y-86515000D01*
X124137900Y-86515000D02*
X123822900Y-86830000D01*
X123822900Y-86830000D02*
X121920000Y-86830000D01*
X121920000Y-86830000D02*
X119615000Y-84525000D01*
%TO.N,GPIO1*%
X123718529Y-82915000D02*
X123094263Y-82290734D01*
X125067500Y-82915000D02*
X123718529Y-82915000D01*
%TO.N,GPIO8*%
X125806000Y-86318226D02*
X125602774Y-86115000D01*
X126311507Y-87215000D02*
X125806000Y-86709493D01*
X125806000Y-86709493D02*
X125806000Y-86318226D01*
%TO.N,GPIO13*%
X121430000Y-91690000D02*
X121430000Y-95410000D01*
X124120000Y-89000000D02*
X121430000Y-91690000D01*
X126060000Y-89000000D02*
X124120000Y-89000000D01*
X126305000Y-88152500D02*
X126305000Y-88755000D01*
X126305000Y-88755000D02*
X126060000Y-89000000D01*
X121430000Y-95410000D02*
X119615000Y-97225000D01*
%TO.N,GPIO0*%
X124167059Y-82515000D02*
X123961580Y-82309521D01*
X125067500Y-82515000D02*
X124167059Y-82515000D01*
%TO.N,GPIO5*%
X121885000Y-84515000D02*
X121610000Y-84240000D01*
X125067500Y-84515000D02*
X121885000Y-84515000D01*
X121610000Y-79190000D02*
X120912550Y-78492550D01*
X121610000Y-84240000D02*
X121610000Y-79190000D01*
X120912550Y-78492550D02*
X120912550Y-73122550D01*
X120912550Y-73122550D02*
X119615000Y-71825000D01*
%TO.N,GPIO11*%
X119645000Y-92145000D02*
X119615000Y-92145000D01*
X125067500Y-87315000D02*
X124475000Y-87315000D01*
X124475000Y-87315000D02*
X119645000Y-92145000D01*
%TO.N,GPIO7*%
X125067500Y-85315000D02*
X121135000Y-85315000D01*
X121135000Y-85315000D02*
X120790000Y-84970000D01*
X120790000Y-80620000D02*
X119615000Y-79445000D01*
X120790000Y-84970000D02*
X120790000Y-80620000D01*
%TO.N,GPIO14*%
X121893550Y-91793550D02*
X121893550Y-100026450D01*
X126705000Y-88152500D02*
X126705000Y-88985000D01*
X124286100Y-89401000D02*
X121893550Y-91793550D01*
X126289000Y-89401000D02*
X124286100Y-89401000D01*
X126705000Y-88985000D02*
X126289000Y-89401000D01*
X121893550Y-100026450D02*
X119615000Y-102305000D01*
%TO.N,GPIO10*%
X125067500Y-86915000D02*
X124305000Y-86915000D01*
X124305000Y-86915000D02*
X121615000Y-89605000D01*
X121615000Y-89605000D02*
X119615000Y-89605000D01*
%TO.N,GPIO12*%
X125905000Y-88152500D02*
X124337500Y-88152500D01*
X124337500Y-88152500D02*
X121004000Y-91486000D01*
X121004000Y-93296000D02*
X119615000Y-94685000D01*
X121004000Y-91486000D02*
X121004000Y-93296000D01*
%TO.N,GPIO16*%
X134050000Y-89580000D02*
X134050000Y-101500000D01*
X133880000Y-89410000D02*
X134050000Y-89580000D01*
X131420000Y-89410000D02*
X133880000Y-89410000D01*
X130705000Y-88152500D02*
X130705000Y-88695000D01*
X130705000Y-88695000D02*
X131420000Y-89410000D01*
X134050000Y-101500000D02*
X137395000Y-104845000D01*
%TO.N,GPIO24*%
X132994000Y-84116000D02*
X132595000Y-84515000D01*
X134748072Y-84116000D02*
X132994000Y-84116000D01*
X132595000Y-84515000D02*
X131942500Y-84515000D01*
X137395000Y-76905000D02*
X135744358Y-78555642D01*
X135744358Y-83119714D02*
X134748072Y-84116000D01*
X135744358Y-78555642D02*
X135744358Y-83119714D01*
%TO.N,GPIO22*%
X133880000Y-85030000D02*
X136890000Y-85030000D01*
X133595000Y-85315000D02*
X133880000Y-85030000D01*
X131942500Y-85315000D02*
X133595000Y-85315000D01*
X136890000Y-85030000D02*
X137395000Y-84525000D01*
%TO.N,GPIO17*%
X131105000Y-88152500D02*
X131592500Y-88640000D01*
X134526000Y-99436000D02*
X137395000Y-102305000D01*
X131592500Y-88640000D02*
X134100000Y-88640000D01*
X134526000Y-89066000D02*
X134526000Y-99436000D01*
X134100000Y-88640000D02*
X134526000Y-89066000D01*
%TO.N,GPIO26_ADC0*%
X135343358Y-82953614D02*
X134581972Y-83715000D01*
X137395000Y-71825000D02*
X135343358Y-73876642D01*
X134581972Y-83715000D02*
X131942500Y-83715000D01*
X135343358Y-73876642D02*
X135343358Y-82953614D01*
%TO.N,GPIO29_ADC3*%
X131942500Y-82515000D02*
X133234888Y-82515000D01*
X133234888Y-82515000D02*
X133731120Y-82018768D01*
%TO.N,GPIO21*%
X133750000Y-86850000D02*
X135700000Y-86850000D01*
X131942500Y-86115000D02*
X133015000Y-86115000D01*
X133015000Y-86115000D02*
X133750000Y-86850000D01*
X135700000Y-86850000D02*
X136130000Y-87280000D01*
X136130000Y-88340000D02*
X137395000Y-89605000D01*
X136130000Y-87280000D02*
X136130000Y-88340000D01*
%TO.N,GPIO23*%
X137395000Y-79445000D02*
X136244000Y-80596000D01*
X133048100Y-84629000D02*
X132762100Y-84915000D01*
X132762100Y-84915000D02*
X131942500Y-84915000D01*
X136244000Y-83315000D02*
X134930000Y-84629000D01*
X136244000Y-80596000D02*
X136244000Y-83315000D01*
X134930000Y-84629000D02*
X133048100Y-84629000D01*
%TO.N,GPIO18*%
X134540000Y-88060000D02*
X134927000Y-88447000D01*
X134927000Y-94757000D02*
X137395000Y-97225000D01*
X131942500Y-87315000D02*
X132315000Y-87315000D01*
X133060000Y-88060000D02*
X134540000Y-88060000D01*
X134927000Y-88447000D02*
X134927000Y-94757000D01*
X132315000Y-87315000D02*
X133060000Y-88060000D01*
%TO.N,GPIO20*%
X135729000Y-87529000D02*
X135729000Y-90479000D01*
X135450000Y-87250000D02*
X135729000Y-87529000D01*
X132847900Y-86515000D02*
X133582900Y-87250000D01*
X135729000Y-90479000D02*
X137395000Y-92145000D01*
X131942500Y-86515000D02*
X132847900Y-86515000D01*
X133582900Y-87250000D02*
X135450000Y-87250000D01*
%TO.N,GPIO27_ADC1*%
X134942358Y-82787514D02*
X134414872Y-83315000D01*
X134414872Y-83315000D02*
X131942500Y-83315000D01*
X137395000Y-69285000D02*
X134942358Y-71737642D01*
X134942358Y-71737642D02*
X134942358Y-82787514D01*
%TO.N,GPIO19*%
X134930000Y-87651000D02*
X135328000Y-88049000D01*
X132675000Y-86915000D02*
X133411000Y-87651000D01*
X135328000Y-88049000D02*
X135328000Y-92618000D01*
X135328000Y-92618000D02*
X137395000Y-94685000D01*
X131942500Y-86915000D02*
X132675000Y-86915000D01*
X133411000Y-87651000D02*
X134930000Y-87651000D01*
%TO.N,GPIO28_ADC2*%
X131942500Y-82915000D02*
X133964929Y-82915000D01*
X133964929Y-82915000D02*
X134268692Y-82611237D01*
%TO.N,RUN*%
X131005593Y-86769958D02*
X131005593Y-86900321D01*
X130305000Y-87600914D02*
X130305000Y-88152500D01*
X131012784Y-86761740D02*
X131012784Y-86762767D01*
X131005593Y-86900321D02*
X130305000Y-87600914D01*
X131012784Y-86762767D02*
X131005593Y-86769958D01*
%TO.N,SWCLK*%
X128779265Y-86830736D02*
X128779265Y-86869265D01*
X129505000Y-87595000D02*
X129505000Y-88152500D01*
X128763528Y-86814999D02*
X128779265Y-86830736D01*
X128779265Y-86869265D02*
X129505000Y-87595000D01*
%TO.N,SWD*%
X129905000Y-87152384D02*
X129905000Y-88152500D01*
X129579113Y-86826497D02*
X129905000Y-87152384D01*
X129579113Y-86820584D02*
X129579113Y-86826497D01*
X129573529Y-86815000D02*
X129579113Y-86820584D01*
%TO.N,Net-(U2-USB_DM)*%
X130150000Y-79770000D02*
X129905000Y-80015000D01*
X129905000Y-80015000D02*
X129905000Y-81277500D01*
%TO.N,Net-(U2-USB_DP)*%
X129505000Y-80125000D02*
X129505000Y-81277500D01*
X129150000Y-79770000D02*
X129505000Y-80125000D01*
%TO.N,XOUT*%
X128260000Y-90440000D02*
X128305000Y-90395000D01*
X128305000Y-90395000D02*
X128305000Y-88152500D01*
%TO.N,QSPI_SS*%
X122850000Y-76030000D02*
X123610000Y-76030000D01*
X122873900Y-78631000D02*
X122270000Y-78027100D01*
X123610000Y-74960000D02*
X123610000Y-76030000D01*
X123610000Y-74960000D02*
X123610000Y-73360000D01*
X130103364Y-71416636D02*
X130816636Y-71416636D01*
X124241000Y-78631000D02*
X122873900Y-78631000D01*
X123610000Y-73360000D02*
X124700000Y-72270000D01*
X122270000Y-78027100D02*
X122270000Y-76610000D01*
X130816636Y-71416636D02*
X130850000Y-71450000D01*
X125905000Y-80295000D02*
X124241000Y-78631000D01*
X124700000Y-72270000D02*
X126770000Y-72270000D01*
X125905000Y-81277500D02*
X125905000Y-80295000D01*
X122270000Y-76610000D02*
X122850000Y-76030000D01*
%TO.N,Net-(R7-Pad1)*%
X131870000Y-71450000D02*
X131870000Y-70540000D01*
X131870000Y-70540000D02*
X131430000Y-70100000D01*
%TO.N,QSPI_SD0*%
X127105000Y-79775000D02*
X126090000Y-78760000D01*
X127105000Y-81277500D02*
X127105000Y-79775000D01*
X126090000Y-78760000D02*
X126090000Y-77900000D01*
X126090000Y-77900000D02*
X126460000Y-77530000D01*
%TO.N,QSPI_SCLK*%
X127505000Y-77609202D02*
X126925798Y-77030000D01*
X127505000Y-81277500D02*
X127505000Y-77609202D01*
X126925798Y-77030000D02*
X126460000Y-77030000D01*
%TO.N,QSPI_SD1*%
X124415900Y-78230000D02*
X126305000Y-80119100D01*
X123040000Y-78230000D02*
X124415900Y-78230000D01*
X122917100Y-76530000D02*
X122701000Y-76746100D01*
X126305000Y-80119100D02*
X126305000Y-81277500D01*
X123610000Y-76530000D02*
X122917100Y-76530000D01*
X122701000Y-77891000D02*
X123040000Y-78230000D01*
X122701000Y-76746100D02*
X122701000Y-77891000D01*
%TO.N,GPIO25*%
X131128969Y-84113959D02*
X131130010Y-84115000D01*
X135330000Y-64240000D02*
X133129589Y-66440411D01*
X133129589Y-71520411D02*
X131668364Y-72981636D01*
X133129589Y-66440411D02*
X133129589Y-71520411D01*
X131130010Y-84115000D02*
X131942500Y-84115000D01*
%TO.N,QSPI_SD2*%
X125580000Y-75823000D02*
X125436000Y-75679000D01*
X124440000Y-76665798D02*
X124075798Y-77030000D01*
X125580000Y-78827000D02*
X125580000Y-75823000D01*
X125436000Y-75679000D02*
X124634000Y-75679000D01*
X124634000Y-75679000D02*
X124440000Y-75873000D01*
X124440000Y-75873000D02*
X124440000Y-76665798D01*
X124075798Y-77030000D02*
X123610000Y-77030000D01*
X126705000Y-79952000D02*
X125580000Y-78827000D01*
X126705000Y-81277500D02*
X126705000Y-79952000D01*
%TO.N,QSPI_SD3*%
X127010000Y-76530000D02*
X126460000Y-76530000D01*
X127905000Y-77425000D02*
X127010000Y-76530000D01*
X127905000Y-81277500D02*
X127905000Y-77425000D01*
%TD*%
%TA.AperFunction,Conductor*%
%TO.N,GND*%
G36*
X133592539Y-89830185D02*
G01*
X133638294Y-89882989D01*
X133649500Y-89934500D01*
X133649500Y-101447273D01*
X133649500Y-101552727D01*
X133658637Y-101586826D01*
X133676793Y-101654589D01*
X133703156Y-101700250D01*
X133729520Y-101745913D01*
X133729522Y-101745915D01*
X136289325Y-104305718D01*
X136322810Y-104367041D01*
X136319575Y-104431716D01*
X136272829Y-104575587D01*
X136244500Y-104754448D01*
X136244500Y-104935551D01*
X136272829Y-105114410D01*
X136328787Y-105286636D01*
X136328788Y-105286639D01*
X136411003Y-105447993D01*
X136461586Y-105517615D01*
X136485065Y-105583422D01*
X136469239Y-105651476D01*
X136419133Y-105700170D01*
X136361267Y-105714500D01*
X131856887Y-105714500D01*
X131789848Y-105694815D01*
X131744093Y-105642011D01*
X131734149Y-105572853D01*
X131763174Y-105509297D01*
X131784002Y-105490182D01*
X131794494Y-105482558D01*
X131794492Y-105482558D01*
X131794501Y-105482553D01*
X131922553Y-105354501D01*
X132028996Y-105207994D01*
X132111211Y-105046639D01*
X132167171Y-104874409D01*
X132181765Y-104782259D01*
X132195500Y-104695551D01*
X132195500Y-104514448D01*
X132167189Y-104335706D01*
X132167171Y-104335591D01*
X132111273Y-104163552D01*
X132111212Y-104163363D01*
X132111211Y-104163360D01*
X132076633Y-104095499D01*
X132028996Y-104002006D01*
X132003883Y-103967441D01*
X131922558Y-103855505D01*
X131922554Y-103855500D01*
X131794499Y-103727445D01*
X131794494Y-103727441D01*
X131647997Y-103621006D01*
X131647996Y-103621005D01*
X131647994Y-103621004D01*
X131571906Y-103582235D01*
X131486639Y-103538788D01*
X131486636Y-103538787D01*
X131314410Y-103482829D01*
X131135551Y-103454500D01*
X131135546Y-103454500D01*
X130954454Y-103454500D01*
X130954449Y-103454500D01*
X130775589Y-103482829D01*
X130603363Y-103538787D01*
X130603360Y-103538788D01*
X130442002Y-103621006D01*
X130295505Y-103727441D01*
X130295500Y-103727445D01*
X130167445Y-103855500D01*
X130167441Y-103855505D01*
X130061006Y-104002002D01*
X129978788Y-104163360D01*
X129978787Y-104163363D01*
X129922829Y-104335589D01*
X129897219Y-104497280D01*
X129867289Y-104560414D01*
X129807978Y-104597345D01*
X129738115Y-104596347D01*
X129679883Y-104557737D01*
X129652273Y-104497279D01*
X129626682Y-104335706D01*
X129570748Y-104163555D01*
X129570747Y-104163552D01*
X129488571Y-104002275D01*
X129488566Y-104002267D01*
X129477085Y-103986466D01*
X128987962Y-104475589D01*
X128970925Y-104412007D01*
X128905099Y-104297993D01*
X128812007Y-104204901D01*
X128697993Y-104139075D01*
X128634409Y-104122037D01*
X129123533Y-103632913D01*
X129107730Y-103621431D01*
X128946447Y-103539252D01*
X128946444Y-103539251D01*
X128774293Y-103483317D01*
X128595506Y-103455000D01*
X128414494Y-103455000D01*
X128235706Y-103483317D01*
X128063555Y-103539251D01*
X128063547Y-103539254D01*
X127902269Y-103621432D01*
X127886466Y-103632912D01*
X127886466Y-103632913D01*
X128375591Y-104122037D01*
X128312007Y-104139075D01*
X128197993Y-104204901D01*
X128104901Y-104297993D01*
X128039075Y-104412007D01*
X128022037Y-104475590D01*
X127532912Y-103986466D01*
X127521432Y-104002269D01*
X127439254Y-104163547D01*
X127439251Y-104163555D01*
X127383317Y-104335706D01*
X127361972Y-104470471D01*
X127332043Y-104533606D01*
X127272731Y-104570537D01*
X127202868Y-104569539D01*
X127144636Y-104530929D01*
X127116522Y-104466965D01*
X127115499Y-104451073D01*
X127115499Y-103710143D01*
X127115499Y-103710136D01*
X127114292Y-103699735D01*
X127113681Y-103694458D01*
X127113680Y-103694455D01*
X127112585Y-103685009D01*
X127067206Y-103582235D01*
X126987765Y-103502794D01*
X126943654Y-103483317D01*
X126884992Y-103457415D01*
X126859865Y-103454500D01*
X125070143Y-103454500D01*
X125070117Y-103454502D01*
X125045012Y-103457413D01*
X125045008Y-103457415D01*
X124942235Y-103502793D01*
X124862794Y-103582234D01*
X124817415Y-103685006D01*
X124817415Y-103685008D01*
X124814500Y-103710131D01*
X124814500Y-105499856D01*
X124814502Y-105499882D01*
X124817413Y-105524986D01*
X124817414Y-105524990D01*
X124817415Y-105524991D01*
X124824225Y-105540414D01*
X124833297Y-105609690D01*
X124803475Y-105672876D01*
X124744226Y-105709907D01*
X124710791Y-105714500D01*
X120648733Y-105714500D01*
X120581694Y-105694815D01*
X120535939Y-105642011D01*
X120525995Y-105572853D01*
X120548414Y-105517615D01*
X120573887Y-105482554D01*
X120598996Y-105447994D01*
X120681211Y-105286639D01*
X120737171Y-105114409D01*
X120754484Y-105005099D01*
X120765500Y-104935551D01*
X120765500Y-104754448D01*
X120741829Y-104605001D01*
X120737171Y-104575591D01*
X120690424Y-104431716D01*
X120688429Y-104361875D01*
X120720672Y-104305719D01*
X122615030Y-102411363D01*
X122667757Y-102320038D01*
X122695050Y-102218177D01*
X122695050Y-102112723D01*
X122695050Y-92176904D01*
X122703694Y-92147463D01*
X122710218Y-92117477D01*
X122713972Y-92112461D01*
X122714735Y-92109865D01*
X122731369Y-92089223D01*
X122820592Y-92000000D01*
X124412332Y-92000000D01*
X124760000Y-92000000D01*
X124760000Y-91672531D01*
X124759999Y-91672530D01*
X124757274Y-91672786D01*
X124757272Y-91672787D01*
X124632080Y-91716594D01*
X124525358Y-91795358D01*
X124446596Y-91902077D01*
X124412332Y-92000000D01*
X122820592Y-92000000D01*
X124543773Y-90276819D01*
X124605096Y-90243334D01*
X124631454Y-90240500D01*
X126482725Y-90240500D01*
X126482727Y-90240500D01*
X126584588Y-90213207D01*
X126675913Y-90160480D01*
X126888820Y-89947572D01*
X126950142Y-89914088D01*
X127019833Y-89919072D01*
X127075767Y-89960943D01*
X127100184Y-90026408D01*
X127100500Y-90035254D01*
X127100500Y-90876000D01*
X127080815Y-90943039D01*
X127028011Y-90988794D01*
X126976500Y-91000000D01*
X126750000Y-91000000D01*
X126750000Y-91776000D01*
X126730315Y-91843039D01*
X126677511Y-91888794D01*
X126626000Y-91900000D01*
X126374000Y-91900000D01*
X126306961Y-91880315D01*
X126261206Y-91827511D01*
X126250000Y-91776000D01*
X126250000Y-91000000D01*
X126006946Y-91000000D01*
X125918556Y-91010613D01*
X125777904Y-91066079D01*
X125657435Y-91157435D01*
X125566079Y-91277904D01*
X125510613Y-91418556D01*
X125500000Y-91506946D01*
X125500000Y-91581051D01*
X125480315Y-91648090D01*
X125427511Y-91693845D01*
X125358353Y-91703789D01*
X125335046Y-91698093D01*
X125262723Y-91672786D01*
X125262725Y-91672786D01*
X125260000Y-91672530D01*
X125260000Y-92126000D01*
X125240315Y-92193039D01*
X125187511Y-92238794D01*
X125136000Y-92250000D01*
X125010000Y-92250000D01*
X125010000Y-92376000D01*
X124990315Y-92443039D01*
X124937511Y-92488794D01*
X124886000Y-92500000D01*
X124412332Y-92500000D01*
X124446596Y-92597922D01*
X124489419Y-92655945D01*
X124513390Y-92721574D01*
X124498075Y-92789744D01*
X124489419Y-92803213D01*
X124446147Y-92861844D01*
X124402291Y-92987173D01*
X124402289Y-92987185D01*
X124399500Y-93016929D01*
X124399500Y-93403070D01*
X124402289Y-93432814D01*
X124402291Y-93432826D01*
X124438910Y-93537473D01*
X124446148Y-93558157D01*
X124525001Y-93664999D01*
X124631843Y-93743852D01*
X124670003Y-93757204D01*
X124757173Y-93787708D01*
X124757177Y-93787708D01*
X124757181Y-93787710D01*
X124772057Y-93789105D01*
X124786930Y-93790500D01*
X124786934Y-93790500D01*
X125233070Y-93790500D01*
X125246289Y-93789260D01*
X125262819Y-93787710D01*
X125334544Y-93762611D01*
X125404323Y-93759049D01*
X125464951Y-93793778D01*
X125497178Y-93855771D01*
X125499500Y-93879653D01*
X125499500Y-93993102D01*
X125502087Y-94014641D01*
X125510122Y-94081561D01*
X125565639Y-94222343D01*
X125657077Y-94342922D01*
X125777656Y-94434360D01*
X125777657Y-94434360D01*
X125777658Y-94434361D01*
X125918436Y-94489877D01*
X126006898Y-94500500D01*
X126006903Y-94500500D01*
X126993097Y-94500500D01*
X126993102Y-94500500D01*
X127081564Y-94489877D01*
X127222342Y-94434361D01*
X127342922Y-94342922D01*
X127434361Y-94222342D01*
X127484916Y-94094144D01*
X127527818Y-94039004D01*
X127593726Y-94015810D01*
X127661711Y-94031930D01*
X127710188Y-94082246D01*
X127715622Y-94094147D01*
X127766077Y-94222091D01*
X127766078Y-94222093D01*
X127857435Y-94342564D01*
X127977904Y-94433920D01*
X128118556Y-94489386D01*
X128206946Y-94500000D01*
X128450000Y-94500000D01*
X128450000Y-93850000D01*
X128950000Y-93850000D01*
X128950000Y-94500000D01*
X129193054Y-94500000D01*
X129281443Y-94489386D01*
X129422095Y-94433920D01*
X129542564Y-94342564D01*
X129633921Y-94222094D01*
X129667733Y-94136351D01*
X129710639Y-94081207D01*
X129776546Y-94058013D01*
X129844531Y-94074133D01*
X129856724Y-94082071D01*
X129872081Y-94093406D01*
X129997271Y-94137212D01*
X129997269Y-94137212D01*
X130000000Y-94137467D01*
X130500000Y-94137467D01*
X130502729Y-94137212D01*
X130627919Y-94093405D01*
X130734641Y-94014641D01*
X130813403Y-93907922D01*
X130847668Y-93810000D01*
X130500000Y-93810000D01*
X130500000Y-94137467D01*
X130000000Y-94137467D01*
X130000000Y-93810000D01*
X129830000Y-93810000D01*
X129826319Y-93813681D01*
X129764996Y-93847166D01*
X129738638Y-93850000D01*
X128950000Y-93850000D01*
X128450000Y-93850000D01*
X128450000Y-93724000D01*
X128469685Y-93656961D01*
X128522489Y-93611206D01*
X128574000Y-93600000D01*
X128700000Y-93600000D01*
X128700000Y-93474000D01*
X128719685Y-93406961D01*
X128772489Y-93361206D01*
X128824000Y-93350000D01*
X129510000Y-93350000D01*
X129513681Y-93346319D01*
X129575004Y-93312834D01*
X129601362Y-93310000D01*
X130847668Y-93310000D01*
X130813403Y-93212077D01*
X130770581Y-93154056D01*
X130746609Y-93088427D01*
X130761924Y-93020257D01*
X130770572Y-93006798D01*
X130813852Y-92948157D01*
X130843589Y-92863173D01*
X130857708Y-92822826D01*
X130857708Y-92822823D01*
X130857710Y-92822819D01*
X130859260Y-92806289D01*
X130860500Y-92793070D01*
X130860500Y-92406929D01*
X130857710Y-92377185D01*
X130857710Y-92377181D01*
X130857708Y-92377177D01*
X130857708Y-92377173D01*
X130822624Y-92276911D01*
X130819061Y-92207133D01*
X130853790Y-92146505D01*
X130915783Y-92114278D01*
X130983254Y-92120488D01*
X130983308Y-92120336D01*
X130983917Y-92120549D01*
X130985359Y-92120682D01*
X130988707Y-92122225D01*
X131117271Y-92167212D01*
X131117269Y-92167212D01*
X131120000Y-92167467D01*
X131620000Y-92167467D01*
X131622729Y-92167212D01*
X131747919Y-92123405D01*
X131854641Y-92044641D01*
X131933403Y-91937922D01*
X131967668Y-91840000D01*
X131620000Y-91840000D01*
X131620000Y-92167467D01*
X131120000Y-92167467D01*
X131120000Y-91840000D01*
X130384000Y-91840000D01*
X130316961Y-91820315D01*
X130271206Y-91767511D01*
X130260000Y-91716000D01*
X130260000Y-91464000D01*
X130279685Y-91396961D01*
X130332489Y-91351206D01*
X130384000Y-91340000D01*
X131967669Y-91340000D01*
X131977553Y-91326069D01*
X131976512Y-91305677D01*
X132011241Y-91245049D01*
X132073234Y-91212822D01*
X132097116Y-91210500D01*
X132179055Y-91210500D01*
X132179057Y-91210500D01*
X132331784Y-91169577D01*
X132468716Y-91090520D01*
X132580520Y-90978716D01*
X132659577Y-90841784D01*
X132700500Y-90689057D01*
X132700500Y-90530943D01*
X132659577Y-90378216D01*
X132639825Y-90344004D01*
X132580524Y-90241290D01*
X132580518Y-90241282D01*
X132468717Y-90129481D01*
X132468709Y-90129475D01*
X132331788Y-90050424D01*
X132328498Y-90049062D01*
X132326148Y-90047168D01*
X132324746Y-90046359D01*
X132324872Y-90046140D01*
X132274093Y-90005222D01*
X132252027Y-89938928D01*
X132269305Y-89871229D01*
X132320441Y-89823617D01*
X132375948Y-89810500D01*
X133525500Y-89810500D01*
X133592539Y-89830185D01*
G37*
%TD.AperFunction*%
%TA.AperFunction,Conductor*%
G36*
X127320702Y-104665214D02*
G01*
X127358476Y-104723992D01*
X127361972Y-104739529D01*
X127383317Y-104874293D01*
X127439251Y-105046444D01*
X127439252Y-105046447D01*
X127521431Y-105207730D01*
X127532913Y-105223532D01*
X127532913Y-105223533D01*
X128022037Y-104734409D01*
X128039075Y-104797993D01*
X128104901Y-104912007D01*
X128197993Y-105005099D01*
X128312007Y-105070925D01*
X128375590Y-105087962D01*
X127886466Y-105577085D01*
X127886757Y-105580771D01*
X127872393Y-105649149D01*
X127823341Y-105698905D01*
X127763139Y-105714500D01*
X127219210Y-105714500D01*
X127152171Y-105694815D01*
X127106416Y-105642011D01*
X127096472Y-105572853D01*
X127105775Y-105540414D01*
X127105776Y-105540412D01*
X127112585Y-105524991D01*
X127115500Y-105499865D01*
X127115499Y-104758925D01*
X127135183Y-104691888D01*
X127187987Y-104646133D01*
X127257146Y-104636189D01*
X127320702Y-104665214D01*
G37*
%TD.AperFunction*%
%TA.AperFunction,Conductor*%
G36*
X129811376Y-104613652D02*
G01*
X129869609Y-104652261D01*
X129897219Y-104712720D01*
X129922828Y-104874410D01*
X129978787Y-105046636D01*
X129978788Y-105046639D01*
X130013320Y-105114410D01*
X130060869Y-105207730D01*
X130061006Y-105207997D01*
X130167441Y-105354494D01*
X130167445Y-105354499D01*
X130295500Y-105482554D01*
X130295505Y-105482558D01*
X130305998Y-105490182D01*
X130348664Y-105545512D01*
X130354643Y-105615125D01*
X130322037Y-105676920D01*
X130261199Y-105711277D01*
X130233113Y-105714500D01*
X129246861Y-105714500D01*
X129179822Y-105694815D01*
X129134067Y-105642011D01*
X129123243Y-105580774D01*
X129123533Y-105577085D01*
X128634410Y-105087962D01*
X128697993Y-105070925D01*
X128812007Y-105005099D01*
X128905099Y-104912007D01*
X128970925Y-104797993D01*
X128987962Y-104734410D01*
X129477085Y-105223533D01*
X129477085Y-105223532D01*
X129488568Y-105207730D01*
X129570745Y-105046452D01*
X129570748Y-105046444D01*
X129626683Y-104874292D01*
X129652273Y-104712721D01*
X129682202Y-104649586D01*
X129741513Y-104612654D01*
X129811376Y-104613652D01*
G37*
%TD.AperFunction*%
%TA.AperFunction,Conductor*%
G36*
X138367084Y-100383532D02*
G01*
X138370772Y-100383242D01*
X138439149Y-100397606D01*
X138488905Y-100446658D01*
X138504500Y-100506860D01*
X138504500Y-101493113D01*
X138484815Y-101560152D01*
X138432011Y-101605907D01*
X138362853Y-101615851D01*
X138299297Y-101586826D01*
X138280182Y-101565998D01*
X138272558Y-101555505D01*
X138272554Y-101555500D01*
X138144499Y-101427445D01*
X138144494Y-101427441D01*
X137997997Y-101321006D01*
X137997996Y-101321005D01*
X137997994Y-101321004D01*
X137922907Y-101282745D01*
X137836639Y-101238788D01*
X137836636Y-101238787D01*
X137664410Y-101182828D01*
X137502720Y-101157219D01*
X137439585Y-101127289D01*
X137402654Y-101067978D01*
X137403652Y-100998115D01*
X137442262Y-100939883D01*
X137502721Y-100912273D01*
X137664292Y-100886683D01*
X137836444Y-100830748D01*
X137836452Y-100830745D01*
X137997730Y-100748568D01*
X138013532Y-100737085D01*
X138013533Y-100737085D01*
X137524410Y-100247962D01*
X137587993Y-100230925D01*
X137702007Y-100165099D01*
X137795099Y-100072007D01*
X137860925Y-99957993D01*
X137877962Y-99894410D01*
X138367084Y-100383532D01*
G37*
%TD.AperFunction*%
%TA.AperFunction,Conductor*%
G36*
X119149075Y-99957993D02*
G01*
X119214901Y-100072007D01*
X119307993Y-100165099D01*
X119422007Y-100230925D01*
X119485590Y-100247962D01*
X118996466Y-100737085D01*
X118996466Y-100737086D01*
X119012267Y-100748566D01*
X119012275Y-100748571D01*
X119173552Y-100830747D01*
X119173555Y-100830748D01*
X119345706Y-100886682D01*
X119507279Y-100912273D01*
X119570413Y-100942202D01*
X119607345Y-101001513D01*
X119606347Y-101071376D01*
X119567738Y-101129609D01*
X119507280Y-101157219D01*
X119345589Y-101182829D01*
X119173363Y-101238787D01*
X119173360Y-101238788D01*
X119012002Y-101321006D01*
X118865505Y-101427441D01*
X118865500Y-101427445D01*
X118737445Y-101555500D01*
X118737441Y-101555505D01*
X118729818Y-101565998D01*
X118674488Y-101608664D01*
X118604875Y-101614643D01*
X118543080Y-101582037D01*
X118508723Y-101521199D01*
X118505500Y-101493113D01*
X118505500Y-100506861D01*
X118525185Y-100439822D01*
X118577989Y-100394067D01*
X118639229Y-100383243D01*
X118642913Y-100383533D01*
X119132037Y-99894409D01*
X119149075Y-99957993D01*
G37*
%TD.AperFunction*%
%TA.AperFunction,Conductor*%
G36*
X121412384Y-96096522D02*
G01*
X121468317Y-96138394D01*
X121492734Y-96203858D01*
X121493050Y-96212704D01*
X121493050Y-99809194D01*
X121473365Y-99876233D01*
X121456731Y-99896875D01*
X120154280Y-101199325D01*
X120092957Y-101232810D01*
X120028281Y-101229575D01*
X119884410Y-101182828D01*
X119722720Y-101157219D01*
X119659585Y-101127289D01*
X119622654Y-101067978D01*
X119623652Y-100998115D01*
X119662262Y-100939883D01*
X119722721Y-100912273D01*
X119884292Y-100886683D01*
X120056444Y-100830748D01*
X120056452Y-100830745D01*
X120217730Y-100748568D01*
X120233532Y-100737085D01*
X120233533Y-100737085D01*
X119744410Y-100247962D01*
X119807993Y-100230925D01*
X119922007Y-100165099D01*
X120015099Y-100072007D01*
X120080925Y-99957993D01*
X120097962Y-99894410D01*
X120587085Y-100383533D01*
X120587085Y-100383532D01*
X120598568Y-100367730D01*
X120680745Y-100206452D01*
X120680748Y-100206444D01*
X120736682Y-100034293D01*
X120765000Y-99855506D01*
X120765000Y-99674493D01*
X120736682Y-99495706D01*
X120680748Y-99323555D01*
X120680747Y-99323552D01*
X120598571Y-99162275D01*
X120598566Y-99162267D01*
X120587085Y-99146466D01*
X120097962Y-99635589D01*
X120080925Y-99572007D01*
X120015099Y-99457993D01*
X119922007Y-99364901D01*
X119807993Y-99299075D01*
X119744409Y-99282037D01*
X120233533Y-98792913D01*
X120217730Y-98781431D01*
X120056447Y-98699252D01*
X120056444Y-98699251D01*
X119884293Y-98643317D01*
X119722720Y-98617726D01*
X119659585Y-98587797D01*
X119622654Y-98528485D01*
X119623652Y-98458623D01*
X119662262Y-98400390D01*
X119722720Y-98372780D01*
X119737270Y-98370475D01*
X119884409Y-98347171D01*
X120056639Y-98291211D01*
X120217994Y-98208996D01*
X120364501Y-98102553D01*
X120492553Y-97974501D01*
X120598996Y-97827994D01*
X120681211Y-97666639D01*
X120737171Y-97494409D01*
X120751765Y-97402259D01*
X120765500Y-97315551D01*
X120765500Y-97134448D01*
X120749019Y-97030397D01*
X120737171Y-96955591D01*
X120690424Y-96811716D01*
X120688429Y-96741875D01*
X120720672Y-96685719D01*
X121281369Y-96125023D01*
X121342692Y-96091538D01*
X121412384Y-96096522D01*
G37*
%TD.AperFunction*%
%TA.AperFunction,Conductor*%
G36*
X135131703Y-95528542D02*
G01*
X135138181Y-95534574D01*
X136289325Y-96685718D01*
X136322810Y-96747041D01*
X136319575Y-96811716D01*
X136272829Y-96955587D01*
X136244500Y-97134448D01*
X136244500Y-97315551D01*
X136272829Y-97494410D01*
X136328787Y-97666636D01*
X136328788Y-97666639D01*
X136411006Y-97827997D01*
X136517441Y-97974494D01*
X136517445Y-97974499D01*
X136645500Y-98102554D01*
X136645505Y-98102558D01*
X136773287Y-98195396D01*
X136792006Y-98208996D01*
X136897484Y-98262740D01*
X136953360Y-98291211D01*
X136953363Y-98291212D01*
X137039476Y-98319191D01*
X137125591Y-98347171D01*
X137245038Y-98366089D01*
X137287279Y-98372780D01*
X137350414Y-98402709D01*
X137387345Y-98462021D01*
X137386347Y-98531883D01*
X137347737Y-98590116D01*
X137287279Y-98617726D01*
X137125706Y-98643317D01*
X136953555Y-98699251D01*
X136953547Y-98699254D01*
X136792269Y-98781432D01*
X136776466Y-98792912D01*
X136776466Y-98792913D01*
X137265591Y-99282037D01*
X137202007Y-99299075D01*
X137087993Y-99364901D01*
X136994901Y-99457993D01*
X136929075Y-99572007D01*
X136912037Y-99635590D01*
X136422913Y-99146466D01*
X136422912Y-99146466D01*
X136411432Y-99162269D01*
X136329254Y-99323547D01*
X136329251Y-99323555D01*
X136273317Y-99495706D01*
X136245000Y-99674493D01*
X136245000Y-99855506D01*
X136273317Y-100034293D01*
X136329251Y-100206444D01*
X136329252Y-100206447D01*
X136411431Y-100367730D01*
X136422913Y-100383532D01*
X136422913Y-100383533D01*
X136912037Y-99894409D01*
X136929075Y-99957993D01*
X136994901Y-100072007D01*
X137087993Y-100165099D01*
X137202007Y-100230925D01*
X137265590Y-100247962D01*
X136776466Y-100737085D01*
X136776466Y-100737086D01*
X136792267Y-100748566D01*
X136792275Y-100748571D01*
X136953552Y-100830747D01*
X136953555Y-100830748D01*
X137125706Y-100886682D01*
X137287279Y-100912273D01*
X137350413Y-100942202D01*
X137387345Y-101001513D01*
X137386347Y-101071376D01*
X137347738Y-101129609D01*
X137287280Y-101157219D01*
X137125586Y-101182829D01*
X136981715Y-101229575D01*
X136911874Y-101231570D01*
X136855717Y-101199325D01*
X135413695Y-99757302D01*
X134962819Y-99306426D01*
X134929334Y-99245103D01*
X134926500Y-99218745D01*
X134926500Y-95622255D01*
X134946185Y-95555216D01*
X134998989Y-95509461D01*
X135068147Y-95499517D01*
X135131703Y-95528542D01*
G37*
%TD.AperFunction*%
%TA.AperFunction,Conductor*%
G36*
X118710703Y-97943173D02*
G01*
X118729821Y-97964004D01*
X118737446Y-97974500D01*
X118865500Y-98102554D01*
X118865505Y-98102558D01*
X118993287Y-98195396D01*
X119012006Y-98208996D01*
X119117484Y-98262740D01*
X119173360Y-98291211D01*
X119173363Y-98291212D01*
X119259476Y-98319191D01*
X119345591Y-98347171D01*
X119465038Y-98366089D01*
X119507279Y-98372780D01*
X119570414Y-98402709D01*
X119607345Y-98462021D01*
X119606347Y-98531883D01*
X119567737Y-98590116D01*
X119507279Y-98617726D01*
X119345706Y-98643317D01*
X119173555Y-98699251D01*
X119173547Y-98699254D01*
X119012269Y-98781432D01*
X118996466Y-98792912D01*
X118996466Y-98792913D01*
X119485591Y-99282037D01*
X119422007Y-99299075D01*
X119307993Y-99364901D01*
X119214901Y-99457993D01*
X119149075Y-99572007D01*
X119132037Y-99635590D01*
X118642913Y-99146466D01*
X118639229Y-99146756D01*
X118570852Y-99132392D01*
X118521095Y-99083340D01*
X118505500Y-99023138D01*
X118505500Y-98036886D01*
X118525185Y-97969847D01*
X118577989Y-97924092D01*
X118647147Y-97914148D01*
X118710703Y-97943173D01*
G37*
%TD.AperFunction*%
%TA.AperFunction,Conductor*%
G36*
X138466917Y-97947959D02*
G01*
X138501277Y-98008796D01*
X138504500Y-98036886D01*
X138504500Y-99023138D01*
X138484815Y-99090177D01*
X138432011Y-99135932D01*
X138370773Y-99146756D01*
X138367086Y-99146465D01*
X137877962Y-99635589D01*
X137860925Y-99572007D01*
X137795099Y-99457993D01*
X137702007Y-99364901D01*
X137587993Y-99299075D01*
X137524409Y-99282037D01*
X138013533Y-98792913D01*
X137997730Y-98781431D01*
X137836447Y-98699252D01*
X137836444Y-98699251D01*
X137664293Y-98643317D01*
X137502720Y-98617726D01*
X137439585Y-98587797D01*
X137402654Y-98528485D01*
X137403652Y-98458623D01*
X137442262Y-98400390D01*
X137502720Y-98372780D01*
X137517270Y-98370475D01*
X137664409Y-98347171D01*
X137836639Y-98291211D01*
X137997994Y-98208996D01*
X138144501Y-98102553D01*
X138272553Y-97974501D01*
X138280180Y-97964003D01*
X138335508Y-97921336D01*
X138405121Y-97915355D01*
X138466917Y-97947959D01*
G37*
%TD.AperFunction*%
%TA.AperFunction,Conductor*%
G36*
X120154281Y-85630674D02*
G01*
X121674087Y-87150480D01*
X121765412Y-87203207D01*
X121867273Y-87230500D01*
X121972727Y-87230500D01*
X123123745Y-87230500D01*
X123190784Y-87250185D01*
X123236539Y-87302989D01*
X123246483Y-87372147D01*
X123217458Y-87435703D01*
X123211426Y-87442181D01*
X121485426Y-89168181D01*
X121424103Y-89201666D01*
X121397745Y-89204500D01*
X120778160Y-89204500D01*
X120711121Y-89184815D01*
X120667675Y-89136795D01*
X120620797Y-89044793D01*
X120598996Y-89002006D01*
X120536401Y-88915851D01*
X120492558Y-88855505D01*
X120492554Y-88855500D01*
X120364499Y-88727445D01*
X120364494Y-88727441D01*
X120217997Y-88621006D01*
X120217996Y-88621005D01*
X120217994Y-88621004D01*
X120124292Y-88573260D01*
X120056639Y-88538788D01*
X120056636Y-88538787D01*
X119884410Y-88482828D01*
X119722720Y-88457219D01*
X119659585Y-88427289D01*
X119622654Y-88367978D01*
X119623652Y-88298115D01*
X119662262Y-88239883D01*
X119722721Y-88212273D01*
X119884292Y-88186683D01*
X120056444Y-88130748D01*
X120056452Y-88130745D01*
X120217730Y-88048568D01*
X120233532Y-88037085D01*
X120233533Y-88037085D01*
X119744410Y-87547962D01*
X119807993Y-87530925D01*
X119922007Y-87465099D01*
X120015099Y-87372007D01*
X120080925Y-87257993D01*
X120097962Y-87194410D01*
X120587085Y-87683533D01*
X120587085Y-87683532D01*
X120598568Y-87667730D01*
X120680745Y-87506452D01*
X120680748Y-87506444D01*
X120736682Y-87334293D01*
X120765000Y-87155506D01*
X120765000Y-86974493D01*
X120736682Y-86795706D01*
X120680748Y-86623555D01*
X120680747Y-86623552D01*
X120598571Y-86462275D01*
X120598566Y-86462267D01*
X120587085Y-86446466D01*
X120097962Y-86935589D01*
X120080925Y-86872007D01*
X120015099Y-86757993D01*
X119922007Y-86664901D01*
X119807993Y-86599075D01*
X119744409Y-86582037D01*
X120233533Y-86092913D01*
X120217730Y-86081431D01*
X120056447Y-85999252D01*
X120056444Y-85999251D01*
X119884293Y-85943317D01*
X119722720Y-85917726D01*
X119659585Y-85887797D01*
X119622654Y-85828485D01*
X119623652Y-85758623D01*
X119662262Y-85700390D01*
X119722720Y-85672780D01*
X119737270Y-85670475D01*
X119884409Y-85647171D01*
X120028284Y-85600423D01*
X120098123Y-85598429D01*
X120154281Y-85630674D01*
G37*
%TD.AperFunction*%
%TA.AperFunction,Conductor*%
G36*
X138367084Y-87683532D02*
G01*
X138370772Y-87683242D01*
X138439149Y-87697606D01*
X138488905Y-87746658D01*
X138504500Y-87806860D01*
X138504500Y-88793113D01*
X138484815Y-88860152D01*
X138432011Y-88905907D01*
X138362853Y-88915851D01*
X138299297Y-88886826D01*
X138280182Y-88865998D01*
X138272558Y-88855505D01*
X138272554Y-88855500D01*
X138144499Y-88727445D01*
X138144494Y-88727441D01*
X137997997Y-88621006D01*
X137997996Y-88621005D01*
X137997994Y-88621004D01*
X137904292Y-88573260D01*
X137836639Y-88538788D01*
X137836636Y-88538787D01*
X137664410Y-88482828D01*
X137502720Y-88457219D01*
X137439585Y-88427289D01*
X137402654Y-88367978D01*
X137403652Y-88298115D01*
X137442262Y-88239883D01*
X137502721Y-88212273D01*
X137664292Y-88186683D01*
X137836444Y-88130748D01*
X137836452Y-88130745D01*
X137997730Y-88048568D01*
X138013532Y-88037085D01*
X137524409Y-87547962D01*
X137587993Y-87530925D01*
X137702007Y-87465099D01*
X137795099Y-87372007D01*
X137860925Y-87257993D01*
X137877962Y-87194410D01*
X138367084Y-87683532D01*
G37*
%TD.AperFunction*%
%TA.AperFunction,Conductor*%
G36*
X119149075Y-87257993D02*
G01*
X119214901Y-87372007D01*
X119307993Y-87465099D01*
X119422007Y-87530925D01*
X119485590Y-87547962D01*
X118996466Y-88037085D01*
X118996466Y-88037086D01*
X119012267Y-88048566D01*
X119012275Y-88048571D01*
X119173552Y-88130747D01*
X119173555Y-88130748D01*
X119345706Y-88186682D01*
X119507279Y-88212273D01*
X119570413Y-88242202D01*
X119607345Y-88301513D01*
X119606347Y-88371376D01*
X119567738Y-88429609D01*
X119507280Y-88457219D01*
X119345589Y-88482829D01*
X119173363Y-88538787D01*
X119173360Y-88538788D01*
X119012002Y-88621006D01*
X118865505Y-88727441D01*
X118865500Y-88727445D01*
X118737445Y-88855500D01*
X118737441Y-88855505D01*
X118729818Y-88865998D01*
X118674488Y-88908664D01*
X118604875Y-88914643D01*
X118543080Y-88882037D01*
X118508723Y-88821199D01*
X118505500Y-88793113D01*
X118505500Y-87806861D01*
X118525185Y-87739822D01*
X118577989Y-87694067D01*
X118639229Y-87683243D01*
X118642913Y-87683533D01*
X119132037Y-87194409D01*
X119149075Y-87257993D01*
G37*
%TD.AperFunction*%
%TA.AperFunction,Conductor*%
G36*
X136727385Y-88001428D02*
G01*
X136792265Y-88048565D01*
X136953552Y-88130747D01*
X136953555Y-88130748D01*
X137125706Y-88186682D01*
X137287279Y-88212273D01*
X137350413Y-88242202D01*
X137387345Y-88301513D01*
X137386347Y-88371376D01*
X137347738Y-88429609D01*
X137287280Y-88457219D01*
X137125586Y-88482829D01*
X136981716Y-88529575D01*
X136911875Y-88531570D01*
X136855718Y-88499325D01*
X136566819Y-88210426D01*
X136552115Y-88183498D01*
X136535523Y-88157680D01*
X136534631Y-88151479D01*
X136533334Y-88149103D01*
X136530500Y-88122745D01*
X136530500Y-88101746D01*
X136550185Y-88034707D01*
X136602989Y-87988952D01*
X136672147Y-87979008D01*
X136727385Y-88001428D01*
G37*
%TD.AperFunction*%
%TA.AperFunction,Conductor*%
G36*
X127579784Y-87050185D02*
G01*
X127600426Y-87066819D01*
X127745801Y-87212194D01*
X127779286Y-87273517D01*
X127774302Y-87343209D01*
X127732430Y-87399142D01*
X127666966Y-87423559D01*
X127640243Y-87422580D01*
X127588214Y-87415000D01*
X127421786Y-87415000D01*
X127353747Y-87424913D01*
X127344550Y-87427755D01*
X127343592Y-87424655D01*
X127291111Y-87433596D01*
X127265926Y-87426197D01*
X127265595Y-87427270D01*
X127256392Y-87424426D01*
X127188261Y-87414500D01*
X127188260Y-87414500D01*
X127036007Y-87414500D01*
X127027321Y-87411949D01*
X127018360Y-87413238D01*
X126994319Y-87402259D01*
X126968968Y-87394815D01*
X126963040Y-87387974D01*
X126954804Y-87384213D01*
X126940514Y-87361978D01*
X126923213Y-87342011D01*
X126920925Y-87331496D01*
X126917030Y-87325435D01*
X126912007Y-87290500D01*
X126912007Y-87154500D01*
X126931692Y-87087461D01*
X126984496Y-87041706D01*
X127036007Y-87030500D01*
X127512745Y-87030500D01*
X127579784Y-87050185D01*
G37*
%TD.AperFunction*%
%TA.AperFunction,Conductor*%
G36*
X118710703Y-85243173D02*
G01*
X118729821Y-85264004D01*
X118737446Y-85274500D01*
X118865500Y-85402554D01*
X118865505Y-85402558D01*
X118978411Y-85484588D01*
X119012006Y-85508996D01*
X119116206Y-85562089D01*
X119173360Y-85591211D01*
X119173363Y-85591212D01*
X119259476Y-85619191D01*
X119345591Y-85647171D01*
X119465038Y-85666089D01*
X119507279Y-85672780D01*
X119570414Y-85702709D01*
X119607345Y-85762021D01*
X119606347Y-85831883D01*
X119567737Y-85890116D01*
X119507279Y-85917726D01*
X119345706Y-85943317D01*
X119173555Y-85999251D01*
X119173547Y-85999254D01*
X119012269Y-86081432D01*
X118996466Y-86092912D01*
X118996466Y-86092913D01*
X119485591Y-86582037D01*
X119422007Y-86599075D01*
X119307993Y-86664901D01*
X119214901Y-86757993D01*
X119149075Y-86872007D01*
X119132037Y-86935590D01*
X118642913Y-86446466D01*
X118639229Y-86446756D01*
X118570852Y-86432392D01*
X118521095Y-86383340D01*
X118505500Y-86323138D01*
X118505500Y-85336886D01*
X118525185Y-85269847D01*
X118577989Y-85224092D01*
X118647147Y-85214148D01*
X118710703Y-85243173D01*
G37*
%TD.AperFunction*%
%TA.AperFunction,Conductor*%
G36*
X136710714Y-85450185D02*
G01*
X136716560Y-85454182D01*
X136758411Y-85484588D01*
X136792006Y-85508996D01*
X136896206Y-85562089D01*
X136953360Y-85591211D01*
X136953363Y-85591212D01*
X137039476Y-85619191D01*
X137125591Y-85647171D01*
X137245038Y-85666089D01*
X137287279Y-85672780D01*
X137350414Y-85702709D01*
X137387345Y-85762021D01*
X137386347Y-85831883D01*
X137347737Y-85890116D01*
X137287279Y-85917726D01*
X137125706Y-85943317D01*
X136953555Y-85999251D01*
X136953547Y-85999254D01*
X136792269Y-86081432D01*
X136776466Y-86092912D01*
X136776466Y-86092913D01*
X137265591Y-86582037D01*
X137202007Y-86599075D01*
X137087993Y-86664901D01*
X136994901Y-86757993D01*
X136929075Y-86872007D01*
X136912037Y-86935590D01*
X136422913Y-86446466D01*
X136422912Y-86446466D01*
X136411432Y-86462269D01*
X136329254Y-86623547D01*
X136329253Y-86623552D01*
X136320833Y-86649466D01*
X136281395Y-86707141D01*
X136217036Y-86734339D01*
X136148190Y-86722424D01*
X136115221Y-86698828D01*
X135945915Y-86529522D01*
X135945913Y-86529520D01*
X135900250Y-86503156D01*
X135854589Y-86476793D01*
X135800405Y-86462275D01*
X135752727Y-86449500D01*
X135752726Y-86449500D01*
X135696459Y-86449500D01*
X135629420Y-86429815D01*
X135583665Y-86377011D01*
X135573721Y-86307853D01*
X135596689Y-86251866D01*
X135673405Y-86147919D01*
X135717212Y-86022727D01*
X135717213Y-86022725D01*
X135717469Y-86020000D01*
X135264000Y-86020000D01*
X135196961Y-86000315D01*
X135151206Y-85947511D01*
X135140000Y-85896000D01*
X135140000Y-85644000D01*
X135159685Y-85576961D01*
X135212489Y-85531206D01*
X135264000Y-85520000D01*
X135717468Y-85520000D01*
X135734352Y-85501461D01*
X135735129Y-85497474D01*
X135783438Y-85446997D01*
X135845238Y-85430500D01*
X136643675Y-85430500D01*
X136710714Y-85450185D01*
G37*
%TD.AperFunction*%
%TA.AperFunction,Conductor*%
G36*
X138466917Y-85247959D02*
G01*
X138501277Y-85308796D01*
X138504500Y-85336886D01*
X138504500Y-86323138D01*
X138484815Y-86390177D01*
X138432011Y-86435932D01*
X138370773Y-86446756D01*
X138367086Y-86446465D01*
X137877962Y-86935589D01*
X137860925Y-86872007D01*
X137795099Y-86757993D01*
X137702007Y-86664901D01*
X137587993Y-86599075D01*
X137524409Y-86582037D01*
X138013533Y-86092913D01*
X137997730Y-86081431D01*
X137836447Y-85999252D01*
X137836444Y-85999251D01*
X137664293Y-85943317D01*
X137502720Y-85917726D01*
X137439585Y-85887797D01*
X137402654Y-85828485D01*
X137403652Y-85758623D01*
X137442262Y-85700390D01*
X137502720Y-85672780D01*
X137517270Y-85670475D01*
X137664409Y-85647171D01*
X137836639Y-85591211D01*
X137997994Y-85508996D01*
X138144501Y-85402553D01*
X138272553Y-85274501D01*
X138280180Y-85264003D01*
X138335508Y-85221336D01*
X138405121Y-85215355D01*
X138466917Y-85247959D01*
G37*
%TD.AperFunction*%
%TA.AperFunction,Conductor*%
G36*
X129245197Y-82019003D02*
G01*
X129273338Y-82022995D01*
X129278609Y-82027545D01*
X129285355Y-82029270D01*
X129304710Y-82050075D01*
X129326229Y-82068650D01*
X129328203Y-82075328D01*
X129332945Y-82080425D01*
X129337979Y-82108391D01*
X129346040Y-82135653D01*
X129344156Y-82142707D01*
X129345324Y-82149190D01*
X129337190Y-82168803D01*
X129329428Y-82197885D01*
X129306802Y-82237075D01*
X129306800Y-82237080D01*
X129265877Y-82389807D01*
X129265877Y-82547921D01*
X129301626Y-82681336D01*
X129306800Y-82700647D01*
X129306803Y-82700654D01*
X129385852Y-82837573D01*
X129385856Y-82837578D01*
X129385857Y-82837580D01*
X129497661Y-82949384D01*
X129497663Y-82949385D01*
X129497667Y-82949388D01*
X129582317Y-82998260D01*
X129634593Y-83028441D01*
X129787320Y-83069364D01*
X129787322Y-83069364D01*
X129935500Y-83069364D01*
X130002539Y-83089049D01*
X130048294Y-83141853D01*
X130059500Y-83193364D01*
X130059500Y-85094747D01*
X130059500Y-85200201D01*
X130067951Y-85231740D01*
X130086793Y-85302063D01*
X130093974Y-85314500D01*
X130139520Y-85393387D01*
X130139522Y-85393389D01*
X130772792Y-86026659D01*
X130806277Y-86087982D01*
X130801293Y-86157674D01*
X130759421Y-86213607D01*
X130747112Y-86221727D01*
X130644068Y-86281219D01*
X130532265Y-86393022D01*
X130532259Y-86393030D01*
X130453210Y-86529949D01*
X130453207Y-86529956D01*
X130412284Y-86682683D01*
X130412284Y-86683250D01*
X130412149Y-86683709D01*
X130411223Y-86690743D01*
X130410126Y-86690598D01*
X130392599Y-86750289D01*
X130339795Y-86796044D01*
X130270637Y-86805988D01*
X130207081Y-86776963D01*
X130169307Y-86718185D01*
X130168520Y-86715384D01*
X130133106Y-86583216D01*
X130071929Y-86477253D01*
X130054053Y-86446290D01*
X130054047Y-86446282D01*
X129942246Y-86334481D01*
X129942238Y-86334475D01*
X129805319Y-86255426D01*
X129805315Y-86255424D01*
X129805313Y-86255423D01*
X129652586Y-86214500D01*
X129494472Y-86214500D01*
X129341745Y-86255423D01*
X129341744Y-86255423D01*
X129230528Y-86319633D01*
X129162628Y-86336104D01*
X129106530Y-86319633D01*
X128995312Y-86255422D01*
X128982041Y-86251866D01*
X128842585Y-86214499D01*
X128684471Y-86214499D01*
X128531744Y-86255422D01*
X128531737Y-86255425D01*
X128394818Y-86334474D01*
X128394810Y-86334480D01*
X128285523Y-86443768D01*
X128224200Y-86477253D01*
X128154508Y-86472269D01*
X128110161Y-86443768D01*
X127975915Y-86309522D01*
X127975913Y-86309520D01*
X127926895Y-86281219D01*
X127884589Y-86256793D01*
X127833657Y-86243146D01*
X127782727Y-86229500D01*
X127782726Y-86229500D01*
X126907255Y-86229500D01*
X126840216Y-86209815D01*
X126819574Y-86193181D01*
X126338165Y-85711772D01*
X126304680Y-85650449D01*
X126309664Y-85580757D01*
X126318453Y-85562101D01*
X126363207Y-85484588D01*
X126390500Y-85382727D01*
X126390500Y-85277273D01*
X126390500Y-82639500D01*
X126410185Y-82572461D01*
X126462989Y-82526706D01*
X126514500Y-82515500D01*
X128455499Y-82515500D01*
X128455501Y-82515500D01*
X128557362Y-82488207D01*
X128648687Y-82435480D01*
X129025480Y-82058687D01*
X129025480Y-82058686D01*
X129031227Y-82052940D01*
X129033104Y-82054817D01*
X129050779Y-82042555D01*
X129077809Y-82022815D01*
X129079781Y-82022435D01*
X129080654Y-82021830D01*
X129094861Y-82019530D01*
X129115390Y-82015577D01*
X129117570Y-82015500D01*
X129188260Y-82015500D01*
X129210886Y-82012203D01*
X129217662Y-82011964D01*
X129245197Y-82019003D01*
G37*
%TD.AperFunction*%
%TA.AperFunction,Conductor*%
G36*
X122693039Y-85735185D02*
G01*
X122738794Y-85787989D01*
X122750000Y-85839500D01*
X122750000Y-86066000D01*
X122730315Y-86133039D01*
X122677511Y-86178794D01*
X122626000Y-86190000D01*
X122172532Y-86190000D01*
X122172787Y-86192730D01*
X122172986Y-86193638D01*
X122172937Y-86194326D01*
X122173491Y-86200244D01*
X122172511Y-86200335D01*
X122168052Y-86263334D01*
X122126221Y-86319297D01*
X122060774Y-86343762D01*
X121992491Y-86328959D01*
X121964158Y-86307765D01*
X121583574Y-85927181D01*
X121550089Y-85865858D01*
X121555073Y-85796166D01*
X121596945Y-85740233D01*
X121662409Y-85715816D01*
X121671255Y-85715500D01*
X122626000Y-85715500D01*
X122693039Y-85735185D01*
G37*
%TD.AperFunction*%
%TA.AperFunction,Conductor*%
G36*
X124090784Y-79051185D02*
G01*
X124111426Y-79067819D01*
X125468181Y-80424574D01*
X125501666Y-80485897D01*
X125504500Y-80512255D01*
X125504500Y-81590500D01*
X125484815Y-81657539D01*
X125432011Y-81703294D01*
X125380500Y-81714500D01*
X125284754Y-81714500D01*
X125217715Y-81694815D01*
X125197073Y-81678181D01*
X124856819Y-81337926D01*
X124823334Y-81276603D01*
X124820500Y-81250245D01*
X124820500Y-80956929D01*
X124817710Y-80927185D01*
X124817710Y-80927181D01*
X124817708Y-80927177D01*
X124817708Y-80927173D01*
X124785279Y-80834500D01*
X124773852Y-80801843D01*
X124694999Y-80695001D01*
X124588157Y-80616148D01*
X124588155Y-80616147D01*
X124462826Y-80572291D01*
X124462814Y-80572289D01*
X124433070Y-80569500D01*
X124433066Y-80569500D01*
X124046934Y-80569500D01*
X124046930Y-80569500D01*
X124017185Y-80572289D01*
X124017173Y-80572291D01*
X123891844Y-80616147D01*
X123833213Y-80659419D01*
X123767584Y-80683390D01*
X123699413Y-80668074D01*
X123685945Y-80659419D01*
X123627920Y-80616594D01*
X123530000Y-80582330D01*
X123530000Y-81056000D01*
X123510315Y-81123039D01*
X123457511Y-81168794D01*
X123406000Y-81180000D01*
X123154000Y-81180000D01*
X123086961Y-81160315D01*
X123041206Y-81107511D01*
X123030000Y-81056000D01*
X123030000Y-80582330D01*
X123027855Y-80580808D01*
X122965676Y-80583983D01*
X122905049Y-80549255D01*
X122872821Y-80487261D01*
X122870500Y-80463380D01*
X122870500Y-79155500D01*
X122890185Y-79088461D01*
X122942989Y-79042706D01*
X122994500Y-79031500D01*
X124023745Y-79031500D01*
X124090784Y-79051185D01*
G37*
%TD.AperFunction*%
%TA.AperFunction,Conductor*%
G36*
X134468602Y-80099350D02*
G01*
X134521715Y-80144745D01*
X134541855Y-80211649D01*
X134541858Y-80212492D01*
X134541858Y-80603139D01*
X134522173Y-80670178D01*
X134469369Y-80715933D01*
X134400211Y-80725877D01*
X134344225Y-80702909D01*
X134267922Y-80646595D01*
X134267923Y-80646595D01*
X134208886Y-80625937D01*
X134152110Y-80585215D01*
X134126364Y-80520262D01*
X134139821Y-80451700D01*
X134162168Y-80421208D01*
X134168796Y-80414581D01*
X134187862Y-80391570D01*
X134245477Y-80271930D01*
X134256337Y-80199875D01*
X134267133Y-80176653D01*
X134274183Y-80152027D01*
X134281620Y-80145493D01*
X134285793Y-80136519D01*
X134307430Y-80122819D01*
X134326675Y-80105914D01*
X134340892Y-80101634D01*
X134344826Y-80099144D01*
X134360471Y-80095741D01*
X134399377Y-80089877D01*
X134468602Y-80099350D01*
G37*
%TD.AperFunction*%
%TA.AperFunction,Conductor*%
G36*
X133119423Y-72199484D02*
G01*
X133175356Y-72241356D01*
X133199773Y-72306820D01*
X133200089Y-72315666D01*
X133200089Y-76652099D01*
X133180404Y-76719138D01*
X133163770Y-76739780D01*
X132550522Y-77353027D01*
X132550520Y-77353030D01*
X132497791Y-77444357D01*
X132478116Y-77517791D01*
X132470500Y-77546214D01*
X132470500Y-77546216D01*
X132470500Y-78608273D01*
X132470500Y-78713727D01*
X132479147Y-78746000D01*
X132497793Y-78815589D01*
X132522738Y-78858794D01*
X132550520Y-78906913D01*
X132619391Y-78975784D01*
X132663181Y-79019573D01*
X132677888Y-79046506D01*
X132694477Y-79072320D01*
X132695368Y-79078519D01*
X132696666Y-79080896D01*
X132699500Y-79107255D01*
X132699500Y-79116000D01*
X132679815Y-79183039D01*
X132627011Y-79228794D01*
X132575500Y-79240000D01*
X132344000Y-79240000D01*
X132276961Y-79220315D01*
X132231206Y-79167511D01*
X132220000Y-79116000D01*
X132220000Y-78662531D01*
X132219999Y-78662530D01*
X132217274Y-78662786D01*
X132217272Y-78662787D01*
X132092078Y-78706595D01*
X132092077Y-78706595D01*
X132080759Y-78714949D01*
X132015130Y-78738920D01*
X131946960Y-78723604D01*
X131897892Y-78673864D01*
X131890584Y-78654091D01*
X131889705Y-78654399D01*
X131843403Y-78522077D01*
X131764641Y-78415358D01*
X131657919Y-78336594D01*
X131532727Y-78292787D01*
X131532725Y-78292786D01*
X131530000Y-78292530D01*
X131530000Y-78746000D01*
X131510315Y-78813039D01*
X131457511Y-78858794D01*
X131406000Y-78870000D01*
X131154000Y-78870000D01*
X131086961Y-78850315D01*
X131041206Y-78797511D01*
X131030000Y-78746000D01*
X131030000Y-78292530D01*
X131011067Y-78275293D01*
X130974748Y-78215604D01*
X130976464Y-78145756D01*
X131006864Y-78095925D01*
X132325480Y-76777310D01*
X132378207Y-76685985D01*
X132405500Y-76584124D01*
X132405500Y-76478670D01*
X132405500Y-74229531D01*
X132405501Y-74229518D01*
X132405501Y-74114076D01*
X132405501Y-74114075D01*
X132378207Y-74012215D01*
X132343845Y-73952698D01*
X132325480Y-73920889D01*
X132250913Y-73846322D01*
X132250912Y-73846321D01*
X132246582Y-73841991D01*
X132246571Y-73841981D01*
X132039594Y-73635004D01*
X132006109Y-73573681D01*
X132011093Y-73503989D01*
X132039594Y-73459642D01*
X132080295Y-73418941D01*
X132148884Y-73350352D01*
X132227941Y-73213420D01*
X132268864Y-73060693D01*
X132268864Y-72998891D01*
X132288549Y-72931852D01*
X132305183Y-72911210D01*
X132988408Y-72227985D01*
X133049731Y-72194500D01*
X133119423Y-72199484D01*
G37*
%TD.AperFunction*%
%TA.AperFunction,Conductor*%
G36*
X136981716Y-67820424D02*
G01*
X137125591Y-67867171D01*
X137198639Y-67878740D01*
X137285678Y-67892527D01*
X137348813Y-67922456D01*
X137385744Y-67981768D01*
X137384746Y-68051631D01*
X137346136Y-68109863D01*
X137285678Y-68137473D01*
X137125589Y-68162829D01*
X136953363Y-68218787D01*
X136953360Y-68218788D01*
X136792002Y-68301006D01*
X136652857Y-68402100D01*
X136587050Y-68425580D01*
X136518997Y-68409754D01*
X136514626Y-68405257D01*
X136519983Y-68419620D01*
X136532558Y-68441885D01*
X136531990Y-68451810D01*
X136535465Y-68461126D01*
X136530029Y-68486112D01*
X136528570Y-68511641D01*
X136521604Y-68524843D01*
X136520613Y-68529399D01*
X136512100Y-68542856D01*
X136411005Y-68682003D01*
X136328788Y-68843360D01*
X136328787Y-68843363D01*
X136272829Y-69015589D01*
X136244500Y-69194448D01*
X136244500Y-69375551D01*
X136272829Y-69554412D01*
X136319575Y-69698283D01*
X136321570Y-69768124D01*
X136289325Y-69824281D01*
X134621880Y-71491726D01*
X134621878Y-71491729D01*
X134569150Y-71583054D01*
X134563380Y-71604586D01*
X134563381Y-71604587D01*
X134541858Y-71684913D01*
X134541858Y-78675211D01*
X134522173Y-78742250D01*
X134469369Y-78788005D01*
X134400211Y-78797949D01*
X134398468Y-78797557D01*
X134258198Y-78776416D01*
X134127041Y-78796184D01*
X134007526Y-78853739D01*
X134007028Y-78854059D01*
X134006606Y-78854182D01*
X134000739Y-78857008D01*
X134000270Y-78856035D01*
X133939969Y-78873676D01*
X133872950Y-78853924D01*
X133832708Y-78811677D01*
X133780520Y-78721284D01*
X133668716Y-78609480D01*
X133668714Y-78609479D01*
X133668709Y-78609475D01*
X133531790Y-78530426D01*
X133531786Y-78530424D01*
X133531784Y-78530423D01*
X133379057Y-78489500D01*
X133379056Y-78489500D01*
X133371207Y-78487397D01*
X133371553Y-78486103D01*
X133315405Y-78461255D01*
X133276942Y-78402926D01*
X133271500Y-78366594D01*
X133271500Y-77816196D01*
X133291185Y-77749157D01*
X133307815Y-77728519D01*
X133836292Y-77200041D01*
X133836297Y-77200038D01*
X133846500Y-77189834D01*
X133846502Y-77189834D01*
X133921069Y-77115267D01*
X133973796Y-77023941D01*
X134001090Y-76922081D01*
X134001090Y-76816627D01*
X134001090Y-76809032D01*
X134001089Y-76809014D01*
X134001089Y-70756665D01*
X134020774Y-70689626D01*
X134037403Y-70668989D01*
X136324102Y-68382289D01*
X136346541Y-68370037D01*
X136366792Y-68354421D01*
X136376698Y-68353570D01*
X136385423Y-68348806D01*
X136410929Y-68350630D01*
X136436405Y-68348442D01*
X136445196Y-68353080D01*
X136455115Y-68353790D01*
X136475587Y-68369115D01*
X136483624Y-68373356D01*
X136470302Y-68359648D01*
X136456427Y-68291170D01*
X136481776Y-68226061D01*
X136492291Y-68214101D01*
X136658160Y-68048232D01*
X136855719Y-67850672D01*
X136917040Y-67817189D01*
X136981716Y-67820424D01*
G37*
%TD.AperFunction*%
%TA.AperFunction,Conductor*%
G36*
X124553834Y-77220869D02*
G01*
X124609767Y-77262741D01*
X124634184Y-77328205D01*
X124619332Y-77396478D01*
X124606944Y-77413024D01*
X124633419Y-77612098D01*
X124634295Y-77621291D01*
X124634502Y-77624882D01*
X124637413Y-77649987D01*
X124637414Y-77649989D01*
X124645368Y-77668003D01*
X124647010Y-77680544D01*
X124653079Y-77691639D01*
X124651459Y-77714525D01*
X124654439Y-77737281D01*
X124649039Y-77748719D01*
X124648147Y-77761335D01*
X124634409Y-77779714D01*
X124624615Y-77800466D01*
X124613890Y-77807168D01*
X124606318Y-77817300D01*
X124584823Y-77825335D01*
X124565365Y-77837496D01*
X124551159Y-77837919D01*
X124540871Y-77841765D01*
X124512528Y-77839069D01*
X124505665Y-77839274D01*
X124502732Y-77838638D01*
X124468627Y-77829500D01*
X124460572Y-77829500D01*
X124447590Y-77826686D01*
X124428105Y-77816065D01*
X124406819Y-77809815D01*
X124398030Y-77799672D01*
X124386242Y-77793247D01*
X124375592Y-77773777D01*
X124361064Y-77757011D01*
X124359153Y-77743725D01*
X124352712Y-77731949D01*
X124354278Y-77709817D01*
X124351120Y-77687853D01*
X124351153Y-77687623D01*
X124355906Y-77655000D01*
X124232553Y-77655000D01*
X124214063Y-77649570D01*
X124194797Y-77649112D01*
X124181229Y-77639929D01*
X124165514Y-77635315D01*
X124152896Y-77620753D01*
X124136934Y-77609950D01*
X124130484Y-77594888D01*
X124119759Y-77582511D01*
X124117016Y-77563438D01*
X124109430Y-77545722D01*
X124112146Y-77529567D01*
X124109815Y-77513353D01*
X124117820Y-77495823D01*
X124121016Y-77476819D01*
X124132035Y-77464697D01*
X124138840Y-77449797D01*
X124155052Y-77439377D01*
X124168015Y-77425119D01*
X124195665Y-77413277D01*
X124197618Y-77412023D01*
X124200418Y-77411236D01*
X124207927Y-77409224D01*
X124240017Y-77405000D01*
X124355905Y-77405000D01*
X124355905Y-77404999D01*
X124353593Y-77389127D01*
X124363409Y-77319950D01*
X124388612Y-77283577D01*
X124422822Y-77249367D01*
X124484142Y-77215885D01*
X124553834Y-77220869D01*
G37*
%TD.AperFunction*%
%TA.AperFunction,Conductor*%
G36*
X136981716Y-72900424D02*
G01*
X137125591Y-72947171D01*
X137245038Y-72966089D01*
X137287279Y-72972780D01*
X137350414Y-73002709D01*
X137387345Y-73062021D01*
X137386347Y-73131883D01*
X137347737Y-73190116D01*
X137287279Y-73217726D01*
X137125706Y-73243317D01*
X136953555Y-73299251D01*
X136953547Y-73299254D01*
X136792269Y-73381432D01*
X136776466Y-73392912D01*
X136776466Y-73392913D01*
X137265591Y-73882037D01*
X137202007Y-73899075D01*
X137087993Y-73964901D01*
X136994901Y-74057993D01*
X136929075Y-74172007D01*
X136912037Y-74235590D01*
X136422913Y-73746466D01*
X136422912Y-73746466D01*
X136411432Y-73762269D01*
X136329254Y-73923547D01*
X136329251Y-73923555D01*
X136273317Y-74095706D01*
X136245000Y-74274493D01*
X136245000Y-74455506D01*
X136273317Y-74634293D01*
X136329251Y-74806444D01*
X136329252Y-74806447D01*
X136411431Y-74967730D01*
X136422913Y-74983532D01*
X136422913Y-74983533D01*
X136912037Y-74494409D01*
X136929075Y-74557993D01*
X136994901Y-74672007D01*
X137087993Y-74765099D01*
X137202007Y-74830925D01*
X137265590Y-74847962D01*
X136776466Y-75337085D01*
X136776466Y-75337086D01*
X136792267Y-75348566D01*
X136792275Y-75348571D01*
X136953552Y-75430747D01*
X136953555Y-75430748D01*
X137125706Y-75486682D01*
X137287279Y-75512273D01*
X137350413Y-75542202D01*
X137387345Y-75601513D01*
X137386347Y-75671376D01*
X137347738Y-75729609D01*
X137287280Y-75757219D01*
X137125589Y-75782829D01*
X136953363Y-75838787D01*
X136953360Y-75838788D01*
X136792002Y-75921006D01*
X136645505Y-76027441D01*
X136645500Y-76027445D01*
X136517445Y-76155500D01*
X136517441Y-76155505D01*
X136411006Y-76302002D01*
X136328788Y-76463360D01*
X136328787Y-76463363D01*
X136272829Y-76635589D01*
X136244500Y-76814448D01*
X136244500Y-76995551D01*
X136272829Y-77174412D01*
X136319575Y-77318283D01*
X136321570Y-77388124D01*
X136289325Y-77444281D01*
X135955539Y-77778067D01*
X135894216Y-77811552D01*
X135824524Y-77806568D01*
X135768591Y-77764696D01*
X135744174Y-77699232D01*
X135743858Y-77690386D01*
X135743858Y-74093896D01*
X135763543Y-74026857D01*
X135780172Y-74006219D01*
X136855719Y-72930672D01*
X136917040Y-72897189D01*
X136981716Y-72900424D01*
G37*
%TD.AperFunction*%
%TA.AperFunction,Conductor*%
G36*
X130150961Y-74207944D02*
G01*
X130206894Y-74249816D01*
X130231311Y-74315280D01*
X130227403Y-74356217D01*
X130224491Y-74367085D01*
X130217325Y-74393830D01*
X130217325Y-74393832D01*
X130217325Y-74551945D01*
X130218983Y-74558132D01*
X130217320Y-74627982D01*
X130178156Y-74685844D01*
X130150006Y-74701716D01*
X130150291Y-74702255D01*
X130142077Y-74706595D01*
X130035358Y-74785358D01*
X129956596Y-74892077D01*
X129922332Y-74990000D01*
X130396000Y-74990000D01*
X130463039Y-75009685D01*
X130508794Y-75062489D01*
X130520000Y-75114000D01*
X130520000Y-75366000D01*
X130500315Y-75433039D01*
X130447511Y-75478794D01*
X130396000Y-75490000D01*
X129880238Y-75490000D01*
X129829980Y-75494884D01*
X129812293Y-75490129D01*
X129762730Y-75472788D01*
X129762721Y-75472786D01*
X129760000Y-75472530D01*
X129760000Y-75926000D01*
X129740315Y-75993039D01*
X129687511Y-76038794D01*
X129636000Y-76050000D01*
X129510000Y-76050000D01*
X129510000Y-76176000D01*
X129508343Y-76181641D01*
X129509474Y-76187413D01*
X129498609Y-76214789D01*
X129490315Y-76243039D01*
X129485871Y-76246888D01*
X129483702Y-76252357D01*
X129459758Y-76269516D01*
X129437511Y-76288794D01*
X129430455Y-76290517D01*
X129426911Y-76293057D01*
X129404435Y-76296871D01*
X129392275Y-76299841D01*
X129194913Y-76309841D01*
X129193426Y-76309485D01*
X129188638Y-76310000D01*
X128634000Y-76310000D01*
X128566961Y-76290315D01*
X128521206Y-76237511D01*
X128510000Y-76186000D01*
X128510000Y-75934000D01*
X128529685Y-75866961D01*
X128582489Y-75821206D01*
X128634000Y-75810000D01*
X128791880Y-75810000D01*
X128805004Y-75802834D01*
X128831362Y-75800000D01*
X129260000Y-75800000D01*
X129260000Y-75472531D01*
X129259999Y-75472530D01*
X129257274Y-75472786D01*
X129257272Y-75472787D01*
X129132078Y-75516595D01*
X129132077Y-75516595D01*
X129076858Y-75557349D01*
X129052803Y-75566135D01*
X129030407Y-75578563D01*
X129020526Y-75577923D01*
X129011229Y-75581320D01*
X128986242Y-75575706D01*
X128960684Y-75574053D01*
X128947600Y-75567024D01*
X128943059Y-75566004D01*
X128929592Y-75557350D01*
X128912877Y-75545014D01*
X128870626Y-75489367D01*
X128865167Y-75419711D01*
X128898234Y-75358161D01*
X128898531Y-75357861D01*
X130019950Y-74236442D01*
X130081269Y-74202960D01*
X130150961Y-74207944D01*
G37*
%TD.AperFunction*%
%TA.AperFunction,Conductor*%
G36*
X138367084Y-74983532D02*
G01*
X138370772Y-74983242D01*
X138439149Y-74997606D01*
X138488905Y-75046658D01*
X138504500Y-75106860D01*
X138504500Y-76093113D01*
X138484815Y-76160152D01*
X138432011Y-76205907D01*
X138362853Y-76215851D01*
X138299297Y-76186826D01*
X138280182Y-76165998D01*
X138272558Y-76155505D01*
X138272554Y-76155500D01*
X138144499Y-76027445D01*
X138144494Y-76027441D01*
X137997997Y-75921006D01*
X137997996Y-75921005D01*
X137997994Y-75921004D01*
X137939664Y-75891283D01*
X137836639Y-75838788D01*
X137836636Y-75838787D01*
X137664410Y-75782828D01*
X137502720Y-75757219D01*
X137439585Y-75727289D01*
X137402654Y-75667978D01*
X137403652Y-75598115D01*
X137442262Y-75539883D01*
X137502721Y-75512273D01*
X137664292Y-75486683D01*
X137836444Y-75430748D01*
X137836452Y-75430745D01*
X137997730Y-75348568D01*
X138013532Y-75337085D01*
X138013533Y-75337085D01*
X137524410Y-74847962D01*
X137587993Y-74830925D01*
X137702007Y-74765099D01*
X137795099Y-74672007D01*
X137860925Y-74557993D01*
X137877962Y-74494410D01*
X138367084Y-74983532D01*
G37*
%TD.AperFunction*%
%TA.AperFunction,Conductor*%
G36*
X119149075Y-74557993D02*
G01*
X119214901Y-74672007D01*
X119307993Y-74765099D01*
X119422007Y-74830925D01*
X119485589Y-74847962D01*
X118996466Y-75337085D01*
X118996466Y-75337086D01*
X119012267Y-75348566D01*
X119012275Y-75348571D01*
X119173552Y-75430747D01*
X119173555Y-75430748D01*
X119345706Y-75486682D01*
X119507279Y-75512273D01*
X119570413Y-75542202D01*
X119607345Y-75601513D01*
X119606347Y-75671376D01*
X119567738Y-75729609D01*
X119507280Y-75757219D01*
X119345589Y-75782829D01*
X119173363Y-75838787D01*
X119173360Y-75838788D01*
X119012002Y-75921006D01*
X118865505Y-76027441D01*
X118865500Y-76027445D01*
X118737445Y-76155500D01*
X118737441Y-76155505D01*
X118729818Y-76165998D01*
X118674488Y-76208664D01*
X118604875Y-76214643D01*
X118543080Y-76182037D01*
X118508723Y-76121199D01*
X118505500Y-76093113D01*
X118505500Y-75106861D01*
X118525185Y-75039822D01*
X118577989Y-74994067D01*
X118639229Y-74983243D01*
X118642913Y-74983533D01*
X119132037Y-74494409D01*
X119149075Y-74557993D01*
G37*
%TD.AperFunction*%
%TA.AperFunction,Conductor*%
G36*
X123491881Y-55735185D02*
G01*
X123537636Y-55787989D01*
X123547580Y-55857147D01*
X123527944Y-55908391D01*
X123476052Y-55986051D01*
X123476047Y-55986060D01*
X123415743Y-56131648D01*
X123415741Y-56131656D01*
X123385000Y-56286202D01*
X123385000Y-56415000D01*
X123885000Y-56415000D01*
X123885000Y-56915000D01*
X123385000Y-56915000D01*
X123385000Y-57043797D01*
X123415741Y-57198343D01*
X123415743Y-57198351D01*
X123476047Y-57343939D01*
X123476052Y-57343948D01*
X123563598Y-57474969D01*
X123563601Y-57474973D01*
X123675026Y-57586398D01*
X123675034Y-57586404D01*
X123806047Y-57673944D01*
X123806065Y-57673954D01*
X123934999Y-57727360D01*
X123935000Y-57727360D01*
X123935000Y-57131988D01*
X123944940Y-57149205D01*
X124000795Y-57205060D01*
X124069204Y-57244556D01*
X124145504Y-57265000D01*
X124224496Y-57265000D01*
X124300796Y-57244556D01*
X124369205Y-57205060D01*
X124425060Y-57149205D01*
X124435000Y-57131988D01*
X124435000Y-57727360D01*
X124563934Y-57673954D01*
X124563952Y-57673944D01*
X124694965Y-57586404D01*
X124694973Y-57586398D01*
X124806398Y-57474973D01*
X124806401Y-57474969D01*
X124893947Y-57343948D01*
X124893952Y-57343939D01*
X124954256Y-57198351D01*
X124954258Y-57198343D01*
X124984999Y-57043797D01*
X124985000Y-57043794D01*
X124985000Y-56915000D01*
X124485000Y-56915000D01*
X124485000Y-56415000D01*
X124985000Y-56415000D01*
X124985000Y-56286206D01*
X124984999Y-56286202D01*
X124954258Y-56131656D01*
X124954256Y-56131648D01*
X124893952Y-55986060D01*
X124893947Y-55986051D01*
X124842056Y-55908391D01*
X124821178Y-55841714D01*
X124839662Y-55774333D01*
X124891641Y-55727643D01*
X124945158Y-55715500D01*
X132064842Y-55715500D01*
X132131881Y-55735185D01*
X132177636Y-55787989D01*
X132187580Y-55857147D01*
X132167944Y-55908391D01*
X132116052Y-55986051D01*
X132116047Y-55986060D01*
X132055743Y-56131648D01*
X132055741Y-56131656D01*
X132025000Y-56286202D01*
X132025000Y-56415000D01*
X132525000Y-56415000D01*
X132525000Y-56915000D01*
X132025000Y-56915000D01*
X132025000Y-57043797D01*
X132055741Y-57198343D01*
X132055744Y-57198355D01*
X132113333Y-57337387D01*
X132120802Y-57406856D01*
X132089527Y-57469335D01*
X132030867Y-57504613D01*
X131985413Y-57516793D01*
X131985412Y-57516793D01*
X131985410Y-57516794D01*
X131894085Y-57569521D01*
X130589426Y-58874181D01*
X130528103Y-58907666D01*
X130501745Y-58910500D01*
X127674273Y-58910500D01*
X127572410Y-58937793D01*
X127481087Y-58990520D01*
X127481084Y-58990522D01*
X126348806Y-60122800D01*
X126287483Y-60156285D01*
X126217791Y-60151301D01*
X126161858Y-60109429D01*
X126153738Y-60097120D01*
X126110975Y-60023054D01*
X126075515Y-59961635D01*
X125968365Y-59854485D01*
X125890499Y-59809529D01*
X125837136Y-59778719D01*
X125763950Y-59759109D01*
X125690766Y-59739500D01*
X125539234Y-59739500D01*
X125392863Y-59778719D01*
X125261635Y-59854485D01*
X125261632Y-59854487D01*
X125154487Y-59961632D01*
X125154481Y-59961641D01*
X125139499Y-59987589D01*
X125088931Y-60035803D01*
X125020324Y-60049024D01*
X124955460Y-60023054D01*
X124917553Y-59973038D01*
X124893954Y-59916064D01*
X124893947Y-59916051D01*
X124806401Y-59785030D01*
X124806398Y-59785026D01*
X124694973Y-59673601D01*
X124694969Y-59673598D01*
X124563948Y-59586052D01*
X124563938Y-59586047D01*
X124435000Y-59532639D01*
X124435000Y-60128011D01*
X124425060Y-60110795D01*
X124369205Y-60054940D01*
X124300796Y-60015444D01*
X124224496Y-59995000D01*
X124145504Y-59995000D01*
X124069204Y-60015444D01*
X124000795Y-60054940D01*
X123944940Y-60110795D01*
X123935000Y-60128011D01*
X123935000Y-59532639D01*
X123934999Y-59532639D01*
X123806061Y-59586047D01*
X123806051Y-59586052D01*
X123675030Y-59673598D01*
X123675026Y-59673601D01*
X123563601Y-59785026D01*
X123563598Y-59785030D01*
X123476052Y-59916051D01*
X123476047Y-59916060D01*
X123415743Y-60061648D01*
X123415741Y-60061656D01*
X123385000Y-60216202D01*
X123385000Y-60595000D01*
X123885000Y-60595000D01*
X123885000Y-61095000D01*
X123385000Y-61095000D01*
X123385000Y-61473797D01*
X123415741Y-61628343D01*
X123415743Y-61628351D01*
X123476047Y-61773939D01*
X123476052Y-61773948D01*
X123563598Y-61904969D01*
X123563601Y-61904973D01*
X123675026Y-62016398D01*
X123675034Y-62016404D01*
X123806047Y-62103944D01*
X123806065Y-62103954D01*
X123934999Y-62157360D01*
X123935000Y-62157360D01*
X123935000Y-61561988D01*
X123944940Y-61579205D01*
X124000795Y-61635060D01*
X124069204Y-61674556D01*
X124145504Y-61695000D01*
X124224496Y-61695000D01*
X124300796Y-61674556D01*
X124369205Y-61635060D01*
X124425060Y-61579205D01*
X124435000Y-61561988D01*
X124435000Y-62157359D01*
X124483547Y-62137251D01*
X124553017Y-62129782D01*
X124615496Y-62161057D01*
X124651148Y-62221146D01*
X124655000Y-62251812D01*
X124655000Y-62529785D01*
X124655002Y-62529808D01*
X124657908Y-62554869D01*
X124657909Y-62554873D01*
X124703211Y-62657474D01*
X124703214Y-62657479D01*
X124782520Y-62736785D01*
X124782525Y-62736788D01*
X124885123Y-62782089D01*
X124910206Y-62784999D01*
X125005000Y-62784998D01*
X125005000Y-62010000D01*
X124649000Y-62010000D01*
X124581961Y-61990315D01*
X124536206Y-61937511D01*
X124525000Y-61886000D01*
X124525000Y-61634000D01*
X124544685Y-61566961D01*
X124597489Y-61521206D01*
X124649000Y-61510000D01*
X125131000Y-61510000D01*
X125198039Y-61529685D01*
X125243794Y-61582489D01*
X125255000Y-61634000D01*
X125255000Y-61760000D01*
X125330501Y-61760000D01*
X125397540Y-61779685D01*
X125443295Y-61832489D01*
X125454501Y-61884000D01*
X125454501Y-62529856D01*
X125454502Y-62529882D01*
X125457413Y-62554987D01*
X125457414Y-62554988D01*
X125457414Y-62554990D01*
X125457415Y-62554991D01*
X125494434Y-62638832D01*
X125505000Y-62688917D01*
X125505000Y-62784999D01*
X125530500Y-62784999D01*
X125539185Y-62787549D01*
X125548147Y-62786261D01*
X125572187Y-62797239D01*
X125597539Y-62804684D01*
X125603466Y-62811524D01*
X125611703Y-62815286D01*
X125625992Y-62837520D01*
X125643294Y-62857488D01*
X125645581Y-62868002D01*
X125649477Y-62874064D01*
X125654500Y-62908999D01*
X125654500Y-62940500D01*
X125634815Y-63007539D01*
X125582011Y-63053294D01*
X125530500Y-63064500D01*
X125413856Y-63064500D01*
X125375841Y-63069065D01*
X125329411Y-63074640D01*
X125195023Y-63127636D01*
X125079920Y-63214922D01*
X125003488Y-63315712D01*
X124947295Y-63357235D01*
X124877574Y-63361786D01*
X124816460Y-63327920D01*
X124805881Y-63315711D01*
X124729721Y-63215278D01*
X124614729Y-63128077D01*
X124480467Y-63075131D01*
X124396102Y-63065000D01*
X124380000Y-63065000D01*
X124380000Y-64615000D01*
X124396102Y-64615000D01*
X124480467Y-64604868D01*
X124480468Y-64604868D01*
X124614729Y-64551922D01*
X124729721Y-64464721D01*
X124805881Y-64364288D01*
X124862073Y-64322765D01*
X124931794Y-64318213D01*
X124992908Y-64352077D01*
X125003488Y-64364287D01*
X125079651Y-64464721D01*
X125079922Y-64465078D01*
X125195025Y-64552364D01*
X125200988Y-64554715D01*
X125256131Y-64597617D01*
X125279327Y-64663524D01*
X125279500Y-64670070D01*
X125279500Y-66032273D01*
X125279500Y-66137727D01*
X125283119Y-66151233D01*
X125306793Y-66239589D01*
X125359520Y-66330913D01*
X125363873Y-66336585D01*
X125389070Y-66401753D01*
X125389500Y-66412075D01*
X125389500Y-67036769D01*
X125392353Y-67067199D01*
X125393964Y-67074573D01*
X125391423Y-67075127D01*
X125394343Y-67132523D01*
X125359604Y-67193144D01*
X125341465Y-67202569D01*
X125342245Y-67203668D01*
X125290000Y-67240737D01*
X125290000Y-68020000D01*
X125639999Y-68020000D01*
X125639999Y-67628303D01*
X125637148Y-67597895D01*
X125636298Y-67595466D01*
X125636200Y-67593552D01*
X125635538Y-67590520D01*
X125636039Y-67590410D01*
X125632733Y-67525688D01*
X125667459Y-67465059D01*
X125729451Y-67432828D01*
X125764916Y-67431048D01*
X125785731Y-67433000D01*
X125785734Y-67433000D01*
X126194265Y-67433000D01*
X126194266Y-67433000D01*
X126214532Y-67431099D01*
X126283116Y-67444436D01*
X126333603Y-67492737D01*
X126349962Y-67560664D01*
X126343158Y-67595500D01*
X126342354Y-67597798D01*
X126342353Y-67597800D01*
X126339500Y-67628230D01*
X126339500Y-68911769D01*
X126342353Y-68942199D01*
X126342353Y-68942201D01*
X126387206Y-69070381D01*
X126395269Y-69081305D01*
X126419241Y-69146933D01*
X126419500Y-69154940D01*
X126419500Y-69679928D01*
X126399815Y-69746967D01*
X126347011Y-69792722D01*
X126340996Y-69795280D01*
X126335028Y-69797633D01*
X126335026Y-69797634D01*
X126219920Y-69884922D01*
X126143488Y-69985712D01*
X126087295Y-70027235D01*
X126017574Y-70031786D01*
X125956460Y-69997920D01*
X125945881Y-69985711D01*
X125869721Y-69885278D01*
X125754729Y-69798077D01*
X125620467Y-69745131D01*
X125536102Y-69735000D01*
X125520000Y-69735000D01*
X125520000Y-71285000D01*
X125536102Y-71285000D01*
X125620467Y-71274868D01*
X125620468Y-71274868D01*
X125754729Y-71221922D01*
X125869721Y-71134721D01*
X125945881Y-71034288D01*
X126002073Y-70992765D01*
X126071794Y-70988213D01*
X126132908Y-71022077D01*
X126143488Y-71034287D01*
X126212967Y-71125907D01*
X126219922Y-71135078D01*
X126238865Y-71149443D01*
X126335023Y-71222363D01*
X126335024Y-71222363D01*
X126335025Y-71222364D01*
X126469410Y-71275359D01*
X126553856Y-71285500D01*
X126553862Y-71285500D01*
X127086145Y-71285500D01*
X127095198Y-71284412D01*
X127170590Y-71275359D01*
X127219056Y-71256245D01*
X127288640Y-71249962D01*
X127350577Y-71282297D01*
X127352228Y-71283918D01*
X129508277Y-73439967D01*
X129541762Y-73501290D01*
X129536778Y-73570982D01*
X129508277Y-73615329D01*
X128250426Y-74873181D01*
X128189103Y-74906666D01*
X128162745Y-74909500D01*
X127687273Y-74909500D01*
X127585412Y-74936793D01*
X127585409Y-74936794D01*
X127539750Y-74963155D01*
X127539750Y-74963156D01*
X127504457Y-74983533D01*
X127494087Y-74989520D01*
X127494084Y-74989522D01*
X127292181Y-75191426D01*
X127230858Y-75224911D01*
X127161166Y-75219927D01*
X127105233Y-75178055D01*
X127080816Y-75112591D01*
X127080500Y-75103745D01*
X127080500Y-74706929D01*
X127077710Y-74677185D01*
X127077710Y-74677181D01*
X127077708Y-74677177D01*
X127077708Y-74677173D01*
X127039928Y-74569207D01*
X127033852Y-74551843D01*
X126954999Y-74445001D01*
X126950864Y-74441949D01*
X126908615Y-74386301D01*
X126900500Y-74342181D01*
X126900500Y-73827275D01*
X126900500Y-73827273D01*
X126884163Y-73766302D01*
X126884163Y-73766301D01*
X126873208Y-73725413D01*
X126848916Y-73683340D01*
X126820480Y-73634087D01*
X126375913Y-73189520D01*
X126330250Y-73163156D01*
X126284589Y-73136793D01*
X126199846Y-73114087D01*
X126182727Y-73109500D01*
X125117273Y-73109500D01*
X125015413Y-73136793D01*
X125015412Y-73136793D01*
X125015410Y-73136794D01*
X125015409Y-73136794D01*
X124954176Y-73172148D01*
X124954175Y-73172149D01*
X124924088Y-73189519D01*
X124924085Y-73189521D01*
X124309522Y-73804084D01*
X124309520Y-73804087D01*
X124256792Y-73895413D01*
X124254275Y-73904808D01*
X124217910Y-73964469D01*
X124155063Y-73994998D01*
X124085688Y-73986703D01*
X124031810Y-73942218D01*
X124010535Y-73875666D01*
X124010500Y-73872715D01*
X124010500Y-73577254D01*
X124030185Y-73510215D01*
X124046819Y-73489573D01*
X124829573Y-72706819D01*
X124890896Y-72673334D01*
X124917254Y-72670500D01*
X126269902Y-72670500D01*
X126336941Y-72690185D01*
X126357583Y-72706819D01*
X126401284Y-72750520D01*
X126401286Y-72750521D01*
X126401290Y-72750524D01*
X126502563Y-72808993D01*
X126538216Y-72829577D01*
X126690943Y-72870500D01*
X126690945Y-72870500D01*
X126849055Y-72870500D01*
X126849057Y-72870500D01*
X127001784Y-72829577D01*
X127138716Y-72750520D01*
X127250520Y-72638716D01*
X127329577Y-72501784D01*
X127370500Y-72349057D01*
X127370500Y-72190943D01*
X127329577Y-72038216D01*
X127329573Y-72038209D01*
X127250524Y-71901290D01*
X127250518Y-71901282D01*
X127138717Y-71789481D01*
X127138709Y-71789475D01*
X127001790Y-71710426D01*
X127001786Y-71710424D01*
X127001784Y-71710423D01*
X126849057Y-71669500D01*
X126690943Y-71669500D01*
X126538216Y-71710423D01*
X126538209Y-71710426D01*
X126401290Y-71789475D01*
X126401282Y-71789481D01*
X126357583Y-71833181D01*
X126296260Y-71866666D01*
X126269902Y-71869500D01*
X124647273Y-71869500D01*
X124545411Y-71896793D01*
X124519798Y-71911581D01*
X124512932Y-71915546D01*
X124488115Y-71929874D01*
X124454088Y-71949519D01*
X124454085Y-71949521D01*
X123289522Y-73114084D01*
X123289520Y-73114087D01*
X123236794Y-73205409D01*
X123210883Y-73302112D01*
X123210882Y-73302114D01*
X123209500Y-73307271D01*
X123209500Y-74367085D01*
X123189815Y-74434124D01*
X123169232Y-74456084D01*
X123170151Y-74457003D01*
X123163577Y-74463577D01*
X123085618Y-74569207D01*
X123042258Y-74693118D01*
X123042258Y-74693120D01*
X123039500Y-74722538D01*
X123039500Y-75197453D01*
X123042258Y-75226874D01*
X123042260Y-75226884D01*
X123074924Y-75320230D01*
X123085619Y-75350794D01*
X123091321Y-75358520D01*
X123145453Y-75431866D01*
X123169424Y-75497495D01*
X123154109Y-75565666D01*
X123104368Y-75614734D01*
X123045683Y-75629500D01*
X122797273Y-75629500D01*
X122695410Y-75656793D01*
X122604087Y-75709520D01*
X122604084Y-75709522D01*
X122326731Y-75986876D01*
X122265408Y-76020361D01*
X122195716Y-76015377D01*
X122139783Y-75973505D01*
X122115366Y-75908041D01*
X122115050Y-75899195D01*
X122115050Y-70801102D01*
X124520000Y-70801102D01*
X124530131Y-70885467D01*
X124530131Y-70885468D01*
X124583077Y-71019729D01*
X124670278Y-71134721D01*
X124785270Y-71221922D01*
X124919532Y-71274868D01*
X125003898Y-71285000D01*
X125020000Y-71285000D01*
X125020000Y-70760000D01*
X124520000Y-70760000D01*
X124520000Y-70801102D01*
X122115050Y-70801102D01*
X122115050Y-70218897D01*
X124520000Y-70218897D01*
X124520000Y-70260000D01*
X125020000Y-70260000D01*
X125020000Y-69735000D01*
X125003898Y-69735000D01*
X124919532Y-69745131D01*
X124919531Y-69745131D01*
X124785270Y-69798077D01*
X124670278Y-69885278D01*
X124583077Y-70000270D01*
X124530131Y-70134531D01*
X124530131Y-70134532D01*
X124520000Y-70218897D01*
X122115050Y-70218897D01*
X122115050Y-68911696D01*
X124440001Y-68911696D01*
X124442851Y-68942106D01*
X124487653Y-69070145D01*
X124568207Y-69179292D01*
X124677354Y-69259846D01*
X124790000Y-69299261D01*
X124790000Y-69299260D01*
X125290000Y-69299260D01*
X125402645Y-69259846D01*
X125511792Y-69179292D01*
X125592346Y-69070145D01*
X125637149Y-68942104D01*
X125637149Y-68942100D01*
X125640000Y-68911706D01*
X125640000Y-68520000D01*
X125290000Y-68520000D01*
X125290000Y-69299260D01*
X124790000Y-69299260D01*
X124790000Y-68520000D01*
X124440001Y-68520000D01*
X124440001Y-68911696D01*
X122115050Y-68911696D01*
X122115050Y-68791826D01*
X122115050Y-68791823D01*
X122110465Y-68774711D01*
X122087757Y-68689962D01*
X122035030Y-68598637D01*
X121064686Y-67628293D01*
X124440000Y-67628293D01*
X124440000Y-68020000D01*
X124790000Y-68020000D01*
X124790000Y-67240737D01*
X124789999Y-67240737D01*
X124677355Y-67280153D01*
X124568207Y-67360707D01*
X124487653Y-67469854D01*
X124442850Y-67597895D01*
X124442850Y-67597899D01*
X124440000Y-67628293D01*
X121064686Y-67628293D01*
X120720673Y-67284280D01*
X120687189Y-67222958D01*
X120690423Y-67158284D01*
X120737171Y-67014409D01*
X120747635Y-66948343D01*
X120765500Y-66835551D01*
X120765500Y-66654448D01*
X120749019Y-66550397D01*
X120737171Y-66475591D01*
X120693796Y-66342093D01*
X120681212Y-66303363D01*
X120681211Y-66303360D01*
X120625742Y-66194498D01*
X120598996Y-66142006D01*
X120536401Y-66055851D01*
X120492558Y-65995505D01*
X120492554Y-65995500D01*
X120364499Y-65867445D01*
X120364494Y-65867441D01*
X120217997Y-65761006D01*
X120217996Y-65761005D01*
X120217994Y-65761004D01*
X120143011Y-65722798D01*
X120056639Y-65678788D01*
X120056636Y-65678787D01*
X119884410Y-65622829D01*
X119724321Y-65597473D01*
X119661186Y-65567544D01*
X119624255Y-65508232D01*
X119625253Y-65438370D01*
X119663863Y-65380137D01*
X119724321Y-65352527D01*
X119794425Y-65341422D01*
X119884409Y-65327171D01*
X120056639Y-65271211D01*
X120217994Y-65188996D01*
X120364501Y-65082553D01*
X120492553Y-64954501D01*
X120598996Y-64807994D01*
X120681211Y-64646639D01*
X120737171Y-64474409D01*
X120751765Y-64382259D01*
X120765500Y-64295551D01*
X120765500Y-64131102D01*
X123380000Y-64131102D01*
X123390131Y-64215467D01*
X123390131Y-64215468D01*
X123443077Y-64349729D01*
X123530278Y-64464721D01*
X123645270Y-64551922D01*
X123779532Y-64604868D01*
X123863898Y-64615000D01*
X123880000Y-64615000D01*
X123880000Y-64090000D01*
X123380000Y-64090000D01*
X123380000Y-64131102D01*
X120765500Y-64131102D01*
X120765500Y-64114448D01*
X120756565Y-64058036D01*
X120746772Y-63996214D01*
X120737171Y-63935591D01*
X120705098Y-63836879D01*
X120681212Y-63763363D01*
X120681206Y-63763350D01*
X120598995Y-63602004D01*
X120560411Y-63548897D01*
X123380000Y-63548897D01*
X123380000Y-63590000D01*
X123880000Y-63590000D01*
X123880000Y-63065000D01*
X123863898Y-63065000D01*
X123779532Y-63075131D01*
X123779531Y-63075131D01*
X123645270Y-63128077D01*
X123530278Y-63215278D01*
X123443077Y-63330270D01*
X123390131Y-63464531D01*
X123390131Y-63464532D01*
X123380000Y-63548897D01*
X120560411Y-63548897D01*
X120492558Y-63455505D01*
X120492554Y-63455500D01*
X120364499Y-63327445D01*
X120364494Y-63327441D01*
X120217997Y-63221006D01*
X120217996Y-63221005D01*
X120217994Y-63221004D01*
X120155587Y-63189206D01*
X120056639Y-63138788D01*
X120056636Y-63138787D01*
X119884410Y-63082828D01*
X119722720Y-63057219D01*
X119659585Y-63027289D01*
X119622654Y-62967978D01*
X119623652Y-62898115D01*
X119662262Y-62839883D01*
X119722721Y-62812273D01*
X119884292Y-62786683D01*
X120056444Y-62730748D01*
X120056452Y-62730745D01*
X120217730Y-62648568D01*
X120233532Y-62637085D01*
X120233533Y-62637085D01*
X119744410Y-62147962D01*
X119807993Y-62130925D01*
X119922007Y-62065099D01*
X120015099Y-61972007D01*
X120080925Y-61857993D01*
X120097962Y-61794410D01*
X120587085Y-62283533D01*
X120587085Y-62283532D01*
X120598568Y-62267730D01*
X120680745Y-62106452D01*
X120680748Y-62106444D01*
X120736682Y-61934293D01*
X120765000Y-61755506D01*
X120765000Y-61574493D01*
X120736682Y-61395706D01*
X120680748Y-61223555D01*
X120680747Y-61223552D01*
X120617759Y-61099933D01*
X120598571Y-61062275D01*
X120598566Y-61062267D01*
X120587085Y-61046466D01*
X120097962Y-61535589D01*
X120080925Y-61472007D01*
X120015099Y-61357993D01*
X119922007Y-61264901D01*
X119807993Y-61199075D01*
X119744409Y-61182037D01*
X120233533Y-60692913D01*
X120217730Y-60681431D01*
X120056447Y-60599252D01*
X120056444Y-60599251D01*
X119884293Y-60543317D01*
X119722720Y-60517726D01*
X119659585Y-60487797D01*
X119622654Y-60428485D01*
X119623652Y-60358623D01*
X119662262Y-60300390D01*
X119722720Y-60272780D01*
X119737270Y-60270475D01*
X119884409Y-60247171D01*
X120056639Y-60191211D01*
X120217994Y-60108996D01*
X120336284Y-60023054D01*
X120364495Y-60002558D01*
X120364497Y-60002555D01*
X120364501Y-60002553D01*
X120492553Y-59874501D01*
X120598996Y-59727994D01*
X120681211Y-59566639D01*
X120737171Y-59394409D01*
X120751765Y-59302259D01*
X120765500Y-59215551D01*
X120765500Y-59034448D01*
X120740115Y-58874181D01*
X120737171Y-58855591D01*
X120681211Y-58683361D01*
X120681211Y-58683360D01*
X120652740Y-58627484D01*
X120598996Y-58522006D01*
X120536401Y-58435851D01*
X120492558Y-58375505D01*
X120492554Y-58375500D01*
X120364499Y-58247445D01*
X120364494Y-58247441D01*
X120217997Y-58141006D01*
X120217996Y-58141005D01*
X120217994Y-58141004D01*
X120166300Y-58114664D01*
X120056639Y-58058788D01*
X120056636Y-58058787D01*
X119884410Y-58002829D01*
X119752728Y-57981972D01*
X119689594Y-57952042D01*
X119652663Y-57892731D01*
X119653661Y-57822868D01*
X119692271Y-57764636D01*
X119756235Y-57736522D01*
X119772120Y-57735499D01*
X120509864Y-57735499D01*
X120509879Y-57735497D01*
X120509882Y-57735497D01*
X120534987Y-57732586D01*
X120534988Y-57732585D01*
X120534991Y-57732585D01*
X120637765Y-57687206D01*
X120717206Y-57607765D01*
X120762585Y-57504991D01*
X120765500Y-57479865D01*
X120765499Y-56415000D01*
X120765499Y-55839500D01*
X120785183Y-55772461D01*
X120837987Y-55726706D01*
X120889499Y-55715500D01*
X123424842Y-55715500D01*
X123491881Y-55735185D01*
G37*
%TD.AperFunction*%
%TA.AperFunction,Conductor*%
G36*
X125979784Y-73930185D02*
G01*
X126000426Y-73946819D01*
X126063181Y-74009574D01*
X126077884Y-74036501D01*
X126094477Y-74062320D01*
X126095368Y-74068520D01*
X126096666Y-74070897D01*
X126099500Y-74097255D01*
X126099500Y-74277116D01*
X126079815Y-74344155D01*
X126027011Y-74389910D01*
X125957853Y-74399854D01*
X125901868Y-74376887D01*
X125887922Y-74366595D01*
X125790000Y-74332330D01*
X125790000Y-74806000D01*
X125770315Y-74873039D01*
X125717511Y-74918794D01*
X125666000Y-74930000D01*
X125414000Y-74930000D01*
X125346961Y-74910315D01*
X125301206Y-74857511D01*
X125290000Y-74806000D01*
X125290000Y-74332330D01*
X125289999Y-74332330D01*
X125224501Y-74355249D01*
X125154722Y-74358811D01*
X125094095Y-74324083D01*
X125061867Y-74262089D01*
X125068272Y-74192514D01*
X125095863Y-74150529D01*
X125299574Y-73946819D01*
X125360897Y-73913334D01*
X125387255Y-73910500D01*
X125912745Y-73910500D01*
X125979784Y-73930185D01*
G37*
%TD.AperFunction*%
%TA.AperFunction,Conductor*%
G36*
X118710703Y-72543173D02*
G01*
X118729821Y-72564004D01*
X118737446Y-72574500D01*
X118865500Y-72702554D01*
X118865505Y-72702558D01*
X118993287Y-72795396D01*
X119012006Y-72808996D01*
X119117484Y-72862740D01*
X119173360Y-72891211D01*
X119173363Y-72891212D01*
X119259476Y-72919191D01*
X119345591Y-72947171D01*
X119465038Y-72966089D01*
X119507279Y-72972780D01*
X119570414Y-73002709D01*
X119607345Y-73062021D01*
X119606347Y-73131883D01*
X119567737Y-73190116D01*
X119507279Y-73217726D01*
X119345706Y-73243317D01*
X119173555Y-73299251D01*
X119173547Y-73299254D01*
X119012269Y-73381432D01*
X118996466Y-73392912D01*
X118996466Y-73392913D01*
X119485590Y-73882037D01*
X119422007Y-73899075D01*
X119307993Y-73964901D01*
X119214901Y-74057993D01*
X119149075Y-74172007D01*
X119132037Y-74235590D01*
X118642913Y-73746466D01*
X118639229Y-73746756D01*
X118570852Y-73732392D01*
X118521095Y-73683340D01*
X118505500Y-73623138D01*
X118505500Y-72636886D01*
X118525185Y-72569847D01*
X118577989Y-72524092D01*
X118647147Y-72514148D01*
X118710703Y-72543173D01*
G37*
%TD.AperFunction*%
%TA.AperFunction,Conductor*%
G36*
X138466917Y-72547959D02*
G01*
X138501277Y-72608796D01*
X138504500Y-72636886D01*
X138504500Y-73623138D01*
X138484815Y-73690177D01*
X138432011Y-73735932D01*
X138370773Y-73746756D01*
X138367086Y-73746465D01*
X137877962Y-74235589D01*
X137860925Y-74172007D01*
X137795099Y-74057993D01*
X137702007Y-73964901D01*
X137587993Y-73899075D01*
X137524409Y-73882037D01*
X138013533Y-73392913D01*
X137997730Y-73381431D01*
X137836447Y-73299252D01*
X137836444Y-73299251D01*
X137664293Y-73243317D01*
X137502720Y-73217726D01*
X137439585Y-73187797D01*
X137402654Y-73128485D01*
X137403652Y-73058623D01*
X137442262Y-73000390D01*
X137502720Y-72972780D01*
X137517270Y-72970475D01*
X137664409Y-72947171D01*
X137836639Y-72891211D01*
X137997994Y-72808996D01*
X138144501Y-72702553D01*
X138272553Y-72574501D01*
X138280180Y-72564003D01*
X138335508Y-72521336D01*
X138405121Y-72515355D01*
X138466917Y-72547959D01*
G37*
%TD.AperFunction*%
%TA.AperFunction,Conductor*%
G36*
X126635703Y-63602540D02*
G01*
X126642181Y-63608572D01*
X126899519Y-63865910D01*
X126899521Y-63865913D01*
X126925593Y-63891985D01*
X126930116Y-63896508D01*
X126959473Y-63943230D01*
X126965618Y-63960792D01*
X126965620Y-63960796D01*
X127036465Y-64056788D01*
X127060436Y-64122416D01*
X127045120Y-64190587D01*
X127036465Y-64204055D01*
X126966066Y-64299440D01*
X126966065Y-64299442D01*
X126934378Y-64389999D01*
X126934378Y-64390000D01*
X127416000Y-64390000D01*
X127483039Y-64409685D01*
X127528794Y-64462489D01*
X127540000Y-64514000D01*
X127540000Y-64640000D01*
X127666000Y-64640000D01*
X127733039Y-64659685D01*
X127778794Y-64712489D01*
X127790000Y-64764000D01*
X127790000Y-65208817D01*
X127806780Y-65207244D01*
X127930561Y-65163931D01*
X128036065Y-65086065D01*
X128113933Y-64980559D01*
X128113934Y-64980557D01*
X128138459Y-64910471D01*
X128179181Y-64853695D01*
X128244133Y-64827948D01*
X128312695Y-64841404D01*
X128363098Y-64889792D01*
X128379500Y-64951426D01*
X128379500Y-70879043D01*
X128359815Y-70946082D01*
X128307011Y-70991837D01*
X128237853Y-71001781D01*
X128174297Y-70972756D01*
X128167819Y-70966724D01*
X127606819Y-70405724D01*
X127573334Y-70344401D01*
X127570500Y-70318043D01*
X127570500Y-70218862D01*
X127570500Y-70218856D01*
X127560359Y-70134410D01*
X127507364Y-70000025D01*
X127507363Y-70000024D01*
X127507363Y-70000023D01*
X127420078Y-69884921D01*
X127304973Y-69797634D01*
X127304971Y-69797633D01*
X127299004Y-69795280D01*
X127243862Y-69752371D01*
X127220672Y-69686462D01*
X127220500Y-69679928D01*
X127220500Y-69377102D01*
X127240185Y-69310063D01*
X127292989Y-69264308D01*
X127302605Y-69260438D01*
X127302879Y-69260294D01*
X127302882Y-69260293D01*
X127412150Y-69179650D01*
X127492793Y-69070382D01*
X127526475Y-68974124D01*
X127537646Y-68942201D01*
X127537646Y-68942199D01*
X127540500Y-68911769D01*
X127540500Y-67628230D01*
X127537646Y-67597800D01*
X127537646Y-67597798D01*
X127501500Y-67494501D01*
X127492793Y-67469618D01*
X127412150Y-67360350D01*
X127302882Y-67279707D01*
X127302880Y-67279706D01*
X127174700Y-67234853D01*
X127144270Y-67232000D01*
X127144266Y-67232000D01*
X126735734Y-67232000D01*
X126719852Y-67233489D01*
X126715462Y-67233901D01*
X126646878Y-67220560D01*
X126596394Y-67172257D01*
X126580038Y-67104329D01*
X126586847Y-67069484D01*
X126587646Y-67067199D01*
X126590500Y-67036769D01*
X126590500Y-65753230D01*
X126587646Y-65722800D01*
X126587646Y-65722798D01*
X126542793Y-65594619D01*
X126542792Y-65594617D01*
X126524523Y-65569863D01*
X126462150Y-65485350D01*
X126352882Y-65404707D01*
X126352880Y-65404706D01*
X126224700Y-65359853D01*
X126192921Y-65356873D01*
X126128012Y-65331014D01*
X126087388Y-65274168D01*
X126080500Y-65233415D01*
X126080500Y-64890000D01*
X126934378Y-64890000D01*
X126966065Y-64980557D01*
X126966066Y-64980559D01*
X127043934Y-65086065D01*
X127149438Y-65163931D01*
X127273219Y-65207244D01*
X127289999Y-65208817D01*
X127290000Y-65208816D01*
X127290000Y-64890000D01*
X126934378Y-64890000D01*
X126080500Y-64890000D01*
X126080500Y-64670070D01*
X126100185Y-64603031D01*
X126152989Y-64557276D01*
X126158973Y-64554730D01*
X126164975Y-64552364D01*
X126280078Y-64465078D01*
X126367364Y-64349975D01*
X126420359Y-64215590D01*
X126430500Y-64131144D01*
X126430500Y-63696253D01*
X126450185Y-63629214D01*
X126502989Y-63583459D01*
X126572147Y-63573515D01*
X126635703Y-63602540D01*
G37*
%TD.AperFunction*%
%TA.AperFunction,Conductor*%
G36*
X137304914Y-57755184D02*
G01*
X137350669Y-57807988D01*
X137360613Y-57877146D01*
X137331588Y-57940702D01*
X137272810Y-57978476D01*
X137257273Y-57981972D01*
X137125589Y-58002829D01*
X136953363Y-58058787D01*
X136953360Y-58058788D01*
X136792006Y-58141003D01*
X136652860Y-58242098D01*
X136587053Y-58265577D01*
X136523288Y-58250748D01*
X136526176Y-58263299D01*
X136534873Y-58278699D01*
X136533847Y-58296640D01*
X136537877Y-58314155D01*
X136531890Y-58330872D01*
X136530885Y-58348455D01*
X136514415Y-58379671D01*
X136411003Y-58522006D01*
X136328788Y-58683360D01*
X136328787Y-58683363D01*
X136272829Y-58855589D01*
X136244500Y-59034448D01*
X136244500Y-59215551D01*
X136272829Y-59394410D01*
X136328787Y-59566636D01*
X136328788Y-59566639D01*
X136379596Y-59666353D01*
X136409545Y-59725131D01*
X136411006Y-59727997D01*
X136517441Y-59874494D01*
X136517445Y-59874499D01*
X136645500Y-60002554D01*
X136645505Y-60002558D01*
X136769803Y-60092865D01*
X136792006Y-60108996D01*
X136891123Y-60159499D01*
X136953360Y-60191211D01*
X136953363Y-60191212D01*
X137030277Y-60216202D01*
X137125591Y-60247171D01*
X137245038Y-60266089D01*
X137287279Y-60272780D01*
X137350414Y-60302709D01*
X137387345Y-60362021D01*
X137386347Y-60431883D01*
X137347737Y-60490116D01*
X137287279Y-60517726D01*
X137125706Y-60543317D01*
X136953555Y-60599251D01*
X136953547Y-60599254D01*
X136792269Y-60681432D01*
X136776466Y-60692912D01*
X136776466Y-60692913D01*
X137265591Y-61182037D01*
X137202007Y-61199075D01*
X137087993Y-61264901D01*
X136994901Y-61357993D01*
X136929075Y-61472007D01*
X136912037Y-61535590D01*
X136422913Y-61046466D01*
X136422912Y-61046466D01*
X136411432Y-61062269D01*
X136329254Y-61223547D01*
X136329251Y-61223555D01*
X136273317Y-61395706D01*
X136245000Y-61574493D01*
X136245000Y-61755506D01*
X136273317Y-61934293D01*
X136329251Y-62106444D01*
X136329252Y-62106447D01*
X136411431Y-62267730D01*
X136422913Y-62283532D01*
X136422913Y-62283533D01*
X136912037Y-61794409D01*
X136929075Y-61857993D01*
X136994901Y-61972007D01*
X137087993Y-62065099D01*
X137202007Y-62130925D01*
X137265590Y-62147962D01*
X136776466Y-62637085D01*
X136776466Y-62637086D01*
X136792267Y-62648566D01*
X136792275Y-62648571D01*
X136953552Y-62730747D01*
X136953555Y-62730748D01*
X137125706Y-62786682D01*
X137287279Y-62812273D01*
X137350413Y-62842202D01*
X137387345Y-62901513D01*
X137386347Y-62971376D01*
X137347738Y-63029609D01*
X137287280Y-63057219D01*
X137125589Y-63082829D01*
X136953363Y-63138787D01*
X136953360Y-63138788D01*
X136792002Y-63221006D01*
X136645505Y-63327441D01*
X136645500Y-63327445D01*
X136517445Y-63455500D01*
X136517441Y-63455505D01*
X136411006Y-63602002D01*
X136326577Y-63767702D01*
X136325028Y-63766913D01*
X136285877Y-63815471D01*
X136219577Y-63837517D01*
X136151882Y-63820219D01*
X136104286Y-63769069D01*
X136099835Y-63759098D01*
X136090862Y-63736342D01*
X136090860Y-63736339D01*
X136001500Y-63618499D01*
X135883660Y-63529139D01*
X135883658Y-63529138D01*
X135746077Y-63474883D01*
X135746076Y-63474882D01*
X135746074Y-63474882D01*
X135659619Y-63464500D01*
X135659618Y-63464500D01*
X135000382Y-63464500D01*
X135000381Y-63464500D01*
X134913925Y-63474882D01*
X134913924Y-63474882D01*
X134776339Y-63529139D01*
X134658499Y-63618499D01*
X134569139Y-63736339D01*
X134564982Y-63743734D01*
X134563231Y-63742750D01*
X134527170Y-63789089D01*
X134461260Y-63812276D01*
X134393277Y-63796149D01*
X134344805Y-63745827D01*
X134341302Y-63738154D01*
X134340420Y-63736586D01*
X134251143Y-63618856D01*
X134133413Y-63529579D01*
X134133407Y-63529576D01*
X133995958Y-63475373D01*
X133909572Y-63465000D01*
X133830000Y-63465000D01*
X133830000Y-65021965D01*
X133855107Y-65067945D01*
X133850123Y-65137637D01*
X133821622Y-65181984D01*
X132880874Y-66122732D01*
X132819551Y-66156217D01*
X132749859Y-66151233D01*
X132748049Y-66150000D01*
X131680000Y-66150000D01*
X131680000Y-66600000D01*
X132277828Y-66600000D01*
X132277844Y-66599999D01*
X132337372Y-66593598D01*
X132337379Y-66593596D01*
X132472086Y-66543354D01*
X132472089Y-66543352D01*
X132530777Y-66499418D01*
X132596241Y-66475000D01*
X132664514Y-66489851D01*
X132713920Y-66539255D01*
X132729089Y-66598684D01*
X132729089Y-69400690D01*
X132709404Y-69467729D01*
X132656600Y-69513484D01*
X132587442Y-69523428D01*
X132530778Y-69499957D01*
X132472331Y-69456204D01*
X132472328Y-69456202D01*
X132337482Y-69405908D01*
X132337483Y-69405908D01*
X132277883Y-69399501D01*
X132277881Y-69399500D01*
X132277873Y-69399500D01*
X132277864Y-69399500D01*
X130582129Y-69399500D01*
X130582123Y-69399501D01*
X130522516Y-69405908D01*
X130387671Y-69456202D01*
X130387664Y-69456206D01*
X130272455Y-69542452D01*
X130272452Y-69542455D01*
X130186206Y-69657664D01*
X130186202Y-69657671D01*
X130135910Y-69792513D01*
X130135909Y-69792517D01*
X130129500Y-69852127D01*
X130129500Y-69852134D01*
X130129500Y-69852135D01*
X130129500Y-70347870D01*
X130129501Y-70347876D01*
X130135908Y-70407483D01*
X130186202Y-70542328D01*
X130186203Y-70542330D01*
X130242719Y-70617825D01*
X130267136Y-70683289D01*
X130252285Y-70751562D01*
X130202880Y-70800968D01*
X130143452Y-70816136D01*
X130024307Y-70816136D01*
X129871580Y-70857059D01*
X129871575Y-70857061D01*
X129816498Y-70888859D01*
X129748598Y-70905330D01*
X129682571Y-70882477D01*
X129639382Y-70827555D01*
X129630500Y-70781471D01*
X129630500Y-67427304D01*
X129650185Y-67360265D01*
X129666819Y-67339623D01*
X129677279Y-67329163D01*
X129751846Y-67254596D01*
X129804573Y-67163270D01*
X129806167Y-67157322D01*
X129831867Y-67061409D01*
X129831867Y-66955956D01*
X129831867Y-66948361D01*
X129831866Y-66948343D01*
X129831866Y-66672778D01*
X129831867Y-66672765D01*
X129831867Y-66557325D01*
X129831867Y-66557323D01*
X129804573Y-66455462D01*
X129804571Y-66455459D01*
X129804572Y-66455459D01*
X129804488Y-66455314D01*
X129804486Y-66455311D01*
X129800107Y-66447727D01*
X129751846Y-66364136D01*
X129677279Y-66289569D01*
X129677277Y-66289568D01*
X129664907Y-66277198D01*
X129660287Y-66271302D01*
X129654170Y-66255947D01*
X129633330Y-66217768D01*
X129630500Y-66191428D01*
X129630500Y-66150000D01*
X130130234Y-66150000D01*
X130136401Y-66207375D01*
X130186645Y-66342086D01*
X130186649Y-66342093D01*
X130272809Y-66457187D01*
X130272812Y-66457190D01*
X130387906Y-66543350D01*
X130387913Y-66543354D01*
X130522620Y-66593596D01*
X130522627Y-66593598D01*
X130582155Y-66599999D01*
X130582172Y-66600000D01*
X131180000Y-66600000D01*
X131180000Y-66150000D01*
X130130234Y-66150000D01*
X129630500Y-66150000D01*
X129630500Y-65650000D01*
X130130234Y-65650000D01*
X131180000Y-65650000D01*
X131680000Y-65650000D01*
X132729765Y-65650000D01*
X132723598Y-65592624D01*
X132673354Y-65457913D01*
X132673350Y-65457906D01*
X132587190Y-65342812D01*
X132587187Y-65342809D01*
X132472093Y-65256649D01*
X132472086Y-65256645D01*
X132337379Y-65206403D01*
X132337372Y-65206401D01*
X132277844Y-65200000D01*
X131680000Y-65200000D01*
X131680000Y-65650000D01*
X131180000Y-65650000D01*
X131180000Y-65200000D01*
X130582155Y-65200000D01*
X130522627Y-65206401D01*
X130522614Y-65206404D01*
X130518610Y-65207898D01*
X130515288Y-65208135D01*
X130515070Y-65208187D01*
X130515061Y-65208151D01*
X130448918Y-65212880D01*
X130387597Y-65179393D01*
X130354114Y-65118069D01*
X130359101Y-65048377D01*
X130391696Y-65004837D01*
X130389495Y-65002636D01*
X130396063Y-64996067D01*
X130473933Y-64890559D01*
X130473934Y-64890557D01*
X130505621Y-64800000D01*
X130150000Y-64800000D01*
X130150000Y-65118817D01*
X130166782Y-65117244D01*
X130166784Y-65117244D01*
X130172657Y-65115189D01*
X130242435Y-65111625D01*
X130303064Y-65146352D01*
X130335293Y-65208344D01*
X130328890Y-65277920D01*
X130287928Y-65331494D01*
X130272811Y-65342810D01*
X130272809Y-65342812D01*
X130186649Y-65457906D01*
X130186645Y-65457913D01*
X130136401Y-65592624D01*
X130130234Y-65650000D01*
X129630500Y-65650000D01*
X129630500Y-65191364D01*
X129650000Y-65124955D01*
X129650000Y-64674000D01*
X129669685Y-64606961D01*
X129722489Y-64561206D01*
X129774000Y-64550000D01*
X129900000Y-64550000D01*
X129900000Y-64519571D01*
X132755000Y-64519571D01*
X132765373Y-64605958D01*
X132819576Y-64743407D01*
X132819579Y-64743413D01*
X132908856Y-64861143D01*
X133026586Y-64950420D01*
X133026592Y-64950423D01*
X133164041Y-65004626D01*
X133250428Y-65015000D01*
X133330000Y-65015000D01*
X133330000Y-64490000D01*
X132755000Y-64490000D01*
X132755000Y-64519571D01*
X129900000Y-64519571D01*
X129900000Y-64424000D01*
X129919685Y-64356961D01*
X129972489Y-64311206D01*
X130024000Y-64300000D01*
X130505622Y-64300000D01*
X130505621Y-64299999D01*
X130473934Y-64209442D01*
X130473932Y-64209439D01*
X130403535Y-64114056D01*
X130394748Y-64089999D01*
X130382320Y-64067602D01*
X130382959Y-64057724D01*
X130379563Y-64048427D01*
X130385177Y-64023436D01*
X130386831Y-63997878D01*
X130393857Y-63984798D01*
X130394878Y-63980257D01*
X130403529Y-63966794D01*
X130408227Y-63960428D01*
X132755000Y-63960428D01*
X132755000Y-63990000D01*
X133330000Y-63990000D01*
X133330000Y-63465000D01*
X133250428Y-63465000D01*
X133164041Y-63475373D01*
X133026592Y-63529576D01*
X133026586Y-63529579D01*
X132908856Y-63618856D01*
X132819579Y-63736586D01*
X132819576Y-63736592D01*
X132765373Y-63874041D01*
X132755000Y-63960428D01*
X130408227Y-63960428D01*
X130474381Y-63870794D01*
X130502971Y-63789089D01*
X130517741Y-63746881D01*
X130517741Y-63746879D01*
X130518559Y-63738154D01*
X130520500Y-63717457D01*
X130520499Y-63342544D01*
X130517741Y-63313121D01*
X130474381Y-63189206D01*
X130396423Y-63083577D01*
X130396421Y-63083576D01*
X130396421Y-63083575D01*
X130295740Y-63009269D01*
X130280446Y-62989126D01*
X130262107Y-62971708D01*
X130259675Y-62961769D01*
X130253489Y-62953622D01*
X130251512Y-62928408D01*
X130245502Y-62903840D01*
X130248829Y-62894165D01*
X130248030Y-62883966D01*
X130260001Y-62861683D01*
X130268226Y-62837769D01*
X130276254Y-62831430D01*
X130281097Y-62822416D01*
X130303214Y-62810143D01*
X130323063Y-62794471D01*
X130335960Y-62791972D01*
X130342191Y-62788515D01*
X130357345Y-62786084D01*
X130363348Y-62785499D01*
X130449864Y-62785499D01*
X130474991Y-62782585D01*
X130498142Y-62772362D01*
X130517971Y-62770430D01*
X130533503Y-62773392D01*
X130549183Y-62771338D01*
X130580084Y-62780410D01*
X130585009Y-62782585D01*
X130610135Y-62785500D01*
X131299864Y-62785499D01*
X131299879Y-62785497D01*
X131299882Y-62785497D01*
X131334258Y-62781511D01*
X131334432Y-62783016D01*
X131375629Y-62783017D01*
X131375862Y-62781015D01*
X131410206Y-62784999D01*
X131505000Y-62784998D01*
X131505000Y-62688917D01*
X131515565Y-62638832D01*
X131552585Y-62554991D01*
X131555500Y-62529865D01*
X131555499Y-61859859D01*
X131575183Y-61792822D01*
X131627987Y-61747067D01*
X131694248Y-61736741D01*
X131895749Y-61760880D01*
X131921336Y-61771844D01*
X131948039Y-61779685D01*
X131953002Y-61785412D01*
X131959971Y-61788399D01*
X131975569Y-61811456D01*
X131993794Y-61832489D01*
X131995688Y-61841196D01*
X131999121Y-61846271D01*
X131999403Y-61858276D01*
X132005000Y-61884000D01*
X132005000Y-62784999D01*
X132099786Y-62784999D01*
X132099808Y-62784997D01*
X132124869Y-62782091D01*
X132124873Y-62782090D01*
X132227474Y-62736788D01*
X132227479Y-62736785D01*
X132306785Y-62657479D01*
X132306788Y-62657474D01*
X132352089Y-62554877D01*
X132352089Y-62554875D01*
X132354999Y-62529794D01*
X132354999Y-62251812D01*
X132374683Y-62184773D01*
X132427487Y-62139018D01*
X132496646Y-62129074D01*
X132526451Y-62137251D01*
X132574999Y-62157360D01*
X132575000Y-62157360D01*
X132575000Y-61561988D01*
X132584940Y-61579205D01*
X132640795Y-61635060D01*
X132709204Y-61674556D01*
X132785504Y-61695000D01*
X132864496Y-61695000D01*
X132940796Y-61674556D01*
X133009205Y-61635060D01*
X133065060Y-61579205D01*
X133075000Y-61561988D01*
X133075000Y-62157360D01*
X133203934Y-62103954D01*
X133203952Y-62103944D01*
X133334965Y-62016404D01*
X133334973Y-62016398D01*
X133446398Y-61904973D01*
X133446401Y-61904969D01*
X133533947Y-61773948D01*
X133533952Y-61773939D01*
X133594256Y-61628352D01*
X133610750Y-61545430D01*
X133610751Y-61545426D01*
X133624999Y-61473796D01*
X133625000Y-61473794D01*
X133625000Y-61095000D01*
X133125000Y-61095000D01*
X133125000Y-60595000D01*
X133625000Y-60595000D01*
X133625000Y-60216206D01*
X133624999Y-60216202D01*
X133594258Y-60061656D01*
X133594256Y-60061648D01*
X133533952Y-59916060D01*
X133533947Y-59916051D01*
X133446401Y-59785030D01*
X133446398Y-59785026D01*
X133334973Y-59673601D01*
X133334969Y-59673598D01*
X133203948Y-59586052D01*
X133203938Y-59586047D01*
X133075000Y-59532639D01*
X133075000Y-60128011D01*
X133065060Y-60110795D01*
X133009205Y-60054940D01*
X132940796Y-60015444D01*
X132864496Y-59995000D01*
X132785504Y-59995000D01*
X132709204Y-60015444D01*
X132640795Y-60054940D01*
X132584940Y-60110795D01*
X132575000Y-60128011D01*
X132575000Y-59532639D01*
X132574999Y-59532639D01*
X132446061Y-59586047D01*
X132446051Y-59586052D01*
X132315030Y-59673598D01*
X132315026Y-59673601D01*
X132203601Y-59785026D01*
X132203598Y-59785030D01*
X132116052Y-59916051D01*
X132116049Y-59916057D01*
X132092446Y-59973040D01*
X132048604Y-60027443D01*
X131982310Y-60049507D01*
X131914611Y-60032227D01*
X131870498Y-59987587D01*
X131855515Y-59961635D01*
X131748365Y-59854485D01*
X131670499Y-59809529D01*
X131617136Y-59778719D01*
X131543950Y-59759109D01*
X131470766Y-59739500D01*
X131319234Y-59739500D01*
X131319229Y-59739500D01*
X131275591Y-59751193D01*
X131250600Y-59750597D01*
X131225853Y-59754156D01*
X131216270Y-59749779D01*
X131205742Y-59749529D01*
X131185040Y-59735517D01*
X131162297Y-59725131D01*
X131156602Y-59716269D01*
X131147880Y-59710366D01*
X131138039Y-59687385D01*
X131124523Y-59666353D01*
X131122242Y-59650494D01*
X131120377Y-59646137D01*
X131119500Y-59631418D01*
X131119500Y-59528255D01*
X131139185Y-59461216D01*
X131155819Y-59440574D01*
X132269574Y-58326819D01*
X132330897Y-58293334D01*
X132357255Y-58290500D01*
X136142725Y-58290500D01*
X136142727Y-58290500D01*
X136244588Y-58263207D01*
X136335913Y-58210480D01*
X136335917Y-58210475D01*
X136338606Y-58208413D01*
X136341288Y-58207375D01*
X136342951Y-58206416D01*
X136343100Y-58206675D01*
X136355101Y-58202035D01*
X136369107Y-58191235D01*
X136387011Y-58189697D01*
X136403774Y-58183216D01*
X136421101Y-58186769D01*
X136438720Y-58185256D01*
X136454613Y-58193641D01*
X136469716Y-58196738D01*
X136456430Y-58131167D01*
X136481780Y-58066058D01*
X136492294Y-58054098D01*
X136653661Y-57892731D01*
X136774573Y-57771817D01*
X136835896Y-57738333D01*
X136862254Y-57735499D01*
X137237875Y-57735499D01*
X137304914Y-57755184D01*
G37*
%TD.AperFunction*%
%TA.AperFunction,Conductor*%
G36*
X138367084Y-62283532D02*
G01*
X138370772Y-62283242D01*
X138439149Y-62297606D01*
X138488905Y-62346658D01*
X138504500Y-62406860D01*
X138504500Y-63393113D01*
X138484815Y-63460152D01*
X138432011Y-63505907D01*
X138362853Y-63515851D01*
X138299297Y-63486826D01*
X138280182Y-63465998D01*
X138272558Y-63455505D01*
X138272554Y-63455500D01*
X138144499Y-63327445D01*
X138144494Y-63327441D01*
X137997997Y-63221006D01*
X137997996Y-63221005D01*
X137997994Y-63221004D01*
X137935587Y-63189206D01*
X137836639Y-63138788D01*
X137836636Y-63138787D01*
X137664410Y-63082828D01*
X137502720Y-63057219D01*
X137439585Y-63027289D01*
X137402654Y-62967978D01*
X137403652Y-62898115D01*
X137442262Y-62839883D01*
X137502721Y-62812273D01*
X137664292Y-62786683D01*
X137836444Y-62730748D01*
X137836452Y-62730745D01*
X137997730Y-62648568D01*
X138013532Y-62637085D01*
X138013533Y-62637085D01*
X137524410Y-62147962D01*
X137587993Y-62130925D01*
X137702007Y-62065099D01*
X137795099Y-61972007D01*
X137860925Y-61857993D01*
X137877962Y-61794410D01*
X138367084Y-62283532D01*
G37*
%TD.AperFunction*%
%TA.AperFunction,Conductor*%
G36*
X119149075Y-61857993D02*
G01*
X119214901Y-61972007D01*
X119307993Y-62065099D01*
X119422007Y-62130925D01*
X119485590Y-62147962D01*
X118996466Y-62637085D01*
X118996466Y-62637086D01*
X119012267Y-62648566D01*
X119012275Y-62648571D01*
X119173552Y-62730747D01*
X119173555Y-62730748D01*
X119345706Y-62786682D01*
X119507279Y-62812273D01*
X119570413Y-62842202D01*
X119607345Y-62901513D01*
X119606347Y-62971376D01*
X119567738Y-63029609D01*
X119507280Y-63057219D01*
X119345589Y-63082829D01*
X119173363Y-63138787D01*
X119173360Y-63138788D01*
X119012002Y-63221006D01*
X118865505Y-63327441D01*
X118865500Y-63327445D01*
X118737445Y-63455500D01*
X118737441Y-63455505D01*
X118729818Y-63465998D01*
X118674488Y-63508664D01*
X118604875Y-63514643D01*
X118543080Y-63482037D01*
X118508723Y-63421199D01*
X118505500Y-63393113D01*
X118505500Y-62406861D01*
X118525185Y-62339822D01*
X118577989Y-62294067D01*
X118639229Y-62283243D01*
X118642913Y-62283533D01*
X119132037Y-61794409D01*
X119149075Y-61857993D01*
G37*
%TD.AperFunction*%
%TA.AperFunction,Conductor*%
G36*
X118710703Y-59843173D02*
G01*
X118729821Y-59864004D01*
X118737446Y-59874500D01*
X118865500Y-60002554D01*
X118865505Y-60002558D01*
X118989803Y-60092865D01*
X119012006Y-60108996D01*
X119111123Y-60159499D01*
X119173360Y-60191211D01*
X119173363Y-60191212D01*
X119250277Y-60216202D01*
X119345591Y-60247171D01*
X119465038Y-60266089D01*
X119507279Y-60272780D01*
X119570414Y-60302709D01*
X119607345Y-60362021D01*
X119606347Y-60431883D01*
X119567737Y-60490116D01*
X119507279Y-60517726D01*
X119345706Y-60543317D01*
X119173555Y-60599251D01*
X119173547Y-60599254D01*
X119012269Y-60681432D01*
X118996466Y-60692912D01*
X118996466Y-60692913D01*
X119485591Y-61182037D01*
X119422007Y-61199075D01*
X119307993Y-61264901D01*
X119214901Y-61357993D01*
X119149075Y-61472007D01*
X119132037Y-61535590D01*
X118642913Y-61046466D01*
X118639229Y-61046756D01*
X118570852Y-61032392D01*
X118521095Y-60983340D01*
X118505500Y-60923138D01*
X118505500Y-59936886D01*
X118525185Y-59869847D01*
X118577989Y-59824092D01*
X118647147Y-59814148D01*
X118710703Y-59843173D01*
G37*
%TD.AperFunction*%
%TA.AperFunction,Conductor*%
G36*
X138466917Y-59847959D02*
G01*
X138501277Y-59908796D01*
X138504500Y-59936886D01*
X138504500Y-60923138D01*
X138484815Y-60990177D01*
X138432011Y-61035932D01*
X138370773Y-61046756D01*
X138367086Y-61046465D01*
X137877962Y-61535589D01*
X137860925Y-61472007D01*
X137795099Y-61357993D01*
X137702007Y-61264901D01*
X137587993Y-61199075D01*
X137524409Y-61182037D01*
X138013533Y-60692913D01*
X137997730Y-60681431D01*
X137836447Y-60599252D01*
X137836444Y-60599251D01*
X137664293Y-60543317D01*
X137502720Y-60517726D01*
X137439585Y-60487797D01*
X137402654Y-60428485D01*
X137403652Y-60358623D01*
X137442262Y-60300390D01*
X137502720Y-60272780D01*
X137517270Y-60270475D01*
X137664409Y-60247171D01*
X137836639Y-60191211D01*
X137997994Y-60108996D01*
X138144501Y-60002553D01*
X138272553Y-59874501D01*
X138280180Y-59864003D01*
X138335508Y-59821336D01*
X138405121Y-59815355D01*
X138466917Y-59847959D01*
G37*
%TD.AperFunction*%
%TA.AperFunction,Conductor*%
G36*
X136187539Y-55735185D02*
G01*
X136233294Y-55787989D01*
X136244500Y-55839500D01*
X136244500Y-57117744D01*
X136224815Y-57184783D01*
X136208181Y-57205425D01*
X135960426Y-57453181D01*
X135899103Y-57486666D01*
X135872745Y-57489500D01*
X133659238Y-57489500D01*
X133592199Y-57469815D01*
X133546444Y-57417011D01*
X133536500Y-57347853D01*
X133544677Y-57318047D01*
X133594256Y-57198351D01*
X133594258Y-57198343D01*
X133624999Y-57043797D01*
X133625000Y-57043794D01*
X133625000Y-56915000D01*
X133125000Y-56915000D01*
X133125000Y-56415000D01*
X133625000Y-56415000D01*
X133625000Y-56286206D01*
X133624999Y-56286202D01*
X133594258Y-56131656D01*
X133594256Y-56131648D01*
X133533952Y-55986060D01*
X133533947Y-55986051D01*
X133482056Y-55908391D01*
X133461178Y-55841714D01*
X133479662Y-55774333D01*
X133531641Y-55727643D01*
X133585158Y-55715500D01*
X136120500Y-55715500D01*
X136187539Y-55735185D01*
G37*
%TD.AperFunction*%
%TD*%
%TA.AperFunction,NonConductor*%
G36*
X118679584Y-57725774D02*
G01*
X118695009Y-57732585D01*
X118720135Y-57735500D01*
X119457873Y-57735499D01*
X119524910Y-57755183D01*
X119570665Y-57807987D01*
X119580609Y-57877146D01*
X119551584Y-57940702D01*
X119492806Y-57978476D01*
X119477270Y-57981972D01*
X119345589Y-58002829D01*
X119173363Y-58058787D01*
X119173360Y-58058788D01*
X119012002Y-58141006D01*
X118865505Y-58247441D01*
X118865500Y-58247445D01*
X118737445Y-58375500D01*
X118737441Y-58375505D01*
X118729818Y-58385998D01*
X118674488Y-58428664D01*
X118604875Y-58434643D01*
X118543080Y-58402037D01*
X118508723Y-58341199D01*
X118505500Y-58313113D01*
X118505500Y-57839209D01*
X118525185Y-57772170D01*
X118577989Y-57726415D01*
X118647147Y-57716471D01*
X118679584Y-57725774D01*
G37*
%TD.AperFunction*%
%TA.AperFunction,NonConductor*%
G36*
X138462876Y-57746525D02*
G01*
X138499907Y-57805774D01*
X138504500Y-57839209D01*
X138504500Y-58313113D01*
X138484815Y-58380152D01*
X138432011Y-58425907D01*
X138362853Y-58435851D01*
X138299297Y-58406826D01*
X138280182Y-58385998D01*
X138272558Y-58375505D01*
X138272554Y-58375500D01*
X138144499Y-58247445D01*
X138144494Y-58247441D01*
X137997997Y-58141006D01*
X137997996Y-58141005D01*
X137997994Y-58141004D01*
X137946300Y-58114664D01*
X137836639Y-58058788D01*
X137836636Y-58058787D01*
X137664410Y-58002829D01*
X137532727Y-57981972D01*
X137469592Y-57952043D01*
X137432661Y-57892731D01*
X137433659Y-57822868D01*
X137472269Y-57764636D01*
X137536233Y-57736522D01*
X137552125Y-57735499D01*
X138289856Y-57735499D01*
X138289864Y-57735499D01*
X138289879Y-57735497D01*
X138289882Y-57735497D01*
X138314986Y-57732586D01*
X138314987Y-57732585D01*
X138314991Y-57732585D01*
X138330415Y-57725774D01*
X138399690Y-57716703D01*
X138462876Y-57746525D01*
G37*
%TD.AperFunction*%
%TA.AperFunction,NonConductor*%
G36*
X130261539Y-59731185D02*
G01*
X130307294Y-59783989D01*
X130318500Y-59835500D01*
X130318500Y-60610500D01*
X130316560Y-60617105D01*
X130317776Y-60623883D01*
X130306841Y-60650202D01*
X130298815Y-60677539D01*
X130293612Y-60682046D01*
X130290971Y-60688406D01*
X130267542Y-60704636D01*
X130246011Y-60723294D01*
X130238139Y-60725006D01*
X130233537Y-60728195D01*
X130198797Y-60734426D01*
X130196649Y-60734500D01*
X130060136Y-60734501D01*
X130035009Y-60737415D01*
X130028396Y-60740334D01*
X130009296Y-60740997D01*
X129984300Y-60738098D01*
X129984255Y-60738490D01*
X129974991Y-60737415D01*
X129969044Y-60736725D01*
X129949868Y-60734500D01*
X129949865Y-60734500D01*
X129779500Y-60734500D01*
X129712461Y-60714815D01*
X129666706Y-60662011D01*
X129657609Y-60620194D01*
X129656561Y-60620333D01*
X129655500Y-60612280D01*
X129655500Y-60612273D01*
X129628207Y-60510413D01*
X129575480Y-60419087D01*
X129500913Y-60344520D01*
X129395913Y-60239520D01*
X129350250Y-60213156D01*
X129304589Y-60186793D01*
X129253657Y-60173146D01*
X129202727Y-60159500D01*
X129202726Y-60159500D01*
X128538339Y-60159500D01*
X128538323Y-60159499D01*
X128530727Y-60159499D01*
X128425273Y-60159499D01*
X128357366Y-60177695D01*
X128323412Y-60186793D01*
X128272475Y-60216202D01*
X128232087Y-60239520D01*
X128164589Y-60307018D01*
X128164588Y-60307017D01*
X128164586Y-60307020D01*
X127934522Y-60537084D01*
X127934518Y-60537090D01*
X127881792Y-60628412D01*
X127877992Y-60642596D01*
X127841626Y-60702256D01*
X127778778Y-60732784D01*
X127758219Y-60734500D01*
X127560143Y-60734500D01*
X127560117Y-60734502D01*
X127525742Y-60738489D01*
X127525537Y-60736727D01*
X127484459Y-60736725D01*
X127484255Y-60738490D01*
X127474991Y-60737415D01*
X127469044Y-60736725D01*
X127449868Y-60734500D01*
X127169253Y-60734500D01*
X127102214Y-60714815D01*
X127056459Y-60662011D01*
X127046515Y-60592853D01*
X127075540Y-60529297D01*
X127081555Y-60522836D01*
X127856574Y-59747819D01*
X127917897Y-59714334D01*
X127944255Y-59711500D01*
X130194500Y-59711500D01*
X130261539Y-59731185D01*
G37*
%TD.AperFunction*%
%TA.AperFunction,NonConductor*%
G36*
X128312695Y-63822919D02*
G01*
X128363098Y-63871306D01*
X128379500Y-63932940D01*
X128379500Y-64328573D01*
X128359815Y-64395612D01*
X128307011Y-64441367D01*
X128237853Y-64451311D01*
X128174297Y-64422286D01*
X128147596Y-64389669D01*
X128035400Y-64191517D01*
X128029083Y-64164490D01*
X128019563Y-64138427D01*
X128021243Y-64130947D01*
X128019498Y-64123481D01*
X128028795Y-64097329D01*
X128034878Y-64070257D01*
X128042809Y-64057913D01*
X128042904Y-64057649D01*
X128043055Y-64057532D01*
X128043529Y-64056794D01*
X128114381Y-63960794D01*
X128136876Y-63896508D01*
X128138459Y-63891985D01*
X128179181Y-63835209D01*
X128244134Y-63809462D01*
X128312695Y-63822919D01*
G37*
%TD.AperFunction*%
%TA.AperFunction,NonConductor*%
G36*
X118643525Y-64894668D02*
G01*
X118647147Y-64894148D01*
X118675838Y-64907250D01*
X118705224Y-64918693D01*
X118708679Y-64922248D01*
X118710703Y-64923173D01*
X118729821Y-64944004D01*
X118737446Y-64954500D01*
X118865500Y-65082554D01*
X118865505Y-65082558D01*
X118941316Y-65137637D01*
X119012006Y-65188996D01*
X119099183Y-65233415D01*
X119173360Y-65271211D01*
X119173363Y-65271212D01*
X119259476Y-65299191D01*
X119345591Y-65327171D01*
X119418639Y-65338740D01*
X119505678Y-65352527D01*
X119568813Y-65382456D01*
X119605744Y-65441768D01*
X119604746Y-65511631D01*
X119566136Y-65569863D01*
X119505678Y-65597473D01*
X119345589Y-65622829D01*
X119173363Y-65678787D01*
X119173360Y-65678788D01*
X119012002Y-65761006D01*
X118865505Y-65867441D01*
X118865500Y-65867445D01*
X118737445Y-65995500D01*
X118737441Y-65995505D01*
X118729818Y-66005998D01*
X118674488Y-66048664D01*
X118604875Y-66054643D01*
X118543080Y-66022037D01*
X118508723Y-65961199D01*
X118505500Y-65933113D01*
X118505500Y-65016886D01*
X118514383Y-64986633D01*
X118521529Y-64955908D01*
X118524154Y-64953356D01*
X118525185Y-64949847D01*
X118549010Y-64929202D01*
X118571637Y-64907214D01*
X118575224Y-64906487D01*
X118577989Y-64904092D01*
X118609196Y-64899604D01*
X118640115Y-64893341D01*
X118643525Y-64894668D01*
G37*
%TD.AperFunction*%
%TA.AperFunction,NonConductor*%
G36*
X138466917Y-64927959D02*
G01*
X138501277Y-64988796D01*
X138504500Y-65016886D01*
X138504500Y-65933113D01*
X138484815Y-66000152D01*
X138432011Y-66045907D01*
X138362853Y-66055851D01*
X138299297Y-66026826D01*
X138280182Y-66005998D01*
X138272558Y-65995505D01*
X138272554Y-65995500D01*
X138144499Y-65867445D01*
X138144494Y-65867441D01*
X137997997Y-65761006D01*
X137997996Y-65761005D01*
X137997994Y-65761004D01*
X137923011Y-65722798D01*
X137836639Y-65678788D01*
X137836636Y-65678787D01*
X137664410Y-65622829D01*
X137504321Y-65597473D01*
X137441186Y-65567544D01*
X137404255Y-65508232D01*
X137405253Y-65438370D01*
X137443863Y-65380137D01*
X137504321Y-65352527D01*
X137574425Y-65341422D01*
X137664409Y-65327171D01*
X137836639Y-65271211D01*
X137997994Y-65188996D01*
X138144501Y-65082553D01*
X138272553Y-64954501D01*
X138280180Y-64944003D01*
X138335508Y-64901336D01*
X138405121Y-64895355D01*
X138466917Y-64927959D01*
G37*
%TD.AperFunction*%
%TA.AperFunction,NonConductor*%
G36*
X118710703Y-67463173D02*
G01*
X118729821Y-67484004D01*
X118737446Y-67494500D01*
X118865500Y-67622554D01*
X118865505Y-67622558D01*
X118993287Y-67715396D01*
X119012006Y-67728996D01*
X119117484Y-67782740D01*
X119173360Y-67811211D01*
X119173363Y-67811212D01*
X119259476Y-67839191D01*
X119345591Y-67867171D01*
X119418639Y-67878740D01*
X119505678Y-67892527D01*
X119568813Y-67922456D01*
X119605744Y-67981768D01*
X119604746Y-68051631D01*
X119566136Y-68109863D01*
X119505678Y-68137473D01*
X119345589Y-68162829D01*
X119173363Y-68218787D01*
X119173360Y-68218788D01*
X119012002Y-68301006D01*
X118865505Y-68407441D01*
X118865500Y-68407445D01*
X118737445Y-68535500D01*
X118737441Y-68535505D01*
X118729818Y-68545998D01*
X118674488Y-68588664D01*
X118604875Y-68594643D01*
X118543080Y-68562037D01*
X118508723Y-68501199D01*
X118505500Y-68473113D01*
X118505500Y-67556886D01*
X118525185Y-67489847D01*
X118577989Y-67444092D01*
X118647147Y-67434148D01*
X118710703Y-67463173D01*
G37*
%TD.AperFunction*%
%TA.AperFunction,NonConductor*%
G36*
X138466917Y-67467959D02*
G01*
X138501277Y-67528796D01*
X138504500Y-67556886D01*
X138504500Y-68473113D01*
X138484815Y-68540152D01*
X138432011Y-68585907D01*
X138362853Y-68595851D01*
X138299297Y-68566826D01*
X138280182Y-68545998D01*
X138272558Y-68535505D01*
X138272554Y-68535500D01*
X138144499Y-68407445D01*
X138144494Y-68407441D01*
X137997997Y-68301006D01*
X137997996Y-68301005D01*
X137997994Y-68301004D01*
X137946300Y-68274664D01*
X137836639Y-68218788D01*
X137836636Y-68218787D01*
X137664410Y-68162829D01*
X137504321Y-68137473D01*
X137441186Y-68107544D01*
X137404255Y-68048232D01*
X137405253Y-67978370D01*
X137443863Y-67920137D01*
X137504321Y-67892527D01*
X137574425Y-67881422D01*
X137664409Y-67867171D01*
X137836639Y-67811211D01*
X137997994Y-67728996D01*
X138144501Y-67622553D01*
X138272553Y-67494501D01*
X138280180Y-67484003D01*
X138335508Y-67441336D01*
X138405121Y-67435355D01*
X138466917Y-67467959D01*
G37*
%TD.AperFunction*%
%TA.AperFunction,NonConductor*%
G36*
X136242046Y-64607600D02*
G01*
X136260462Y-64606811D01*
X136275337Y-64615493D01*
X136292098Y-64619468D01*
X136304886Y-64632741D01*
X136320804Y-64642033D01*
X136339800Y-64668980D01*
X136340575Y-64669785D01*
X136341139Y-64670880D01*
X136411002Y-64807992D01*
X136411003Y-64807993D01*
X136517441Y-64954494D01*
X136517445Y-64954499D01*
X136645500Y-65082554D01*
X136645505Y-65082558D01*
X136721316Y-65137637D01*
X136792006Y-65188996D01*
X136879183Y-65233415D01*
X136953360Y-65271211D01*
X136953363Y-65271212D01*
X137039476Y-65299191D01*
X137125591Y-65327171D01*
X137198639Y-65338740D01*
X137285678Y-65352527D01*
X137348813Y-65382456D01*
X137385744Y-65441768D01*
X137384746Y-65511631D01*
X137346136Y-65569863D01*
X137285678Y-65597473D01*
X137125589Y-65622829D01*
X136953363Y-65678787D01*
X136953360Y-65678788D01*
X136792002Y-65761006D01*
X136645505Y-65867441D01*
X136645500Y-65867445D01*
X136517445Y-65995500D01*
X136517441Y-65995505D01*
X136411006Y-66142002D01*
X136328788Y-66303360D01*
X136328787Y-66303363D01*
X136272829Y-66475589D01*
X136244500Y-66654448D01*
X136244500Y-66835551D01*
X136272829Y-67014410D01*
X136319575Y-67158281D01*
X136321570Y-67228122D01*
X136289325Y-67284280D01*
X133741770Y-69831836D01*
X133680447Y-69865321D01*
X133610755Y-69860337D01*
X133554822Y-69818465D01*
X133530405Y-69753001D01*
X133530089Y-69744155D01*
X133530089Y-66657666D01*
X133549774Y-66590627D01*
X133566408Y-66569985D01*
X135084574Y-65051819D01*
X135145897Y-65018334D01*
X135172255Y-65015500D01*
X135659619Y-65015500D01*
X135681232Y-65012904D01*
X135746077Y-65005117D01*
X135883658Y-64950862D01*
X136001500Y-64861500D01*
X136090862Y-64743658D01*
X136115301Y-64681684D01*
X136126618Y-64667138D01*
X136133550Y-64650061D01*
X136147627Y-64640136D01*
X136158206Y-64626541D01*
X136175591Y-64620422D01*
X136190656Y-64609803D01*
X136207866Y-64609065D01*
X136224113Y-64603348D01*
X136242046Y-64607600D01*
G37*
%TD.AperFunction*%
%TA.AperFunction,NonConductor*%
G36*
X120154281Y-67850674D02*
G01*
X120517705Y-68214098D01*
X120551190Y-68275421D01*
X120546206Y-68345113D01*
X120520091Y-68379996D01*
X120540354Y-68360305D01*
X120608832Y-68346430D01*
X120673941Y-68371779D01*
X120685901Y-68382294D01*
X121277731Y-68974124D01*
X121311216Y-69035447D01*
X121314050Y-69061805D01*
X121314050Y-70118295D01*
X121294365Y-70185334D01*
X121241561Y-70231089D01*
X121172403Y-70241033D01*
X121108847Y-70212008D01*
X121102369Y-70205976D01*
X120720674Y-69824281D01*
X120687189Y-69762958D01*
X120690424Y-69698283D01*
X120737171Y-69554409D01*
X120739064Y-69542455D01*
X120765500Y-69375551D01*
X120765500Y-69194448D01*
X120745811Y-69070145D01*
X120737171Y-69015591D01*
X120681211Y-68843361D01*
X120681211Y-68843360D01*
X120646230Y-68774707D01*
X120598996Y-68682006D01*
X120589894Y-68669479D01*
X120497902Y-68542860D01*
X120474422Y-68477054D01*
X120490248Y-68409000D01*
X120494756Y-68404618D01*
X120438870Y-68425463D01*
X120370597Y-68410611D01*
X120357139Y-68402097D01*
X120217997Y-68301006D01*
X120217996Y-68301005D01*
X120217994Y-68301004D01*
X120166300Y-68274664D01*
X120056639Y-68218788D01*
X120056636Y-68218787D01*
X119884410Y-68162829D01*
X119724321Y-68137473D01*
X119661186Y-68107544D01*
X119624255Y-68048232D01*
X119625253Y-67978370D01*
X119663863Y-67920137D01*
X119724321Y-67892527D01*
X119884409Y-67867171D01*
X119935182Y-67850674D01*
X120028284Y-67820423D01*
X120098123Y-67818429D01*
X120154281Y-67850674D01*
G37*
%TD.AperFunction*%
%TA.AperFunction,NonConductor*%
G36*
X118710703Y-70003173D02*
G01*
X118729821Y-70024004D01*
X118737446Y-70034500D01*
X118865500Y-70162554D01*
X118865505Y-70162558D01*
X118943002Y-70218862D01*
X119012006Y-70268996D01*
X119108266Y-70318043D01*
X119173360Y-70351211D01*
X119173363Y-70351212D01*
X119229357Y-70369405D01*
X119345591Y-70407171D01*
X119418639Y-70418740D01*
X119505678Y-70432527D01*
X119568813Y-70462456D01*
X119605744Y-70521768D01*
X119604746Y-70591631D01*
X119566136Y-70649863D01*
X119505678Y-70677473D01*
X119345589Y-70702829D01*
X119173363Y-70758787D01*
X119173360Y-70758788D01*
X119012002Y-70841006D01*
X118865505Y-70947441D01*
X118865500Y-70947445D01*
X118737445Y-71075500D01*
X118737441Y-71075505D01*
X118729818Y-71085998D01*
X118674488Y-71128664D01*
X118604875Y-71134643D01*
X118543080Y-71102037D01*
X118508723Y-71041199D01*
X118505500Y-71013113D01*
X118505500Y-70096886D01*
X118525185Y-70029847D01*
X118577989Y-69984092D01*
X118647147Y-69974148D01*
X118710703Y-70003173D01*
G37*
%TD.AperFunction*%
%TA.AperFunction,NonConductor*%
G36*
X138466917Y-70007959D02*
G01*
X138501277Y-70068796D01*
X138504500Y-70096886D01*
X138504500Y-71013113D01*
X138484815Y-71080152D01*
X138432011Y-71125907D01*
X138362853Y-71135851D01*
X138299297Y-71106826D01*
X138280182Y-71085998D01*
X138272558Y-71075505D01*
X138272554Y-71075500D01*
X138144499Y-70947445D01*
X138144494Y-70947441D01*
X137997997Y-70841006D01*
X137997996Y-70841005D01*
X137997994Y-70841004D01*
X137946300Y-70814664D01*
X137836639Y-70758788D01*
X137836636Y-70758787D01*
X137664410Y-70702829D01*
X137504321Y-70677473D01*
X137441186Y-70647544D01*
X137404255Y-70588232D01*
X137405253Y-70518370D01*
X137443863Y-70460137D01*
X137504321Y-70432527D01*
X137574425Y-70421422D01*
X137664409Y-70407171D01*
X137836639Y-70351211D01*
X137997994Y-70268996D01*
X138144501Y-70162553D01*
X138272553Y-70034501D01*
X138280180Y-70024003D01*
X138335508Y-69981336D01*
X138405121Y-69975355D01*
X138466917Y-70007959D01*
G37*
%TD.AperFunction*%
%TA.AperFunction,NonConductor*%
G36*
X120154281Y-70390674D02*
G01*
X120517705Y-70754098D01*
X120551190Y-70815421D01*
X120546206Y-70885113D01*
X120520091Y-70919996D01*
X120540354Y-70900305D01*
X120608832Y-70886430D01*
X120673941Y-70911779D01*
X120685901Y-70922294D01*
X120876731Y-71113124D01*
X120910216Y-71174447D01*
X120913050Y-71200805D01*
X120913050Y-71321872D01*
X120893365Y-71388911D01*
X120840561Y-71434666D01*
X120771403Y-71444610D01*
X120707847Y-71415585D01*
X120678566Y-71378167D01*
X120598997Y-71222007D01*
X120598996Y-71222006D01*
X120497902Y-71082860D01*
X120474422Y-71017054D01*
X120490248Y-70949000D01*
X120494756Y-70944618D01*
X120438870Y-70965463D01*
X120370597Y-70950611D01*
X120357139Y-70942097D01*
X120217997Y-70841006D01*
X120217996Y-70841005D01*
X120217994Y-70841004D01*
X120166300Y-70814664D01*
X120056639Y-70758788D01*
X120056636Y-70758787D01*
X119884410Y-70702829D01*
X119724321Y-70677473D01*
X119661186Y-70647544D01*
X119624255Y-70588232D01*
X119625253Y-70518370D01*
X119663863Y-70460137D01*
X119724321Y-70432527D01*
X119884409Y-70407171D01*
X119935185Y-70390673D01*
X120028284Y-70360423D01*
X120098123Y-70358429D01*
X120154281Y-70390674D01*
G37*
%TD.AperFunction*%
%TA.AperFunction,NonConductor*%
G36*
X132606053Y-70677759D02*
G01*
X132615899Y-70675781D01*
X132639621Y-70685061D01*
X132664515Y-70690476D01*
X132671616Y-70697577D01*
X132680967Y-70701235D01*
X132695906Y-70721866D01*
X132713921Y-70739881D01*
X132716626Y-70750482D01*
X132721945Y-70757827D01*
X132722903Y-70775073D01*
X132729089Y-70799309D01*
X132729089Y-71303155D01*
X132720444Y-71332595D01*
X132713921Y-71362582D01*
X132710166Y-71367597D01*
X132709404Y-71370194D01*
X132692770Y-71390836D01*
X132652180Y-71431426D01*
X132590857Y-71464911D01*
X132521165Y-71459927D01*
X132465232Y-71418055D01*
X132440815Y-71352591D01*
X132440499Y-71343745D01*
X132440499Y-71212545D01*
X132440499Y-71212544D01*
X132437741Y-71183121D01*
X132394381Y-71059206D01*
X132326338Y-70967012D01*
X132320033Y-70949748D01*
X132309253Y-70934861D01*
X132308294Y-70917609D01*
X132302368Y-70901384D01*
X132306396Y-70883451D01*
X132305377Y-70865099D01*
X132313896Y-70850070D01*
X132317683Y-70833214D01*
X132330768Y-70820304D01*
X132339832Y-70804316D01*
X132359683Y-70791780D01*
X132367423Y-70784145D01*
X132368419Y-70783616D01*
X132375386Y-70779953D01*
X132472331Y-70743796D01*
X132538673Y-70694132D01*
X132547399Y-70689546D01*
X132572375Y-70684526D01*
X132596242Y-70675625D01*
X132606053Y-70677759D01*
G37*
%TD.AperFunction*%
%TA.AperFunction,NonConductor*%
G36*
X131420165Y-71945189D02*
G01*
X131433629Y-71953842D01*
X131529206Y-72024381D01*
X131568724Y-72038209D01*
X131653119Y-72067741D01*
X131660796Y-72068460D01*
X131682543Y-72070500D01*
X131713743Y-72070499D01*
X131734987Y-72076737D01*
X131757076Y-72078317D01*
X131767858Y-72086388D01*
X131780780Y-72090182D01*
X131795281Y-72106915D01*
X131813010Y-72120187D01*
X131817716Y-72132805D01*
X131826537Y-72142984D01*
X131829688Y-72164902D01*
X131837428Y-72185651D01*
X131834565Y-72198812D01*
X131836482Y-72212142D01*
X131827284Y-72232284D01*
X131822577Y-72253924D01*
X131809307Y-72271651D01*
X131807459Y-72275699D01*
X131801427Y-72282179D01*
X131778427Y-72305180D01*
X131738789Y-72344817D01*
X131677469Y-72378302D01*
X131651109Y-72381136D01*
X131589307Y-72381136D01*
X131436580Y-72422059D01*
X131436573Y-72422062D01*
X131299654Y-72501111D01*
X131299650Y-72501114D01*
X131190358Y-72610406D01*
X131129035Y-72643890D01*
X131059343Y-72638906D01*
X131014996Y-72610405D01*
X130686771Y-72282180D01*
X130653286Y-72220857D01*
X130658270Y-72151165D01*
X130700142Y-72095232D01*
X130765606Y-72070815D01*
X130774432Y-72070499D01*
X131037456Y-72070499D01*
X131066879Y-72067741D01*
X131190794Y-72024381D01*
X131286367Y-71953844D01*
X131351995Y-71929874D01*
X131420165Y-71945189D01*
G37*
%TD.AperFunction*%
%TA.AperFunction,NonConductor*%
G36*
X136981712Y-70360422D02*
G01*
X137074815Y-70390673D01*
X137125590Y-70407171D01*
X137285678Y-70432527D01*
X137348813Y-70462456D01*
X137385744Y-70521768D01*
X137384746Y-70591631D01*
X137346136Y-70649863D01*
X137285678Y-70677473D01*
X137125589Y-70702829D01*
X136953363Y-70758787D01*
X136953360Y-70758788D01*
X136792006Y-70841003D01*
X136660747Y-70936367D01*
X136660740Y-70936373D01*
X136645499Y-70947447D01*
X136517447Y-71075499D01*
X136506370Y-71090744D01*
X136506363Y-71090752D01*
X136411006Y-71222002D01*
X136328788Y-71383360D01*
X136328787Y-71383363D01*
X136272829Y-71555589D01*
X136244500Y-71734448D01*
X136244500Y-71915547D01*
X136244499Y-71915549D01*
X136272829Y-72094410D01*
X136319575Y-72238281D01*
X136321570Y-72308122D01*
X136289325Y-72364280D01*
X135554539Y-73099067D01*
X135493216Y-73132552D01*
X135423525Y-73127568D01*
X135367591Y-73085696D01*
X135343174Y-73020232D01*
X135342858Y-73011386D01*
X135342858Y-71954895D01*
X135362543Y-71887856D01*
X135379172Y-71867219D01*
X136855719Y-70390671D01*
X136917040Y-70357188D01*
X136981712Y-70360422D01*
G37*
%TD.AperFunction*%
%TA.AperFunction,NonConductor*%
G36*
X120154281Y-72930674D02*
G01*
X120475731Y-73252124D01*
X120490434Y-73279051D01*
X120507027Y-73304870D01*
X120507918Y-73311070D01*
X120509216Y-73313447D01*
X120512050Y-73339805D01*
X120512050Y-73351902D01*
X120492365Y-73418941D01*
X120439561Y-73464696D01*
X120370403Y-73474640D01*
X120315165Y-73452221D01*
X120217730Y-73381431D01*
X120056447Y-73299252D01*
X120056444Y-73299251D01*
X119884293Y-73243317D01*
X119722720Y-73217726D01*
X119659585Y-73187797D01*
X119622654Y-73128485D01*
X119623652Y-73058623D01*
X119662262Y-73000390D01*
X119722720Y-72972780D01*
X119737270Y-72970475D01*
X119884409Y-72947171D01*
X120028284Y-72900423D01*
X120098123Y-72898429D01*
X120154281Y-72930674D01*
G37*
%TD.AperFunction*%
%TA.AperFunction,NonConductor*%
G36*
X120449025Y-75270125D02*
G01*
X120497720Y-75320230D01*
X120512050Y-75378097D01*
X120512050Y-75891283D01*
X120492365Y-75958322D01*
X120439561Y-76004077D01*
X120370403Y-76014021D01*
X120315165Y-75991602D01*
X120217993Y-75921003D01*
X120056639Y-75838788D01*
X120056636Y-75838787D01*
X119884410Y-75782828D01*
X119722720Y-75757219D01*
X119659585Y-75727289D01*
X119622654Y-75667978D01*
X119623652Y-75598115D01*
X119662262Y-75539883D01*
X119722721Y-75512273D01*
X119884292Y-75486683D01*
X120056444Y-75430748D01*
X120056447Y-75430747D01*
X120217734Y-75348565D01*
X120315165Y-75277779D01*
X120380971Y-75254299D01*
X120449025Y-75270125D01*
G37*
%TD.AperFunction*%
%TA.AperFunction,NonConductor*%
G36*
X136981716Y-77980424D02*
G01*
X137125591Y-78027171D01*
X137198639Y-78038740D01*
X137285678Y-78052527D01*
X137348813Y-78082456D01*
X137385744Y-78141768D01*
X137384746Y-78211631D01*
X137346136Y-78269863D01*
X137285678Y-78297473D01*
X137125589Y-78322829D01*
X136953363Y-78378787D01*
X136953360Y-78378788D01*
X136792006Y-78461003D01*
X136652858Y-78562100D01*
X136587051Y-78585579D01*
X136518998Y-78569753D01*
X136470303Y-78519647D01*
X136456428Y-78451169D01*
X136481778Y-78386060D01*
X136492288Y-78374104D01*
X136855719Y-78010672D01*
X136917040Y-77977189D01*
X136981716Y-77980424D01*
G37*
%TD.AperFunction*%
%TA.AperFunction,NonConductor*%
G36*
X118710703Y-77623173D02*
G01*
X118729818Y-77644001D01*
X118734066Y-77649847D01*
X118737446Y-77654500D01*
X118865500Y-77782554D01*
X118865505Y-77782558D01*
X118956762Y-77848859D01*
X119012006Y-77888996D01*
X119173361Y-77971211D01*
X119211886Y-77983728D01*
X119267526Y-78020740D01*
X119275129Y-78029568D01*
X119294520Y-78063153D01*
X119363214Y-78131847D01*
X119366231Y-78135350D01*
X119378821Y-78163141D01*
X119393439Y-78189911D01*
X119393099Y-78194656D01*
X119395064Y-78198993D01*
X119390631Y-78229175D01*
X119388455Y-78259603D01*
X119385602Y-78263413D01*
X119384911Y-78268121D01*
X119364864Y-78291115D01*
X119346583Y-78315536D01*
X119341092Y-78318382D01*
X119338997Y-78320787D01*
X119333225Y-78322462D01*
X119310591Y-78334200D01*
X119173363Y-78378787D01*
X119173360Y-78378788D01*
X119012002Y-78461006D01*
X118865505Y-78567441D01*
X118865500Y-78567445D01*
X118737445Y-78695500D01*
X118737441Y-78695505D01*
X118729818Y-78705998D01*
X118674488Y-78748664D01*
X118604875Y-78754643D01*
X118543080Y-78722037D01*
X118508723Y-78661199D01*
X118505500Y-78633113D01*
X118505500Y-77716886D01*
X118525185Y-77649847D01*
X118577989Y-77604092D01*
X118647147Y-77594148D01*
X118710703Y-77623173D01*
G37*
%TD.AperFunction*%
%TA.AperFunction,NonConductor*%
G36*
X138466917Y-77627959D02*
G01*
X138501277Y-77688796D01*
X138504500Y-77716886D01*
X138504500Y-78633113D01*
X138484815Y-78700152D01*
X138432011Y-78745907D01*
X138362853Y-78755851D01*
X138299297Y-78726826D01*
X138280182Y-78705998D01*
X138272558Y-78695505D01*
X138272554Y-78695500D01*
X138144499Y-78567445D01*
X138144494Y-78567441D01*
X137997997Y-78461006D01*
X137997996Y-78461005D01*
X137997994Y-78461004D01*
X137931664Y-78427207D01*
X137836639Y-78378788D01*
X137836636Y-78378787D01*
X137664410Y-78322829D01*
X137504321Y-78297473D01*
X137441186Y-78267544D01*
X137404255Y-78208232D01*
X137405253Y-78138370D01*
X137443863Y-78080137D01*
X137504321Y-78052527D01*
X137574425Y-78041422D01*
X137664409Y-78027171D01*
X137836639Y-77971211D01*
X137997994Y-77888996D01*
X138144501Y-77782553D01*
X138272553Y-77654501D01*
X138280180Y-77644003D01*
X138335508Y-77601336D01*
X138405121Y-77595355D01*
X138466917Y-77627959D01*
G37*
%TD.AperFunction*%
%TA.AperFunction,NonConductor*%
G36*
X126962594Y-77947641D02*
G01*
X127013582Y-77946850D01*
X127072940Y-77983706D01*
X127102949Y-78046803D01*
X127104500Y-78066355D01*
X127104500Y-78908745D01*
X127084815Y-78975784D01*
X127032011Y-79021539D01*
X126962853Y-79031483D01*
X126899297Y-79002458D01*
X126892819Y-78996426D01*
X126526819Y-78630426D01*
X126493334Y-78569103D01*
X126490500Y-78542745D01*
X126490500Y-78117255D01*
X126499144Y-78087814D01*
X126505668Y-78057828D01*
X126509422Y-78052812D01*
X126510185Y-78050216D01*
X126526819Y-78029574D01*
X126564575Y-77991818D01*
X126625898Y-77958333D01*
X126652256Y-77955499D01*
X126881950Y-77955499D01*
X126962039Y-77943832D01*
X126962594Y-77947641D01*
G37*
%TD.AperFunction*%
%TA.AperFunction,NonConductor*%
G36*
X136981716Y-80520424D02*
G01*
X137125591Y-80567171D01*
X137198639Y-80578740D01*
X137285678Y-80592527D01*
X137348813Y-80622456D01*
X137385744Y-80681768D01*
X137384746Y-80751631D01*
X137346136Y-80809863D01*
X137285678Y-80837473D01*
X137125589Y-80862829D01*
X136953363Y-80918787D01*
X136953360Y-80918788D01*
X136824795Y-80984297D01*
X136756126Y-80997193D01*
X136691385Y-80970917D01*
X136651128Y-80913811D01*
X136644500Y-80873812D01*
X136644500Y-80813254D01*
X136664185Y-80746215D01*
X136680815Y-80725577D01*
X136855719Y-80550672D01*
X136869072Y-80543381D01*
X136879364Y-80532168D01*
X136899116Y-80526976D01*
X136917040Y-80517189D01*
X136933263Y-80518000D01*
X136946939Y-80514406D01*
X136981716Y-80520424D01*
G37*
%TD.AperFunction*%
%TA.AperFunction,NonConductor*%
G36*
X120154281Y-80550674D02*
G01*
X120353181Y-80749574D01*
X120367884Y-80776501D01*
X120384477Y-80802320D01*
X120385368Y-80808520D01*
X120386666Y-80810897D01*
X120389500Y-80837255D01*
X120389500Y-80886040D01*
X120369815Y-80953079D01*
X120317011Y-80998834D01*
X120247853Y-81008778D01*
X120209205Y-80996525D01*
X120056639Y-80918789D01*
X120056636Y-80918787D01*
X119884410Y-80862829D01*
X119724321Y-80837473D01*
X119661186Y-80807544D01*
X119624255Y-80748232D01*
X119625253Y-80678370D01*
X119663863Y-80620137D01*
X119724321Y-80592527D01*
X119884409Y-80567171D01*
X119939020Y-80549427D01*
X120028284Y-80520423D01*
X120098123Y-80518429D01*
X120154281Y-80550674D01*
G37*
%TD.AperFunction*%
%TA.AperFunction,NonConductor*%
G36*
X118710703Y-80163173D02*
G01*
X118729821Y-80184004D01*
X118737446Y-80194500D01*
X118865500Y-80322554D01*
X118865505Y-80322558D01*
X118922342Y-80363852D01*
X119012006Y-80428996D01*
X119117484Y-80482740D01*
X119173360Y-80511211D01*
X119173363Y-80511212D01*
X119221881Y-80526976D01*
X119345591Y-80567171D01*
X119418639Y-80578740D01*
X119505678Y-80592527D01*
X119568813Y-80622456D01*
X119605744Y-80681768D01*
X119604746Y-80751631D01*
X119566136Y-80809863D01*
X119505678Y-80837473D01*
X119345589Y-80862829D01*
X119173363Y-80918787D01*
X119173360Y-80918788D01*
X119012002Y-81001006D01*
X118865505Y-81107441D01*
X118865500Y-81107445D01*
X118737445Y-81235500D01*
X118737441Y-81235505D01*
X118729818Y-81245998D01*
X118674488Y-81288664D01*
X118604875Y-81294643D01*
X118543080Y-81262037D01*
X118508723Y-81201199D01*
X118505500Y-81173113D01*
X118505500Y-80256886D01*
X118525185Y-80189847D01*
X118577989Y-80144092D01*
X118647147Y-80134148D01*
X118710703Y-80163173D01*
G37*
%TD.AperFunction*%
%TA.AperFunction,NonConductor*%
G36*
X138466917Y-80167959D02*
G01*
X138501277Y-80228796D01*
X138504500Y-80256886D01*
X138504500Y-81173113D01*
X138484815Y-81240152D01*
X138432011Y-81285907D01*
X138362853Y-81295851D01*
X138299297Y-81266826D01*
X138280182Y-81245998D01*
X138272558Y-81235505D01*
X138272554Y-81235500D01*
X138144499Y-81107445D01*
X138144494Y-81107441D01*
X137997997Y-81001006D01*
X137997996Y-81001005D01*
X137997994Y-81001004D01*
X137938945Y-80970917D01*
X137836639Y-80918788D01*
X137836636Y-80918787D01*
X137664410Y-80862829D01*
X137504321Y-80837473D01*
X137441186Y-80807544D01*
X137404255Y-80748232D01*
X137405253Y-80678370D01*
X137443863Y-80620137D01*
X137504321Y-80592527D01*
X137578308Y-80580808D01*
X137664409Y-80567171D01*
X137836639Y-80511211D01*
X137997994Y-80428996D01*
X138144501Y-80322553D01*
X138272553Y-80194501D01*
X138280180Y-80184003D01*
X138335508Y-80141336D01*
X138405121Y-80135355D01*
X138466917Y-80167959D01*
G37*
%TD.AperFunction*%
%TA.AperFunction,NonConductor*%
G36*
X136789488Y-82974508D02*
G01*
X136791388Y-82974318D01*
X136824793Y-82985702D01*
X136861871Y-83004594D01*
X136953356Y-83051209D01*
X136953363Y-83051212D01*
X137000087Y-83066393D01*
X137125591Y-83107171D01*
X137198639Y-83118740D01*
X137285678Y-83132527D01*
X137348813Y-83162456D01*
X137385744Y-83221768D01*
X137384746Y-83291631D01*
X137346136Y-83349863D01*
X137285678Y-83377473D01*
X137125589Y-83402829D01*
X136953363Y-83458787D01*
X136953360Y-83458788D01*
X136815560Y-83529002D01*
X136746891Y-83541898D01*
X136682150Y-83515622D01*
X136641893Y-83458515D01*
X136638901Y-83388710D01*
X136639457Y-83386549D01*
X136644501Y-83367727D01*
X136644501Y-83262273D01*
X136644501Y-83254678D01*
X136644500Y-83254660D01*
X136644500Y-83096187D01*
X136645275Y-83093546D01*
X136644614Y-83090875D01*
X136655062Y-83060216D01*
X136664185Y-83029148D01*
X136666264Y-83027346D01*
X136667152Y-83024741D01*
X136692521Y-83004594D01*
X136716989Y-82983393D01*
X136719711Y-82983001D01*
X136721867Y-82981290D01*
X136754087Y-82978058D01*
X136786147Y-82973449D01*
X136789488Y-82974508D01*
G37*
%TD.AperFunction*%
%TA.AperFunction,NonConductor*%
G36*
X120342614Y-82986854D02*
G01*
X120382872Y-83043960D01*
X120389500Y-83083959D01*
X120389500Y-83426040D01*
X120369815Y-83493079D01*
X120317011Y-83538834D01*
X120247853Y-83548778D01*
X120209205Y-83536525D01*
X120056639Y-83458789D01*
X120056636Y-83458787D01*
X119884410Y-83402829D01*
X119724321Y-83377473D01*
X119661186Y-83347544D01*
X119624255Y-83288232D01*
X119625253Y-83218370D01*
X119663863Y-83160137D01*
X119724321Y-83132527D01*
X119794425Y-83121422D01*
X119884409Y-83107171D01*
X120056639Y-83051211D01*
X120209205Y-82973473D01*
X120277874Y-82960578D01*
X120342614Y-82986854D01*
G37*
%TD.AperFunction*%
%TA.AperFunction,NonConductor*%
G36*
X118710703Y-82703173D02*
G01*
X118729821Y-82724004D01*
X118737446Y-82734500D01*
X118865500Y-82862554D01*
X118865505Y-82862558D01*
X118985012Y-82949384D01*
X119012006Y-82968996D01*
X119081871Y-83004594D01*
X119173360Y-83051211D01*
X119173363Y-83051212D01*
X119220087Y-83066393D01*
X119345591Y-83107171D01*
X119418639Y-83118740D01*
X119505678Y-83132527D01*
X119568813Y-83162456D01*
X119605744Y-83221768D01*
X119604746Y-83291631D01*
X119566136Y-83349863D01*
X119505678Y-83377473D01*
X119345589Y-83402829D01*
X119173363Y-83458787D01*
X119173360Y-83458788D01*
X119012002Y-83541006D01*
X118865505Y-83647441D01*
X118865500Y-83647445D01*
X118737445Y-83775500D01*
X118737441Y-83775505D01*
X118729818Y-83785998D01*
X118674488Y-83828664D01*
X118604875Y-83834643D01*
X118543080Y-83802037D01*
X118508723Y-83741199D01*
X118505500Y-83713113D01*
X118505500Y-82796886D01*
X118525185Y-82729847D01*
X118577989Y-82684092D01*
X118647147Y-82674148D01*
X118710703Y-82703173D01*
G37*
%TD.AperFunction*%
%TA.AperFunction,NonConductor*%
G36*
X138466917Y-82707959D02*
G01*
X138501277Y-82768796D01*
X138504500Y-82796886D01*
X138504500Y-83713113D01*
X138484815Y-83780152D01*
X138432011Y-83825907D01*
X138362853Y-83835851D01*
X138299297Y-83806826D01*
X138280182Y-83785998D01*
X138272558Y-83775505D01*
X138272554Y-83775500D01*
X138144499Y-83647445D01*
X138144494Y-83647441D01*
X137997997Y-83541006D01*
X137997996Y-83541005D01*
X137997994Y-83541004D01*
X137943934Y-83513459D01*
X137836639Y-83458788D01*
X137836636Y-83458787D01*
X137664410Y-83402829D01*
X137504321Y-83377473D01*
X137441186Y-83347544D01*
X137404255Y-83288232D01*
X137405253Y-83218370D01*
X137443863Y-83160137D01*
X137504321Y-83132527D01*
X137574425Y-83121422D01*
X137664409Y-83107171D01*
X137836639Y-83051211D01*
X137997994Y-82968996D01*
X138144501Y-82862553D01*
X138272553Y-82734501D01*
X138280180Y-82724003D01*
X138335508Y-82681336D01*
X138405121Y-82675355D01*
X138466917Y-82707959D01*
G37*
%TD.AperFunction*%
%TA.AperFunction,NonConductor*%
G36*
X136203696Y-83993233D02*
G01*
X136232603Y-83995301D01*
X136237702Y-83999118D01*
X136243981Y-84000205D01*
X136265335Y-84019803D01*
X136288537Y-84037172D01*
X136290763Y-84043141D01*
X136295457Y-84047449D01*
X136302824Y-84075479D01*
X136312954Y-84102637D01*
X136312006Y-84110408D01*
X136313219Y-84115023D01*
X136307201Y-84149800D01*
X136272829Y-84255587D01*
X136244500Y-84434448D01*
X136244500Y-84505500D01*
X136224815Y-84572539D01*
X136172011Y-84618294D01*
X136120500Y-84629500D01*
X135795255Y-84629500D01*
X135728216Y-84609815D01*
X135682461Y-84557011D01*
X135672517Y-84487853D01*
X135701542Y-84424297D01*
X135707574Y-84417819D01*
X135975592Y-84149800D01*
X136101590Y-84023801D01*
X136107180Y-84020749D01*
X136110776Y-84015490D01*
X136137476Y-84004205D01*
X136162912Y-83990317D01*
X136169265Y-83990771D01*
X136175134Y-83988291D01*
X136203696Y-83993233D01*
G37*
%TD.AperFunction*%
%TA.AperFunction,NonConductor*%
G36*
X132164784Y-87735185D02*
G01*
X132185426Y-87751819D01*
X132461426Y-88027819D01*
X132494911Y-88089142D01*
X132489927Y-88158834D01*
X132448055Y-88214767D01*
X132382591Y-88239184D01*
X132373745Y-88239500D01*
X131809755Y-88239500D01*
X131742716Y-88219815D01*
X131722074Y-88203181D01*
X131541819Y-88022926D01*
X131527115Y-87995998D01*
X131510523Y-87970180D01*
X131509631Y-87963979D01*
X131508334Y-87961603D01*
X131505500Y-87935245D01*
X131505500Y-87839500D01*
X131525185Y-87772461D01*
X131577989Y-87726706D01*
X131629500Y-87715500D01*
X131889773Y-87715500D01*
X132097745Y-87715500D01*
X132164784Y-87735185D01*
G37*
%TD.AperFunction*%
%TA.AperFunction,NonConductor*%
G36*
X136639402Y-90479388D02*
G01*
X136652860Y-90487902D01*
X136712102Y-90530943D01*
X136792006Y-90588996D01*
X136897484Y-90642740D01*
X136953360Y-90671211D01*
X136953363Y-90671212D01*
X137008280Y-90689055D01*
X137125591Y-90727171D01*
X137198639Y-90738740D01*
X137285678Y-90752527D01*
X137348813Y-90782456D01*
X137385744Y-90841768D01*
X137384746Y-90911631D01*
X137346136Y-90969863D01*
X137285678Y-90997473D01*
X137125587Y-91022829D01*
X136981716Y-91069575D01*
X136911875Y-91071570D01*
X136855718Y-91039325D01*
X136492294Y-90675901D01*
X136458809Y-90614578D01*
X136463793Y-90544886D01*
X136505665Y-90488953D01*
X136571129Y-90464536D01*
X136639402Y-90479388D01*
G37*
%TD.AperFunction*%
%TA.AperFunction,NonConductor*%
G36*
X120985784Y-90025185D02*
G01*
X121031539Y-90077989D01*
X121041483Y-90147147D01*
X121012458Y-90210703D01*
X120953680Y-90248477D01*
X120918745Y-90253500D01*
X120836364Y-90253500D01*
X120184634Y-91038225D01*
X120126659Y-91077221D01*
X120056805Y-91078683D01*
X120050926Y-91076932D01*
X119884411Y-91022829D01*
X119884412Y-91022829D01*
X119724321Y-90997473D01*
X119661186Y-90967544D01*
X119624255Y-90908232D01*
X119625253Y-90838370D01*
X119663863Y-90780137D01*
X119724321Y-90752527D01*
X119794425Y-90741422D01*
X119884409Y-90727171D01*
X120056639Y-90671211D01*
X120217994Y-90588996D01*
X120364501Y-90482553D01*
X120492553Y-90354501D01*
X120598996Y-90207994D01*
X120667675Y-90073205D01*
X120715650Y-90022409D01*
X120778160Y-90005500D01*
X120918745Y-90005500D01*
X120985784Y-90025185D01*
G37*
%TD.AperFunction*%
%TA.AperFunction,NonConductor*%
G36*
X118710703Y-90323173D02*
G01*
X118729821Y-90344004D01*
X118737446Y-90354500D01*
X118865500Y-90482554D01*
X118865505Y-90482558D01*
X118932102Y-90530943D01*
X119012006Y-90588996D01*
X119117484Y-90642740D01*
X119173360Y-90671211D01*
X119173363Y-90671212D01*
X119228280Y-90689055D01*
X119345591Y-90727171D01*
X119418639Y-90738740D01*
X119505678Y-90752527D01*
X119568813Y-90782456D01*
X119605744Y-90841768D01*
X119604746Y-90911631D01*
X119566136Y-90969863D01*
X119505678Y-90997473D01*
X119345589Y-91022829D01*
X119173363Y-91078787D01*
X119173360Y-91078788D01*
X119012002Y-91161006D01*
X118865505Y-91267441D01*
X118865500Y-91267445D01*
X118737445Y-91395500D01*
X118737441Y-91395505D01*
X118729818Y-91405998D01*
X118674488Y-91448664D01*
X118604875Y-91454643D01*
X118543080Y-91422037D01*
X118508723Y-91361199D01*
X118505500Y-91333113D01*
X118505500Y-90416886D01*
X118525185Y-90349847D01*
X118577989Y-90304092D01*
X118647147Y-90294148D01*
X118710703Y-90323173D01*
G37*
%TD.AperFunction*%
%TA.AperFunction,NonConductor*%
G36*
X138466917Y-90327959D02*
G01*
X138501277Y-90388796D01*
X138504500Y-90416886D01*
X138504500Y-91333113D01*
X138484815Y-91400152D01*
X138432011Y-91445907D01*
X138362853Y-91455851D01*
X138299297Y-91426826D01*
X138280182Y-91405998D01*
X138272558Y-91395505D01*
X138272554Y-91395500D01*
X138144499Y-91267445D01*
X138144494Y-91267441D01*
X137997997Y-91161006D01*
X137997996Y-91161005D01*
X137997994Y-91161004D01*
X137924175Y-91123391D01*
X137836639Y-91078788D01*
X137836636Y-91078787D01*
X137664410Y-91022829D01*
X137504321Y-90997473D01*
X137441186Y-90967544D01*
X137404255Y-90908232D01*
X137405253Y-90838370D01*
X137443863Y-90780137D01*
X137504321Y-90752527D01*
X137574425Y-90741422D01*
X137664409Y-90727171D01*
X137836639Y-90671211D01*
X137997994Y-90588996D01*
X138144501Y-90482553D01*
X138272553Y-90354501D01*
X138280180Y-90344003D01*
X138335508Y-90301336D01*
X138405121Y-90295355D01*
X138466917Y-90327959D01*
G37*
%TD.AperFunction*%
%TA.AperFunction,NonConductor*%
G36*
X135933703Y-91250542D02*
G01*
X135940181Y-91256574D01*
X136289325Y-91605718D01*
X136322810Y-91667041D01*
X136319575Y-91731716D01*
X136272829Y-91875587D01*
X136244500Y-92054448D01*
X136244500Y-92235551D01*
X136272829Y-92414410D01*
X136328787Y-92586636D01*
X136328788Y-92586639D01*
X136411006Y-92747997D01*
X136512097Y-92887139D01*
X136535577Y-92952946D01*
X136519751Y-93020999D01*
X136515242Y-93025380D01*
X136529622Y-93020017D01*
X136551889Y-93007443D01*
X136561813Y-93008010D01*
X136571129Y-93004536D01*
X136596115Y-93009971D01*
X136621645Y-93011431D01*
X136634846Y-93018397D01*
X136639402Y-93019388D01*
X136652860Y-93027902D01*
X136731293Y-93084886D01*
X136792006Y-93128996D01*
X136887612Y-93177710D01*
X136953360Y-93211211D01*
X136953363Y-93211212D01*
X137039476Y-93239191D01*
X137125591Y-93267171D01*
X137198639Y-93278740D01*
X137285678Y-93292527D01*
X137348813Y-93322456D01*
X137385744Y-93381768D01*
X137384746Y-93451631D01*
X137346136Y-93509863D01*
X137285678Y-93537473D01*
X137125587Y-93562829D01*
X136981716Y-93609575D01*
X136911875Y-93611570D01*
X136855718Y-93579325D01*
X136492294Y-93215901D01*
X136480040Y-93193460D01*
X136464424Y-93173209D01*
X136463573Y-93163302D01*
X136458809Y-93154578D01*
X136460633Y-93129071D01*
X136458445Y-93103595D01*
X136463083Y-93094803D01*
X136463793Y-93084886D01*
X136479117Y-93064415D01*
X136483370Y-93056355D01*
X136469645Y-93069694D01*
X136401167Y-93083569D01*
X136336058Y-93058220D01*
X136324098Y-93047705D01*
X135764819Y-92488426D01*
X135731334Y-92427103D01*
X135728500Y-92400745D01*
X135728500Y-91344255D01*
X135748185Y-91277216D01*
X135800989Y-91231461D01*
X135870147Y-91221517D01*
X135933703Y-91250542D01*
G37*
%TD.AperFunction*%
%TA.AperFunction,NonConductor*%
G36*
X120490999Y-93020248D02*
G01*
X120539694Y-93070353D01*
X120553569Y-93138831D01*
X120528220Y-93203940D01*
X120517705Y-93215901D01*
X120154281Y-93579325D01*
X120092958Y-93612810D01*
X120028283Y-93609575D01*
X119884411Y-93562829D01*
X119884412Y-93562829D01*
X119724321Y-93537473D01*
X119661186Y-93507544D01*
X119624255Y-93448232D01*
X119625253Y-93378370D01*
X119663863Y-93320137D01*
X119724321Y-93292527D01*
X119794425Y-93281422D01*
X119884409Y-93267171D01*
X120056639Y-93211211D01*
X120217994Y-93128996D01*
X120357139Y-93027902D01*
X120422945Y-93004422D01*
X120490999Y-93020248D01*
G37*
%TD.AperFunction*%
%TA.AperFunction,NonConductor*%
G36*
X118710703Y-92863173D02*
G01*
X118729821Y-92884004D01*
X118737446Y-92894500D01*
X118865500Y-93022554D01*
X118865505Y-93022558D01*
X118951293Y-93084886D01*
X119012006Y-93128996D01*
X119107612Y-93177710D01*
X119173360Y-93211211D01*
X119173363Y-93211212D01*
X119259476Y-93239191D01*
X119345591Y-93267171D01*
X119418639Y-93278740D01*
X119505678Y-93292527D01*
X119568813Y-93322456D01*
X119605744Y-93381768D01*
X119604746Y-93451631D01*
X119566136Y-93509863D01*
X119505678Y-93537473D01*
X119345589Y-93562829D01*
X119173363Y-93618787D01*
X119173360Y-93618788D01*
X119012002Y-93701006D01*
X118865505Y-93807441D01*
X118865500Y-93807445D01*
X118737445Y-93935500D01*
X118737441Y-93935505D01*
X118729818Y-93945998D01*
X118674488Y-93988664D01*
X118604875Y-93994643D01*
X118543080Y-93962037D01*
X118508723Y-93901199D01*
X118505500Y-93873113D01*
X118505500Y-92956886D01*
X118525185Y-92889847D01*
X118577989Y-92844092D01*
X118647147Y-92834148D01*
X118710703Y-92863173D01*
G37*
%TD.AperFunction*%
%TA.AperFunction,NonConductor*%
G36*
X138466917Y-92867959D02*
G01*
X138501277Y-92928796D01*
X138504500Y-92956886D01*
X138504500Y-93873113D01*
X138484815Y-93940152D01*
X138432011Y-93985907D01*
X138362853Y-93995851D01*
X138299297Y-93966826D01*
X138280182Y-93945998D01*
X138272558Y-93935505D01*
X138272554Y-93935500D01*
X138144499Y-93807445D01*
X138144494Y-93807441D01*
X137997997Y-93701006D01*
X137997996Y-93701005D01*
X137997994Y-93701004D01*
X137915361Y-93658900D01*
X137836639Y-93618788D01*
X137836636Y-93618787D01*
X137664410Y-93562829D01*
X137504321Y-93537473D01*
X137441186Y-93507544D01*
X137404255Y-93448232D01*
X137405253Y-93378370D01*
X137443863Y-93320137D01*
X137504321Y-93292527D01*
X137574425Y-93281422D01*
X137664409Y-93267171D01*
X137836639Y-93211211D01*
X137997994Y-93128996D01*
X138144501Y-93022553D01*
X138272553Y-92894501D01*
X138280180Y-92884003D01*
X138335508Y-92841336D01*
X138405121Y-92835355D01*
X138466917Y-92867959D01*
G37*
%TD.AperFunction*%
%TA.AperFunction,NonConductor*%
G36*
X135532703Y-93389542D02*
G01*
X135539181Y-93395574D01*
X136289325Y-94145718D01*
X136322810Y-94207041D01*
X136319575Y-94271716D01*
X136272829Y-94415587D01*
X136244500Y-94594448D01*
X136244500Y-94775551D01*
X136272829Y-94954410D01*
X136328787Y-95126636D01*
X136328788Y-95126639D01*
X136362471Y-95192744D01*
X136407147Y-95280425D01*
X136411006Y-95287997D01*
X136506361Y-95419244D01*
X136506365Y-95419248D01*
X136517447Y-95434501D01*
X136645499Y-95562553D01*
X136660751Y-95573634D01*
X136660755Y-95573638D01*
X136727672Y-95622255D01*
X136792006Y-95668996D01*
X136897484Y-95722740D01*
X136953360Y-95751211D01*
X136953363Y-95751212D01*
X137039476Y-95779191D01*
X137125591Y-95807171D01*
X137198639Y-95818740D01*
X137285678Y-95832527D01*
X137348813Y-95862456D01*
X137385744Y-95921768D01*
X137384746Y-95991631D01*
X137346136Y-96049863D01*
X137285678Y-96077473D01*
X137125587Y-96102829D01*
X136981716Y-96149575D01*
X136911875Y-96151570D01*
X136855718Y-96119325D01*
X135363819Y-94627426D01*
X135330334Y-94566103D01*
X135327500Y-94539745D01*
X135327500Y-93483255D01*
X135347185Y-93416216D01*
X135399989Y-93370461D01*
X135469147Y-93360517D01*
X135532703Y-93389542D01*
G37*
%TD.AperFunction*%
%TA.AperFunction,NonConductor*%
G36*
X120948834Y-94020071D02*
G01*
X121004767Y-94061943D01*
X121029184Y-94127408D01*
X121029500Y-94136253D01*
X121029500Y-95192744D01*
X121009815Y-95259783D01*
X120993181Y-95280425D01*
X120685902Y-95587704D01*
X120154280Y-96119325D01*
X120092957Y-96152810D01*
X120028281Y-96149575D01*
X119884410Y-96102829D01*
X119724321Y-96077473D01*
X119661186Y-96047544D01*
X119624255Y-95988232D01*
X119625253Y-95918370D01*
X119663863Y-95860137D01*
X119724321Y-95832527D01*
X119794425Y-95821422D01*
X119884409Y-95807171D01*
X120056639Y-95751211D01*
X120217994Y-95668996D01*
X120364501Y-95562553D01*
X120492553Y-95434501D01*
X120598996Y-95287994D01*
X120681211Y-95126639D01*
X120737171Y-94954409D01*
X120751765Y-94862259D01*
X120765500Y-94775551D01*
X120765500Y-94594448D01*
X120737171Y-94415590D01*
X120724500Y-94376593D01*
X120690422Y-94271712D01*
X120688428Y-94201875D01*
X120720670Y-94145721D01*
X120817822Y-94048569D01*
X120879143Y-94015087D01*
X120948834Y-94020071D01*
G37*
%TD.AperFunction*%
%TA.AperFunction,NonConductor*%
G36*
X118710703Y-95403173D02*
G01*
X118729821Y-95424004D01*
X118737446Y-95434500D01*
X118865500Y-95562554D01*
X118865505Y-95562558D01*
X118947672Y-95622255D01*
X119012006Y-95668996D01*
X119117484Y-95722740D01*
X119173360Y-95751211D01*
X119173363Y-95751212D01*
X119259476Y-95779191D01*
X119345591Y-95807171D01*
X119418639Y-95818740D01*
X119505678Y-95832527D01*
X119568813Y-95862456D01*
X119605744Y-95921768D01*
X119604746Y-95991631D01*
X119566136Y-96049863D01*
X119505678Y-96077473D01*
X119345589Y-96102829D01*
X119173363Y-96158787D01*
X119173360Y-96158788D01*
X119012002Y-96241006D01*
X118865505Y-96347441D01*
X118865500Y-96347445D01*
X118737445Y-96475500D01*
X118737441Y-96475505D01*
X118729818Y-96485998D01*
X118674488Y-96528664D01*
X118604875Y-96534643D01*
X118543080Y-96502037D01*
X118508723Y-96441199D01*
X118505500Y-96413113D01*
X118505500Y-95496886D01*
X118525185Y-95429847D01*
X118577989Y-95384092D01*
X118647147Y-95374148D01*
X118710703Y-95403173D01*
G37*
%TD.AperFunction*%
%TA.AperFunction,NonConductor*%
G36*
X138466917Y-95407959D02*
G01*
X138501277Y-95468796D01*
X138504500Y-95496886D01*
X138504500Y-96413113D01*
X138484815Y-96480152D01*
X138432011Y-96525907D01*
X138362853Y-96535851D01*
X138299297Y-96506826D01*
X138280182Y-96485998D01*
X138272558Y-96475505D01*
X138272554Y-96475500D01*
X138144499Y-96347445D01*
X138144494Y-96347441D01*
X137997997Y-96241006D01*
X137997996Y-96241005D01*
X137997994Y-96241004D01*
X137946300Y-96214664D01*
X137836639Y-96158788D01*
X137836636Y-96158787D01*
X137664410Y-96102829D01*
X137504321Y-96077473D01*
X137441186Y-96047544D01*
X137404255Y-95988232D01*
X137405253Y-95918370D01*
X137443863Y-95860137D01*
X137504321Y-95832527D01*
X137574425Y-95821422D01*
X137664409Y-95807171D01*
X137836639Y-95751211D01*
X137997994Y-95668996D01*
X138144501Y-95562553D01*
X138272553Y-95434501D01*
X138280180Y-95424003D01*
X138335508Y-95381336D01*
X138405121Y-95375355D01*
X138466917Y-95407959D01*
G37*
%TD.AperFunction*%
%TA.AperFunction,NonConductor*%
G36*
X134655703Y-100132541D02*
G01*
X134662181Y-100138573D01*
X136289325Y-101765717D01*
X136322810Y-101827040D01*
X136319575Y-101891715D01*
X136272829Y-102035587D01*
X136244500Y-102214448D01*
X136244500Y-102395551D01*
X136272829Y-102574410D01*
X136328787Y-102746636D01*
X136328788Y-102746639D01*
X136411006Y-102907997D01*
X136506361Y-103039244D01*
X136506365Y-103039248D01*
X136517447Y-103054501D01*
X136645499Y-103182553D01*
X136660751Y-103193634D01*
X136660755Y-103193638D01*
X136779926Y-103280219D01*
X136792006Y-103288996D01*
X136897484Y-103342740D01*
X136953360Y-103371211D01*
X136953363Y-103371212D01*
X137039476Y-103399191D01*
X137125591Y-103427171D01*
X137198639Y-103438740D01*
X137285678Y-103452527D01*
X137348813Y-103482456D01*
X137385744Y-103541768D01*
X137384746Y-103611631D01*
X137346136Y-103669863D01*
X137285678Y-103697473D01*
X137125587Y-103722829D01*
X136981716Y-103769575D01*
X136911875Y-103771570D01*
X136855718Y-103739325D01*
X134486819Y-101370426D01*
X134453334Y-101309103D01*
X134450500Y-101282745D01*
X134450500Y-100226254D01*
X134470185Y-100159215D01*
X134522989Y-100113460D01*
X134592147Y-100103516D01*
X134655703Y-100132541D01*
G37*
%TD.AperFunction*%
%TA.AperFunction,NonConductor*%
G36*
X121813384Y-100775522D02*
G01*
X121869317Y-100817394D01*
X121893734Y-100882858D01*
X121894050Y-100891704D01*
X121894050Y-101948194D01*
X121874365Y-102015233D01*
X121857731Y-102035875D01*
X120685902Y-103207702D01*
X120685903Y-103207703D01*
X120517702Y-103375903D01*
X120517701Y-103375904D01*
X120154280Y-103739325D01*
X120092957Y-103772810D01*
X120028281Y-103769575D01*
X119884410Y-103722829D01*
X119724321Y-103697473D01*
X119661186Y-103667544D01*
X119624255Y-103608232D01*
X119625253Y-103538370D01*
X119663863Y-103480137D01*
X119724321Y-103452527D01*
X119794425Y-103441422D01*
X119884409Y-103427171D01*
X120056639Y-103371211D01*
X120217994Y-103288996D01*
X120364501Y-103182553D01*
X120492553Y-103054501D01*
X120598996Y-102907994D01*
X120681211Y-102746639D01*
X120737171Y-102574409D01*
X120762995Y-102411363D01*
X120765500Y-102395551D01*
X120765500Y-102214448D01*
X120749019Y-102110397D01*
X120737171Y-102035591D01*
X120690424Y-101891715D01*
X120688429Y-101821875D01*
X120720672Y-101765719D01*
X121682370Y-100804022D01*
X121743692Y-100770538D01*
X121813384Y-100775522D01*
G37*
%TD.AperFunction*%
%TA.AperFunction,NonConductor*%
G36*
X118710703Y-103023173D02*
G01*
X118729821Y-103044004D01*
X118737446Y-103054500D01*
X118865500Y-103182554D01*
X118865505Y-103182558D01*
X118900115Y-103207703D01*
X119012006Y-103288996D01*
X119117484Y-103342740D01*
X119173360Y-103371211D01*
X119173363Y-103371212D01*
X119259476Y-103399191D01*
X119345591Y-103427171D01*
X119418639Y-103438740D01*
X119505678Y-103452527D01*
X119568813Y-103482456D01*
X119605744Y-103541768D01*
X119604746Y-103611631D01*
X119566136Y-103669863D01*
X119505678Y-103697473D01*
X119345589Y-103722829D01*
X119173363Y-103778787D01*
X119173360Y-103778788D01*
X119012002Y-103861006D01*
X118865505Y-103967441D01*
X118865500Y-103967445D01*
X118737445Y-104095500D01*
X118737441Y-104095505D01*
X118729818Y-104105998D01*
X118674488Y-104148664D01*
X118604875Y-104154643D01*
X118543080Y-104122037D01*
X118508723Y-104061199D01*
X118505500Y-104033113D01*
X118505500Y-103116886D01*
X118525185Y-103049847D01*
X118577989Y-103004092D01*
X118647147Y-102994148D01*
X118710703Y-103023173D01*
G37*
%TD.AperFunction*%
%TA.AperFunction,NonConductor*%
G36*
X138466917Y-103027959D02*
G01*
X138501277Y-103088796D01*
X138504500Y-103116886D01*
X138504500Y-104033113D01*
X138484815Y-104100152D01*
X138432011Y-104145907D01*
X138362853Y-104155851D01*
X138299297Y-104126826D01*
X138280182Y-104105998D01*
X138272558Y-104095505D01*
X138272554Y-104095500D01*
X138144499Y-103967445D01*
X138144494Y-103967441D01*
X137997997Y-103861006D01*
X137997996Y-103861005D01*
X137997994Y-103861004D01*
X137946300Y-103834664D01*
X137836639Y-103778788D01*
X137836636Y-103778787D01*
X137664410Y-103722829D01*
X137504321Y-103697473D01*
X137441186Y-103667544D01*
X137404255Y-103608232D01*
X137405253Y-103538370D01*
X137443863Y-103480137D01*
X137504321Y-103452527D01*
X137574425Y-103441422D01*
X137664409Y-103427171D01*
X137836639Y-103371211D01*
X137997994Y-103288996D01*
X138144501Y-103182553D01*
X138272553Y-103054501D01*
X138280180Y-103044003D01*
X138335508Y-103001336D01*
X138405121Y-102995355D01*
X138466917Y-103027959D01*
G37*
%TD.AperFunction*%
M02*
