%TF.GenerationSoftware,KiCad,Pcbnew,9.0.7*%
%TF.CreationDate,2026-03-20T18:52:06+04:00*%
%TF.ProjectId,L3M0N Devboard,4c334d30-4e20-4446-9576-626f6172642e,rev?*%
%TF.SameCoordinates,Original*%
%TF.FileFunction,Copper,L2,Bot*%
%TF.FilePolarity,Positive*%
%FSLAX46Y46*%
G04 Gerber Fmt 4.6, Leading zero omitted, Abs format (unit mm)*
G04 Created by KiCad (PCBNEW 9.0.7) date 2026-03-20 18:52:06*
%MOMM*%
%LPD*%
G01*
G04 APERTURE LIST*
%TA.AperFunction,HeatsinkPad*%
%ADD10O,1.000000X2.100000*%
%TD*%
%TA.AperFunction,HeatsinkPad*%
%ADD11O,1.000000X1.600000*%
%TD*%
%TA.AperFunction,ComponentPad*%
%ADD12R,1.700000X1.700000*%
%TD*%
%TA.AperFunction,ComponentPad*%
%ADD13C,1.700000*%
%TD*%
%TA.AperFunction,ViaPad*%
%ADD14C,0.600000*%
%TD*%
%TA.AperFunction,Conductor*%
%ADD15C,0.200000*%
%TD*%
G04 APERTURE END LIST*
D10*
%TO.P,J1,S1,SHIELD*%
%TO.N,GND*%
X132825000Y-60845000D03*
D11*
X132825000Y-56665000D03*
D10*
X124185000Y-60845000D03*
D11*
X124185000Y-56665000D03*
%TD*%
D12*
%TO.P,J3,1,Pin_1*%
%TO.N,VBUS*%
X137395000Y-56585000D03*
D13*
%TO.P,J3,2,Pin_2*%
%TO.N,GPIO29_ADC3*%
X137395000Y-59125000D03*
%TO.P,J3,3,Pin_3*%
%TO.N,GND*%
X137395000Y-61665000D03*
%TO.P,J3,4,Pin_4*%
%TO.N,GPIO28_ADC2*%
X137395000Y-64205000D03*
%TO.P,J3,5,Pin_5*%
%TO.N,+3V3*%
X137395000Y-66745000D03*
%TO.P,J3,6,Pin_6*%
%TO.N,GPIO27_ADC1*%
X137395000Y-69285000D03*
%TO.P,J3,7,Pin_7*%
%TO.N,GPIO26_ADC0*%
X137395000Y-71825000D03*
%TO.P,J3,8,Pin_8*%
%TO.N,GND*%
X137395000Y-74365000D03*
%TO.P,J3,9,Pin_9*%
%TO.N,GPIO24*%
X137395000Y-76905000D03*
%TO.P,J3,10,Pin_10*%
%TO.N,GPIO23*%
X137395000Y-79445000D03*
%TO.P,J3,11,Pin_11*%
%TO.N,RUN*%
X137395000Y-81985000D03*
%TO.P,J3,12,Pin_12*%
%TO.N,GPIO22*%
X137395000Y-84525000D03*
%TO.P,J3,13,Pin_13*%
%TO.N,GND*%
X137395000Y-87065000D03*
%TO.P,J3,14,Pin_14*%
%TO.N,GPIO21*%
X137395000Y-89605000D03*
%TO.P,J3,15,Pin_15*%
%TO.N,GPIO20*%
X137395000Y-92145000D03*
%TO.P,J3,16,Pin_16*%
%TO.N,GPIO19*%
X137395000Y-94685000D03*
%TO.P,J3,17,Pin_17*%
%TO.N,GPIO18*%
X137395000Y-97225000D03*
%TO.P,J3,18,Pin_18*%
%TO.N,GND*%
X137395000Y-99765000D03*
%TO.P,J3,19,Pin_19*%
%TO.N,GPIO17*%
X137395000Y-102305000D03*
%TO.P,J3,20,Pin_20*%
%TO.N,GPIO16*%
X137395000Y-104845000D03*
%TD*%
D12*
%TO.P,J2,1,Pin_1*%
%TO.N,GPIO0*%
X119615000Y-56585000D03*
D13*
%TO.P,J2,2,Pin_2*%
%TO.N,GPIO1*%
X119615000Y-59125000D03*
%TO.P,J2,3,Pin_3*%
%TO.N,GND*%
X119615000Y-61665000D03*
%TO.P,J2,4,Pin_4*%
%TO.N,GPIO2*%
X119615000Y-64205000D03*
%TO.P,J2,5,Pin_5*%
%TO.N,GPIO3*%
X119615000Y-66745000D03*
%TO.P,J2,6,Pin_6*%
%TO.N,GPIO4*%
X119615000Y-69285000D03*
%TO.P,J2,7,Pin_7*%
%TO.N,GPIO5*%
X119615000Y-71825000D03*
%TO.P,J2,8,Pin_8*%
%TO.N,GND*%
X119615000Y-74365000D03*
%TO.P,J2,9,Pin_9*%
%TO.N,GPIO6*%
X119615000Y-76905000D03*
%TO.P,J2,10,Pin_10*%
%TO.N,GPIO7*%
X119615000Y-79445000D03*
%TO.P,J2,11,Pin_11*%
%TO.N,GPIO8*%
X119615000Y-81985000D03*
%TO.P,J2,12,Pin_12*%
%TO.N,GPIO9*%
X119615000Y-84525000D03*
%TO.P,J2,13,Pin_13*%
%TO.N,GND*%
X119615000Y-87065000D03*
%TO.P,J2,14,Pin_14*%
%TO.N,GPIO10*%
X119615000Y-89605000D03*
%TO.P,J2,15,Pin_15*%
%TO.N,GPIO11*%
X119615000Y-92145000D03*
%TO.P,J2,16,Pin_16*%
%TO.N,GPIO12*%
X119615000Y-94685000D03*
%TO.P,J2,17,Pin_17*%
%TO.N,GPIO13*%
X119615000Y-97225000D03*
%TO.P,J2,18,Pin_18*%
%TO.N,GND*%
X119615000Y-99765000D03*
%TO.P,J2,19,Pin_19*%
%TO.N,GPIO14*%
X119615000Y-102305000D03*
%TO.P,J2,20,Pin_20*%
%TO.N,GPIO15*%
X119615000Y-104845000D03*
%TD*%
D12*
%TO.P,J4,1,Pin_1*%
%TO.N,SWCLK*%
X125965000Y-104605000D03*
D13*
%TO.P,J4,2,Pin_2*%
%TO.N,GND*%
X128505000Y-104605000D03*
%TO.P,J4,3,Pin_3*%
%TO.N,SWD*%
X131045000Y-104605000D03*
%TD*%
D14*
%TO.N,+3V3*%
X130817825Y-74472887D03*
X129080000Y-77970000D03*
X133300000Y-79090000D03*
X128905000Y-80670000D03*
%TO.N,GND*%
X123510000Y-91950000D03*
X126600000Y-84580000D03*
X133471000Y-78260000D03*
X121940000Y-85940000D03*
X123550000Y-79970000D03*
X125140000Y-80670000D03*
X134570000Y-56980000D03*
X128070000Y-66980000D03*
X128505000Y-84715000D03*
X135460000Y-85760000D03*
X127900000Y-66180000D03*
X131300000Y-57550000D03*
X128530000Y-82780000D03*
X127970000Y-68810000D03*
X129570000Y-75010000D03*
X126660000Y-90570000D03*
X128610000Y-74060000D03*
X125600000Y-74150000D03*
X133300000Y-90160000D03*
X131750000Y-62950000D03*
X136960000Y-88320000D03*
X121440000Y-63460000D03*
X123840000Y-67250000D03*
X132710000Y-75880000D03*
X138070000Y-88360000D03*
X126680000Y-82890000D03*
X123950000Y-66210000D03*
X132470000Y-77150000D03*
X123930000Y-68750000D03*
X124434998Y-77530000D03*
X127450000Y-87260000D03*
X121140000Y-67010000D03*
%TO.N,+1V1*%
X127717783Y-76352437D03*
X129866377Y-82468864D03*
X132100000Y-90610000D03*
%TO.N,GPIO2*%
X123070000Y-83115000D03*
%TO.N,GPIO1*%
X123094263Y-82290734D03*
%TO.N,GPIO8*%
X126311507Y-87215000D03*
%TO.N,GPIO0*%
X123961580Y-82309521D03*
%TO.N,GPIO29_ADC3*%
X133731120Y-82018768D03*
%TO.N,GPIO28_ADC2*%
X134268692Y-82611237D03*
%TO.N,RUN*%
X131012784Y-86761740D03*
%TO.N,SWCLK*%
X128763528Y-86814999D03*
%TO.N,SWD*%
X129573529Y-86815000D03*
%TO.N,QSPI_SS*%
X130103364Y-71416636D03*
X126770000Y-72270000D03*
%TO.N,GPIO25*%
X131128969Y-84113959D03*
X131668364Y-72981636D03*
%TD*%
D15*
%TO.N,+3V3*%
X128600000Y-80365000D02*
X128905000Y-80670000D01*
X133300000Y-79090000D02*
X130817825Y-76607825D01*
X128600000Y-78450000D02*
X128600000Y-80365000D01*
X130817825Y-76607825D02*
X130817825Y-74472887D01*
X129080000Y-77970000D02*
X128600000Y-78450000D01*
%TO.N,GND*%
X129570000Y-75010000D02*
X129560000Y-75010000D01*
X129560000Y-75010000D02*
X128610000Y-74060000D01*
%TO.N,+1V1*%
X130414001Y-86799947D02*
X130414001Y-88924001D01*
X129866377Y-82468864D02*
X129866377Y-86252323D01*
X129853921Y-82468864D02*
X129866377Y-82468864D01*
X127717783Y-80332726D02*
X129853921Y-82468864D01*
X127717783Y-76352437D02*
X127717783Y-80332726D01*
X129866377Y-86252323D02*
X130414001Y-86799947D01*
X130414001Y-88924001D02*
X132100000Y-90610000D01*
%TO.N,GPIO2*%
X122078000Y-66668000D02*
X119615000Y-64205000D01*
X120750000Y-80795000D02*
X120750000Y-80730000D01*
X122493263Y-82539677D02*
X122493263Y-82538263D01*
X122846734Y-82891734D02*
X122845320Y-82891734D01*
X122078000Y-79402000D02*
X122078000Y-66668000D01*
X122845320Y-82891734D02*
X122493263Y-82539677D01*
X120750000Y-80730000D02*
X122078000Y-79402000D01*
X122493263Y-82538263D02*
X120750000Y-80795000D01*
X123070000Y-83115000D02*
X122846734Y-82891734D01*
%TO.N,GPIO1*%
X123094263Y-82290734D02*
X122560000Y-81756471D01*
X122479000Y-61989000D02*
X119615000Y-59125000D01*
X122560000Y-81475041D02*
X122479000Y-81394041D01*
X122560000Y-81756471D02*
X122560000Y-81475041D01*
X122479000Y-81394041D02*
X122479000Y-61989000D01*
%TO.N,GPIO8*%
X123740000Y-86110000D02*
X119615000Y-81985000D01*
X125206507Y-86110000D02*
X123740000Y-86110000D01*
X126311507Y-87215000D02*
X125206507Y-86110000D01*
%TO.N,GPIO0*%
X122880000Y-59850000D02*
X119615000Y-56585000D01*
X123961580Y-82309521D02*
X122880000Y-81227941D01*
X122880000Y-81227941D02*
X122880000Y-59850000D01*
%TO.N,GPIO29_ADC3*%
X134370000Y-62150000D02*
X137395000Y-59125000D01*
X133731120Y-82018768D02*
X134370000Y-81379888D01*
X134370000Y-81379888D02*
X134370000Y-62150000D01*
%TO.N,GPIO28_ADC2*%
X134268692Y-82611237D02*
X134930000Y-81949929D01*
X134930000Y-81949929D02*
X134930000Y-66670000D01*
X134930000Y-66670000D02*
X137395000Y-64205000D01*
%TO.N,RUN*%
X131171862Y-86760550D02*
X131616018Y-87204706D01*
X136060000Y-86340000D02*
X136060000Y-83320000D01*
X136060000Y-83320000D02*
X137395000Y-81985000D01*
X131094082Y-86761740D02*
X131095272Y-86760550D01*
X131012784Y-86761740D02*
X131094082Y-86761740D01*
X131095272Y-86760550D02*
X131171862Y-86760550D01*
X135195294Y-87204706D02*
X136060000Y-86340000D01*
X131616018Y-87204706D02*
X135195294Y-87204706D01*
%TO.N,SWCLK*%
X128763528Y-86814999D02*
X128779265Y-86830736D01*
X125965000Y-90185000D02*
X125965000Y-104605000D01*
X128779265Y-86830736D02*
X128779265Y-87370735D01*
X128779265Y-87370735D02*
X125965000Y-90185000D01*
%TO.N,SWD*%
X129573529Y-86815000D02*
X129579113Y-86820584D01*
X129579113Y-86820584D02*
X129579113Y-86829611D01*
X129903443Y-103463443D02*
X131045000Y-104605000D01*
X129903443Y-87153941D02*
X129903443Y-103463443D01*
X129579113Y-86829611D02*
X129903443Y-87153941D01*
%TO.N,QSPI_SS*%
X126770000Y-72270000D02*
X129250000Y-72270000D01*
X129250000Y-72270000D02*
X130103364Y-71416636D01*
%TO.N,GPIO25*%
X131020000Y-83480000D02*
X131020000Y-84004990D01*
X131020000Y-84004990D02*
X131128969Y-84113959D01*
X131020000Y-82772544D02*
X131020000Y-83480000D01*
X130171000Y-81923544D02*
X131020000Y-82772544D01*
X131459133Y-72981636D02*
X130171000Y-74269769D01*
X130171000Y-74269769D02*
X130171000Y-81923544D01*
X131668364Y-72981636D02*
X131459133Y-72981636D01*
%TD*%
%TA.AperFunction,Conductor*%
%TO.N,GND*%
G36*
X123491881Y-55735185D02*
G01*
X123537636Y-55787989D01*
X123547580Y-55857147D01*
X123527944Y-55908391D01*
X123476052Y-55986051D01*
X123476047Y-55986060D01*
X123415743Y-56131648D01*
X123415741Y-56131656D01*
X123385000Y-56286202D01*
X123385000Y-56415000D01*
X123885000Y-56415000D01*
X123885000Y-56915000D01*
X123385000Y-56915000D01*
X123385000Y-57043797D01*
X123415741Y-57198343D01*
X123415743Y-57198351D01*
X123476047Y-57343939D01*
X123476052Y-57343948D01*
X123563598Y-57474969D01*
X123563601Y-57474973D01*
X123675026Y-57586398D01*
X123675034Y-57586404D01*
X123806047Y-57673944D01*
X123806065Y-57673954D01*
X123934999Y-57727360D01*
X123935000Y-57727360D01*
X123935000Y-57131988D01*
X123944940Y-57149205D01*
X124000795Y-57205060D01*
X124069204Y-57244556D01*
X124145504Y-57265000D01*
X124224496Y-57265000D01*
X124300796Y-57244556D01*
X124369205Y-57205060D01*
X124425060Y-57149205D01*
X124435000Y-57131988D01*
X124435000Y-57727360D01*
X124563934Y-57673954D01*
X124563952Y-57673944D01*
X124694965Y-57586404D01*
X124694973Y-57586398D01*
X124806398Y-57474973D01*
X124806401Y-57474969D01*
X124893947Y-57343948D01*
X124893952Y-57343939D01*
X124954256Y-57198351D01*
X124954258Y-57198343D01*
X124984999Y-57043797D01*
X124985000Y-57043794D01*
X124985000Y-56915000D01*
X124485000Y-56915000D01*
X124485000Y-56415000D01*
X124985000Y-56415000D01*
X124985000Y-56286206D01*
X124984999Y-56286202D01*
X124954258Y-56131656D01*
X124954256Y-56131648D01*
X124893952Y-55986060D01*
X124893947Y-55986051D01*
X124842056Y-55908391D01*
X124821178Y-55841714D01*
X124839662Y-55774333D01*
X124891641Y-55727643D01*
X124945158Y-55715500D01*
X132064842Y-55715500D01*
X132131881Y-55735185D01*
X132177636Y-55787989D01*
X132187580Y-55857147D01*
X132167944Y-55908391D01*
X132116052Y-55986051D01*
X132116047Y-55986060D01*
X132055743Y-56131648D01*
X132055741Y-56131656D01*
X132025000Y-56286202D01*
X132025000Y-56415000D01*
X132525000Y-56415000D01*
X132525000Y-56915000D01*
X132025000Y-56915000D01*
X132025000Y-57043797D01*
X132055741Y-57198343D01*
X132055743Y-57198351D01*
X132116047Y-57343939D01*
X132116052Y-57343948D01*
X132203598Y-57474969D01*
X132203601Y-57474973D01*
X132315026Y-57586398D01*
X132315034Y-57586404D01*
X132446047Y-57673944D01*
X132446065Y-57673954D01*
X132574999Y-57727360D01*
X132575000Y-57727360D01*
X132575000Y-57131988D01*
X132584940Y-57149205D01*
X132640795Y-57205060D01*
X132709204Y-57244556D01*
X132785504Y-57265000D01*
X132864496Y-57265000D01*
X132940796Y-57244556D01*
X133009205Y-57205060D01*
X133065060Y-57149205D01*
X133075000Y-57131988D01*
X133075000Y-57727360D01*
X133203934Y-57673954D01*
X133203952Y-57673944D01*
X133334965Y-57586404D01*
X133334973Y-57586398D01*
X133446398Y-57474973D01*
X133446401Y-57474969D01*
X133533947Y-57343948D01*
X133533952Y-57343939D01*
X133594256Y-57198351D01*
X133594258Y-57198343D01*
X133624999Y-57043797D01*
X133625000Y-57043794D01*
X133625000Y-56915000D01*
X133125000Y-56915000D01*
X133125000Y-56415000D01*
X133625000Y-56415000D01*
X133625000Y-56286206D01*
X133624999Y-56286202D01*
X133594258Y-56131656D01*
X133594256Y-56131648D01*
X133533952Y-55986060D01*
X133533947Y-55986051D01*
X133482056Y-55908391D01*
X133461178Y-55841714D01*
X133479662Y-55774333D01*
X133531641Y-55727643D01*
X133585158Y-55715500D01*
X136120500Y-55715500D01*
X136187539Y-55735185D01*
X136233294Y-55787989D01*
X136244500Y-55839500D01*
X136244500Y-57479856D01*
X136244502Y-57479882D01*
X136247413Y-57504987D01*
X136247415Y-57504991D01*
X136292793Y-57607764D01*
X136292794Y-57607765D01*
X136372235Y-57687206D01*
X136475009Y-57732585D01*
X136500135Y-57735500D01*
X137237873Y-57735499D01*
X137304910Y-57755183D01*
X137350665Y-57807987D01*
X137360609Y-57877146D01*
X137331584Y-57940702D01*
X137272806Y-57978476D01*
X137257270Y-57981972D01*
X137125589Y-58002829D01*
X136953363Y-58058787D01*
X136953360Y-58058788D01*
X136792002Y-58141006D01*
X136645505Y-58247441D01*
X136645500Y-58247445D01*
X136517445Y-58375500D01*
X136517441Y-58375505D01*
X136411006Y-58522002D01*
X136328788Y-58683360D01*
X136328787Y-58683363D01*
X136272829Y-58855589D01*
X136244500Y-59034448D01*
X136244500Y-59215551D01*
X136272829Y-59394410D01*
X136319575Y-59538281D01*
X136321570Y-59608122D01*
X136289325Y-59664280D01*
X134049522Y-61904084D01*
X134049518Y-61904090D01*
X133996792Y-61995412D01*
X133996793Y-61995413D01*
X133969500Y-62097273D01*
X133969500Y-78610902D01*
X133949815Y-78677941D01*
X133897011Y-78723696D01*
X133827853Y-78733640D01*
X133764297Y-78704615D01*
X133757819Y-78698583D01*
X133668717Y-78609481D01*
X133668709Y-78609475D01*
X133531790Y-78530426D01*
X133531786Y-78530424D01*
X133531784Y-78530423D01*
X133379057Y-78489500D01*
X133379056Y-78489500D01*
X133317254Y-78489500D01*
X133250215Y-78469815D01*
X133229573Y-78453181D01*
X131254644Y-76478251D01*
X131221159Y-76416928D01*
X131218325Y-76390570D01*
X131218325Y-74972985D01*
X131238010Y-74905946D01*
X131254644Y-74885304D01*
X131274948Y-74865000D01*
X131298345Y-74841603D01*
X131377402Y-74704671D01*
X131418325Y-74551944D01*
X131418325Y-74393830D01*
X131377402Y-74241103D01*
X131337510Y-74172007D01*
X131298349Y-74104177D01*
X131298343Y-74104169D01*
X131188348Y-73994174D01*
X131154863Y-73932851D01*
X131159847Y-73863159D01*
X131188346Y-73818814D01*
X131409121Y-73598039D01*
X131470442Y-73564556D01*
X131528892Y-73565947D01*
X131589307Y-73582136D01*
X131589309Y-73582136D01*
X131747419Y-73582136D01*
X131747421Y-73582136D01*
X131900148Y-73541213D01*
X132037080Y-73462156D01*
X132148884Y-73350352D01*
X132227941Y-73213420D01*
X132268864Y-73060693D01*
X132268864Y-72902579D01*
X132227941Y-72749852D01*
X132166370Y-72643207D01*
X132148888Y-72612926D01*
X132148885Y-72612922D01*
X132148884Y-72612920D01*
X132037080Y-72501116D01*
X132037078Y-72501115D01*
X132037073Y-72501111D01*
X131900154Y-72422062D01*
X131900150Y-72422060D01*
X131900148Y-72422059D01*
X131747421Y-72381136D01*
X131589307Y-72381136D01*
X131436580Y-72422059D01*
X131436573Y-72422062D01*
X131299654Y-72501111D01*
X131299646Y-72501117D01*
X131187845Y-72612918D01*
X131187843Y-72612921D01*
X131108782Y-72749860D01*
X131107093Y-72753939D01*
X131080218Y-72794156D01*
X129850522Y-74023853D01*
X129850518Y-74023859D01*
X129797792Y-74115181D01*
X129797793Y-74115182D01*
X129770500Y-74217042D01*
X129770500Y-77511902D01*
X129750815Y-77578941D01*
X129698011Y-77624696D01*
X129628853Y-77634640D01*
X129565297Y-77605615D01*
X129558819Y-77599583D01*
X129448717Y-77489481D01*
X129448709Y-77489475D01*
X129311790Y-77410426D01*
X129311786Y-77410424D01*
X129311784Y-77410423D01*
X129159057Y-77369500D01*
X129000943Y-77369500D01*
X128848216Y-77410423D01*
X128848209Y-77410426D01*
X128711290Y-77489475D01*
X128711282Y-77489481D01*
X128599481Y-77601282D01*
X128599475Y-77601290D01*
X128520426Y-77738209D01*
X128520423Y-77738216D01*
X128479500Y-77890943D01*
X128479500Y-77952745D01*
X128470855Y-77982185D01*
X128464332Y-78012172D01*
X128460577Y-78017187D01*
X128459815Y-78019784D01*
X128443181Y-78040426D01*
X128329964Y-78153643D01*
X128268641Y-78187128D01*
X128198949Y-78182144D01*
X128143016Y-78140272D01*
X128118599Y-78074808D01*
X128118283Y-78065962D01*
X128118283Y-76852535D01*
X128137968Y-76785496D01*
X128154602Y-76764854D01*
X128198303Y-76721153D01*
X128277360Y-76584221D01*
X128318283Y-76431494D01*
X128318283Y-76273380D01*
X128277360Y-76120653D01*
X128223545Y-76027441D01*
X128198307Y-75983727D01*
X128198301Y-75983719D01*
X128086500Y-75871918D01*
X128086492Y-75871912D01*
X127949573Y-75792863D01*
X127949569Y-75792861D01*
X127949567Y-75792860D01*
X127796840Y-75751937D01*
X127638726Y-75751937D01*
X127485999Y-75792860D01*
X127485992Y-75792863D01*
X127349073Y-75871912D01*
X127349065Y-75871918D01*
X127237264Y-75983719D01*
X127237258Y-75983727D01*
X127158209Y-76120646D01*
X127158206Y-76120653D01*
X127117283Y-76273380D01*
X127117283Y-76431494D01*
X127129812Y-76478251D01*
X127158206Y-76584220D01*
X127158209Y-76584227D01*
X127237258Y-76721146D01*
X127237264Y-76721154D01*
X127280964Y-76764854D01*
X127314449Y-76826177D01*
X127317283Y-76852535D01*
X127317283Y-80385452D01*
X127344576Y-80487315D01*
X127370939Y-80532976D01*
X127397303Y-80578639D01*
X127397305Y-80578641D01*
X129229558Y-82410894D01*
X129263043Y-82472217D01*
X129265877Y-82498575D01*
X129265877Y-82547921D01*
X129304026Y-82690293D01*
X129306800Y-82700647D01*
X129306803Y-82700654D01*
X129385852Y-82837573D01*
X129385858Y-82837581D01*
X129429558Y-82881281D01*
X129463043Y-82942604D01*
X129465877Y-82968962D01*
X129465877Y-86127013D01*
X129446192Y-86194052D01*
X129396590Y-86238290D01*
X129385697Y-86243645D01*
X129341745Y-86255423D01*
X129226955Y-86321696D01*
X129223242Y-86323522D01*
X129192719Y-86328804D01*
X129162628Y-86336104D01*
X129158145Y-86334788D01*
X129154396Y-86335437D01*
X129140828Y-86329703D01*
X129106530Y-86319633D01*
X128995312Y-86255422D01*
X128931374Y-86238290D01*
X128842585Y-86214499D01*
X128684471Y-86214499D01*
X128531744Y-86255422D01*
X128531737Y-86255425D01*
X128394818Y-86334474D01*
X128394810Y-86334480D01*
X128283009Y-86446281D01*
X128283003Y-86446289D01*
X128203954Y-86583208D01*
X128203951Y-86583215D01*
X128163028Y-86735942D01*
X128163028Y-86894056D01*
X128194607Y-87011908D01*
X128203951Y-87046782D01*
X128203952Y-87046785D01*
X128278216Y-87175415D01*
X128294689Y-87243316D01*
X128271836Y-87309342D01*
X128258510Y-87325096D01*
X125644522Y-89939084D01*
X125644518Y-89939090D01*
X125591792Y-90030412D01*
X125591793Y-90030413D01*
X125564500Y-90132273D01*
X125564500Y-103330500D01*
X125544815Y-103397539D01*
X125492011Y-103443294D01*
X125440500Y-103454500D01*
X125070143Y-103454500D01*
X125070117Y-103454502D01*
X125045012Y-103457413D01*
X125045008Y-103457415D01*
X124942235Y-103502793D01*
X124862794Y-103582234D01*
X124817415Y-103685006D01*
X124817415Y-103685008D01*
X124814500Y-103710131D01*
X124814500Y-105499856D01*
X124814502Y-105499882D01*
X124817413Y-105524986D01*
X124817414Y-105524990D01*
X124817415Y-105524991D01*
X124824225Y-105540414D01*
X124833297Y-105609690D01*
X124803475Y-105672876D01*
X124744226Y-105709907D01*
X124710791Y-105714500D01*
X120648733Y-105714500D01*
X120581694Y-105694815D01*
X120535939Y-105642011D01*
X120525995Y-105572853D01*
X120548414Y-105517615D01*
X120573887Y-105482554D01*
X120598996Y-105447994D01*
X120681211Y-105286639D01*
X120737171Y-105114409D01*
X120754484Y-105005099D01*
X120765500Y-104935551D01*
X120765500Y-104754448D01*
X120741829Y-104605001D01*
X120737171Y-104575591D01*
X120696713Y-104451073D01*
X120681212Y-104403363D01*
X120681211Y-104403360D01*
X120627523Y-104297993D01*
X120598996Y-104242006D01*
X120572038Y-104204901D01*
X120492558Y-104095505D01*
X120492554Y-104095500D01*
X120364499Y-103967445D01*
X120364494Y-103967441D01*
X120217997Y-103861006D01*
X120217996Y-103861005D01*
X120217994Y-103861004D01*
X120166300Y-103834664D01*
X120056639Y-103778788D01*
X120056636Y-103778787D01*
X119884410Y-103722829D01*
X119724321Y-103697473D01*
X119661186Y-103667544D01*
X119624255Y-103608232D01*
X119625253Y-103538370D01*
X119663863Y-103480137D01*
X119724321Y-103452527D01*
X119794425Y-103441422D01*
X119884409Y-103427171D01*
X120056639Y-103371211D01*
X120217994Y-103288996D01*
X120364501Y-103182553D01*
X120492553Y-103054501D01*
X120598996Y-102907994D01*
X120681211Y-102746639D01*
X120737171Y-102574409D01*
X120751765Y-102482259D01*
X120765500Y-102395551D01*
X120765500Y-102214448D01*
X120749019Y-102110397D01*
X120737171Y-102035591D01*
X120681211Y-101863361D01*
X120681211Y-101863360D01*
X120652740Y-101807484D01*
X120598996Y-101702006D01*
X120536401Y-101615851D01*
X120492558Y-101555505D01*
X120492554Y-101555500D01*
X120364499Y-101427445D01*
X120364494Y-101427441D01*
X120217997Y-101321006D01*
X120217996Y-101321005D01*
X120217994Y-101321004D01*
X120166300Y-101294664D01*
X120056639Y-101238788D01*
X120056636Y-101238787D01*
X119884410Y-101182828D01*
X119722720Y-101157219D01*
X119659585Y-101127289D01*
X119622654Y-101067978D01*
X119623652Y-100998115D01*
X119662262Y-100939883D01*
X119722721Y-100912273D01*
X119884292Y-100886683D01*
X120056444Y-100830748D01*
X120056452Y-100830745D01*
X120217730Y-100748568D01*
X120233532Y-100737085D01*
X120233533Y-100737085D01*
X119744410Y-100247962D01*
X119807993Y-100230925D01*
X119922007Y-100165099D01*
X120015099Y-100072007D01*
X120080925Y-99957993D01*
X120097962Y-99894410D01*
X120587085Y-100383533D01*
X120587085Y-100383532D01*
X120598568Y-100367730D01*
X120680745Y-100206452D01*
X120680748Y-100206444D01*
X120736682Y-100034293D01*
X120765000Y-99855506D01*
X120765000Y-99674493D01*
X120736682Y-99495706D01*
X120680748Y-99323555D01*
X120680747Y-99323552D01*
X120598571Y-99162275D01*
X120598566Y-99162267D01*
X120587085Y-99146466D01*
X120097962Y-99635589D01*
X120080925Y-99572007D01*
X120015099Y-99457993D01*
X119922007Y-99364901D01*
X119807993Y-99299075D01*
X119744409Y-99282037D01*
X120233533Y-98792913D01*
X120217730Y-98781431D01*
X120056447Y-98699252D01*
X120056444Y-98699251D01*
X119884293Y-98643317D01*
X119722720Y-98617726D01*
X119659585Y-98587797D01*
X119622654Y-98528485D01*
X119623652Y-98458623D01*
X119662262Y-98400390D01*
X119722720Y-98372780D01*
X119737270Y-98370475D01*
X119884409Y-98347171D01*
X120056639Y-98291211D01*
X120217994Y-98208996D01*
X120364501Y-98102553D01*
X120492553Y-97974501D01*
X120598996Y-97827994D01*
X120681211Y-97666639D01*
X120737171Y-97494409D01*
X120751765Y-97402259D01*
X120765500Y-97315551D01*
X120765500Y-97134448D01*
X120749019Y-97030397D01*
X120737171Y-96955591D01*
X120681211Y-96783361D01*
X120681211Y-96783360D01*
X120652740Y-96727484D01*
X120598996Y-96622006D01*
X120536401Y-96535851D01*
X120492558Y-96475505D01*
X120492554Y-96475500D01*
X120364499Y-96347445D01*
X120364494Y-96347441D01*
X120217997Y-96241006D01*
X120217996Y-96241005D01*
X120217994Y-96241004D01*
X120166300Y-96214664D01*
X120056639Y-96158788D01*
X120056636Y-96158787D01*
X119884410Y-96102829D01*
X119724321Y-96077473D01*
X119661186Y-96047544D01*
X119624255Y-95988232D01*
X119625253Y-95918370D01*
X119663863Y-95860137D01*
X119724321Y-95832527D01*
X119794425Y-95821422D01*
X119884409Y-95807171D01*
X120056639Y-95751211D01*
X120217994Y-95668996D01*
X120364501Y-95562553D01*
X120492553Y-95434501D01*
X120598996Y-95287994D01*
X120681211Y-95126639D01*
X120737171Y-94954409D01*
X120751765Y-94862259D01*
X120765500Y-94775551D01*
X120765500Y-94594448D01*
X120749019Y-94490397D01*
X120737171Y-94415591D01*
X120681211Y-94243361D01*
X120681211Y-94243360D01*
X120652740Y-94187484D01*
X120598996Y-94082006D01*
X120536401Y-93995851D01*
X120492558Y-93935505D01*
X120492554Y-93935500D01*
X120364499Y-93807445D01*
X120364494Y-93807441D01*
X120217997Y-93701006D01*
X120217996Y-93701005D01*
X120217994Y-93701004D01*
X120166300Y-93674664D01*
X120056639Y-93618788D01*
X120056636Y-93618787D01*
X119884410Y-93562829D01*
X119724321Y-93537473D01*
X119661186Y-93507544D01*
X119624255Y-93448232D01*
X119625253Y-93378370D01*
X119663863Y-93320137D01*
X119724321Y-93292527D01*
X119794425Y-93281422D01*
X119884409Y-93267171D01*
X120056639Y-93211211D01*
X120217994Y-93128996D01*
X120364501Y-93022553D01*
X120492553Y-92894501D01*
X120598996Y-92747994D01*
X120681211Y-92586639D01*
X120737171Y-92414409D01*
X120751765Y-92322259D01*
X120765500Y-92235551D01*
X120765500Y-92054448D01*
X120749019Y-91950397D01*
X120737171Y-91875591D01*
X120681211Y-91703361D01*
X120681211Y-91703360D01*
X120652740Y-91647484D01*
X120598996Y-91542006D01*
X120536401Y-91455851D01*
X120492558Y-91395505D01*
X120492554Y-91395500D01*
X120364499Y-91267445D01*
X120364494Y-91267441D01*
X120217997Y-91161006D01*
X120217996Y-91161005D01*
X120217994Y-91161004D01*
X120166300Y-91134664D01*
X120056639Y-91078788D01*
X120056636Y-91078787D01*
X119884410Y-91022829D01*
X119724321Y-90997473D01*
X119661186Y-90967544D01*
X119624255Y-90908232D01*
X119625253Y-90838370D01*
X119663863Y-90780137D01*
X119724321Y-90752527D01*
X119794425Y-90741422D01*
X119884409Y-90727171D01*
X120056639Y-90671211D01*
X120217994Y-90588996D01*
X120364501Y-90482553D01*
X120492553Y-90354501D01*
X120598996Y-90207994D01*
X120681211Y-90046639D01*
X120737171Y-89874409D01*
X120751765Y-89782259D01*
X120765500Y-89695551D01*
X120765500Y-89514448D01*
X120749019Y-89410397D01*
X120737171Y-89335591D01*
X120681211Y-89163361D01*
X120681211Y-89163360D01*
X120652740Y-89107484D01*
X120598996Y-89002006D01*
X120536401Y-88915851D01*
X120492558Y-88855505D01*
X120492554Y-88855500D01*
X120364499Y-88727445D01*
X120364494Y-88727441D01*
X120217997Y-88621006D01*
X120217996Y-88621005D01*
X120217994Y-88621004D01*
X120166300Y-88594664D01*
X120056639Y-88538788D01*
X120056636Y-88538787D01*
X119884410Y-88482828D01*
X119722720Y-88457219D01*
X119659585Y-88427289D01*
X119622654Y-88367978D01*
X119623652Y-88298115D01*
X119662262Y-88239883D01*
X119722721Y-88212273D01*
X119884292Y-88186683D01*
X120056444Y-88130748D01*
X120056452Y-88130745D01*
X120217730Y-88048568D01*
X120233532Y-88037085D01*
X120233533Y-88037085D01*
X119744410Y-87547962D01*
X119807993Y-87530925D01*
X119922007Y-87465099D01*
X120015099Y-87372007D01*
X120080925Y-87257993D01*
X120097962Y-87194410D01*
X120587085Y-87683533D01*
X120587085Y-87683532D01*
X120598568Y-87667730D01*
X120680745Y-87506452D01*
X120680748Y-87506444D01*
X120736682Y-87334293D01*
X120765000Y-87155506D01*
X120765000Y-86974493D01*
X120736682Y-86795706D01*
X120680748Y-86623555D01*
X120680747Y-86623552D01*
X120598571Y-86462275D01*
X120598566Y-86462267D01*
X120587085Y-86446466D01*
X120097962Y-86935589D01*
X120080925Y-86872007D01*
X120015099Y-86757993D01*
X119922007Y-86664901D01*
X119807993Y-86599075D01*
X119744409Y-86582037D01*
X120233533Y-86092913D01*
X120217730Y-86081431D01*
X120056447Y-85999252D01*
X120056444Y-85999251D01*
X119884293Y-85943317D01*
X119722720Y-85917726D01*
X119659585Y-85887797D01*
X119622654Y-85828485D01*
X119623652Y-85758623D01*
X119662262Y-85700390D01*
X119722720Y-85672780D01*
X119737270Y-85670475D01*
X119884409Y-85647171D01*
X120056639Y-85591211D01*
X120217994Y-85508996D01*
X120364501Y-85402553D01*
X120492553Y-85274501D01*
X120598996Y-85127994D01*
X120681211Y-84966639D01*
X120737171Y-84794409D01*
X120751765Y-84702259D01*
X120765500Y-84615551D01*
X120765500Y-84434448D01*
X120749019Y-84330397D01*
X120737171Y-84255591D01*
X120681211Y-84083361D01*
X120681211Y-84083360D01*
X120652740Y-84027484D01*
X120598996Y-83922006D01*
X120549500Y-83853880D01*
X120503638Y-83790755D01*
X120503634Y-83790751D01*
X120492553Y-83775499D01*
X120364501Y-83647447D01*
X120349248Y-83636365D01*
X120349244Y-83636361D01*
X120217997Y-83541006D01*
X120217996Y-83541005D01*
X120217994Y-83541004D01*
X120166300Y-83514664D01*
X120056639Y-83458788D01*
X120056636Y-83458787D01*
X119884410Y-83402829D01*
X119724321Y-83377473D01*
X119661186Y-83347544D01*
X119624255Y-83288232D01*
X119625253Y-83218370D01*
X119663863Y-83160137D01*
X119724321Y-83132527D01*
X119884409Y-83107171D01*
X119888798Y-83105745D01*
X120028284Y-83060423D01*
X120098123Y-83058429D01*
X120154281Y-83090674D01*
X123494087Y-86430480D01*
X123585412Y-86483207D01*
X123687273Y-86510500D01*
X124989252Y-86510500D01*
X125056291Y-86530185D01*
X125076933Y-86546819D01*
X125674688Y-87144574D01*
X125708173Y-87205897D01*
X125711007Y-87232255D01*
X125711007Y-87294057D01*
X125744134Y-87417687D01*
X125751930Y-87446783D01*
X125751933Y-87446790D01*
X125830982Y-87583709D01*
X125830986Y-87583714D01*
X125830987Y-87583716D01*
X125942791Y-87695520D01*
X125942793Y-87695521D01*
X125942797Y-87695524D01*
X126019525Y-87739822D01*
X126079723Y-87774577D01*
X126232450Y-87815500D01*
X126232452Y-87815500D01*
X126390562Y-87815500D01*
X126390564Y-87815500D01*
X126543291Y-87774577D01*
X126680223Y-87695520D01*
X126792027Y-87583716D01*
X126871084Y-87446784D01*
X126912007Y-87294057D01*
X126912007Y-87135943D01*
X126871084Y-86983216D01*
X126842134Y-86933073D01*
X126792031Y-86846290D01*
X126792025Y-86846282D01*
X126680224Y-86734481D01*
X126680216Y-86734475D01*
X126543297Y-86655426D01*
X126543293Y-86655424D01*
X126543291Y-86655423D01*
X126390564Y-86614500D01*
X126390563Y-86614500D01*
X126328762Y-86614500D01*
X126261723Y-86594815D01*
X126241081Y-86578181D01*
X125452422Y-85789522D01*
X125452420Y-85789520D01*
X125398905Y-85758623D01*
X125361096Y-85736793D01*
X125310164Y-85723146D01*
X125259234Y-85709500D01*
X125259233Y-85709500D01*
X123957255Y-85709500D01*
X123890216Y-85689815D01*
X123869574Y-85673181D01*
X120720674Y-82524281D01*
X120687189Y-82462958D01*
X120690424Y-82398283D01*
X120737171Y-82254409D01*
X120740963Y-82230466D01*
X120765500Y-82075551D01*
X120765500Y-81894448D01*
X120748477Y-81786977D01*
X120737171Y-81715591D01*
X120720126Y-81663130D01*
X120718131Y-81593288D01*
X120754212Y-81533456D01*
X120816913Y-81502628D01*
X120886327Y-81510593D01*
X120925738Y-81537131D01*
X122162372Y-82773765D01*
X122172464Y-82785271D01*
X122172782Y-82785589D01*
X122172783Y-82785590D01*
X122304793Y-82917600D01*
X122433181Y-83045987D01*
X122466666Y-83107310D01*
X122469500Y-83133668D01*
X122469500Y-83194057D01*
X122486383Y-83257063D01*
X122510423Y-83346783D01*
X122510426Y-83346790D01*
X122589475Y-83483709D01*
X122589479Y-83483714D01*
X122589480Y-83483716D01*
X122701284Y-83595520D01*
X122701286Y-83595521D01*
X122701290Y-83595524D01*
X122803543Y-83654559D01*
X122838216Y-83674577D01*
X122990943Y-83715500D01*
X122990945Y-83715500D01*
X123149055Y-83715500D01*
X123149057Y-83715500D01*
X123301784Y-83674577D01*
X123438716Y-83595520D01*
X123550520Y-83483716D01*
X123629577Y-83346784D01*
X123670500Y-83194057D01*
X123670500Y-83035943D01*
X123670498Y-83035939D01*
X123669786Y-83030527D01*
X123680547Y-82961491D01*
X123726923Y-82909232D01*
X123794191Y-82890342D01*
X123824810Y-82894556D01*
X123882523Y-82910021D01*
X123882526Y-82910021D01*
X124040635Y-82910021D01*
X124040637Y-82910021D01*
X124193364Y-82869098D01*
X124330296Y-82790041D01*
X124442100Y-82678237D01*
X124521157Y-82541305D01*
X124562080Y-82388578D01*
X124562080Y-82230464D01*
X124521157Y-82077737D01*
X124519892Y-82075546D01*
X124442104Y-81940811D01*
X124442098Y-81940803D01*
X124330297Y-81829002D01*
X124330289Y-81828996D01*
X124193370Y-81749947D01*
X124193366Y-81749945D01*
X124193364Y-81749944D01*
X124040637Y-81709021D01*
X124040636Y-81709021D01*
X123978835Y-81709021D01*
X123911796Y-81689336D01*
X123891154Y-81672702D01*
X123316819Y-81098367D01*
X123283334Y-81037044D01*
X123280500Y-81010686D01*
X123280500Y-72190943D01*
X126169500Y-72190943D01*
X126169500Y-72349057D01*
X126210245Y-72501117D01*
X126210423Y-72501783D01*
X126210426Y-72501790D01*
X126289475Y-72638709D01*
X126289479Y-72638714D01*
X126289480Y-72638716D01*
X126401284Y-72750520D01*
X126401286Y-72750521D01*
X126401290Y-72750524D01*
X126437361Y-72771349D01*
X126538216Y-72829577D01*
X126690943Y-72870500D01*
X126690945Y-72870500D01*
X126849055Y-72870500D01*
X126849057Y-72870500D01*
X127001784Y-72829577D01*
X127138716Y-72750520D01*
X127182417Y-72706819D01*
X127243740Y-72673334D01*
X127270098Y-72670500D01*
X129302725Y-72670500D01*
X129302727Y-72670500D01*
X129404588Y-72643207D01*
X129495913Y-72590480D01*
X130032938Y-72053455D01*
X130094261Y-72019970D01*
X130120619Y-72017136D01*
X130182419Y-72017136D01*
X130182421Y-72017136D01*
X130335148Y-71976213D01*
X130472080Y-71897156D01*
X130583884Y-71785352D01*
X130662941Y-71648420D01*
X130703864Y-71495693D01*
X130703864Y-71337579D01*
X130662941Y-71184852D01*
X130630501Y-71128664D01*
X130583888Y-71047926D01*
X130583882Y-71047918D01*
X130472081Y-70936117D01*
X130472073Y-70936111D01*
X130335154Y-70857062D01*
X130335150Y-70857060D01*
X130335148Y-70857059D01*
X130182421Y-70816136D01*
X130024307Y-70816136D01*
X129871580Y-70857059D01*
X129871573Y-70857062D01*
X129734654Y-70936111D01*
X129734646Y-70936117D01*
X129622845Y-71047918D01*
X129622839Y-71047926D01*
X129543790Y-71184845D01*
X129543787Y-71184852D01*
X129502864Y-71337579D01*
X129502864Y-71399381D01*
X129483179Y-71466420D01*
X129466545Y-71487062D01*
X129120426Y-71833181D01*
X129059103Y-71866666D01*
X129032745Y-71869500D01*
X127270098Y-71869500D01*
X127203059Y-71849815D01*
X127182417Y-71833181D01*
X127138717Y-71789481D01*
X127138709Y-71789475D01*
X127001790Y-71710426D01*
X127001786Y-71710424D01*
X127001784Y-71710423D01*
X126849057Y-71669500D01*
X126690943Y-71669500D01*
X126538216Y-71710423D01*
X126538209Y-71710426D01*
X126401290Y-71789475D01*
X126401282Y-71789481D01*
X126289481Y-71901282D01*
X126289475Y-71901290D01*
X126210426Y-72038209D01*
X126210423Y-72038216D01*
X126169500Y-72190943D01*
X123280500Y-72190943D01*
X123280500Y-61890056D01*
X123300185Y-61823017D01*
X123352989Y-61777262D01*
X123422147Y-61767318D01*
X123485703Y-61796343D01*
X123507602Y-61821165D01*
X123563598Y-61904969D01*
X123563601Y-61904973D01*
X123675026Y-62016398D01*
X123675034Y-62016404D01*
X123806047Y-62103944D01*
X123806065Y-62103954D01*
X123934999Y-62157360D01*
X123935000Y-62157360D01*
X123935000Y-61561988D01*
X123944940Y-61579205D01*
X124000795Y-61635060D01*
X124069204Y-61674556D01*
X124145504Y-61695000D01*
X124224496Y-61695000D01*
X124300796Y-61674556D01*
X124369205Y-61635060D01*
X124425060Y-61579205D01*
X124435000Y-61561988D01*
X124435000Y-62157360D01*
X124563934Y-62103954D01*
X124563952Y-62103944D01*
X124694965Y-62016404D01*
X124694973Y-62016398D01*
X124806398Y-61904973D01*
X124806401Y-61904969D01*
X124893947Y-61773948D01*
X124893952Y-61773939D01*
X124954256Y-61628351D01*
X124954258Y-61628343D01*
X124984999Y-61473797D01*
X124985000Y-61473794D01*
X124985000Y-61095000D01*
X124485000Y-61095000D01*
X124485000Y-60595000D01*
X125036362Y-60595000D01*
X125036362Y-60596884D01*
X125082320Y-60600163D01*
X125138261Y-60642024D01*
X125146391Y-60654346D01*
X125154485Y-60668365D01*
X125261635Y-60775515D01*
X125392865Y-60851281D01*
X125539234Y-60890500D01*
X125539236Y-60890500D01*
X125690764Y-60890500D01*
X125690766Y-60890500D01*
X125837135Y-60851281D01*
X125968365Y-60775515D01*
X126075515Y-60668365D01*
X126151281Y-60537135D01*
X126190500Y-60390766D01*
X126190500Y-60239234D01*
X130819500Y-60239234D01*
X130819500Y-60390765D01*
X130858719Y-60537136D01*
X130893215Y-60596884D01*
X130934485Y-60668365D01*
X131041635Y-60775515D01*
X131172865Y-60851281D01*
X131319234Y-60890500D01*
X131319236Y-60890500D01*
X131470764Y-60890500D01*
X131470766Y-60890500D01*
X131617135Y-60851281D01*
X131748365Y-60775515D01*
X131855515Y-60668365D01*
X131863604Y-60654353D01*
X131914168Y-60606139D01*
X131982774Y-60592914D01*
X131987985Y-60595000D01*
X132525000Y-60595000D01*
X132525000Y-61095000D01*
X132025000Y-61095000D01*
X132025000Y-61473797D01*
X132055741Y-61628343D01*
X132055743Y-61628351D01*
X132116047Y-61773939D01*
X132116052Y-61773948D01*
X132203598Y-61904969D01*
X132203601Y-61904973D01*
X132315026Y-62016398D01*
X132315034Y-62016404D01*
X132446047Y-62103944D01*
X132446065Y-62103954D01*
X132574999Y-62157360D01*
X132575000Y-62157360D01*
X132575000Y-61561988D01*
X132584940Y-61579205D01*
X132640795Y-61635060D01*
X132709204Y-61674556D01*
X132785504Y-61695000D01*
X132864496Y-61695000D01*
X132940796Y-61674556D01*
X133009205Y-61635060D01*
X133065060Y-61579205D01*
X133075000Y-61561988D01*
X133075000Y-62157360D01*
X133203934Y-62103954D01*
X133203952Y-62103944D01*
X133334965Y-62016404D01*
X133334973Y-62016398D01*
X133446398Y-61904973D01*
X133446401Y-61904969D01*
X133533947Y-61773948D01*
X133533952Y-61773939D01*
X133594256Y-61628351D01*
X133594258Y-61628343D01*
X133624999Y-61473797D01*
X133625000Y-61473794D01*
X133625000Y-61095000D01*
X133125000Y-61095000D01*
X133125000Y-60595000D01*
X133625000Y-60595000D01*
X133625000Y-60216206D01*
X133624999Y-60216202D01*
X133594258Y-60061656D01*
X133594256Y-60061648D01*
X133533952Y-59916060D01*
X133533947Y-59916051D01*
X133446401Y-59785030D01*
X133446398Y-59785026D01*
X133334973Y-59673601D01*
X133334969Y-59673598D01*
X133203948Y-59586052D01*
X133203938Y-59586047D01*
X133075000Y-59532639D01*
X133075000Y-60128011D01*
X133065060Y-60110795D01*
X133009205Y-60054940D01*
X132940796Y-60015444D01*
X132864496Y-59995000D01*
X132785504Y-59995000D01*
X132709204Y-60015444D01*
X132640795Y-60054940D01*
X132584940Y-60110795D01*
X132575000Y-60128011D01*
X132575000Y-59532639D01*
X132574999Y-59532639D01*
X132446061Y-59586047D01*
X132446051Y-59586052D01*
X132315030Y-59673598D01*
X132315026Y-59673601D01*
X132203601Y-59785026D01*
X132203598Y-59785030D01*
X132116052Y-59916051D01*
X132116049Y-59916057D01*
X132092446Y-59973040D01*
X132048604Y-60027443D01*
X131982310Y-60049507D01*
X131914611Y-60032227D01*
X131870498Y-59987587D01*
X131865872Y-59979574D01*
X131855515Y-59961635D01*
X131748365Y-59854485D01*
X131649275Y-59797275D01*
X131617136Y-59778719D01*
X131543950Y-59759109D01*
X131470766Y-59739500D01*
X131319234Y-59739500D01*
X131172863Y-59778719D01*
X131041635Y-59854485D01*
X131041632Y-59854487D01*
X130934487Y-59961632D01*
X130934485Y-59961635D01*
X130858719Y-60092863D01*
X130819500Y-60239234D01*
X126190500Y-60239234D01*
X126151281Y-60092865D01*
X126075515Y-59961635D01*
X125968365Y-59854485D01*
X125869275Y-59797275D01*
X125837136Y-59778719D01*
X125763950Y-59759109D01*
X125690766Y-59739500D01*
X125539234Y-59739500D01*
X125392863Y-59778719D01*
X125261635Y-59854485D01*
X125261632Y-59854487D01*
X125154487Y-59961632D01*
X125154481Y-59961641D01*
X125139499Y-59987589D01*
X125088931Y-60035803D01*
X125020324Y-60049024D01*
X124955460Y-60023054D01*
X124917553Y-59973038D01*
X124893954Y-59916064D01*
X124893947Y-59916051D01*
X124806401Y-59785030D01*
X124806398Y-59785026D01*
X124694973Y-59673601D01*
X124694969Y-59673598D01*
X124563948Y-59586052D01*
X124563938Y-59586047D01*
X124435000Y-59532639D01*
X124435000Y-60128011D01*
X124425060Y-60110795D01*
X124369205Y-60054940D01*
X124300796Y-60015444D01*
X124224496Y-59995000D01*
X124145504Y-59995000D01*
X124069204Y-60015444D01*
X124000795Y-60054940D01*
X123944940Y-60110795D01*
X123935000Y-60128011D01*
X123935000Y-59532639D01*
X123934999Y-59532639D01*
X123806061Y-59586047D01*
X123806051Y-59586052D01*
X123675030Y-59673598D01*
X123675026Y-59673601D01*
X123563601Y-59785026D01*
X123563598Y-59785030D01*
X123507602Y-59868834D01*
X123453989Y-59913639D01*
X123384664Y-59922346D01*
X123321637Y-59892191D01*
X123284918Y-59832748D01*
X123280500Y-59799943D01*
X123280500Y-59797275D01*
X123280500Y-59797273D01*
X123253207Y-59695413D01*
X123253207Y-59695412D01*
X123200480Y-59604087D01*
X120801818Y-57205425D01*
X120768333Y-57144102D01*
X120765499Y-57117744D01*
X120765499Y-55839500D01*
X120785184Y-55772461D01*
X120837988Y-55726706D01*
X120889499Y-55715500D01*
X123424842Y-55715500D01*
X123491881Y-55735185D01*
G37*
%TD.AperFunction*%
%TA.AperFunction,Conductor*%
G36*
X127320702Y-104665214D02*
G01*
X127358476Y-104723992D01*
X127361972Y-104739529D01*
X127383317Y-104874293D01*
X127439251Y-105046444D01*
X127439252Y-105046447D01*
X127521431Y-105207730D01*
X127532913Y-105223532D01*
X127532913Y-105223533D01*
X128022037Y-104734409D01*
X128039075Y-104797993D01*
X128104901Y-104912007D01*
X128197993Y-105005099D01*
X128312007Y-105070925D01*
X128375590Y-105087962D01*
X127886466Y-105577085D01*
X127886757Y-105580771D01*
X127872393Y-105649149D01*
X127823341Y-105698905D01*
X127763139Y-105714500D01*
X127219210Y-105714500D01*
X127152171Y-105694815D01*
X127106416Y-105642011D01*
X127096472Y-105572853D01*
X127105775Y-105540414D01*
X127105776Y-105540412D01*
X127112585Y-105524991D01*
X127115500Y-105499865D01*
X127115499Y-104758925D01*
X127135183Y-104691888D01*
X127187987Y-104646133D01*
X127257146Y-104636189D01*
X127320702Y-104665214D01*
G37*
%TD.AperFunction*%
%TA.AperFunction,Conductor*%
G36*
X129811376Y-104613652D02*
G01*
X129869609Y-104652261D01*
X129897219Y-104712720D01*
X129922828Y-104874410D01*
X129978787Y-105046636D01*
X129978788Y-105046639D01*
X130013320Y-105114410D01*
X130060869Y-105207730D01*
X130061006Y-105207997D01*
X130167441Y-105354494D01*
X130167445Y-105354499D01*
X130295500Y-105482554D01*
X130295505Y-105482558D01*
X130305998Y-105490182D01*
X130348664Y-105545512D01*
X130354643Y-105615125D01*
X130322037Y-105676920D01*
X130261199Y-105711277D01*
X130233113Y-105714500D01*
X129246861Y-105714500D01*
X129179822Y-105694815D01*
X129134067Y-105642011D01*
X129123243Y-105580774D01*
X129123533Y-105577085D01*
X128634410Y-105087962D01*
X128697993Y-105070925D01*
X128812007Y-105005099D01*
X128905099Y-104912007D01*
X128970925Y-104797993D01*
X128987962Y-104734410D01*
X129477085Y-105223533D01*
X129477085Y-105223532D01*
X129488568Y-105207730D01*
X129570745Y-105046452D01*
X129570748Y-105046444D01*
X129626683Y-104874292D01*
X129652273Y-104712721D01*
X129682202Y-104649586D01*
X129741513Y-104612654D01*
X129811376Y-104613652D01*
G37*
%TD.AperFunction*%
%TA.AperFunction,Conductor*%
G36*
X136164333Y-86904572D02*
G01*
X136220267Y-86946443D01*
X136244684Y-87011908D01*
X136245000Y-87020754D01*
X136245000Y-87155506D01*
X136273317Y-87334293D01*
X136329251Y-87506444D01*
X136329252Y-87506447D01*
X136411431Y-87667730D01*
X136422913Y-87683532D01*
X136422913Y-87683533D01*
X136912037Y-87194409D01*
X136929075Y-87257993D01*
X136994901Y-87372007D01*
X137087993Y-87465099D01*
X137202007Y-87530925D01*
X137265590Y-87547962D01*
X136776466Y-88037085D01*
X136776466Y-88037086D01*
X136792267Y-88048566D01*
X136792275Y-88048571D01*
X136953552Y-88130747D01*
X136953555Y-88130748D01*
X137125706Y-88186682D01*
X137287279Y-88212273D01*
X137350413Y-88242202D01*
X137387345Y-88301513D01*
X137386347Y-88371376D01*
X137347738Y-88429609D01*
X137287280Y-88457219D01*
X137125589Y-88482829D01*
X136953363Y-88538787D01*
X136953360Y-88538788D01*
X136792002Y-88621006D01*
X136645505Y-88727441D01*
X136645500Y-88727445D01*
X136517445Y-88855500D01*
X136517441Y-88855505D01*
X136411006Y-89002002D01*
X136328788Y-89163360D01*
X136328787Y-89163363D01*
X136272829Y-89335589D01*
X136244500Y-89514448D01*
X136244500Y-89695551D01*
X136272829Y-89874410D01*
X136328787Y-90046636D01*
X136328788Y-90046639D01*
X136411006Y-90207997D01*
X136517441Y-90354494D01*
X136517445Y-90354499D01*
X136645500Y-90482554D01*
X136645505Y-90482558D01*
X136773287Y-90575396D01*
X136792006Y-90588996D01*
X136897484Y-90642740D01*
X136953360Y-90671211D01*
X136953363Y-90671212D01*
X137008280Y-90689055D01*
X137125591Y-90727171D01*
X137198639Y-90738740D01*
X137285678Y-90752527D01*
X137348813Y-90782456D01*
X137385744Y-90841768D01*
X137384746Y-90911631D01*
X137346136Y-90969863D01*
X137285678Y-90997473D01*
X137125589Y-91022829D01*
X136953363Y-91078787D01*
X136953360Y-91078788D01*
X136792002Y-91161006D01*
X136645505Y-91267441D01*
X136645500Y-91267445D01*
X136517445Y-91395500D01*
X136517441Y-91395505D01*
X136411006Y-91542002D01*
X136328788Y-91703360D01*
X136328787Y-91703363D01*
X136272829Y-91875589D01*
X136244500Y-92054448D01*
X136244500Y-92235551D01*
X136272829Y-92414410D01*
X136328787Y-92586636D01*
X136328788Y-92586639D01*
X136411006Y-92747997D01*
X136517441Y-92894494D01*
X136517445Y-92894499D01*
X136645500Y-93022554D01*
X136645505Y-93022558D01*
X136773287Y-93115396D01*
X136792006Y-93128996D01*
X136897484Y-93182740D01*
X136953360Y-93211211D01*
X136953363Y-93211212D01*
X137039476Y-93239191D01*
X137125591Y-93267171D01*
X137198639Y-93278740D01*
X137285678Y-93292527D01*
X137348813Y-93322456D01*
X137385744Y-93381768D01*
X137384746Y-93451631D01*
X137346136Y-93509863D01*
X137285678Y-93537473D01*
X137125589Y-93562829D01*
X136953363Y-93618787D01*
X136953360Y-93618788D01*
X136792002Y-93701006D01*
X136645505Y-93807441D01*
X136645500Y-93807445D01*
X136517445Y-93935500D01*
X136517441Y-93935505D01*
X136411006Y-94082002D01*
X136328788Y-94243360D01*
X136328787Y-94243363D01*
X136272829Y-94415589D01*
X136244500Y-94594448D01*
X136244500Y-94775551D01*
X136272829Y-94954410D01*
X136328787Y-95126636D01*
X136328788Y-95126639D01*
X136411006Y-95287997D01*
X136517441Y-95434494D01*
X136517445Y-95434499D01*
X136645500Y-95562554D01*
X136645505Y-95562558D01*
X136773287Y-95655396D01*
X136792006Y-95668996D01*
X136897484Y-95722740D01*
X136953360Y-95751211D01*
X136953363Y-95751212D01*
X137039476Y-95779191D01*
X137125591Y-95807171D01*
X137198639Y-95818740D01*
X137285678Y-95832527D01*
X137348813Y-95862456D01*
X137385744Y-95921768D01*
X137384746Y-95991631D01*
X137346136Y-96049863D01*
X137285678Y-96077473D01*
X137125589Y-96102829D01*
X136953363Y-96158787D01*
X136953360Y-96158788D01*
X136792002Y-96241006D01*
X136645505Y-96347441D01*
X136645500Y-96347445D01*
X136517445Y-96475500D01*
X136517441Y-96475505D01*
X136411006Y-96622002D01*
X136328788Y-96783360D01*
X136328787Y-96783363D01*
X136272829Y-96955589D01*
X136244500Y-97134448D01*
X136244500Y-97315551D01*
X136272829Y-97494410D01*
X136328787Y-97666636D01*
X136328788Y-97666639D01*
X136411006Y-97827997D01*
X136517441Y-97974494D01*
X136517445Y-97974499D01*
X136645500Y-98102554D01*
X136645505Y-98102558D01*
X136773287Y-98195396D01*
X136792006Y-98208996D01*
X136897484Y-98262740D01*
X136953360Y-98291211D01*
X136953363Y-98291212D01*
X137039476Y-98319191D01*
X137125591Y-98347171D01*
X137245038Y-98366089D01*
X137287279Y-98372780D01*
X137350414Y-98402709D01*
X137387345Y-98462021D01*
X137386347Y-98531883D01*
X137347737Y-98590116D01*
X137287279Y-98617726D01*
X137125706Y-98643317D01*
X136953555Y-98699251D01*
X136953547Y-98699254D01*
X136792269Y-98781432D01*
X136776466Y-98792912D01*
X136776466Y-98792913D01*
X137265591Y-99282037D01*
X137202007Y-99299075D01*
X137087993Y-99364901D01*
X136994901Y-99457993D01*
X136929075Y-99572007D01*
X136912037Y-99635590D01*
X136422913Y-99146466D01*
X136422912Y-99146466D01*
X136411432Y-99162269D01*
X136329254Y-99323547D01*
X136329251Y-99323555D01*
X136273317Y-99495706D01*
X136245000Y-99674493D01*
X136245000Y-99855506D01*
X136273317Y-100034293D01*
X136329251Y-100206444D01*
X136329252Y-100206447D01*
X136411431Y-100367730D01*
X136422913Y-100383532D01*
X136422913Y-100383533D01*
X136912037Y-99894409D01*
X136929075Y-99957993D01*
X136994901Y-100072007D01*
X137087993Y-100165099D01*
X137202007Y-100230925D01*
X137265590Y-100247962D01*
X136776466Y-100737085D01*
X136776466Y-100737086D01*
X136792267Y-100748566D01*
X136792275Y-100748571D01*
X136953552Y-100830747D01*
X136953555Y-100830748D01*
X137125706Y-100886682D01*
X137287279Y-100912273D01*
X137350413Y-100942202D01*
X137387345Y-101001513D01*
X137386347Y-101071376D01*
X137347738Y-101129609D01*
X137287280Y-101157219D01*
X137125589Y-101182829D01*
X136953363Y-101238787D01*
X136953360Y-101238788D01*
X136792002Y-101321006D01*
X136645505Y-101427441D01*
X136645500Y-101427445D01*
X136517445Y-101555500D01*
X136517441Y-101555505D01*
X136411006Y-101702002D01*
X136328788Y-101863360D01*
X136328787Y-101863363D01*
X136272829Y-102035589D01*
X136244500Y-102214448D01*
X136244500Y-102395551D01*
X136272829Y-102574410D01*
X136328787Y-102746636D01*
X136328788Y-102746639D01*
X136411006Y-102907997D01*
X136517441Y-103054494D01*
X136517445Y-103054499D01*
X136645500Y-103182554D01*
X136645505Y-103182558D01*
X136769364Y-103272546D01*
X136792006Y-103288996D01*
X136873462Y-103330500D01*
X136953360Y-103371211D01*
X136953363Y-103371212D01*
X137034392Y-103397539D01*
X137125591Y-103427171D01*
X137198639Y-103438740D01*
X137285678Y-103452527D01*
X137348813Y-103482456D01*
X137385744Y-103541768D01*
X137384746Y-103611631D01*
X137346136Y-103669863D01*
X137285678Y-103697473D01*
X137125589Y-103722829D01*
X136953363Y-103778787D01*
X136953360Y-103778788D01*
X136792002Y-103861006D01*
X136645505Y-103967441D01*
X136645500Y-103967445D01*
X136517445Y-104095500D01*
X136517441Y-104095505D01*
X136411006Y-104242002D01*
X136328788Y-104403360D01*
X136328787Y-104403363D01*
X136272829Y-104575589D01*
X136244500Y-104754448D01*
X136244500Y-104935551D01*
X136272829Y-105114410D01*
X136328787Y-105286636D01*
X136328788Y-105286639D01*
X136411003Y-105447993D01*
X136461586Y-105517615D01*
X136485065Y-105583422D01*
X136469239Y-105651476D01*
X136419133Y-105700170D01*
X136361267Y-105714500D01*
X131856887Y-105714500D01*
X131789848Y-105694815D01*
X131744093Y-105642011D01*
X131734149Y-105572853D01*
X131763174Y-105509297D01*
X131784002Y-105490182D01*
X131794494Y-105482558D01*
X131794492Y-105482558D01*
X131794501Y-105482553D01*
X131922553Y-105354501D01*
X132028996Y-105207994D01*
X132111211Y-105046639D01*
X132167171Y-104874409D01*
X132181765Y-104782259D01*
X132195500Y-104695551D01*
X132195500Y-104514448D01*
X132177905Y-104403361D01*
X132167171Y-104335591D01*
X132111273Y-104163552D01*
X132111212Y-104163363D01*
X132111211Y-104163360D01*
X132061459Y-104065718D01*
X132028996Y-104002006D01*
X132003883Y-103967441D01*
X131922558Y-103855505D01*
X131922554Y-103855500D01*
X131794499Y-103727445D01*
X131794494Y-103727441D01*
X131647997Y-103621006D01*
X131647996Y-103621005D01*
X131647994Y-103621004D01*
X131571906Y-103582235D01*
X131486639Y-103538788D01*
X131486636Y-103538787D01*
X131314410Y-103482829D01*
X131135551Y-103454500D01*
X131135546Y-103454500D01*
X130954454Y-103454500D01*
X130954449Y-103454500D01*
X130775587Y-103482829D01*
X130631716Y-103529575D01*
X130616504Y-103530009D01*
X130602245Y-103535328D01*
X130582289Y-103530986D01*
X130561875Y-103531570D01*
X130547788Y-103523481D01*
X130533972Y-103520476D01*
X130505718Y-103499325D01*
X130340262Y-103333869D01*
X130306777Y-103272546D01*
X130303943Y-103246188D01*
X130303943Y-89679697D01*
X130323628Y-89612658D01*
X130376432Y-89566903D01*
X130445590Y-89556959D01*
X130509146Y-89585984D01*
X130515624Y-89592016D01*
X131463181Y-90539573D01*
X131496666Y-90600896D01*
X131499500Y-90627254D01*
X131499500Y-90689057D01*
X131517304Y-90755500D01*
X131540423Y-90841783D01*
X131540426Y-90841790D01*
X131619475Y-90978709D01*
X131619479Y-90978714D01*
X131619480Y-90978716D01*
X131731284Y-91090520D01*
X131731286Y-91090521D01*
X131731290Y-91090524D01*
X131853367Y-91161004D01*
X131868216Y-91169577D01*
X132020943Y-91210500D01*
X132020945Y-91210500D01*
X132179055Y-91210500D01*
X132179057Y-91210500D01*
X132331784Y-91169577D01*
X132468716Y-91090520D01*
X132580520Y-90978716D01*
X132659577Y-90841784D01*
X132700500Y-90689057D01*
X132700500Y-90530943D01*
X132659577Y-90378216D01*
X132634750Y-90335214D01*
X132580524Y-90241290D01*
X132580518Y-90241282D01*
X132468717Y-90129481D01*
X132468709Y-90129475D01*
X132331790Y-90050426D01*
X132331786Y-90050424D01*
X132331784Y-90050423D01*
X132179057Y-90009500D01*
X132179056Y-90009500D01*
X132117254Y-90009500D01*
X132050215Y-89989815D01*
X132029573Y-89973181D01*
X130850820Y-88794427D01*
X130817335Y-88733104D01*
X130814501Y-88706746D01*
X130814501Y-87486240D01*
X130816195Y-87480470D01*
X130815052Y-87474569D01*
X130825923Y-87447338D01*
X130834186Y-87419201D01*
X130838729Y-87415263D01*
X130840959Y-87409680D01*
X130864830Y-87392646D01*
X130886990Y-87373446D01*
X130894196Y-87371694D01*
X130897835Y-87369098D01*
X130920820Y-87365221D01*
X130932485Y-87362386D01*
X130935491Y-87362240D01*
X131091841Y-87362240D01*
X131126459Y-87352963D01*
X131139715Y-87352320D01*
X131161292Y-87357533D01*
X131183486Y-87358061D01*
X131196625Y-87366070D01*
X131207630Y-87368729D01*
X131216889Y-87378421D01*
X131233412Y-87388493D01*
X131295537Y-87450618D01*
X131295538Y-87450619D01*
X131370105Y-87525186D01*
X131461431Y-87577913D01*
X131563291Y-87605206D01*
X131563293Y-87605206D01*
X135248019Y-87605206D01*
X135248021Y-87605206D01*
X135349882Y-87577913D01*
X135441207Y-87525186D01*
X136033321Y-86933071D01*
X136094642Y-86899588D01*
X136164333Y-86904572D01*
G37*
%TD.AperFunction*%
%TA.AperFunction,Conductor*%
G36*
X129325017Y-87368520D02*
G01*
X129337377Y-87372055D01*
X129341745Y-87374577D01*
X129412075Y-87393421D01*
X129413044Y-87393699D01*
X129441726Y-87411849D01*
X129470697Y-87429508D01*
X129471170Y-87430482D01*
X129472085Y-87431061D01*
X129486394Y-87461823D01*
X129501226Y-87492355D01*
X129501097Y-87493430D01*
X129501554Y-87494412D01*
X129502943Y-87512918D01*
X129502943Y-103410716D01*
X129502943Y-103516170D01*
X129509128Y-103539252D01*
X129530236Y-103618032D01*
X129538828Y-103632913D01*
X129582963Y-103709356D01*
X129582965Y-103709358D01*
X129939325Y-104065718D01*
X129972810Y-104127041D01*
X129969575Y-104191716D01*
X129922829Y-104335586D01*
X129897219Y-104497280D01*
X129867289Y-104560414D01*
X129807978Y-104597345D01*
X129738115Y-104596347D01*
X129679883Y-104557737D01*
X129652273Y-104497279D01*
X129626682Y-104335706D01*
X129570748Y-104163555D01*
X129570747Y-104163552D01*
X129488571Y-104002275D01*
X129488566Y-104002267D01*
X129477085Y-103986466D01*
X128987962Y-104475589D01*
X128970925Y-104412007D01*
X128905099Y-104297993D01*
X128812007Y-104204901D01*
X128697993Y-104139075D01*
X128634409Y-104122037D01*
X129123533Y-103632913D01*
X129107730Y-103621431D01*
X128946447Y-103539252D01*
X128946444Y-103539251D01*
X128774293Y-103483317D01*
X128595506Y-103455000D01*
X128414494Y-103455000D01*
X128235706Y-103483317D01*
X128063555Y-103539251D01*
X128063547Y-103539254D01*
X127902269Y-103621432D01*
X127886466Y-103632912D01*
X127886466Y-103632913D01*
X128375591Y-104122037D01*
X128312007Y-104139075D01*
X128197993Y-104204901D01*
X128104901Y-104297993D01*
X128039075Y-104412007D01*
X128022037Y-104475590D01*
X127532912Y-103986466D01*
X127521432Y-104002269D01*
X127439254Y-104163547D01*
X127439251Y-104163555D01*
X127383317Y-104335706D01*
X127361972Y-104470471D01*
X127332043Y-104533606D01*
X127272731Y-104570537D01*
X127202868Y-104569539D01*
X127144636Y-104530929D01*
X127116522Y-104466965D01*
X127115499Y-104451073D01*
X127115499Y-103710143D01*
X127115499Y-103710136D01*
X127114292Y-103699735D01*
X127113681Y-103694458D01*
X127113680Y-103694455D01*
X127112585Y-103685009D01*
X127067206Y-103582235D01*
X126987765Y-103502794D01*
X126987763Y-103502793D01*
X126884992Y-103457415D01*
X126859868Y-103454500D01*
X126859865Y-103454500D01*
X126489500Y-103454500D01*
X126422461Y-103434815D01*
X126376706Y-103382011D01*
X126365500Y-103330500D01*
X126365500Y-90402253D01*
X126385185Y-90335214D01*
X126401814Y-90314577D01*
X129014968Y-87701422D01*
X129014973Y-87701419D01*
X129025176Y-87691215D01*
X129025178Y-87691215D01*
X129099745Y-87616648D01*
X129152472Y-87525322D01*
X129152508Y-87525186D01*
X129171143Y-87455640D01*
X129176397Y-87447021D01*
X129177764Y-87437018D01*
X129194278Y-87417687D01*
X129207508Y-87395984D01*
X129216588Y-87391573D01*
X129223148Y-87383895D01*
X129247492Y-87376561D01*
X129270355Y-87365456D01*
X129280524Y-87366610D01*
X129290048Y-87363742D01*
X129325017Y-87368520D01*
G37*
%TD.AperFunction*%
%TA.AperFunction,Conductor*%
G36*
X138367084Y-100383532D02*
G01*
X138370772Y-100383242D01*
X138439149Y-100397606D01*
X138488905Y-100446658D01*
X138504500Y-100506860D01*
X138504500Y-101493113D01*
X138484815Y-101560152D01*
X138432011Y-101605907D01*
X138362853Y-101615851D01*
X138299297Y-101586826D01*
X138280182Y-101565998D01*
X138272558Y-101555505D01*
X138272554Y-101555500D01*
X138144499Y-101427445D01*
X138144494Y-101427441D01*
X137997997Y-101321006D01*
X137997996Y-101321005D01*
X137997994Y-101321004D01*
X137946300Y-101294664D01*
X137836639Y-101238788D01*
X137836636Y-101238787D01*
X137664410Y-101182828D01*
X137502720Y-101157219D01*
X137439585Y-101127289D01*
X137402654Y-101067978D01*
X137403652Y-100998115D01*
X137442262Y-100939883D01*
X137502721Y-100912273D01*
X137664292Y-100886683D01*
X137836444Y-100830748D01*
X137836452Y-100830745D01*
X137997730Y-100748568D01*
X138013532Y-100737085D01*
X138013533Y-100737085D01*
X137524410Y-100247962D01*
X137587993Y-100230925D01*
X137702007Y-100165099D01*
X137795099Y-100072007D01*
X137860925Y-99957993D01*
X137877962Y-99894410D01*
X138367084Y-100383532D01*
G37*
%TD.AperFunction*%
%TA.AperFunction,Conductor*%
G36*
X119149075Y-99957993D02*
G01*
X119214901Y-100072007D01*
X119307993Y-100165099D01*
X119422007Y-100230925D01*
X119485590Y-100247962D01*
X118996466Y-100737085D01*
X118996466Y-100737086D01*
X119012267Y-100748566D01*
X119012275Y-100748571D01*
X119173552Y-100830747D01*
X119173555Y-100830748D01*
X119345706Y-100886682D01*
X119507279Y-100912273D01*
X119570413Y-100942202D01*
X119607345Y-101001513D01*
X119606347Y-101071376D01*
X119567738Y-101129609D01*
X119507280Y-101157219D01*
X119345589Y-101182829D01*
X119173363Y-101238787D01*
X119173360Y-101238788D01*
X119012002Y-101321006D01*
X118865505Y-101427441D01*
X118865500Y-101427445D01*
X118737445Y-101555500D01*
X118737441Y-101555505D01*
X118729818Y-101565998D01*
X118674488Y-101608664D01*
X118604875Y-101614643D01*
X118543080Y-101582037D01*
X118508723Y-101521199D01*
X118505500Y-101493113D01*
X118505500Y-100506861D01*
X118525185Y-100439822D01*
X118577989Y-100394067D01*
X118639229Y-100383243D01*
X118642913Y-100383533D01*
X119132037Y-99894409D01*
X119149075Y-99957993D01*
G37*
%TD.AperFunction*%
%TA.AperFunction,Conductor*%
G36*
X118710703Y-97943173D02*
G01*
X118729821Y-97964004D01*
X118737446Y-97974500D01*
X118865500Y-98102554D01*
X118865505Y-98102558D01*
X118993287Y-98195396D01*
X119012006Y-98208996D01*
X119117484Y-98262740D01*
X119173360Y-98291211D01*
X119173363Y-98291212D01*
X119259476Y-98319191D01*
X119345591Y-98347171D01*
X119465038Y-98366089D01*
X119507279Y-98372780D01*
X119570414Y-98402709D01*
X119607345Y-98462021D01*
X119606347Y-98531883D01*
X119567737Y-98590116D01*
X119507279Y-98617726D01*
X119345706Y-98643317D01*
X119173555Y-98699251D01*
X119173547Y-98699254D01*
X119012269Y-98781432D01*
X118996466Y-98792912D01*
X118996466Y-98792913D01*
X119485591Y-99282037D01*
X119422007Y-99299075D01*
X119307993Y-99364901D01*
X119214901Y-99457993D01*
X119149075Y-99572007D01*
X119132037Y-99635590D01*
X118642913Y-99146466D01*
X118639229Y-99146756D01*
X118570852Y-99132392D01*
X118521095Y-99083340D01*
X118505500Y-99023138D01*
X118505500Y-98036886D01*
X118525185Y-97969847D01*
X118577989Y-97924092D01*
X118647147Y-97914148D01*
X118710703Y-97943173D01*
G37*
%TD.AperFunction*%
%TA.AperFunction,Conductor*%
G36*
X138466917Y-97947959D02*
G01*
X138501277Y-98008796D01*
X138504500Y-98036886D01*
X138504500Y-99023138D01*
X138484815Y-99090177D01*
X138432011Y-99135932D01*
X138370773Y-99146756D01*
X138367086Y-99146465D01*
X137877962Y-99635589D01*
X137860925Y-99572007D01*
X137795099Y-99457993D01*
X137702007Y-99364901D01*
X137587993Y-99299075D01*
X137524409Y-99282037D01*
X138013533Y-98792913D01*
X137997730Y-98781431D01*
X137836447Y-98699252D01*
X137836444Y-98699251D01*
X137664293Y-98643317D01*
X137502720Y-98617726D01*
X137439585Y-98587797D01*
X137402654Y-98528485D01*
X137403652Y-98458623D01*
X137442262Y-98400390D01*
X137502720Y-98372780D01*
X137517270Y-98370475D01*
X137664409Y-98347171D01*
X137836639Y-98291211D01*
X137997994Y-98208996D01*
X138144501Y-98102553D01*
X138272553Y-97974501D01*
X138280180Y-97964003D01*
X138335508Y-97921336D01*
X138405121Y-97915355D01*
X138466917Y-97947959D01*
G37*
%TD.AperFunction*%
%TA.AperFunction,Conductor*%
G36*
X138367084Y-87683532D02*
G01*
X138370772Y-87683242D01*
X138439149Y-87697606D01*
X138488905Y-87746658D01*
X138504500Y-87806860D01*
X138504500Y-88793113D01*
X138484815Y-88860152D01*
X138432011Y-88905907D01*
X138362853Y-88915851D01*
X138299297Y-88886826D01*
X138280182Y-88865998D01*
X138272558Y-88855505D01*
X138272554Y-88855500D01*
X138144499Y-88727445D01*
X138144494Y-88727441D01*
X137997997Y-88621006D01*
X137997996Y-88621005D01*
X137997994Y-88621004D01*
X137946300Y-88594664D01*
X137836639Y-88538788D01*
X137836636Y-88538787D01*
X137664410Y-88482828D01*
X137502720Y-88457219D01*
X137439585Y-88427289D01*
X137402654Y-88367978D01*
X137403652Y-88298115D01*
X137442262Y-88239883D01*
X137502721Y-88212273D01*
X137664292Y-88186683D01*
X137836444Y-88130748D01*
X137836452Y-88130745D01*
X137997730Y-88048568D01*
X138013532Y-88037085D01*
X138013533Y-88037085D01*
X137524410Y-87547962D01*
X137587993Y-87530925D01*
X137702007Y-87465099D01*
X137795099Y-87372007D01*
X137860925Y-87257993D01*
X137877962Y-87194410D01*
X138367084Y-87683532D01*
G37*
%TD.AperFunction*%
%TA.AperFunction,Conductor*%
G36*
X119149075Y-87257993D02*
G01*
X119214901Y-87372007D01*
X119307993Y-87465099D01*
X119422007Y-87530925D01*
X119485590Y-87547962D01*
X118996466Y-88037085D01*
X118996466Y-88037086D01*
X119012267Y-88048566D01*
X119012275Y-88048571D01*
X119173552Y-88130747D01*
X119173555Y-88130748D01*
X119345706Y-88186682D01*
X119507279Y-88212273D01*
X119570413Y-88242202D01*
X119607345Y-88301513D01*
X119606347Y-88371376D01*
X119567738Y-88429609D01*
X119507280Y-88457219D01*
X119345589Y-88482829D01*
X119173363Y-88538787D01*
X119173360Y-88538788D01*
X119012002Y-88621006D01*
X118865505Y-88727441D01*
X118865500Y-88727445D01*
X118737445Y-88855500D01*
X118737441Y-88855505D01*
X118729818Y-88865998D01*
X118674488Y-88908664D01*
X118604875Y-88914643D01*
X118543080Y-88882037D01*
X118508723Y-88821199D01*
X118505500Y-88793113D01*
X118505500Y-87806861D01*
X118525185Y-87739822D01*
X118577989Y-87694067D01*
X118639229Y-87683243D01*
X118642913Y-87683533D01*
X119132037Y-87194409D01*
X119149075Y-87257993D01*
G37*
%TD.AperFunction*%
%TA.AperFunction,Conductor*%
G36*
X118710703Y-85243173D02*
G01*
X118729821Y-85264004D01*
X118737446Y-85274500D01*
X118865500Y-85402554D01*
X118865505Y-85402558D01*
X118877385Y-85411189D01*
X119012006Y-85508996D01*
X119117484Y-85562740D01*
X119173360Y-85591211D01*
X119173363Y-85591212D01*
X119259476Y-85619191D01*
X119345591Y-85647171D01*
X119465038Y-85666089D01*
X119507279Y-85672780D01*
X119570414Y-85702709D01*
X119607345Y-85762021D01*
X119606347Y-85831883D01*
X119567737Y-85890116D01*
X119507279Y-85917726D01*
X119345706Y-85943317D01*
X119173555Y-85999251D01*
X119173547Y-85999254D01*
X119012269Y-86081432D01*
X118996466Y-86092912D01*
X118996466Y-86092913D01*
X119485591Y-86582037D01*
X119422007Y-86599075D01*
X119307993Y-86664901D01*
X119214901Y-86757993D01*
X119149075Y-86872007D01*
X119132037Y-86935590D01*
X118642913Y-86446466D01*
X118639229Y-86446756D01*
X118570852Y-86432392D01*
X118521095Y-86383340D01*
X118505500Y-86323138D01*
X118505500Y-85336886D01*
X118525185Y-85269847D01*
X118577989Y-85224092D01*
X118647147Y-85214148D01*
X118710703Y-85243173D01*
G37*
%TD.AperFunction*%
%TA.AperFunction,Conductor*%
G36*
X136657386Y-85411189D02*
G01*
X136792006Y-85508996D01*
X136897484Y-85562740D01*
X136953360Y-85591211D01*
X136953363Y-85591212D01*
X137039476Y-85619191D01*
X137125591Y-85647171D01*
X137245038Y-85666089D01*
X137287279Y-85672780D01*
X137350414Y-85702709D01*
X137387345Y-85762021D01*
X137386347Y-85831883D01*
X137347737Y-85890116D01*
X137287279Y-85917726D01*
X137125706Y-85943317D01*
X136953555Y-85999251D01*
X136953547Y-85999254D01*
X136792269Y-86081432D01*
X136776466Y-86092912D01*
X136776466Y-86092913D01*
X137265591Y-86582037D01*
X137202007Y-86599075D01*
X137087993Y-86664901D01*
X136994901Y-86757993D01*
X136929075Y-86872007D01*
X136912037Y-86935590D01*
X136491823Y-86515376D01*
X136458338Y-86454053D01*
X136459606Y-86400806D01*
X136459439Y-86400784D01*
X136459644Y-86399222D01*
X136459731Y-86395596D01*
X136460500Y-86392727D01*
X136460500Y-86287273D01*
X136460500Y-85511507D01*
X136480185Y-85444468D01*
X136532989Y-85398713D01*
X136602147Y-85388769D01*
X136657386Y-85411189D01*
G37*
%TD.AperFunction*%
%TA.AperFunction,Conductor*%
G36*
X138466917Y-85247959D02*
G01*
X138501277Y-85308796D01*
X138504500Y-85336886D01*
X138504500Y-86323138D01*
X138484815Y-86390177D01*
X138432011Y-86435932D01*
X138370773Y-86446756D01*
X138367086Y-86446465D01*
X137877962Y-86935589D01*
X137860925Y-86872007D01*
X137795099Y-86757993D01*
X137702007Y-86664901D01*
X137587993Y-86599075D01*
X137524409Y-86582037D01*
X138013533Y-86092913D01*
X137997730Y-86081431D01*
X137836447Y-85999252D01*
X137836444Y-85999251D01*
X137664293Y-85943317D01*
X137502720Y-85917726D01*
X137439585Y-85887797D01*
X137402654Y-85828485D01*
X137403652Y-85758623D01*
X137442262Y-85700390D01*
X137502720Y-85672780D01*
X137517270Y-85670475D01*
X137664409Y-85647171D01*
X137836639Y-85591211D01*
X137997994Y-85508996D01*
X138144501Y-85402553D01*
X138272553Y-85274501D01*
X138280180Y-85264003D01*
X138335508Y-85221336D01*
X138405121Y-85215355D01*
X138466917Y-85247959D01*
G37*
%TD.AperFunction*%
%TA.AperFunction,Conductor*%
G36*
X136981716Y-65280424D02*
G01*
X137125591Y-65327171D01*
X137198639Y-65338740D01*
X137285678Y-65352527D01*
X137348813Y-65382456D01*
X137385744Y-65441768D01*
X137384746Y-65511631D01*
X137346136Y-65569863D01*
X137285678Y-65597473D01*
X137125589Y-65622829D01*
X136953363Y-65678787D01*
X136953360Y-65678788D01*
X136792003Y-65761005D01*
X136660750Y-65856364D01*
X136660740Y-65856373D01*
X136645499Y-65867447D01*
X136517447Y-65995499D01*
X136506373Y-66010740D01*
X136506364Y-66010750D01*
X136411005Y-66142003D01*
X136328788Y-66303360D01*
X136328787Y-66303363D01*
X136272829Y-66475589D01*
X136244500Y-66654448D01*
X136244500Y-66835551D01*
X136272829Y-67014410D01*
X136328787Y-67186636D01*
X136328788Y-67186639D01*
X136411006Y-67347997D01*
X136517441Y-67494494D01*
X136517445Y-67494499D01*
X136645500Y-67622554D01*
X136645505Y-67622558D01*
X136773287Y-67715396D01*
X136792006Y-67728996D01*
X136897484Y-67782740D01*
X136953360Y-67811211D01*
X136953363Y-67811212D01*
X137039476Y-67839191D01*
X137125591Y-67867171D01*
X137198639Y-67878740D01*
X137285678Y-67892527D01*
X137348813Y-67922456D01*
X137385744Y-67981768D01*
X137384746Y-68051631D01*
X137346136Y-68109863D01*
X137285678Y-68137473D01*
X137125589Y-68162829D01*
X136953363Y-68218787D01*
X136953360Y-68218788D01*
X136792002Y-68301006D01*
X136645505Y-68407441D01*
X136645500Y-68407445D01*
X136517445Y-68535500D01*
X136517441Y-68535505D01*
X136411006Y-68682002D01*
X136328788Y-68843360D01*
X136328787Y-68843363D01*
X136272829Y-69015589D01*
X136244500Y-69194448D01*
X136244500Y-69375551D01*
X136272829Y-69554410D01*
X136328787Y-69726636D01*
X136328788Y-69726639D01*
X136411006Y-69887997D01*
X136517441Y-70034494D01*
X136517445Y-70034499D01*
X136645500Y-70162554D01*
X136645505Y-70162558D01*
X136773287Y-70255396D01*
X136792006Y-70268996D01*
X136897484Y-70322740D01*
X136953360Y-70351211D01*
X136953363Y-70351212D01*
X137039476Y-70379191D01*
X137125591Y-70407171D01*
X137198639Y-70418740D01*
X137285678Y-70432527D01*
X137348813Y-70462456D01*
X137385744Y-70521768D01*
X137384746Y-70591631D01*
X137346136Y-70649863D01*
X137285678Y-70677473D01*
X137125589Y-70702829D01*
X136953363Y-70758787D01*
X136953360Y-70758788D01*
X136792002Y-70841006D01*
X136645505Y-70947441D01*
X136645500Y-70947445D01*
X136517445Y-71075500D01*
X136517441Y-71075505D01*
X136411006Y-71222002D01*
X136328788Y-71383360D01*
X136328787Y-71383363D01*
X136272829Y-71555589D01*
X136244500Y-71734448D01*
X136244500Y-71915551D01*
X136272829Y-72094410D01*
X136328787Y-72266636D01*
X136328788Y-72266639D01*
X136370783Y-72349056D01*
X136407981Y-72422062D01*
X136411006Y-72427997D01*
X136517441Y-72574494D01*
X136517445Y-72574499D01*
X136645500Y-72702554D01*
X136645505Y-72702558D01*
X136716226Y-72753939D01*
X136792006Y-72808996D01*
X136897484Y-72862740D01*
X136953360Y-72891211D01*
X136953363Y-72891212D01*
X137039476Y-72919191D01*
X137125591Y-72947171D01*
X137245038Y-72966089D01*
X137287279Y-72972780D01*
X137350414Y-73002709D01*
X137387345Y-73062021D01*
X137386347Y-73131883D01*
X137347737Y-73190116D01*
X137287279Y-73217726D01*
X137125706Y-73243317D01*
X136953555Y-73299251D01*
X136953547Y-73299254D01*
X136792269Y-73381432D01*
X136776466Y-73392912D01*
X136776466Y-73392913D01*
X137265591Y-73882037D01*
X137202007Y-73899075D01*
X137087993Y-73964901D01*
X136994901Y-74057993D01*
X136929075Y-74172007D01*
X136912037Y-74235590D01*
X136422913Y-73746466D01*
X136422912Y-73746466D01*
X136411432Y-73762269D01*
X136329254Y-73923547D01*
X136329251Y-73923555D01*
X136273317Y-74095706D01*
X136245000Y-74274493D01*
X136245000Y-74455506D01*
X136273317Y-74634293D01*
X136329251Y-74806444D01*
X136329252Y-74806447D01*
X136411431Y-74967730D01*
X136422913Y-74983532D01*
X136422913Y-74983533D01*
X136912037Y-74494409D01*
X136929075Y-74557993D01*
X136994901Y-74672007D01*
X137087993Y-74765099D01*
X137202007Y-74830925D01*
X137265590Y-74847962D01*
X136776466Y-75337085D01*
X136776466Y-75337086D01*
X136792267Y-75348566D01*
X136792275Y-75348571D01*
X136953552Y-75430747D01*
X136953555Y-75430748D01*
X137125706Y-75486682D01*
X137287279Y-75512273D01*
X137350413Y-75542202D01*
X137387345Y-75601513D01*
X137386347Y-75671376D01*
X137347738Y-75729609D01*
X137287280Y-75757219D01*
X137125589Y-75782829D01*
X136953363Y-75838787D01*
X136953360Y-75838788D01*
X136792002Y-75921006D01*
X136645505Y-76027441D01*
X136645500Y-76027445D01*
X136517445Y-76155500D01*
X136517441Y-76155505D01*
X136411006Y-76302002D01*
X136328788Y-76463360D01*
X136328787Y-76463363D01*
X136272829Y-76635589D01*
X136244500Y-76814448D01*
X136244500Y-76995551D01*
X136272829Y-77174410D01*
X136328787Y-77346636D01*
X136328788Y-77346639D01*
X136411006Y-77507997D01*
X136517441Y-77654494D01*
X136517445Y-77654499D01*
X136645500Y-77782554D01*
X136645505Y-77782558D01*
X136773287Y-77875396D01*
X136792006Y-77888996D01*
X136897484Y-77942740D01*
X136953360Y-77971211D01*
X136953363Y-77971212D01*
X137039476Y-77999191D01*
X137125591Y-78027171D01*
X137198639Y-78038740D01*
X137285678Y-78052527D01*
X137348813Y-78082456D01*
X137385744Y-78141768D01*
X137384746Y-78211631D01*
X137346136Y-78269863D01*
X137285678Y-78297473D01*
X137125589Y-78322829D01*
X136953363Y-78378787D01*
X136953360Y-78378788D01*
X136792002Y-78461006D01*
X136645505Y-78567441D01*
X136645500Y-78567445D01*
X136517445Y-78695500D01*
X136517441Y-78695505D01*
X136411006Y-78842002D01*
X136328788Y-79003360D01*
X136328787Y-79003363D01*
X136272829Y-79175589D01*
X136244500Y-79354448D01*
X136244500Y-79535551D01*
X136272829Y-79714410D01*
X136328787Y-79886636D01*
X136328788Y-79886639D01*
X136375726Y-79978757D01*
X136405904Y-80037985D01*
X136411006Y-80047997D01*
X136517441Y-80194494D01*
X136517445Y-80194499D01*
X136645500Y-80322554D01*
X136645505Y-80322558D01*
X136732074Y-80385453D01*
X136792006Y-80428996D01*
X136897484Y-80482740D01*
X136953360Y-80511211D01*
X136953363Y-80511212D01*
X137039476Y-80539191D01*
X137125591Y-80567171D01*
X137197991Y-80578638D01*
X137285678Y-80592527D01*
X137348813Y-80622456D01*
X137385744Y-80681768D01*
X137384746Y-80751631D01*
X137346136Y-80809863D01*
X137285678Y-80837473D01*
X137125589Y-80862829D01*
X136953363Y-80918787D01*
X136953360Y-80918788D01*
X136792002Y-81001006D01*
X136645505Y-81107441D01*
X136645500Y-81107445D01*
X136517445Y-81235500D01*
X136517441Y-81235505D01*
X136411006Y-81382002D01*
X136328788Y-81543360D01*
X136328787Y-81543363D01*
X136272829Y-81715589D01*
X136244500Y-81894448D01*
X136244500Y-82075551D01*
X136272829Y-82254412D01*
X136319575Y-82398283D01*
X136321570Y-82468124D01*
X136289325Y-82524281D01*
X135739522Y-83074084D01*
X135739518Y-83074090D01*
X135686792Y-83165412D01*
X135686793Y-83165413D01*
X135659500Y-83267273D01*
X135659500Y-86122745D01*
X135639815Y-86189784D01*
X135623181Y-86210426D01*
X135065720Y-86767887D01*
X135004397Y-86801372D01*
X134978039Y-86804206D01*
X131833273Y-86804206D01*
X131803832Y-86795561D01*
X131773846Y-86789038D01*
X131768830Y-86785283D01*
X131766234Y-86784521D01*
X131745592Y-86767887D01*
X131619537Y-86641832D01*
X131587443Y-86586243D01*
X131572362Y-86529958D01*
X131572360Y-86529953D01*
X131493308Y-86393030D01*
X131493302Y-86393022D01*
X131381501Y-86281221D01*
X131381493Y-86281215D01*
X131244574Y-86202166D01*
X131244570Y-86202164D01*
X131244568Y-86202163D01*
X131091841Y-86161240D01*
X130933727Y-86161240D01*
X130781000Y-86202163D01*
X130780993Y-86202166D01*
X130644067Y-86281219D01*
X130640538Y-86284748D01*
X130579211Y-86318226D01*
X130509520Y-86313234D01*
X130465185Y-86284738D01*
X130303196Y-86122749D01*
X130269711Y-86061426D01*
X130266877Y-86035068D01*
X130266877Y-82968962D01*
X130286562Y-82901923D01*
X130303196Y-82881281D01*
X130345089Y-82839388D01*
X130353034Y-82835049D01*
X130358460Y-82827802D01*
X130383219Y-82818567D01*
X130406412Y-82805903D01*
X130415441Y-82806548D01*
X130423924Y-82803385D01*
X130449744Y-82809001D01*
X130476104Y-82810887D01*
X130485157Y-82816705D01*
X130492197Y-82818237D01*
X130520451Y-82839388D01*
X130583181Y-82902118D01*
X130616666Y-82963441D01*
X130619500Y-82989799D01*
X130619500Y-83762158D01*
X130602888Y-83824157D01*
X130569392Y-83882174D01*
X130569392Y-83882175D01*
X130528469Y-84034902D01*
X130528469Y-84193016D01*
X130545236Y-84255589D01*
X130569392Y-84345742D01*
X130569395Y-84345749D01*
X130648444Y-84482668D01*
X130648448Y-84482673D01*
X130648449Y-84482675D01*
X130760253Y-84594479D01*
X130760255Y-84594480D01*
X130760259Y-84594483D01*
X130897178Y-84673532D01*
X130897185Y-84673536D01*
X131049912Y-84714459D01*
X131049914Y-84714459D01*
X131208024Y-84714459D01*
X131208026Y-84714459D01*
X131360753Y-84673536D01*
X131497685Y-84594479D01*
X131609489Y-84482675D01*
X131688546Y-84345743D01*
X131729469Y-84193016D01*
X131729469Y-84034902D01*
X131688546Y-83882175D01*
X131626958Y-83775500D01*
X131609493Y-83745249D01*
X131609487Y-83745241D01*
X131497687Y-83633441D01*
X131497685Y-83633439D01*
X131492419Y-83630398D01*
X131482496Y-83624669D01*
X131434283Y-83574100D01*
X131420500Y-83517284D01*
X131420500Y-82719819D01*
X131420500Y-82719817D01*
X131393207Y-82617957D01*
X131340480Y-82526631D01*
X131265913Y-82452064D01*
X130607819Y-81793970D01*
X130574334Y-81732647D01*
X130571500Y-81706289D01*
X130571500Y-77227254D01*
X130591185Y-77160215D01*
X130643989Y-77114460D01*
X130713147Y-77104516D01*
X130776703Y-77133541D01*
X130783181Y-77139573D01*
X132663181Y-79019573D01*
X132696666Y-79080896D01*
X132699500Y-79107254D01*
X132699500Y-79169057D01*
X132701251Y-79175589D01*
X132740423Y-79321783D01*
X132740426Y-79321790D01*
X132819475Y-79458709D01*
X132819479Y-79458714D01*
X132819480Y-79458716D01*
X132931284Y-79570520D01*
X132931286Y-79570521D01*
X132931290Y-79570524D01*
X133068209Y-79649573D01*
X133068216Y-79649577D01*
X133220943Y-79690500D01*
X133220945Y-79690500D01*
X133379055Y-79690500D01*
X133379057Y-79690500D01*
X133531784Y-79649577D01*
X133668716Y-79570520D01*
X133757819Y-79481417D01*
X133819142Y-79447932D01*
X133888834Y-79452916D01*
X133944767Y-79494788D01*
X133969184Y-79560252D01*
X133969500Y-79569098D01*
X133969500Y-81162633D01*
X133960855Y-81192073D01*
X133954332Y-81222060D01*
X133950577Y-81227075D01*
X133949815Y-81229672D01*
X133933181Y-81250314D01*
X133801546Y-81381949D01*
X133740223Y-81415434D01*
X133713865Y-81418268D01*
X133652063Y-81418268D01*
X133499336Y-81459191D01*
X133499329Y-81459194D01*
X133362410Y-81538243D01*
X133362402Y-81538249D01*
X133250601Y-81650050D01*
X133250595Y-81650058D01*
X133171546Y-81786977D01*
X133171543Y-81786984D01*
X133130620Y-81939711D01*
X133130620Y-82097825D01*
X133166161Y-82230464D01*
X133171543Y-82250551D01*
X133171546Y-82250558D01*
X133250595Y-82387477D01*
X133250599Y-82387482D01*
X133250600Y-82387484D01*
X133362404Y-82499288D01*
X133362406Y-82499289D01*
X133362410Y-82499292D01*
X133470074Y-82561451D01*
X133499336Y-82578345D01*
X133579784Y-82599901D01*
X133639444Y-82636265D01*
X133667465Y-82687581D01*
X133709115Y-82843022D01*
X133709118Y-82843027D01*
X133788167Y-82979946D01*
X133788171Y-82979951D01*
X133788172Y-82979953D01*
X133899976Y-83091757D01*
X133899978Y-83091758D01*
X133899982Y-83091761D01*
X133996691Y-83147595D01*
X134036908Y-83170814D01*
X134189635Y-83211737D01*
X134189637Y-83211737D01*
X134347747Y-83211737D01*
X134347749Y-83211737D01*
X134500476Y-83170814D01*
X134637408Y-83091757D01*
X134749212Y-82979953D01*
X134828269Y-82843021D01*
X134869192Y-82690294D01*
X134869192Y-82628490D01*
X134888877Y-82561451D01*
X134905507Y-82540813D01*
X135175910Y-82270410D01*
X135175913Y-82270409D01*
X135250480Y-82195842D01*
X135282958Y-82139588D01*
X135303207Y-82104517D01*
X135330501Y-82002656D01*
X135330501Y-81897202D01*
X135330501Y-81889607D01*
X135330500Y-81889589D01*
X135330500Y-66887254D01*
X135350185Y-66820215D01*
X135366814Y-66799578D01*
X136855719Y-65310672D01*
X136917040Y-65277189D01*
X136981716Y-65280424D01*
G37*
%TD.AperFunction*%
%TA.AperFunction,Conductor*%
G36*
X120154281Y-65310674D02*
G01*
X120517705Y-65674098D01*
X120551190Y-65735421D01*
X120546206Y-65805113D01*
X120520091Y-65839996D01*
X120540354Y-65820305D01*
X120608832Y-65806430D01*
X120673941Y-65831779D01*
X120685901Y-65842294D01*
X121641181Y-66797574D01*
X121674666Y-66858897D01*
X121677500Y-66885255D01*
X121677500Y-79184745D01*
X121657815Y-79251784D01*
X121641181Y-79272426D01*
X120875621Y-80037985D01*
X120814298Y-80071470D01*
X120744606Y-80066486D01*
X120688673Y-80024614D01*
X120664256Y-79959150D01*
X120677459Y-79894002D01*
X120681210Y-79886640D01*
X120681211Y-79886639D01*
X120737171Y-79714409D01*
X120751765Y-79622259D01*
X120765500Y-79535551D01*
X120765500Y-79354448D01*
X120746756Y-79236107D01*
X120737171Y-79175591D01*
X120681211Y-79003361D01*
X120681211Y-79003360D01*
X120607255Y-78858216D01*
X120598996Y-78842006D01*
X120536401Y-78755851D01*
X120492558Y-78695505D01*
X120492554Y-78695500D01*
X120364499Y-78567445D01*
X120364494Y-78567441D01*
X120217997Y-78461006D01*
X120217996Y-78461005D01*
X120217994Y-78461004D01*
X120136052Y-78419252D01*
X120056639Y-78378788D01*
X120056636Y-78378787D01*
X119884410Y-78322829D01*
X119724321Y-78297473D01*
X119661186Y-78267544D01*
X119624255Y-78208232D01*
X119625253Y-78138370D01*
X119663863Y-78080137D01*
X119724321Y-78052527D01*
X119800720Y-78040426D01*
X119884409Y-78027171D01*
X120056639Y-77971211D01*
X120217994Y-77888996D01*
X120364501Y-77782553D01*
X120492553Y-77654501D01*
X120598996Y-77507994D01*
X120681211Y-77346639D01*
X120737171Y-77174409D01*
X120751765Y-77082259D01*
X120765500Y-76995551D01*
X120765500Y-76814448D01*
X120749019Y-76710397D01*
X120737171Y-76635591D01*
X120681211Y-76463361D01*
X120681211Y-76463360D01*
X120644122Y-76390570D01*
X120598996Y-76302006D01*
X120536401Y-76215851D01*
X120492558Y-76155505D01*
X120492554Y-76155500D01*
X120364499Y-76027445D01*
X120364494Y-76027441D01*
X120217997Y-75921006D01*
X120217996Y-75921005D01*
X120217994Y-75921004D01*
X120166300Y-75894664D01*
X120056639Y-75838788D01*
X120056636Y-75838787D01*
X119884410Y-75782828D01*
X119722720Y-75757219D01*
X119659585Y-75727289D01*
X119622654Y-75667978D01*
X119623652Y-75598115D01*
X119662262Y-75539883D01*
X119722721Y-75512273D01*
X119884292Y-75486683D01*
X120056444Y-75430748D01*
X120056452Y-75430745D01*
X120217730Y-75348568D01*
X120233532Y-75337085D01*
X120233533Y-75337085D01*
X119744410Y-74847962D01*
X119807993Y-74830925D01*
X119922007Y-74765099D01*
X120015099Y-74672007D01*
X120080925Y-74557993D01*
X120097962Y-74494410D01*
X120587085Y-74983533D01*
X120587085Y-74983532D01*
X120598568Y-74967730D01*
X120680745Y-74806452D01*
X120680748Y-74806444D01*
X120736682Y-74634293D01*
X120765000Y-74455506D01*
X120765000Y-74274493D01*
X120736682Y-74095706D01*
X120680748Y-73923555D01*
X120680747Y-73923552D01*
X120598571Y-73762275D01*
X120598566Y-73762267D01*
X120587085Y-73746466D01*
X120097962Y-74235589D01*
X120080925Y-74172007D01*
X120015099Y-74057993D01*
X119922007Y-73964901D01*
X119807993Y-73899075D01*
X119744409Y-73882037D01*
X120233533Y-73392913D01*
X120217730Y-73381431D01*
X120056447Y-73299252D01*
X120056444Y-73299251D01*
X119884293Y-73243317D01*
X119722720Y-73217726D01*
X119659585Y-73187797D01*
X119622654Y-73128485D01*
X119623652Y-73058623D01*
X119662262Y-73000390D01*
X119722720Y-72972780D01*
X119737270Y-72970475D01*
X119884409Y-72947171D01*
X120056639Y-72891211D01*
X120217994Y-72808996D01*
X120364501Y-72702553D01*
X120492553Y-72574501D01*
X120598996Y-72427994D01*
X120681211Y-72266639D01*
X120737171Y-72094409D01*
X120751765Y-72002259D01*
X120765500Y-71915551D01*
X120765500Y-71734448D01*
X120749019Y-71630397D01*
X120737171Y-71555591D01*
X120681211Y-71383361D01*
X120681211Y-71383360D01*
X120652740Y-71327484D01*
X120598996Y-71222006D01*
X120536401Y-71135851D01*
X120492558Y-71075505D01*
X120492554Y-71075500D01*
X120364499Y-70947445D01*
X120364494Y-70947441D01*
X120217997Y-70841006D01*
X120217996Y-70841005D01*
X120217994Y-70841004D01*
X120166300Y-70814664D01*
X120056639Y-70758788D01*
X120056636Y-70758787D01*
X119884410Y-70702829D01*
X119724321Y-70677473D01*
X119661186Y-70647544D01*
X119624255Y-70588232D01*
X119625253Y-70518370D01*
X119663863Y-70460137D01*
X119724321Y-70432527D01*
X119794425Y-70421422D01*
X119884409Y-70407171D01*
X120056639Y-70351211D01*
X120217994Y-70268996D01*
X120364501Y-70162553D01*
X120492553Y-70034501D01*
X120598996Y-69887994D01*
X120681211Y-69726639D01*
X120737171Y-69554409D01*
X120751765Y-69462259D01*
X120765500Y-69375551D01*
X120765500Y-69194448D01*
X120749019Y-69090397D01*
X120737171Y-69015591D01*
X120681211Y-68843361D01*
X120681211Y-68843360D01*
X120652740Y-68787484D01*
X120598996Y-68682006D01*
X120536401Y-68595851D01*
X120492558Y-68535505D01*
X120492554Y-68535500D01*
X120364499Y-68407445D01*
X120364494Y-68407441D01*
X120217997Y-68301006D01*
X120217996Y-68301005D01*
X120217994Y-68301004D01*
X120166300Y-68274664D01*
X120056639Y-68218788D01*
X120056636Y-68218787D01*
X119884410Y-68162829D01*
X119724321Y-68137473D01*
X119661186Y-68107544D01*
X119624255Y-68048232D01*
X119625253Y-67978370D01*
X119663863Y-67920137D01*
X119724321Y-67892527D01*
X119794425Y-67881422D01*
X119884409Y-67867171D01*
X120056639Y-67811211D01*
X120217994Y-67728996D01*
X120364501Y-67622553D01*
X120492553Y-67494501D01*
X120598996Y-67347994D01*
X120681211Y-67186639D01*
X120737171Y-67014409D01*
X120751765Y-66922259D01*
X120765500Y-66835551D01*
X120765500Y-66654448D01*
X120749019Y-66550397D01*
X120737171Y-66475591D01*
X120681211Y-66303361D01*
X120681211Y-66303360D01*
X120652740Y-66247484D01*
X120598996Y-66142006D01*
X120557514Y-66084910D01*
X120497902Y-66002860D01*
X120474422Y-65937054D01*
X120490248Y-65869000D01*
X120494756Y-65864618D01*
X120438870Y-65885463D01*
X120370597Y-65870611D01*
X120357139Y-65862097D01*
X120217997Y-65761006D01*
X120217996Y-65761005D01*
X120217994Y-65761004D01*
X120166300Y-65734664D01*
X120056639Y-65678788D01*
X120056636Y-65678787D01*
X119884410Y-65622829D01*
X119724321Y-65597473D01*
X119661186Y-65567544D01*
X119624255Y-65508232D01*
X119625253Y-65438370D01*
X119663863Y-65380137D01*
X119724321Y-65352527D01*
X119884409Y-65327171D01*
X119935182Y-65310674D01*
X120028284Y-65280423D01*
X120098123Y-65278429D01*
X120154281Y-65310674D01*
G37*
%TD.AperFunction*%
%TA.AperFunction,Conductor*%
G36*
X138367084Y-74983532D02*
G01*
X138370772Y-74983242D01*
X138439149Y-74997606D01*
X138488905Y-75046658D01*
X138504500Y-75106860D01*
X138504500Y-76093113D01*
X138484815Y-76160152D01*
X138432011Y-76205907D01*
X138362853Y-76215851D01*
X138299297Y-76186826D01*
X138280182Y-76165998D01*
X138272558Y-76155505D01*
X138272554Y-76155500D01*
X138144499Y-76027445D01*
X138144494Y-76027441D01*
X137997997Y-75921006D01*
X137997996Y-75921005D01*
X137997994Y-75921004D01*
X137946300Y-75894664D01*
X137836639Y-75838788D01*
X137836636Y-75838787D01*
X137664410Y-75782828D01*
X137502720Y-75757219D01*
X137439585Y-75727289D01*
X137402654Y-75667978D01*
X137403652Y-75598115D01*
X137442262Y-75539883D01*
X137502721Y-75512273D01*
X137664292Y-75486683D01*
X137836444Y-75430748D01*
X137836452Y-75430745D01*
X137997730Y-75348568D01*
X138013532Y-75337085D01*
X138013533Y-75337085D01*
X137524410Y-74847962D01*
X137587993Y-74830925D01*
X137702007Y-74765099D01*
X137795099Y-74672007D01*
X137860925Y-74557993D01*
X137877962Y-74494410D01*
X138367084Y-74983532D01*
G37*
%TD.AperFunction*%
%TA.AperFunction,Conductor*%
G36*
X119149075Y-74557993D02*
G01*
X119214901Y-74672007D01*
X119307993Y-74765099D01*
X119422007Y-74830925D01*
X119485590Y-74847962D01*
X118996466Y-75337085D01*
X118996466Y-75337086D01*
X119012267Y-75348566D01*
X119012275Y-75348571D01*
X119173552Y-75430747D01*
X119173555Y-75430748D01*
X119345706Y-75486682D01*
X119507279Y-75512273D01*
X119570413Y-75542202D01*
X119607345Y-75601513D01*
X119606347Y-75671376D01*
X119567738Y-75729609D01*
X119507280Y-75757219D01*
X119345589Y-75782829D01*
X119173363Y-75838787D01*
X119173360Y-75838788D01*
X119012002Y-75921006D01*
X118865505Y-76027441D01*
X118865500Y-76027445D01*
X118737445Y-76155500D01*
X118737441Y-76155505D01*
X118729818Y-76165998D01*
X118674488Y-76208664D01*
X118604875Y-76214643D01*
X118543080Y-76182037D01*
X118508723Y-76121199D01*
X118505500Y-76093113D01*
X118505500Y-75106861D01*
X118525185Y-75039822D01*
X118577989Y-74994067D01*
X118639229Y-74983243D01*
X118642913Y-74983533D01*
X119132037Y-74494409D01*
X119149075Y-74557993D01*
G37*
%TD.AperFunction*%
%TA.AperFunction,Conductor*%
G36*
X118710703Y-72543173D02*
G01*
X118729821Y-72564004D01*
X118737446Y-72574500D01*
X118865500Y-72702554D01*
X118865505Y-72702558D01*
X118936226Y-72753939D01*
X119012006Y-72808996D01*
X119117484Y-72862740D01*
X119173360Y-72891211D01*
X119173363Y-72891212D01*
X119259476Y-72919191D01*
X119345591Y-72947171D01*
X119465038Y-72966089D01*
X119507279Y-72972780D01*
X119570414Y-73002709D01*
X119607345Y-73062021D01*
X119606347Y-73131883D01*
X119567737Y-73190116D01*
X119507279Y-73217726D01*
X119345706Y-73243317D01*
X119173555Y-73299251D01*
X119173547Y-73299254D01*
X119012269Y-73381432D01*
X118996466Y-73392912D01*
X118996466Y-73392913D01*
X119485591Y-73882037D01*
X119422007Y-73899075D01*
X119307993Y-73964901D01*
X119214901Y-74057993D01*
X119149075Y-74172007D01*
X119132037Y-74235590D01*
X118642913Y-73746466D01*
X118639229Y-73746756D01*
X118570852Y-73732392D01*
X118521095Y-73683340D01*
X118505500Y-73623138D01*
X118505500Y-72636886D01*
X118525185Y-72569847D01*
X118577989Y-72524092D01*
X118647147Y-72514148D01*
X118710703Y-72543173D01*
G37*
%TD.AperFunction*%
%TA.AperFunction,Conductor*%
G36*
X138466917Y-72547959D02*
G01*
X138501277Y-72608796D01*
X138504500Y-72636886D01*
X138504500Y-73623138D01*
X138484815Y-73690177D01*
X138432011Y-73735932D01*
X138370773Y-73746756D01*
X138367086Y-73746465D01*
X137877962Y-74235589D01*
X137860925Y-74172007D01*
X137795099Y-74057993D01*
X137702007Y-73964901D01*
X137587993Y-73899075D01*
X137524409Y-73882037D01*
X138013533Y-73392913D01*
X137997730Y-73381431D01*
X137836447Y-73299252D01*
X137836444Y-73299251D01*
X137664293Y-73243317D01*
X137502720Y-73217726D01*
X137439585Y-73187797D01*
X137402654Y-73128485D01*
X137403652Y-73058623D01*
X137442262Y-73000390D01*
X137502720Y-72972780D01*
X137517270Y-72970475D01*
X137664409Y-72947171D01*
X137836639Y-72891211D01*
X137997994Y-72808996D01*
X138144501Y-72702553D01*
X138272553Y-72574501D01*
X138280180Y-72564003D01*
X138335508Y-72521336D01*
X138405121Y-72515355D01*
X138466917Y-72547959D01*
G37*
%TD.AperFunction*%
%TA.AperFunction,Conductor*%
G36*
X136981716Y-60200424D02*
G01*
X137125591Y-60247171D01*
X137245038Y-60266089D01*
X137287279Y-60272780D01*
X137350414Y-60302709D01*
X137387345Y-60362021D01*
X137386347Y-60431883D01*
X137347737Y-60490116D01*
X137287279Y-60517726D01*
X137125706Y-60543317D01*
X136953555Y-60599251D01*
X136953547Y-60599254D01*
X136792269Y-60681432D01*
X136776466Y-60692912D01*
X136776466Y-60692913D01*
X137265591Y-61182037D01*
X137202007Y-61199075D01*
X137087993Y-61264901D01*
X136994901Y-61357993D01*
X136929075Y-61472007D01*
X136912037Y-61535590D01*
X136422913Y-61046466D01*
X136422912Y-61046466D01*
X136411432Y-61062269D01*
X136329254Y-61223547D01*
X136329251Y-61223555D01*
X136273317Y-61395706D01*
X136245000Y-61574493D01*
X136245000Y-61755506D01*
X136273317Y-61934293D01*
X136329251Y-62106444D01*
X136329252Y-62106447D01*
X136411431Y-62267730D01*
X136422913Y-62283532D01*
X136422913Y-62283533D01*
X136912037Y-61794409D01*
X136929075Y-61857993D01*
X136994901Y-61972007D01*
X137087993Y-62065099D01*
X137202007Y-62130925D01*
X137265590Y-62147962D01*
X136776466Y-62637085D01*
X136776466Y-62637086D01*
X136792267Y-62648566D01*
X136792275Y-62648571D01*
X136953552Y-62730747D01*
X136953555Y-62730748D01*
X137125706Y-62786682D01*
X137287279Y-62812273D01*
X137350413Y-62842202D01*
X137387345Y-62901513D01*
X137386347Y-62971376D01*
X137347738Y-63029609D01*
X137287280Y-63057219D01*
X137125589Y-63082829D01*
X136953363Y-63138787D01*
X136953360Y-63138788D01*
X136792002Y-63221006D01*
X136645505Y-63327441D01*
X136645500Y-63327445D01*
X136517445Y-63455500D01*
X136517441Y-63455505D01*
X136411006Y-63602002D01*
X136328788Y-63763360D01*
X136328787Y-63763363D01*
X136272829Y-63935589D01*
X136244500Y-64114448D01*
X136244500Y-64295551D01*
X136272829Y-64474410D01*
X136319575Y-64618281D01*
X136321570Y-64688122D01*
X136289325Y-64744280D01*
X134982181Y-66051425D01*
X134920858Y-66084910D01*
X134851166Y-66079926D01*
X134795233Y-66038054D01*
X134770816Y-65972590D01*
X134770500Y-65963744D01*
X134770500Y-62367254D01*
X134790185Y-62300215D01*
X134806814Y-62279578D01*
X136855719Y-60230672D01*
X136917040Y-60197189D01*
X136981716Y-60200424D01*
G37*
%TD.AperFunction*%
%TA.AperFunction,Conductor*%
G36*
X120154281Y-60230674D02*
G01*
X122042181Y-62118573D01*
X122075666Y-62179896D01*
X122078500Y-62206254D01*
X122078500Y-65802745D01*
X122058815Y-65869784D01*
X122006011Y-65915539D01*
X121936853Y-65925483D01*
X121873297Y-65896458D01*
X121866819Y-65890426D01*
X120720674Y-64744281D01*
X120687189Y-64682958D01*
X120690423Y-64618284D01*
X120737171Y-64474409D01*
X120765500Y-64295551D01*
X120765500Y-64114448D01*
X120749019Y-64010397D01*
X120737171Y-63935591D01*
X120681211Y-63763361D01*
X120681211Y-63763360D01*
X120652740Y-63707484D01*
X120598996Y-63602006D01*
X120536401Y-63515851D01*
X120492558Y-63455505D01*
X120492554Y-63455500D01*
X120364499Y-63327445D01*
X120364494Y-63327441D01*
X120217997Y-63221006D01*
X120217996Y-63221005D01*
X120217994Y-63221004D01*
X120166300Y-63194664D01*
X120056639Y-63138788D01*
X120056636Y-63138787D01*
X119884410Y-63082828D01*
X119722720Y-63057219D01*
X119659585Y-63027289D01*
X119622654Y-62967978D01*
X119623652Y-62898115D01*
X119662262Y-62839883D01*
X119722721Y-62812273D01*
X119884292Y-62786683D01*
X120056444Y-62730748D01*
X120056452Y-62730745D01*
X120217730Y-62648568D01*
X120233532Y-62637085D01*
X120233533Y-62637085D01*
X119744410Y-62147962D01*
X119807993Y-62130925D01*
X119922007Y-62065099D01*
X120015099Y-61972007D01*
X120080925Y-61857993D01*
X120097962Y-61794410D01*
X120587085Y-62283533D01*
X120587085Y-62283532D01*
X120598568Y-62267730D01*
X120680745Y-62106452D01*
X120680748Y-62106444D01*
X120736682Y-61934293D01*
X120765000Y-61755506D01*
X120765000Y-61574493D01*
X120736682Y-61395706D01*
X120680748Y-61223555D01*
X120680747Y-61223552D01*
X120598571Y-61062275D01*
X120598566Y-61062267D01*
X120587085Y-61046466D01*
X120097962Y-61535589D01*
X120080925Y-61472007D01*
X120015099Y-61357993D01*
X119922007Y-61264901D01*
X119807993Y-61199075D01*
X119744409Y-61182037D01*
X120233533Y-60692913D01*
X120217730Y-60681431D01*
X120056447Y-60599252D01*
X120056444Y-60599251D01*
X119884293Y-60543317D01*
X119722720Y-60517726D01*
X119659585Y-60487797D01*
X119622654Y-60428485D01*
X119623652Y-60358623D01*
X119662262Y-60300390D01*
X119722720Y-60272780D01*
X119737270Y-60270475D01*
X119884409Y-60247171D01*
X120028284Y-60200423D01*
X120098123Y-60198429D01*
X120154281Y-60230674D01*
G37*
%TD.AperFunction*%
%TA.AperFunction,Conductor*%
G36*
X138367084Y-62283532D02*
G01*
X138370772Y-62283242D01*
X138439149Y-62297606D01*
X138488905Y-62346658D01*
X138504500Y-62406860D01*
X138504500Y-63393113D01*
X138484815Y-63460152D01*
X138432011Y-63505907D01*
X138362853Y-63515851D01*
X138299297Y-63486826D01*
X138280182Y-63465998D01*
X138272558Y-63455505D01*
X138272554Y-63455500D01*
X138144499Y-63327445D01*
X138144494Y-63327441D01*
X137997997Y-63221006D01*
X137997996Y-63221005D01*
X137997994Y-63221004D01*
X137946300Y-63194664D01*
X137836639Y-63138788D01*
X137836636Y-63138787D01*
X137664410Y-63082828D01*
X137502720Y-63057219D01*
X137439585Y-63027289D01*
X137402654Y-62967978D01*
X137403652Y-62898115D01*
X137442262Y-62839883D01*
X137502721Y-62812273D01*
X137664292Y-62786683D01*
X137836444Y-62730748D01*
X137836452Y-62730745D01*
X137997730Y-62648568D01*
X138013532Y-62637085D01*
X138013533Y-62637085D01*
X137524410Y-62147962D01*
X137587993Y-62130925D01*
X137702007Y-62065099D01*
X137795099Y-61972007D01*
X137860925Y-61857993D01*
X137877962Y-61794410D01*
X138367084Y-62283532D01*
G37*
%TD.AperFunction*%
%TA.AperFunction,Conductor*%
G36*
X119149075Y-61857993D02*
G01*
X119214901Y-61972007D01*
X119307993Y-62065099D01*
X119422007Y-62130925D01*
X119485590Y-62147962D01*
X118996466Y-62637085D01*
X118996466Y-62637086D01*
X119012267Y-62648566D01*
X119012275Y-62648571D01*
X119173552Y-62730747D01*
X119173555Y-62730748D01*
X119345706Y-62786682D01*
X119507279Y-62812273D01*
X119570413Y-62842202D01*
X119607345Y-62901513D01*
X119606347Y-62971376D01*
X119567738Y-63029609D01*
X119507280Y-63057219D01*
X119345589Y-63082829D01*
X119173363Y-63138787D01*
X119173360Y-63138788D01*
X119012002Y-63221006D01*
X118865505Y-63327441D01*
X118865500Y-63327445D01*
X118737445Y-63455500D01*
X118737441Y-63455505D01*
X118729818Y-63465998D01*
X118674488Y-63508664D01*
X118604875Y-63514643D01*
X118543080Y-63482037D01*
X118508723Y-63421199D01*
X118505500Y-63393113D01*
X118505500Y-62406861D01*
X118525185Y-62339822D01*
X118577989Y-62294067D01*
X118639229Y-62283243D01*
X118642913Y-62283533D01*
X119132037Y-61794409D01*
X119149075Y-61857993D01*
G37*
%TD.AperFunction*%
%TA.AperFunction,Conductor*%
G36*
X118710703Y-59843173D02*
G01*
X118729821Y-59864004D01*
X118737446Y-59874500D01*
X118865500Y-60002554D01*
X118865505Y-60002558D01*
X118954554Y-60067255D01*
X119012006Y-60108996D01*
X119117484Y-60162740D01*
X119173360Y-60191211D01*
X119173363Y-60191212D01*
X119250277Y-60216202D01*
X119345591Y-60247171D01*
X119465038Y-60266089D01*
X119507279Y-60272780D01*
X119570414Y-60302709D01*
X119607345Y-60362021D01*
X119606347Y-60431883D01*
X119567737Y-60490116D01*
X119507279Y-60517726D01*
X119345706Y-60543317D01*
X119173555Y-60599251D01*
X119173547Y-60599254D01*
X119012269Y-60681432D01*
X118996466Y-60692912D01*
X118996466Y-60692913D01*
X119485591Y-61182037D01*
X119422007Y-61199075D01*
X119307993Y-61264901D01*
X119214901Y-61357993D01*
X119149075Y-61472007D01*
X119132037Y-61535590D01*
X118642913Y-61046466D01*
X118639229Y-61046756D01*
X118570852Y-61032392D01*
X118521095Y-60983340D01*
X118505500Y-60923138D01*
X118505500Y-59936886D01*
X118525185Y-59869847D01*
X118577989Y-59824092D01*
X118647147Y-59814148D01*
X118710703Y-59843173D01*
G37*
%TD.AperFunction*%
%TA.AperFunction,Conductor*%
G36*
X138466917Y-59847959D02*
G01*
X138501277Y-59908796D01*
X138504500Y-59936886D01*
X138504500Y-60923138D01*
X138484815Y-60990177D01*
X138432011Y-61035932D01*
X138370773Y-61046756D01*
X138367086Y-61046465D01*
X137877962Y-61535589D01*
X137860925Y-61472007D01*
X137795099Y-61357993D01*
X137702007Y-61264901D01*
X137587993Y-61199075D01*
X137524409Y-61182037D01*
X138013533Y-60692913D01*
X137997730Y-60681431D01*
X137836447Y-60599252D01*
X137836444Y-60599251D01*
X137664293Y-60543317D01*
X137502720Y-60517726D01*
X137439585Y-60487797D01*
X137402654Y-60428485D01*
X137403652Y-60358623D01*
X137442262Y-60300390D01*
X137502720Y-60272780D01*
X137517270Y-60270475D01*
X137664409Y-60247171D01*
X137836639Y-60191211D01*
X137997994Y-60108996D01*
X138144501Y-60002553D01*
X138272553Y-59874501D01*
X138280180Y-59864003D01*
X138335508Y-59821336D01*
X138405121Y-59815355D01*
X138466917Y-59847959D01*
G37*
%TD.AperFunction*%
%TD*%
%TA.AperFunction,NonConductor*%
G36*
X118679584Y-57725774D02*
G01*
X118695009Y-57732585D01*
X118720135Y-57735500D01*
X119457873Y-57735499D01*
X119524911Y-57755183D01*
X119570666Y-57807987D01*
X119580610Y-57877146D01*
X119551585Y-57940702D01*
X119492807Y-57978476D01*
X119477271Y-57981972D01*
X119345589Y-58002829D01*
X119173363Y-58058787D01*
X119173360Y-58058788D01*
X119012002Y-58141006D01*
X118865505Y-58247441D01*
X118865500Y-58247445D01*
X118737445Y-58375500D01*
X118737441Y-58375505D01*
X118729818Y-58385998D01*
X118674488Y-58428664D01*
X118604875Y-58434643D01*
X118543080Y-58402037D01*
X118508723Y-58341199D01*
X118505500Y-58313113D01*
X118505500Y-57839209D01*
X118525185Y-57772170D01*
X118577989Y-57726415D01*
X118647147Y-57716471D01*
X118679584Y-57725774D01*
G37*
%TD.AperFunction*%
%TA.AperFunction,NonConductor*%
G36*
X138462876Y-57746525D02*
G01*
X138499907Y-57805774D01*
X138504500Y-57839209D01*
X138504500Y-58313113D01*
X138484815Y-58380152D01*
X138432011Y-58425907D01*
X138362853Y-58435851D01*
X138299297Y-58406826D01*
X138280182Y-58385998D01*
X138272558Y-58375505D01*
X138272554Y-58375500D01*
X138144499Y-58247445D01*
X138144494Y-58247441D01*
X137997997Y-58141006D01*
X137997996Y-58141005D01*
X137997994Y-58141004D01*
X137946300Y-58114664D01*
X137836639Y-58058788D01*
X137836636Y-58058787D01*
X137664410Y-58002829D01*
X137532728Y-57981972D01*
X137469594Y-57952042D01*
X137432663Y-57892731D01*
X137433661Y-57822868D01*
X137472271Y-57764636D01*
X137536235Y-57736522D01*
X137552120Y-57735499D01*
X138289864Y-57735499D01*
X138289879Y-57735497D01*
X138289882Y-57735497D01*
X138314986Y-57732586D01*
X138314987Y-57732585D01*
X138314991Y-57732585D01*
X138330415Y-57725774D01*
X138399690Y-57716703D01*
X138462876Y-57746525D01*
G37*
%TD.AperFunction*%
%TA.AperFunction,NonConductor*%
G36*
X120214783Y-57755184D02*
G01*
X120235425Y-57771818D01*
X122443181Y-59979574D01*
X122476666Y-60040897D01*
X122479500Y-60067255D01*
X122479500Y-61123745D01*
X122459815Y-61190784D01*
X122407011Y-61236539D01*
X122337853Y-61246483D01*
X122274297Y-61217458D01*
X122267819Y-61211426D01*
X120720674Y-59664281D01*
X120687189Y-59602958D01*
X120690423Y-59538284D01*
X120737171Y-59394409D01*
X120765500Y-59215551D01*
X120765500Y-59034448D01*
X120749019Y-58930397D01*
X120737171Y-58855591D01*
X120681211Y-58683361D01*
X120681211Y-58683360D01*
X120652740Y-58627484D01*
X120598996Y-58522006D01*
X120590219Y-58509926D01*
X120503638Y-58390755D01*
X120503634Y-58390751D01*
X120492553Y-58375499D01*
X120364501Y-58247447D01*
X120349248Y-58236365D01*
X120349244Y-58236361D01*
X120217997Y-58141006D01*
X120217996Y-58141005D01*
X120217994Y-58141004D01*
X120166300Y-58114664D01*
X120056639Y-58058788D01*
X120056636Y-58058787D01*
X119884410Y-58002829D01*
X119752728Y-57981972D01*
X119689593Y-57952042D01*
X119652662Y-57892731D01*
X119653660Y-57822868D01*
X119692270Y-57764636D01*
X119756234Y-57736522D01*
X119772121Y-57735499D01*
X120147744Y-57735499D01*
X120214783Y-57755184D01*
G37*
%TD.AperFunction*%
%TA.AperFunction,NonConductor*%
G36*
X118710703Y-64923173D02*
G01*
X118729821Y-64944004D01*
X118737446Y-64954500D01*
X118865500Y-65082554D01*
X118865505Y-65082558D01*
X118993287Y-65175396D01*
X119012006Y-65188996D01*
X119117484Y-65242740D01*
X119173360Y-65271211D01*
X119173363Y-65271212D01*
X119259476Y-65299191D01*
X119345591Y-65327171D01*
X119418639Y-65338740D01*
X119505678Y-65352527D01*
X119568813Y-65382456D01*
X119605744Y-65441768D01*
X119604746Y-65511631D01*
X119566136Y-65569863D01*
X119505678Y-65597473D01*
X119345589Y-65622829D01*
X119173363Y-65678787D01*
X119173360Y-65678788D01*
X119012002Y-65761006D01*
X118865505Y-65867441D01*
X118865500Y-65867445D01*
X118737445Y-65995500D01*
X118737441Y-65995505D01*
X118729818Y-66005998D01*
X118674488Y-66048664D01*
X118604875Y-66054643D01*
X118543080Y-66022037D01*
X118508723Y-65961199D01*
X118505500Y-65933113D01*
X118505500Y-65016886D01*
X118525185Y-64949847D01*
X118577989Y-64904092D01*
X118647147Y-64894148D01*
X118710703Y-64923173D01*
G37*
%TD.AperFunction*%
%TA.AperFunction,NonConductor*%
G36*
X138466917Y-64927959D02*
G01*
X138501277Y-64988796D01*
X138504500Y-65016886D01*
X138504500Y-65933113D01*
X138484815Y-66000152D01*
X138432011Y-66045907D01*
X138362853Y-66055851D01*
X138299297Y-66026826D01*
X138280182Y-66005998D01*
X138272558Y-65995505D01*
X138272554Y-65995500D01*
X138144499Y-65867445D01*
X138144494Y-65867441D01*
X137997997Y-65761006D01*
X137997996Y-65761005D01*
X137997994Y-65761004D01*
X137946300Y-65734664D01*
X137836639Y-65678788D01*
X137836636Y-65678787D01*
X137664410Y-65622829D01*
X137504321Y-65597473D01*
X137441186Y-65567544D01*
X137404255Y-65508232D01*
X137405253Y-65438370D01*
X137443863Y-65380137D01*
X137504321Y-65352527D01*
X137574425Y-65341422D01*
X137664409Y-65327171D01*
X137836639Y-65271211D01*
X137997994Y-65188996D01*
X138144501Y-65082553D01*
X138272553Y-64954501D01*
X138280180Y-64944003D01*
X138335508Y-64901336D01*
X138405121Y-64895355D01*
X138466917Y-64927959D01*
G37*
%TD.AperFunction*%
%TA.AperFunction,NonConductor*%
G36*
X118710703Y-67463173D02*
G01*
X118729821Y-67484004D01*
X118737446Y-67494500D01*
X118865500Y-67622554D01*
X118865505Y-67622558D01*
X118993287Y-67715396D01*
X119012006Y-67728996D01*
X119117484Y-67782740D01*
X119173360Y-67811211D01*
X119173363Y-67811212D01*
X119259476Y-67839191D01*
X119345591Y-67867171D01*
X119418639Y-67878740D01*
X119505678Y-67892527D01*
X119568813Y-67922456D01*
X119605744Y-67981768D01*
X119604746Y-68051631D01*
X119566136Y-68109863D01*
X119505678Y-68137473D01*
X119345589Y-68162829D01*
X119173363Y-68218787D01*
X119173360Y-68218788D01*
X119012002Y-68301006D01*
X118865505Y-68407441D01*
X118865500Y-68407445D01*
X118737445Y-68535500D01*
X118737441Y-68535505D01*
X118729818Y-68545998D01*
X118674488Y-68588664D01*
X118604875Y-68594643D01*
X118543080Y-68562037D01*
X118508723Y-68501199D01*
X118505500Y-68473113D01*
X118505500Y-67556886D01*
X118525185Y-67489847D01*
X118577989Y-67444092D01*
X118647147Y-67434148D01*
X118710703Y-67463173D01*
G37*
%TD.AperFunction*%
%TA.AperFunction,NonConductor*%
G36*
X138466917Y-67467959D02*
G01*
X138501277Y-67528796D01*
X138504500Y-67556886D01*
X138504500Y-68473113D01*
X138484815Y-68540152D01*
X138432011Y-68585907D01*
X138362853Y-68595851D01*
X138299297Y-68566826D01*
X138280182Y-68545998D01*
X138272558Y-68535505D01*
X138272554Y-68535500D01*
X138144499Y-68407445D01*
X138144494Y-68407441D01*
X137997997Y-68301006D01*
X137997996Y-68301005D01*
X137997994Y-68301004D01*
X137946300Y-68274664D01*
X137836639Y-68218788D01*
X137836636Y-68218787D01*
X137664410Y-68162829D01*
X137504321Y-68137473D01*
X137441186Y-68107544D01*
X137404255Y-68048232D01*
X137405253Y-67978370D01*
X137443863Y-67920137D01*
X137504321Y-67892527D01*
X137574425Y-67881422D01*
X137664409Y-67867171D01*
X137836639Y-67811211D01*
X137997994Y-67728996D01*
X138144501Y-67622553D01*
X138272553Y-67494501D01*
X138280180Y-67484003D01*
X138335508Y-67441336D01*
X138405121Y-67435355D01*
X138466917Y-67467959D01*
G37*
%TD.AperFunction*%
%TA.AperFunction,NonConductor*%
G36*
X118710703Y-70003173D02*
G01*
X118729821Y-70024004D01*
X118737446Y-70034500D01*
X118865500Y-70162554D01*
X118865505Y-70162558D01*
X118993287Y-70255396D01*
X119012006Y-70268996D01*
X119117484Y-70322740D01*
X119173360Y-70351211D01*
X119173363Y-70351212D01*
X119259476Y-70379191D01*
X119345591Y-70407171D01*
X119418639Y-70418740D01*
X119505678Y-70432527D01*
X119568813Y-70462456D01*
X119605744Y-70521768D01*
X119604746Y-70591631D01*
X119566136Y-70649863D01*
X119505678Y-70677473D01*
X119345589Y-70702829D01*
X119173363Y-70758787D01*
X119173360Y-70758788D01*
X119012002Y-70841006D01*
X118865505Y-70947441D01*
X118865500Y-70947445D01*
X118737445Y-71075500D01*
X118737441Y-71075505D01*
X118729818Y-71085998D01*
X118674488Y-71128664D01*
X118604875Y-71134643D01*
X118543080Y-71102037D01*
X118508723Y-71041199D01*
X118505500Y-71013113D01*
X118505500Y-70096886D01*
X118525185Y-70029847D01*
X118577989Y-69984092D01*
X118647147Y-69974148D01*
X118710703Y-70003173D01*
G37*
%TD.AperFunction*%
%TA.AperFunction,NonConductor*%
G36*
X138466917Y-70007959D02*
G01*
X138501277Y-70068796D01*
X138504500Y-70096886D01*
X138504500Y-71013113D01*
X138484815Y-71080152D01*
X138432011Y-71125907D01*
X138362853Y-71135851D01*
X138299297Y-71106826D01*
X138280182Y-71085998D01*
X138272558Y-71075505D01*
X138272554Y-71075500D01*
X138144499Y-70947445D01*
X138144494Y-70947441D01*
X137997997Y-70841006D01*
X137997996Y-70841005D01*
X137997994Y-70841004D01*
X137946300Y-70814664D01*
X137836639Y-70758788D01*
X137836636Y-70758787D01*
X137664410Y-70702829D01*
X137504321Y-70677473D01*
X137441186Y-70647544D01*
X137404255Y-70588232D01*
X137405253Y-70518370D01*
X137443863Y-70460137D01*
X137504321Y-70432527D01*
X137574425Y-70421422D01*
X137664409Y-70407171D01*
X137836639Y-70351211D01*
X137997994Y-70268996D01*
X138144501Y-70162553D01*
X138272553Y-70034501D01*
X138280180Y-70024003D01*
X138335508Y-69981336D01*
X138405121Y-69975355D01*
X138466917Y-70007959D01*
G37*
%TD.AperFunction*%
%TA.AperFunction,NonConductor*%
G36*
X118710703Y-77623173D02*
G01*
X118729821Y-77644004D01*
X118737446Y-77654500D01*
X118865500Y-77782554D01*
X118865505Y-77782558D01*
X118993287Y-77875396D01*
X119012006Y-77888996D01*
X119117484Y-77942740D01*
X119173360Y-77971211D01*
X119173363Y-77971212D01*
X119259476Y-77999191D01*
X119345591Y-78027171D01*
X119418639Y-78038740D01*
X119505678Y-78052527D01*
X119568813Y-78082456D01*
X119605744Y-78141768D01*
X119604746Y-78211631D01*
X119566136Y-78269863D01*
X119505678Y-78297473D01*
X119345589Y-78322829D01*
X119173363Y-78378787D01*
X119173360Y-78378788D01*
X119012002Y-78461006D01*
X118865505Y-78567441D01*
X118865500Y-78567445D01*
X118737445Y-78695500D01*
X118737441Y-78695505D01*
X118729818Y-78705998D01*
X118674488Y-78748664D01*
X118604875Y-78754643D01*
X118543080Y-78722037D01*
X118508723Y-78661199D01*
X118505500Y-78633113D01*
X118505500Y-77716886D01*
X118525185Y-77649847D01*
X118577989Y-77604092D01*
X118647147Y-77594148D01*
X118710703Y-77623173D01*
G37*
%TD.AperFunction*%
%TA.AperFunction,NonConductor*%
G36*
X138466917Y-77627959D02*
G01*
X138501277Y-77688796D01*
X138504500Y-77716886D01*
X138504500Y-78633113D01*
X138484815Y-78700152D01*
X138432011Y-78745907D01*
X138362853Y-78755851D01*
X138299297Y-78726826D01*
X138280182Y-78705998D01*
X138272558Y-78695505D01*
X138272554Y-78695500D01*
X138144499Y-78567445D01*
X138144494Y-78567441D01*
X137997997Y-78461006D01*
X137997996Y-78461005D01*
X137997994Y-78461004D01*
X137916052Y-78419252D01*
X137836639Y-78378788D01*
X137836636Y-78378787D01*
X137664410Y-78322829D01*
X137504321Y-78297473D01*
X137441186Y-78267544D01*
X137404255Y-78208232D01*
X137405253Y-78138370D01*
X137443863Y-78080137D01*
X137504321Y-78052527D01*
X137580720Y-78040426D01*
X137664409Y-78027171D01*
X137836639Y-77971211D01*
X137997994Y-77888996D01*
X138144501Y-77782553D01*
X138272553Y-77654501D01*
X138280180Y-77644003D01*
X138335508Y-77601336D01*
X138405121Y-77595355D01*
X138466917Y-77627959D01*
G37*
%TD.AperFunction*%
%TA.AperFunction,NonConductor*%
G36*
X120332592Y-80451960D02*
G01*
X120372850Y-80509066D01*
X120375842Y-80578871D01*
X120375256Y-80581148D01*
X120372635Y-80590933D01*
X120372632Y-80590943D01*
X120349500Y-80677273D01*
X120349500Y-80847731D01*
X120349823Y-80850186D01*
X120349500Y-80852256D01*
X120349500Y-80855854D01*
X120348939Y-80855854D01*
X120339053Y-80919221D01*
X120292670Y-80971474D01*
X120225400Y-80990355D01*
X120170588Y-80976849D01*
X120056639Y-80918788D01*
X120056636Y-80918787D01*
X119884410Y-80862829D01*
X119724321Y-80837473D01*
X119661186Y-80807544D01*
X119624255Y-80748232D01*
X119625253Y-80678370D01*
X119663863Y-80620137D01*
X119724321Y-80592527D01*
X119796161Y-80581148D01*
X119884409Y-80567171D01*
X120056639Y-80511211D01*
X120056639Y-80511210D01*
X120056644Y-80511209D01*
X120199182Y-80438581D01*
X120267851Y-80425684D01*
X120332592Y-80451960D01*
G37*
%TD.AperFunction*%
%TA.AperFunction,NonConductor*%
G36*
X118710703Y-80163173D02*
G01*
X118729818Y-80184001D01*
X118733799Y-80189480D01*
X118737446Y-80194500D01*
X118865500Y-80322554D01*
X118865505Y-80322558D01*
X118952074Y-80385453D01*
X119012006Y-80428996D01*
X119117484Y-80482740D01*
X119173360Y-80511211D01*
X119173363Y-80511212D01*
X119259476Y-80539191D01*
X119345591Y-80567171D01*
X119417991Y-80578638D01*
X119505678Y-80592527D01*
X119568813Y-80622456D01*
X119605744Y-80681768D01*
X119604746Y-80751631D01*
X119566136Y-80809863D01*
X119505678Y-80837473D01*
X119345589Y-80862829D01*
X119173363Y-80918787D01*
X119173360Y-80918788D01*
X119012002Y-81001006D01*
X118865505Y-81107441D01*
X118865500Y-81107445D01*
X118737445Y-81235500D01*
X118737441Y-81235505D01*
X118729818Y-81245998D01*
X118674488Y-81288664D01*
X118604875Y-81294643D01*
X118543080Y-81262037D01*
X118508723Y-81201199D01*
X118505500Y-81173113D01*
X118505500Y-80256886D01*
X118525185Y-80189847D01*
X118577989Y-80144092D01*
X118647147Y-80134148D01*
X118710703Y-80163173D01*
G37*
%TD.AperFunction*%
%TA.AperFunction,NonConductor*%
G36*
X138466917Y-80167959D02*
G01*
X138501277Y-80228796D01*
X138504500Y-80256886D01*
X138504500Y-81173113D01*
X138484815Y-81240152D01*
X138432011Y-81285907D01*
X138362853Y-81295851D01*
X138299297Y-81266826D01*
X138280182Y-81245998D01*
X138272558Y-81235505D01*
X138272554Y-81235500D01*
X138144499Y-81107445D01*
X138144494Y-81107441D01*
X137997997Y-81001006D01*
X137997996Y-81001005D01*
X137997994Y-81001004D01*
X137946300Y-80974664D01*
X137836639Y-80918788D01*
X137836636Y-80918787D01*
X137664410Y-80862829D01*
X137504321Y-80837473D01*
X137441186Y-80807544D01*
X137404255Y-80748232D01*
X137405253Y-80678370D01*
X137443863Y-80620137D01*
X137504321Y-80592527D01*
X137576161Y-80581148D01*
X137664409Y-80567171D01*
X137836639Y-80511211D01*
X137997994Y-80428996D01*
X138144501Y-80322553D01*
X138272553Y-80194501D01*
X138280180Y-80184003D01*
X138335508Y-80141336D01*
X138405121Y-80135355D01*
X138466917Y-80167959D01*
G37*
%TD.AperFunction*%
%TA.AperFunction,NonConductor*%
G36*
X121997834Y-80151071D02*
G01*
X122053767Y-80192943D01*
X122078184Y-80258407D01*
X122078500Y-80267253D01*
X122078500Y-81257745D01*
X122058815Y-81324784D01*
X122006011Y-81370539D01*
X121936853Y-81380483D01*
X121873297Y-81351458D01*
X121866819Y-81345426D01*
X121371573Y-80850180D01*
X121338088Y-80788857D01*
X121343072Y-80719165D01*
X121371573Y-80674818D01*
X121660939Y-80385452D01*
X121866820Y-80179571D01*
X121928142Y-80146087D01*
X121997834Y-80151071D01*
G37*
%TD.AperFunction*%
%TA.AperFunction,NonConductor*%
G36*
X129689834Y-78311916D02*
G01*
X129745767Y-78353788D01*
X129770184Y-78419252D01*
X129770500Y-78428098D01*
X129770500Y-81519688D01*
X129750815Y-81586727D01*
X129698011Y-81632482D01*
X129628853Y-81642426D01*
X129565297Y-81613401D01*
X129558819Y-81607369D01*
X129275524Y-81324074D01*
X129242039Y-81262751D01*
X129247023Y-81193059D01*
X129275524Y-81148712D01*
X129325869Y-81098367D01*
X129385520Y-81038716D01*
X129464577Y-80901784D01*
X129505500Y-80749057D01*
X129505500Y-80590943D01*
X129464577Y-80438216D01*
X129434114Y-80385452D01*
X129385524Y-80301290D01*
X129385518Y-80301282D01*
X129273717Y-80189481D01*
X129273709Y-80189475D01*
X129136790Y-80110426D01*
X129136786Y-80110424D01*
X129136784Y-80110423D01*
X129136782Y-80110422D01*
X129136779Y-80110421D01*
X129092405Y-80098531D01*
X129032745Y-80062166D01*
X129002217Y-79999319D01*
X129000500Y-79978757D01*
X129000500Y-78694500D01*
X129020185Y-78627461D01*
X129072989Y-78581706D01*
X129124500Y-78570500D01*
X129159055Y-78570500D01*
X129159057Y-78570500D01*
X129311784Y-78529577D01*
X129448716Y-78450520D01*
X129558819Y-78340417D01*
X129620142Y-78306932D01*
X129689834Y-78311916D01*
G37*
%TD.AperFunction*%
%TA.AperFunction,NonConductor*%
G36*
X136981716Y-83060424D02*
G01*
X137121201Y-83105745D01*
X137121203Y-83105745D01*
X137125591Y-83107171D01*
X137285786Y-83132543D01*
X137286208Y-83132612D01*
X137317464Y-83147595D01*
X137348813Y-83162456D01*
X137348960Y-83162693D01*
X137349212Y-83162814D01*
X137367403Y-83192312D01*
X137385744Y-83221768D01*
X137385740Y-83222046D01*
X137385887Y-83222285D01*
X137385239Y-83257063D01*
X137384746Y-83291631D01*
X137384592Y-83291862D01*
X137384587Y-83292143D01*
X137365251Y-83321033D01*
X137346136Y-83349863D01*
X137345876Y-83349981D01*
X137345725Y-83350208D01*
X137338672Y-83353271D01*
X137285678Y-83377473D01*
X137125589Y-83402829D01*
X136953363Y-83458787D01*
X136953360Y-83458788D01*
X136792006Y-83541003D01*
X136657385Y-83638811D01*
X136645524Y-83643042D01*
X136636011Y-83651286D01*
X136613245Y-83654559D01*
X136591578Y-83662290D01*
X136579314Y-83659438D01*
X136566853Y-83661230D01*
X136545928Y-83651673D01*
X136523525Y-83646464D01*
X136514751Y-83637435D01*
X136503297Y-83632205D01*
X136490860Y-83612852D01*
X136474830Y-83596358D01*
X136471426Y-83582612D01*
X136465523Y-83573427D01*
X136460500Y-83538492D01*
X136460500Y-83537254D01*
X136480185Y-83470215D01*
X136496815Y-83449577D01*
X136855719Y-83090672D01*
X136917040Y-83057189D01*
X136981716Y-83060424D01*
G37*
%TD.AperFunction*%
%TA.AperFunction,NonConductor*%
G36*
X118710703Y-82703173D02*
G01*
X118729821Y-82724004D01*
X118737446Y-82734500D01*
X118865500Y-82862554D01*
X118865505Y-82862558D01*
X118929747Y-82909232D01*
X119012006Y-82968996D01*
X119117484Y-83022740D01*
X119173360Y-83051211D01*
X119173363Y-83051212D01*
X119243758Y-83074084D01*
X119345591Y-83107171D01*
X119418639Y-83118740D01*
X119505678Y-83132527D01*
X119568813Y-83162456D01*
X119605744Y-83221768D01*
X119604746Y-83291631D01*
X119566136Y-83349863D01*
X119505678Y-83377473D01*
X119345589Y-83402829D01*
X119173363Y-83458787D01*
X119173360Y-83458788D01*
X119012002Y-83541006D01*
X118865505Y-83647441D01*
X118865500Y-83647445D01*
X118737445Y-83775500D01*
X118737441Y-83775505D01*
X118729818Y-83785998D01*
X118674488Y-83828664D01*
X118604875Y-83834643D01*
X118543080Y-83802037D01*
X118508723Y-83741199D01*
X118505500Y-83713113D01*
X118505500Y-82796886D01*
X118525185Y-82729847D01*
X118577989Y-82684092D01*
X118647147Y-82674148D01*
X118710703Y-82703173D01*
G37*
%TD.AperFunction*%
%TA.AperFunction,NonConductor*%
G36*
X138466917Y-82707959D02*
G01*
X138501277Y-82768796D01*
X138504500Y-82796886D01*
X138504500Y-83713113D01*
X138484815Y-83780152D01*
X138432011Y-83825907D01*
X138362853Y-83835851D01*
X138299297Y-83806826D01*
X138280182Y-83785998D01*
X138272558Y-83775505D01*
X138272554Y-83775500D01*
X138144499Y-83647445D01*
X138144494Y-83647441D01*
X137997997Y-83541006D01*
X137997996Y-83541005D01*
X137997994Y-83541004D01*
X137946300Y-83514664D01*
X137836639Y-83458788D01*
X137836636Y-83458787D01*
X137664410Y-83402829D01*
X137504321Y-83377473D01*
X137441186Y-83347544D01*
X137404255Y-83288232D01*
X137405253Y-83218370D01*
X137443863Y-83160137D01*
X137504321Y-83132527D01*
X137574425Y-83121422D01*
X137664409Y-83107171D01*
X137836639Y-83051211D01*
X137997994Y-82968996D01*
X138144501Y-82862553D01*
X138272553Y-82734501D01*
X138280180Y-82724003D01*
X138335508Y-82681336D01*
X138405121Y-82675355D01*
X138466917Y-82707959D01*
G37*
%TD.AperFunction*%
%TA.AperFunction,NonConductor*%
G36*
X118710703Y-90323173D02*
G01*
X118729821Y-90344004D01*
X118737446Y-90354500D01*
X118865500Y-90482554D01*
X118865505Y-90482558D01*
X118993287Y-90575396D01*
X119012006Y-90588996D01*
X119117484Y-90642740D01*
X119173360Y-90671211D01*
X119173363Y-90671212D01*
X119228280Y-90689055D01*
X119345591Y-90727171D01*
X119418639Y-90738740D01*
X119505678Y-90752527D01*
X119568813Y-90782456D01*
X119605744Y-90841768D01*
X119604746Y-90911631D01*
X119566136Y-90969863D01*
X119505678Y-90997473D01*
X119345589Y-91022829D01*
X119173363Y-91078787D01*
X119173360Y-91078788D01*
X119012002Y-91161006D01*
X118865505Y-91267441D01*
X118865500Y-91267445D01*
X118737445Y-91395500D01*
X118737441Y-91395505D01*
X118729818Y-91405998D01*
X118674488Y-91448664D01*
X118604875Y-91454643D01*
X118543080Y-91422037D01*
X118508723Y-91361199D01*
X118505500Y-91333113D01*
X118505500Y-90416886D01*
X118525185Y-90349847D01*
X118577989Y-90304092D01*
X118647147Y-90294148D01*
X118710703Y-90323173D01*
G37*
%TD.AperFunction*%
%TA.AperFunction,NonConductor*%
G36*
X138466917Y-90327959D02*
G01*
X138501277Y-90388796D01*
X138504500Y-90416886D01*
X138504500Y-91333113D01*
X138484815Y-91400152D01*
X138432011Y-91445907D01*
X138362853Y-91455851D01*
X138299297Y-91426826D01*
X138280182Y-91405998D01*
X138272558Y-91395505D01*
X138272554Y-91395500D01*
X138144499Y-91267445D01*
X138144494Y-91267441D01*
X137997997Y-91161006D01*
X137997996Y-91161005D01*
X137997994Y-91161004D01*
X137946300Y-91134664D01*
X137836639Y-91078788D01*
X137836636Y-91078787D01*
X137664410Y-91022829D01*
X137504321Y-90997473D01*
X137441186Y-90967544D01*
X137404255Y-90908232D01*
X137405253Y-90838370D01*
X137443863Y-90780137D01*
X137504321Y-90752527D01*
X137574425Y-90741422D01*
X137664409Y-90727171D01*
X137836639Y-90671211D01*
X137997994Y-90588996D01*
X138144501Y-90482553D01*
X138272553Y-90354501D01*
X138280180Y-90344003D01*
X138335508Y-90301336D01*
X138405121Y-90295355D01*
X138466917Y-90327959D01*
G37*
%TD.AperFunction*%
%TA.AperFunction,NonConductor*%
G36*
X118710703Y-92863173D02*
G01*
X118729821Y-92884004D01*
X118737446Y-92894500D01*
X118865500Y-93022554D01*
X118865505Y-93022558D01*
X118993287Y-93115396D01*
X119012006Y-93128996D01*
X119117484Y-93182740D01*
X119173360Y-93211211D01*
X119173363Y-93211212D01*
X119259476Y-93239191D01*
X119345591Y-93267171D01*
X119418639Y-93278740D01*
X119505678Y-93292527D01*
X119568813Y-93322456D01*
X119605744Y-93381768D01*
X119604746Y-93451631D01*
X119566136Y-93509863D01*
X119505678Y-93537473D01*
X119345589Y-93562829D01*
X119173363Y-93618787D01*
X119173360Y-93618788D01*
X119012002Y-93701006D01*
X118865505Y-93807441D01*
X118865500Y-93807445D01*
X118737445Y-93935500D01*
X118737441Y-93935505D01*
X118729818Y-93945998D01*
X118674488Y-93988664D01*
X118604875Y-93994643D01*
X118543080Y-93962037D01*
X118508723Y-93901199D01*
X118505500Y-93873113D01*
X118505500Y-92956886D01*
X118525185Y-92889847D01*
X118577989Y-92844092D01*
X118647147Y-92834148D01*
X118710703Y-92863173D01*
G37*
%TD.AperFunction*%
%TA.AperFunction,NonConductor*%
G36*
X138466917Y-92867959D02*
G01*
X138501277Y-92928796D01*
X138504500Y-92956886D01*
X138504500Y-93873113D01*
X138484815Y-93940152D01*
X138432011Y-93985907D01*
X138362853Y-93995851D01*
X138299297Y-93966826D01*
X138280182Y-93945998D01*
X138272558Y-93935505D01*
X138272554Y-93935500D01*
X138144499Y-93807445D01*
X138144494Y-93807441D01*
X137997997Y-93701006D01*
X137997996Y-93701005D01*
X137997994Y-93701004D01*
X137946300Y-93674664D01*
X137836639Y-93618788D01*
X137836636Y-93618787D01*
X137664410Y-93562829D01*
X137504321Y-93537473D01*
X137441186Y-93507544D01*
X137404255Y-93448232D01*
X137405253Y-93378370D01*
X137443863Y-93320137D01*
X137504321Y-93292527D01*
X137574425Y-93281422D01*
X137664409Y-93267171D01*
X137836639Y-93211211D01*
X137997994Y-93128996D01*
X138144501Y-93022553D01*
X138272553Y-92894501D01*
X138280180Y-92884003D01*
X138335508Y-92841336D01*
X138405121Y-92835355D01*
X138466917Y-92867959D01*
G37*
%TD.AperFunction*%
%TA.AperFunction,NonConductor*%
G36*
X118710703Y-95403173D02*
G01*
X118729821Y-95424004D01*
X118737446Y-95434500D01*
X118865500Y-95562554D01*
X118865505Y-95562558D01*
X118993287Y-95655396D01*
X119012006Y-95668996D01*
X119117484Y-95722740D01*
X119173360Y-95751211D01*
X119173363Y-95751212D01*
X119259476Y-95779191D01*
X119345591Y-95807171D01*
X119418639Y-95818740D01*
X119505678Y-95832527D01*
X119568813Y-95862456D01*
X119605744Y-95921768D01*
X119604746Y-95991631D01*
X119566136Y-96049863D01*
X119505678Y-96077473D01*
X119345589Y-96102829D01*
X119173363Y-96158787D01*
X119173360Y-96158788D01*
X119012002Y-96241006D01*
X118865505Y-96347441D01*
X118865500Y-96347445D01*
X118737445Y-96475500D01*
X118737441Y-96475505D01*
X118729818Y-96485998D01*
X118674488Y-96528664D01*
X118604875Y-96534643D01*
X118543080Y-96502037D01*
X118508723Y-96441199D01*
X118505500Y-96413113D01*
X118505500Y-95496886D01*
X118525185Y-95429847D01*
X118577989Y-95384092D01*
X118647147Y-95374148D01*
X118710703Y-95403173D01*
G37*
%TD.AperFunction*%
%TA.AperFunction,NonConductor*%
G36*
X138466917Y-95407959D02*
G01*
X138501277Y-95468796D01*
X138504500Y-95496886D01*
X138504500Y-96413113D01*
X138484815Y-96480152D01*
X138432011Y-96525907D01*
X138362853Y-96535851D01*
X138299297Y-96506826D01*
X138280182Y-96485998D01*
X138272558Y-96475505D01*
X138272554Y-96475500D01*
X138144499Y-96347445D01*
X138144494Y-96347441D01*
X137997997Y-96241006D01*
X137997996Y-96241005D01*
X137997994Y-96241004D01*
X137946300Y-96214664D01*
X137836639Y-96158788D01*
X137836636Y-96158787D01*
X137664410Y-96102829D01*
X137504321Y-96077473D01*
X137441186Y-96047544D01*
X137404255Y-95988232D01*
X137405253Y-95918370D01*
X137443863Y-95860137D01*
X137504321Y-95832527D01*
X137574425Y-95821422D01*
X137664409Y-95807171D01*
X137836639Y-95751211D01*
X137997994Y-95668996D01*
X138144501Y-95562553D01*
X138272553Y-95434501D01*
X138280180Y-95424003D01*
X138335508Y-95381336D01*
X138405121Y-95375355D01*
X138466917Y-95407959D01*
G37*
%TD.AperFunction*%
%TA.AperFunction,NonConductor*%
G36*
X118710703Y-103023173D02*
G01*
X118729821Y-103044004D01*
X118737446Y-103054500D01*
X118865500Y-103182554D01*
X118865505Y-103182558D01*
X118989364Y-103272546D01*
X119012006Y-103288996D01*
X119093462Y-103330500D01*
X119173360Y-103371211D01*
X119173363Y-103371212D01*
X119254392Y-103397539D01*
X119345591Y-103427171D01*
X119418639Y-103438740D01*
X119505678Y-103452527D01*
X119568813Y-103482456D01*
X119605744Y-103541768D01*
X119604746Y-103611631D01*
X119566136Y-103669863D01*
X119505678Y-103697473D01*
X119345589Y-103722829D01*
X119173363Y-103778787D01*
X119173360Y-103778788D01*
X119012002Y-103861006D01*
X118865505Y-103967441D01*
X118865500Y-103967445D01*
X118737445Y-104095500D01*
X118737441Y-104095505D01*
X118729818Y-104105998D01*
X118674488Y-104148664D01*
X118604875Y-104154643D01*
X118543080Y-104122037D01*
X118508723Y-104061199D01*
X118505500Y-104033113D01*
X118505500Y-103116886D01*
X118525185Y-103049847D01*
X118577989Y-103004092D01*
X118647147Y-102994148D01*
X118710703Y-103023173D01*
G37*
%TD.AperFunction*%
%TA.AperFunction,NonConductor*%
G36*
X138466917Y-103027959D02*
G01*
X138501277Y-103088796D01*
X138504500Y-103116886D01*
X138504500Y-104033113D01*
X138484815Y-104100152D01*
X138432011Y-104145907D01*
X138362853Y-104155851D01*
X138299297Y-104126826D01*
X138280182Y-104105998D01*
X138272558Y-104095505D01*
X138272554Y-104095500D01*
X138144499Y-103967445D01*
X138144494Y-103967441D01*
X137997997Y-103861006D01*
X137997996Y-103861005D01*
X137997994Y-103861004D01*
X137946300Y-103834664D01*
X137836639Y-103778788D01*
X137836636Y-103778787D01*
X137664410Y-103722829D01*
X137504321Y-103697473D01*
X137441186Y-103667544D01*
X137404255Y-103608232D01*
X137405253Y-103538370D01*
X137443863Y-103480137D01*
X137504321Y-103452527D01*
X137574425Y-103441422D01*
X137664409Y-103427171D01*
X137836639Y-103371211D01*
X137997994Y-103288996D01*
X138144501Y-103182553D01*
X138272553Y-103054501D01*
X138280180Y-103044003D01*
X138335508Y-103001336D01*
X138405121Y-102995355D01*
X138466917Y-103027959D01*
G37*
%TD.AperFunction*%
M02*
