%TF.GenerationSoftware,KiCad,Pcbnew,9.0.7*%
%TF.CreationDate,2026-03-11T18:13:13+04:00*%
%TF.ProjectId,L3M0N Devboard,4c334d30-4e20-4446-9576-626f6172642e,rev?*%
%TF.SameCoordinates,Original*%
%TF.FileFunction,Drillmap*%
%TF.FilePolarity,Positive*%
%FSLAX45Y45*%
G04 Gerber Fmt 4.5, Leading zero omitted, Abs format (unit mm)*
G04 Created by KiCad (PCBNEW 9.0.7) date 2026-03-11 18:13:13*
%MOMM*%
%LPD*%
G01*
G04 APERTURE LIST*
%ADD10C,0.050000*%
%ADD11C,0.200000*%
%ADD12C,0.100000*%
G04 APERTURE END LIST*
D10*
X11800500Y-5521500D02*
X13900500Y-5521500D01*
X13900500Y-10621500D01*
X11800500Y-10621500D01*
X11800500Y-5521500D01*
D11*
D12*
X12529000Y-5999000D02*
X12594000Y-6064000D01*
X12594000Y-5999000D02*
X12529000Y-6064000D01*
X13107000Y-5999000D02*
X13172000Y-6064000D01*
X13172000Y-5999000D02*
X13107000Y-6064000D01*
D11*
X12058777Y-10935484D02*
X12058777Y-10735484D01*
X12058777Y-10735484D02*
X12106396Y-10735484D01*
X12106396Y-10735484D02*
X12134967Y-10745008D01*
X12134967Y-10745008D02*
X12154015Y-10764055D01*
X12154015Y-10764055D02*
X12163539Y-10783103D01*
X12163539Y-10783103D02*
X12173062Y-10821198D01*
X12173062Y-10821198D02*
X12173062Y-10849770D01*
X12173062Y-10849770D02*
X12163539Y-10887865D01*
X12163539Y-10887865D02*
X12154015Y-10906912D01*
X12154015Y-10906912D02*
X12134967Y-10925960D01*
X12134967Y-10925960D02*
X12106396Y-10935484D01*
X12106396Y-10935484D02*
X12058777Y-10935484D01*
X12258777Y-10935484D02*
X12258777Y-10802150D01*
X12258777Y-10840246D02*
X12268301Y-10821198D01*
X12268301Y-10821198D02*
X12277824Y-10811674D01*
X12277824Y-10811674D02*
X12296872Y-10802150D01*
X12296872Y-10802150D02*
X12315920Y-10802150D01*
X12382586Y-10935484D02*
X12382586Y-10802150D01*
X12382586Y-10735484D02*
X12373062Y-10745008D01*
X12373062Y-10745008D02*
X12382586Y-10754531D01*
X12382586Y-10754531D02*
X12392110Y-10745008D01*
X12392110Y-10745008D02*
X12382586Y-10735484D01*
X12382586Y-10735484D02*
X12382586Y-10754531D01*
X12506396Y-10935484D02*
X12487348Y-10925960D01*
X12487348Y-10925960D02*
X12477824Y-10906912D01*
X12477824Y-10906912D02*
X12477824Y-10735484D01*
X12611158Y-10935484D02*
X12592110Y-10925960D01*
X12592110Y-10925960D02*
X12582586Y-10906912D01*
X12582586Y-10906912D02*
X12582586Y-10735484D01*
X12839729Y-10935484D02*
X12839729Y-10735484D01*
X12839729Y-10735484D02*
X12906396Y-10878341D01*
X12906396Y-10878341D02*
X12973062Y-10735484D01*
X12973062Y-10735484D02*
X12973062Y-10935484D01*
X13154015Y-10935484D02*
X13154015Y-10830722D01*
X13154015Y-10830722D02*
X13144491Y-10811674D01*
X13144491Y-10811674D02*
X13125443Y-10802150D01*
X13125443Y-10802150D02*
X13087348Y-10802150D01*
X13087348Y-10802150D02*
X13068301Y-10811674D01*
X13154015Y-10925960D02*
X13134967Y-10935484D01*
X13134967Y-10935484D02*
X13087348Y-10935484D01*
X13087348Y-10935484D02*
X13068301Y-10925960D01*
X13068301Y-10925960D02*
X13058777Y-10906912D01*
X13058777Y-10906912D02*
X13058777Y-10887865D01*
X13058777Y-10887865D02*
X13068301Y-10868817D01*
X13068301Y-10868817D02*
X13087348Y-10859293D01*
X13087348Y-10859293D02*
X13134967Y-10859293D01*
X13134967Y-10859293D02*
X13154015Y-10849770D01*
X13249253Y-10802150D02*
X13249253Y-11002150D01*
X13249253Y-10811674D02*
X13268301Y-10802150D01*
X13268301Y-10802150D02*
X13306396Y-10802150D01*
X13306396Y-10802150D02*
X13325443Y-10811674D01*
X13325443Y-10811674D02*
X13334967Y-10821198D01*
X13334967Y-10821198D02*
X13344491Y-10840246D01*
X13344491Y-10840246D02*
X13344491Y-10897389D01*
X13344491Y-10897389D02*
X13334967Y-10916436D01*
X13334967Y-10916436D02*
X13325443Y-10925960D01*
X13325443Y-10925960D02*
X13306396Y-10935484D01*
X13306396Y-10935484D02*
X13268301Y-10935484D01*
X13268301Y-10935484D02*
X13249253Y-10925960D01*
X13430205Y-10916436D02*
X13439729Y-10925960D01*
X13439729Y-10925960D02*
X13430205Y-10935484D01*
X13430205Y-10935484D02*
X13420682Y-10925960D01*
X13420682Y-10925960D02*
X13430205Y-10916436D01*
X13430205Y-10916436D02*
X13430205Y-10935484D01*
X13430205Y-10811674D02*
X13439729Y-10821198D01*
X13439729Y-10821198D02*
X13430205Y-10830722D01*
X13430205Y-10830722D02*
X13420682Y-10821198D01*
X13420682Y-10821198D02*
X13430205Y-10811674D01*
X13430205Y-10811674D02*
X13430205Y-10830722D01*
D12*
X11733000Y-11231500D02*
X11798000Y-11296500D01*
X11798000Y-11231500D02*
X11733000Y-11296500D01*
D11*
X12096872Y-11155484D02*
X12115920Y-11155484D01*
X12115920Y-11155484D02*
X12134967Y-11165008D01*
X12134967Y-11165008D02*
X12144491Y-11174531D01*
X12144491Y-11174531D02*
X12154015Y-11193579D01*
X12154015Y-11193579D02*
X12163539Y-11231674D01*
X12163539Y-11231674D02*
X12163539Y-11279293D01*
X12163539Y-11279293D02*
X12154015Y-11317388D01*
X12154015Y-11317388D02*
X12144491Y-11336436D01*
X12144491Y-11336436D02*
X12134967Y-11345960D01*
X12134967Y-11345960D02*
X12115920Y-11355484D01*
X12115920Y-11355484D02*
X12096872Y-11355484D01*
X12096872Y-11355484D02*
X12077824Y-11345960D01*
X12077824Y-11345960D02*
X12068301Y-11336436D01*
X12068301Y-11336436D02*
X12058777Y-11317388D01*
X12058777Y-11317388D02*
X12049253Y-11279293D01*
X12049253Y-11279293D02*
X12049253Y-11231674D01*
X12049253Y-11231674D02*
X12058777Y-11193579D01*
X12058777Y-11193579D02*
X12068301Y-11174531D01*
X12068301Y-11174531D02*
X12077824Y-11165008D01*
X12077824Y-11165008D02*
X12096872Y-11155484D01*
X12249253Y-11336436D02*
X12258777Y-11345960D01*
X12258777Y-11345960D02*
X12249253Y-11355484D01*
X12249253Y-11355484D02*
X12239729Y-11345960D01*
X12239729Y-11345960D02*
X12249253Y-11336436D01*
X12249253Y-11336436D02*
X12249253Y-11355484D01*
X12430205Y-11155484D02*
X12392110Y-11155484D01*
X12392110Y-11155484D02*
X12373062Y-11165008D01*
X12373062Y-11165008D02*
X12363539Y-11174531D01*
X12363539Y-11174531D02*
X12344491Y-11203103D01*
X12344491Y-11203103D02*
X12334967Y-11241198D01*
X12334967Y-11241198D02*
X12334967Y-11317388D01*
X12334967Y-11317388D02*
X12344491Y-11336436D01*
X12344491Y-11336436D02*
X12354015Y-11345960D01*
X12354015Y-11345960D02*
X12373062Y-11355484D01*
X12373062Y-11355484D02*
X12411158Y-11355484D01*
X12411158Y-11355484D02*
X12430205Y-11345960D01*
X12430205Y-11345960D02*
X12439729Y-11336436D01*
X12439729Y-11336436D02*
X12449253Y-11317388D01*
X12449253Y-11317388D02*
X12449253Y-11269769D01*
X12449253Y-11269769D02*
X12439729Y-11250722D01*
X12439729Y-11250722D02*
X12430205Y-11241198D01*
X12430205Y-11241198D02*
X12411158Y-11231674D01*
X12411158Y-11231674D02*
X12373062Y-11231674D01*
X12373062Y-11231674D02*
X12354015Y-11241198D01*
X12354015Y-11241198D02*
X12344491Y-11250722D01*
X12344491Y-11250722D02*
X12334967Y-11269769D01*
X12630205Y-11155484D02*
X12534967Y-11155484D01*
X12534967Y-11155484D02*
X12525443Y-11250722D01*
X12525443Y-11250722D02*
X12534967Y-11241198D01*
X12534967Y-11241198D02*
X12554015Y-11231674D01*
X12554015Y-11231674D02*
X12601634Y-11231674D01*
X12601634Y-11231674D02*
X12620682Y-11241198D01*
X12620682Y-11241198D02*
X12630205Y-11250722D01*
X12630205Y-11250722D02*
X12639729Y-11269769D01*
X12639729Y-11269769D02*
X12639729Y-11317388D01*
X12639729Y-11317388D02*
X12630205Y-11336436D01*
X12630205Y-11336436D02*
X12620682Y-11345960D01*
X12620682Y-11345960D02*
X12601634Y-11355484D01*
X12601634Y-11355484D02*
X12554015Y-11355484D01*
X12554015Y-11355484D02*
X12534967Y-11345960D01*
X12534967Y-11345960D02*
X12525443Y-11336436D01*
X12763539Y-11155484D02*
X12782586Y-11155484D01*
X12782586Y-11155484D02*
X12801634Y-11165008D01*
X12801634Y-11165008D02*
X12811158Y-11174531D01*
X12811158Y-11174531D02*
X12820682Y-11193579D01*
X12820682Y-11193579D02*
X12830205Y-11231674D01*
X12830205Y-11231674D02*
X12830205Y-11279293D01*
X12830205Y-11279293D02*
X12820682Y-11317388D01*
X12820682Y-11317388D02*
X12811158Y-11336436D01*
X12811158Y-11336436D02*
X12801634Y-11345960D01*
X12801634Y-11345960D02*
X12782586Y-11355484D01*
X12782586Y-11355484D02*
X12763539Y-11355484D01*
X12763539Y-11355484D02*
X12744491Y-11345960D01*
X12744491Y-11345960D02*
X12734967Y-11336436D01*
X12734967Y-11336436D02*
X12725443Y-11317388D01*
X12725443Y-11317388D02*
X12715920Y-11279293D01*
X12715920Y-11279293D02*
X12715920Y-11231674D01*
X12715920Y-11231674D02*
X12725443Y-11193579D01*
X12725443Y-11193579D02*
X12734967Y-11174531D01*
X12734967Y-11174531D02*
X12744491Y-11165008D01*
X12744491Y-11165008D02*
X12763539Y-11155484D01*
X12915920Y-11355484D02*
X12915920Y-11222150D01*
X12915920Y-11241198D02*
X12925443Y-11231674D01*
X12925443Y-11231674D02*
X12944491Y-11222150D01*
X12944491Y-11222150D02*
X12973063Y-11222150D01*
X12973063Y-11222150D02*
X12992110Y-11231674D01*
X12992110Y-11231674D02*
X13001634Y-11250722D01*
X13001634Y-11250722D02*
X13001634Y-11355484D01*
X13001634Y-11250722D02*
X13011158Y-11231674D01*
X13011158Y-11231674D02*
X13030205Y-11222150D01*
X13030205Y-11222150D02*
X13058777Y-11222150D01*
X13058777Y-11222150D02*
X13077824Y-11231674D01*
X13077824Y-11231674D02*
X13087348Y-11250722D01*
X13087348Y-11250722D02*
X13087348Y-11355484D01*
X13182586Y-11355484D02*
X13182586Y-11222150D01*
X13182586Y-11241198D02*
X13192110Y-11231674D01*
X13192110Y-11231674D02*
X13211158Y-11222150D01*
X13211158Y-11222150D02*
X13239729Y-11222150D01*
X13239729Y-11222150D02*
X13258777Y-11231674D01*
X13258777Y-11231674D02*
X13268301Y-11250722D01*
X13268301Y-11250722D02*
X13268301Y-11355484D01*
X13268301Y-11250722D02*
X13277824Y-11231674D01*
X13277824Y-11231674D02*
X13296872Y-11222150D01*
X13296872Y-11222150D02*
X13325443Y-11222150D01*
X13325443Y-11222150D02*
X13344491Y-11231674D01*
X13344491Y-11231674D02*
X13354015Y-11250722D01*
X13354015Y-11250722D02*
X13354015Y-11355484D01*
X13744491Y-11145960D02*
X13573063Y-11403103D01*
X14001634Y-11155484D02*
X14020682Y-11155484D01*
X14020682Y-11155484D02*
X14039729Y-11165008D01*
X14039729Y-11165008D02*
X14049253Y-11174531D01*
X14049253Y-11174531D02*
X14058777Y-11193579D01*
X14058777Y-11193579D02*
X14068301Y-11231674D01*
X14068301Y-11231674D02*
X14068301Y-11279293D01*
X14068301Y-11279293D02*
X14058777Y-11317388D01*
X14058777Y-11317388D02*
X14049253Y-11336436D01*
X14049253Y-11336436D02*
X14039729Y-11345960D01*
X14039729Y-11345960D02*
X14020682Y-11355484D01*
X14020682Y-11355484D02*
X14001634Y-11355484D01*
X14001634Y-11355484D02*
X13982586Y-11345960D01*
X13982586Y-11345960D02*
X13973063Y-11336436D01*
X13973063Y-11336436D02*
X13963539Y-11317388D01*
X13963539Y-11317388D02*
X13954015Y-11279293D01*
X13954015Y-11279293D02*
X13954015Y-11231674D01*
X13954015Y-11231674D02*
X13963539Y-11193579D01*
X13963539Y-11193579D02*
X13973063Y-11174531D01*
X13973063Y-11174531D02*
X13982586Y-11165008D01*
X13982586Y-11165008D02*
X14001634Y-11155484D01*
X14154015Y-11336436D02*
X14163539Y-11345960D01*
X14163539Y-11345960D02*
X14154015Y-11355484D01*
X14154015Y-11355484D02*
X14144491Y-11345960D01*
X14144491Y-11345960D02*
X14154015Y-11336436D01*
X14154015Y-11336436D02*
X14154015Y-11355484D01*
X14287348Y-11155484D02*
X14306396Y-11155484D01*
X14306396Y-11155484D02*
X14325444Y-11165008D01*
X14325444Y-11165008D02*
X14334967Y-11174531D01*
X14334967Y-11174531D02*
X14344491Y-11193579D01*
X14344491Y-11193579D02*
X14354015Y-11231674D01*
X14354015Y-11231674D02*
X14354015Y-11279293D01*
X14354015Y-11279293D02*
X14344491Y-11317388D01*
X14344491Y-11317388D02*
X14334967Y-11336436D01*
X14334967Y-11336436D02*
X14325444Y-11345960D01*
X14325444Y-11345960D02*
X14306396Y-11355484D01*
X14306396Y-11355484D02*
X14287348Y-11355484D01*
X14287348Y-11355484D02*
X14268301Y-11345960D01*
X14268301Y-11345960D02*
X14258777Y-11336436D01*
X14258777Y-11336436D02*
X14249253Y-11317388D01*
X14249253Y-11317388D02*
X14239729Y-11279293D01*
X14239729Y-11279293D02*
X14239729Y-11231674D01*
X14239729Y-11231674D02*
X14249253Y-11193579D01*
X14249253Y-11193579D02*
X14258777Y-11174531D01*
X14258777Y-11174531D02*
X14268301Y-11165008D01*
X14268301Y-11165008D02*
X14287348Y-11155484D01*
X14430206Y-11174531D02*
X14439729Y-11165008D01*
X14439729Y-11165008D02*
X14458777Y-11155484D01*
X14458777Y-11155484D02*
X14506396Y-11155484D01*
X14506396Y-11155484D02*
X14525444Y-11165008D01*
X14525444Y-11165008D02*
X14534967Y-11174531D01*
X14534967Y-11174531D02*
X14544491Y-11193579D01*
X14544491Y-11193579D02*
X14544491Y-11212627D01*
X14544491Y-11212627D02*
X14534967Y-11241198D01*
X14534967Y-11241198D02*
X14420682Y-11355484D01*
X14420682Y-11355484D02*
X14544491Y-11355484D01*
X14725444Y-11155484D02*
X14630206Y-11155484D01*
X14630206Y-11155484D02*
X14620682Y-11250722D01*
X14620682Y-11250722D02*
X14630206Y-11241198D01*
X14630206Y-11241198D02*
X14649253Y-11231674D01*
X14649253Y-11231674D02*
X14696872Y-11231674D01*
X14696872Y-11231674D02*
X14715920Y-11241198D01*
X14715920Y-11241198D02*
X14725444Y-11250722D01*
X14725444Y-11250722D02*
X14734967Y-11269769D01*
X14734967Y-11269769D02*
X14734967Y-11317388D01*
X14734967Y-11317388D02*
X14725444Y-11336436D01*
X14725444Y-11336436D02*
X14715920Y-11345960D01*
X14715920Y-11345960D02*
X14696872Y-11355484D01*
X14696872Y-11355484D02*
X14649253Y-11355484D01*
X14649253Y-11355484D02*
X14630206Y-11345960D01*
X14630206Y-11345960D02*
X14620682Y-11336436D01*
X14906396Y-11155484D02*
X14868301Y-11155484D01*
X14868301Y-11155484D02*
X14849253Y-11165008D01*
X14849253Y-11165008D02*
X14839729Y-11174531D01*
X14839729Y-11174531D02*
X14820682Y-11203103D01*
X14820682Y-11203103D02*
X14811158Y-11241198D01*
X14811158Y-11241198D02*
X14811158Y-11317388D01*
X14811158Y-11317388D02*
X14820682Y-11336436D01*
X14820682Y-11336436D02*
X14830206Y-11345960D01*
X14830206Y-11345960D02*
X14849253Y-11355484D01*
X14849253Y-11355484D02*
X14887348Y-11355484D01*
X14887348Y-11355484D02*
X14906396Y-11345960D01*
X14906396Y-11345960D02*
X14915920Y-11336436D01*
X14915920Y-11336436D02*
X14925444Y-11317388D01*
X14925444Y-11317388D02*
X14925444Y-11269769D01*
X14925444Y-11269769D02*
X14915920Y-11250722D01*
X14915920Y-11250722D02*
X14906396Y-11241198D01*
X14906396Y-11241198D02*
X14887348Y-11231674D01*
X14887348Y-11231674D02*
X14849253Y-11231674D01*
X14849253Y-11231674D02*
X14830206Y-11241198D01*
X14830206Y-11241198D02*
X14820682Y-11250722D01*
X14820682Y-11250722D02*
X14811158Y-11269769D01*
X15001634Y-11155484D02*
X15001634Y-11193579D01*
X15077825Y-11155484D02*
X15077825Y-11193579D01*
X15373063Y-11431674D02*
X15363539Y-11422150D01*
X15363539Y-11422150D02*
X15344491Y-11393579D01*
X15344491Y-11393579D02*
X15334968Y-11374531D01*
X15334968Y-11374531D02*
X15325444Y-11345960D01*
X15325444Y-11345960D02*
X15315920Y-11298341D01*
X15315920Y-11298341D02*
X15315920Y-11260246D01*
X15315920Y-11260246D02*
X15325444Y-11212627D01*
X15325444Y-11212627D02*
X15334968Y-11184055D01*
X15334968Y-11184055D02*
X15344491Y-11165008D01*
X15344491Y-11165008D02*
X15363539Y-11136436D01*
X15363539Y-11136436D02*
X15373063Y-11126912D01*
X15439729Y-11174531D02*
X15449253Y-11165008D01*
X15449253Y-11165008D02*
X15468301Y-11155484D01*
X15468301Y-11155484D02*
X15515920Y-11155484D01*
X15515920Y-11155484D02*
X15534968Y-11165008D01*
X15534968Y-11165008D02*
X15544491Y-11174531D01*
X15544491Y-11174531D02*
X15554015Y-11193579D01*
X15554015Y-11193579D02*
X15554015Y-11212627D01*
X15554015Y-11212627D02*
X15544491Y-11241198D01*
X15544491Y-11241198D02*
X15430206Y-11355484D01*
X15430206Y-11355484D02*
X15554015Y-11355484D01*
X15792110Y-11355484D02*
X15792110Y-11155484D01*
X15877825Y-11355484D02*
X15877825Y-11250722D01*
X15877825Y-11250722D02*
X15868301Y-11231674D01*
X15868301Y-11231674D02*
X15849253Y-11222150D01*
X15849253Y-11222150D02*
X15820682Y-11222150D01*
X15820682Y-11222150D02*
X15801634Y-11231674D01*
X15801634Y-11231674D02*
X15792110Y-11241198D01*
X16001634Y-11355484D02*
X15982587Y-11345960D01*
X15982587Y-11345960D02*
X15973063Y-11336436D01*
X15973063Y-11336436D02*
X15963539Y-11317388D01*
X15963539Y-11317388D02*
X15963539Y-11260246D01*
X15963539Y-11260246D02*
X15973063Y-11241198D01*
X15973063Y-11241198D02*
X15982587Y-11231674D01*
X15982587Y-11231674D02*
X16001634Y-11222150D01*
X16001634Y-11222150D02*
X16030206Y-11222150D01*
X16030206Y-11222150D02*
X16049253Y-11231674D01*
X16049253Y-11231674D02*
X16058777Y-11241198D01*
X16058777Y-11241198D02*
X16068301Y-11260246D01*
X16068301Y-11260246D02*
X16068301Y-11317388D01*
X16068301Y-11317388D02*
X16058777Y-11336436D01*
X16058777Y-11336436D02*
X16049253Y-11345960D01*
X16049253Y-11345960D02*
X16030206Y-11355484D01*
X16030206Y-11355484D02*
X16001634Y-11355484D01*
X16182587Y-11355484D02*
X16163539Y-11345960D01*
X16163539Y-11345960D02*
X16154015Y-11326912D01*
X16154015Y-11326912D02*
X16154015Y-11155484D01*
X16334968Y-11345960D02*
X16315920Y-11355484D01*
X16315920Y-11355484D02*
X16277825Y-11355484D01*
X16277825Y-11355484D02*
X16258777Y-11345960D01*
X16258777Y-11345960D02*
X16249253Y-11326912D01*
X16249253Y-11326912D02*
X16249253Y-11250722D01*
X16249253Y-11250722D02*
X16258777Y-11231674D01*
X16258777Y-11231674D02*
X16277825Y-11222150D01*
X16277825Y-11222150D02*
X16315920Y-11222150D01*
X16315920Y-11222150D02*
X16334968Y-11231674D01*
X16334968Y-11231674D02*
X16344491Y-11250722D01*
X16344491Y-11250722D02*
X16344491Y-11269769D01*
X16344491Y-11269769D02*
X16249253Y-11288817D01*
X16420682Y-11345960D02*
X16439730Y-11355484D01*
X16439730Y-11355484D02*
X16477825Y-11355484D01*
X16477825Y-11355484D02*
X16496872Y-11345960D01*
X16496872Y-11345960D02*
X16506396Y-11326912D01*
X16506396Y-11326912D02*
X16506396Y-11317388D01*
X16506396Y-11317388D02*
X16496872Y-11298341D01*
X16496872Y-11298341D02*
X16477825Y-11288817D01*
X16477825Y-11288817D02*
X16449253Y-11288817D01*
X16449253Y-11288817D02*
X16430206Y-11279293D01*
X16430206Y-11279293D02*
X16420682Y-11260246D01*
X16420682Y-11260246D02*
X16420682Y-11250722D01*
X16420682Y-11250722D02*
X16430206Y-11231674D01*
X16430206Y-11231674D02*
X16449253Y-11222150D01*
X16449253Y-11222150D02*
X16477825Y-11222150D01*
X16477825Y-11222150D02*
X16496872Y-11231674D01*
X16573063Y-11431674D02*
X16582587Y-11422150D01*
X16582587Y-11422150D02*
X16601634Y-11393579D01*
X16601634Y-11393579D02*
X16611158Y-11374531D01*
X16611158Y-11374531D02*
X16620682Y-11345960D01*
X16620682Y-11345960D02*
X16630206Y-11298341D01*
X16630206Y-11298341D02*
X16630206Y-11260246D01*
X16630206Y-11260246D02*
X16620682Y-11212627D01*
X16620682Y-11212627D02*
X16611158Y-11184055D01*
X16611158Y-11184055D02*
X16601634Y-11165008D01*
X16601634Y-11165008D02*
X16582587Y-11136436D01*
X16582587Y-11136436D02*
X16573063Y-11126912D01*
X16934968Y-11431674D02*
X16925444Y-11422150D01*
X16925444Y-11422150D02*
X16906396Y-11393579D01*
X16906396Y-11393579D02*
X16896873Y-11374531D01*
X16896873Y-11374531D02*
X16887349Y-11345960D01*
X16887349Y-11345960D02*
X16877825Y-11298341D01*
X16877825Y-11298341D02*
X16877825Y-11260246D01*
X16877825Y-11260246D02*
X16887349Y-11212627D01*
X16887349Y-11212627D02*
X16896873Y-11184055D01*
X16896873Y-11184055D02*
X16906396Y-11165008D01*
X16906396Y-11165008D02*
X16925444Y-11136436D01*
X16925444Y-11136436D02*
X16934968Y-11126912D01*
X17011158Y-11222150D02*
X17011158Y-11355484D01*
X17011158Y-11241198D02*
X17020682Y-11231674D01*
X17020682Y-11231674D02*
X17039730Y-11222150D01*
X17039730Y-11222150D02*
X17068301Y-11222150D01*
X17068301Y-11222150D02*
X17087349Y-11231674D01*
X17087349Y-11231674D02*
X17096873Y-11250722D01*
X17096873Y-11250722D02*
X17096873Y-11355484D01*
X17220682Y-11355484D02*
X17201634Y-11345960D01*
X17201634Y-11345960D02*
X17192111Y-11336436D01*
X17192111Y-11336436D02*
X17182587Y-11317388D01*
X17182587Y-11317388D02*
X17182587Y-11260246D01*
X17182587Y-11260246D02*
X17192111Y-11241198D01*
X17192111Y-11241198D02*
X17201634Y-11231674D01*
X17201634Y-11231674D02*
X17220682Y-11222150D01*
X17220682Y-11222150D02*
X17249254Y-11222150D01*
X17249254Y-11222150D02*
X17268301Y-11231674D01*
X17268301Y-11231674D02*
X17277825Y-11241198D01*
X17277825Y-11241198D02*
X17287349Y-11260246D01*
X17287349Y-11260246D02*
X17287349Y-11317388D01*
X17287349Y-11317388D02*
X17277825Y-11336436D01*
X17277825Y-11336436D02*
X17268301Y-11345960D01*
X17268301Y-11345960D02*
X17249254Y-11355484D01*
X17249254Y-11355484D02*
X17220682Y-11355484D01*
X17344492Y-11222150D02*
X17420682Y-11222150D01*
X17373063Y-11155484D02*
X17373063Y-11326912D01*
X17373063Y-11326912D02*
X17382587Y-11345960D01*
X17382587Y-11345960D02*
X17401634Y-11355484D01*
X17401634Y-11355484D02*
X17420682Y-11355484D01*
X17639730Y-11222150D02*
X17639730Y-11422150D01*
X17639730Y-11231674D02*
X17658777Y-11222150D01*
X17658777Y-11222150D02*
X17696873Y-11222150D01*
X17696873Y-11222150D02*
X17715920Y-11231674D01*
X17715920Y-11231674D02*
X17725444Y-11241198D01*
X17725444Y-11241198D02*
X17734968Y-11260246D01*
X17734968Y-11260246D02*
X17734968Y-11317388D01*
X17734968Y-11317388D02*
X17725444Y-11336436D01*
X17725444Y-11336436D02*
X17715920Y-11345960D01*
X17715920Y-11345960D02*
X17696873Y-11355484D01*
X17696873Y-11355484D02*
X17658777Y-11355484D01*
X17658777Y-11355484D02*
X17639730Y-11345960D01*
X17849254Y-11355484D02*
X17830206Y-11345960D01*
X17830206Y-11345960D02*
X17820682Y-11326912D01*
X17820682Y-11326912D02*
X17820682Y-11155484D01*
X18011158Y-11355484D02*
X18011158Y-11250722D01*
X18011158Y-11250722D02*
X18001635Y-11231674D01*
X18001635Y-11231674D02*
X17982587Y-11222150D01*
X17982587Y-11222150D02*
X17944492Y-11222150D01*
X17944492Y-11222150D02*
X17925444Y-11231674D01*
X18011158Y-11345960D02*
X17992111Y-11355484D01*
X17992111Y-11355484D02*
X17944492Y-11355484D01*
X17944492Y-11355484D02*
X17925444Y-11345960D01*
X17925444Y-11345960D02*
X17915920Y-11326912D01*
X17915920Y-11326912D02*
X17915920Y-11307865D01*
X17915920Y-11307865D02*
X17925444Y-11288817D01*
X17925444Y-11288817D02*
X17944492Y-11279293D01*
X17944492Y-11279293D02*
X17992111Y-11279293D01*
X17992111Y-11279293D02*
X18011158Y-11269769D01*
X18077825Y-11222150D02*
X18154015Y-11222150D01*
X18106396Y-11155484D02*
X18106396Y-11326912D01*
X18106396Y-11326912D02*
X18115920Y-11345960D01*
X18115920Y-11345960D02*
X18134968Y-11355484D01*
X18134968Y-11355484D02*
X18154015Y-11355484D01*
X18296873Y-11345960D02*
X18277825Y-11355484D01*
X18277825Y-11355484D02*
X18239730Y-11355484D01*
X18239730Y-11355484D02*
X18220682Y-11345960D01*
X18220682Y-11345960D02*
X18211158Y-11326912D01*
X18211158Y-11326912D02*
X18211158Y-11250722D01*
X18211158Y-11250722D02*
X18220682Y-11231674D01*
X18220682Y-11231674D02*
X18239730Y-11222150D01*
X18239730Y-11222150D02*
X18277825Y-11222150D01*
X18277825Y-11222150D02*
X18296873Y-11231674D01*
X18296873Y-11231674D02*
X18306396Y-11250722D01*
X18306396Y-11250722D02*
X18306396Y-11269769D01*
X18306396Y-11269769D02*
X18211158Y-11288817D01*
X18477825Y-11355484D02*
X18477825Y-11155484D01*
X18477825Y-11345960D02*
X18458777Y-11355484D01*
X18458777Y-11355484D02*
X18420682Y-11355484D01*
X18420682Y-11355484D02*
X18401635Y-11345960D01*
X18401635Y-11345960D02*
X18392111Y-11336436D01*
X18392111Y-11336436D02*
X18382587Y-11317388D01*
X18382587Y-11317388D02*
X18382587Y-11260246D01*
X18382587Y-11260246D02*
X18392111Y-11241198D01*
X18392111Y-11241198D02*
X18401635Y-11231674D01*
X18401635Y-11231674D02*
X18420682Y-11222150D01*
X18420682Y-11222150D02*
X18458777Y-11222150D01*
X18458777Y-11222150D02*
X18477825Y-11231674D01*
X18554016Y-11431674D02*
X18563539Y-11422150D01*
X18563539Y-11422150D02*
X18582587Y-11393579D01*
X18582587Y-11393579D02*
X18592111Y-11374531D01*
X18592111Y-11374531D02*
X18601635Y-11345960D01*
X18601635Y-11345960D02*
X18611158Y-11298341D01*
X18611158Y-11298341D02*
X18611158Y-11260246D01*
X18611158Y-11260246D02*
X18601635Y-11212627D01*
X18601635Y-11212627D02*
X18592111Y-11184055D01*
X18592111Y-11184055D02*
X18582587Y-11165008D01*
X18582587Y-11165008D02*
X18563539Y-11136436D01*
X18563539Y-11136436D02*
X18554016Y-11126912D01*
M02*
